<?xml version="1.0" encoding="UTF-8" standalone="no"?>
<!-- Generator: Adobe Illustrator 17.1.0, SVG Export Plug-In . SVG Version: 6.00 Build 0)  -->

<svg
   xmlns:dc="http://purl.org/dc/elements/1.1/"
   xmlns:cc="http://creativecommons.org/ns#"
   xmlns:rdf="http://www.w3.org/1999/02/22-rdf-syntax-ns#"
   xmlns:svg="http://www.w3.org/2000/svg"
   xmlns="http://www.w3.org/2000/svg"
   xmlns:sodipodi="http://sodipodi.sourceforge.net/DTD/sodipodi-0.dtd"
   xmlns:inkscape="http://www.inkscape.org/namespaces/inkscape"
   height="1.600000024cm"
   width="2.5cm"
   sodipodi:docname="kurodako_logo.svg"
   inkscape:version="0.91 r13725"
   xml:space="preserve"
   enable-background="new 0 0 31.5 20"
   viewBox="0 0 0 100"
   y="0px"
   x="0px"
   id="Layer_1"
   version="1.1"
   inkscape:export-filename="/Users/scheibler/Documents/eagle/CompactSix/kurodako_logo.png"
   inkscape:export-xdpi="300.0375061"
   inkscape:export-ydpi="300.0375061"><sodipodi:namedview
     inkscape:current-layer="Layer_1"
     inkscape:window-maximized="0"
     inkscape:window-y="29"
     inkscape:window-x="321"
     inkscape:cy="50"
     inkscape:cx="74.79623514"
     inkscape:zoom="7.57"
     showgrid="false"
     id="namedview31"
     inkscape:window-height="1266"
     inkscape:window-width="1633"
     inkscape:pageshadow="2"
     inkscape:pageopacity="0"
     guidetolerance="10"
     gridtolerance="10"
     objecttolerance="10"
     borderopacity="1"
     bordercolor="#666666"
     pagecolor="#ffffff"
     units="cm" /><metadata
     id="metadata35"><rdf:RDF><cc:Work
         rdf:about=""><dc:format>image/svg+xml</dc:format><dc:type
           rdf:resource="http://purl.org/dc/dcmitype/StillImage" /><dc:title></dc:title></cc:Work></rdf:RDF></metadata><defs
     id="defs33" /><path
     d="m 74.17201544,40.6285118 -2.1604439,0.26513486 -0.34784176,4.07160692 -0.40145582,4.06720823 -0.33092434,4.07243968 1.89067782,0.26513485 0.26976608,-3.45022654 1.08022192,0 2.69997593,-0.26629265 0,-0.79656237 0,-0.79540458 -2.69997593,0 -1.08022192,0 0.26976603,-1.85825959 1.34998793,0 2.43136769,-0.26629266 0,-0.79656237 0,-0.79540458 -2.16044383,0 -1.08022198,0 0.26976608,-3.7165192 0,0"
     id="path4207"
     inkscape:connector-curvature="0" /><path
     d="m 76.06269326,39.83194943 0,0.79656237 0,1.06169723 4.31972996,0 0.16937374,4.91564418 0.37131608,4.90592354 -1.08022192,0.26629265 0.26976609,1.32683209 2.70113371,-0.26513486 -0.10182565,-4.34511618 -0.28187028,-4.33687787 -0.42675997,-4.32582315 -2.97032088,0 -2.97032088,0 0,0"
     id="path4205"
     inkscape:connector-curvature="0" /><path
     d="m 67.09905104,38.30597675 0,2.02498196 1.13116486,0.0312605 0,0.91234178 2.14655031,0 -0.2558725,-2.77060138 -3.02184267,-0.1979828 0,0"
     id="path4203"
     inkscape:connector-curvature="0" /><path
     d="m 63.91048593,35.31886786 0,2.91995683 -1.62091179,-0.26513485 0,0.79656237 0,0.79540457 1.34998793,0.26629265 0,1.06169723 0,2.12339446 -2.43020986,0 0,-4.77821643 -0.81045589,0 -0.80929812,0 -0.2709238,4.24794671 0.2709238,2.12339446 4.04996387,0.26513486 0,2.91995683 -2.96974195,0.53142751 0.26976608,1.59312474 3.2574163,-0.0809786 3.22391528,-0.45044893 0.26976602,0.79656237 1.61975402,-0.26513486 -0.80929812,-3.71651919 -1.62091181,0.26513485 0.26976603,1.06169723 -1.34998795,0 0.27092386,-2.65482197 4.04996388,-0.26513486 0.26976603,-2.38968711 -0.0138933,-0.94591781 -2.14655032,0 0,2.00761504 -2.15928606,0 0,-2.38852932 0,-0.79656237 1.0281212,0.23387442 0,-2.02498196 -1.0281212,-0.0671521 0,-2.91995683 -1.08022198,0 -1.08022192,0 0,0"
     id="path4201"
     inkscape:connector-curvature="0" /><path
     d="m 70.93134962,35.053733 -0.54068988,1.59196695 3.24066582,1.06169723 0.81045591,-1.59196694 -3.51043185,-1.06169724 0,0"
     id="path4199"
     inkscape:connector-curvature="0" /><path
     d="m 77.54698538,32.5644756 -0.40407021,0.0995703 -0.81045589,0 -0.26976602,3.18509169 0.26976602,3.18624948 0.81045589,0.26513486 0.80929812,-0.26513486 0.27092386,-3.18624948 -0.27092386,-3.18509169 -0.40522791,-0.0995703 0,0"
     id="path4664"
     inkscape:connector-curvature="0" /><path
     d="m 82.81379092,34.78744036 -2.70113371,1.59312474 0.81045583,1.59312474 2.699976,-1.59312474 -0.80929812,-1.59312474 0,0"
     id="path25"
     inkscape:connector-curvature="0" /><path
     d="m 75.25223736,24.69957999 -1.6209118,0.5314275 0.81045591,2.65482198 1.89067781,-0.53142751 -1.08022192,-2.65482197 0,0"
     id="path4191"
     inkscape:connector-curvature="0" /><path
     d="m 80.11265721,24.43444512 -1.61975403,0.53142752 1.08022192,2.65482197 1.61975403,-0.53142751 -1.08022192,-2.65482198 0,0"
     id="path4189"
     inkscape:connector-curvature="0" /><path
     d="m 63.63956207,23.63788275 -1.61975395,3.98281186 1.89067781,0.53026972 1.61975403,-3.98165406 -1.89067789,-0.53142752 0,0"
     id="path4672"
     inkscape:connector-curvature="0" /><path
     d="m 68.2302159,24.43444512 -0.26976603,2.91995684 1.08022192,0.26629265 1.08022192,0 0.26976603,-2.92111462 -1.08022192,-0.26513487 -1.08022192,0 0,0"
     id="path4187"
     inkscape:connector-curvature="0" /><path
     d="m 76.80831269,5.32157941 -4.97060058,-0.326628959 -4.95748422,-0.46993341 0,0.795404579 0,1.06285502 3.51043185,0.26513485 0,3.18509169 -3.78019786,-0.26513486 -0.26976602,1.59312474 3.78019785,0.26513486 0,2.12339446 -2.97032087,-0.13256743 -2.97032088,-0.13256742 -0.2852292,-3.84825369 -0.25546069,-3.84991957 -0.80929806,-0.26629265 -1.08022198,0.26629265 0.20921147,3.04967669 0.0605546,3.05537183 0.53953203,3.18624949 5.13134365,0.53026971 2.43020991,0 0,1.59312474 -5.40110966,0 0,0.79656237 0,1.32683209 5.40110966,0.26629265 0,1.59196695 -3.91569906,-0.13766381 -3.91562051,-0.12747105 -0.26976602,0.79656237 0,0.79656237 5.84307203,0.43719491 5.85280419,0.26757269 5.85744076,0.0917948 0,-1.06285503 0,-0.79540456 -3.78077678,-0.26571376 -3.78077678,-0.26571376 0,-1.59312474 4.59065383,0 0.269766,-1.59196695 -4.86041983,-0.26629266 0,-1.59196693 4.79674115,0 0,-1.32798989 -4.79674115,0 0,-2.12339447 3.51043185,0 0.26976601,-1.59312474 -3.51043183,-0.26513486 0,-3.18624948 4.52697512,0.19450942 0,-2.05161122 0,0"
     id="path4185"
     inkscape:connector-curvature="0" /><path
     d="m 76.80831269,5.32157941 0,2.05161122 1.68459049,0.0717832 0,5.0433513 -0.26976603,1.8582596 -1.41482446,0 0,1.32798989 3.30434452,0 0.26976601,-3.45138436 -0.0139994,-3.32637365 -0.25576663,-3.31010237 -3.30434451,-0.26513486 0,0"
     id="path29"
     inkscape:connector-curvature="0" /><path
     d="m 38.21556053,3.190080391 -0.0324182,-0.006947 -2.33642859,2.335270789 2.33642859,2.33642858 0.0324182,-0.006947 0,-1.19252799 -0.0324182,0.0138936 -1.15084737,-1.15084738 1.15084737,-1.149689579 0.0324182,0.0138936 0,-1.19252797 0,0"
     id="path4134"
     inkscape:connector-curvature="0" /><path
     d="m 38.21556053,3.190080391 0,1.19252797 1.11842913,1.135796049 -1.11842913,1.13695385 0,1.19252797 2.30401034,-2.32948182 -2.30401034,-2.328324019 0,0"
     id="path4"
     inkscape:connector-curvature="0" /><path
     d="m 43.55067594,10.33714364 -0.0984125,-0.0405228 -1.67764371,1.67764371 1.67764371,1.67764371 0.0984125,-0.0405228 0,-1.2434709 -0.0984125,0.0984125 -0.49206251,-0.4920625 0.49206251,-0.49206252 0.0984125,0.0984125 0,-1.24347091 0,0"
     id="path4139"
     inkscape:connector-curvature="0" /><path
     d="m 43.55067594,10.33714364 0,1.24347091 0.3948078,0.39365001 -0.3948078,0.39365001 0,1.2434709 1.580389,-1.63712091 -1.580389,-1.63712092 0,0"
     id="path6"
     inkscape:connector-curvature="0" /><path
     d="m 9.69909078,16.23957818 -0.0358916,-0.0150513 -1.67764372,1.67764371 1.67764372,1.67764371 0.0358916,-0.0150513 0,-1.20642151 -0.0358916,0.0358916 -0.49206251,-0.49206251 0.49206251,-0.49206251 0.0358916,0.0358916 0,-1.20642149 0,0"
     id="path4166"
     inkscape:connector-curvature="0" /><path
     d="m 9.69909078,16.23957818 0,1.20642149 0.45732869,0.45617091 -0.45732869,0.45617088 0,1.20642151 1.6429099,-1.66259239 -1.6429099,-1.6625924 0,0"
     id="path8"
     inkscape:connector-curvature="0" /><circle
     id="circle10"
     r="0.8636959195"
     cy="16.50471306"
     cx="40.26706696" /><circle
     id="circle12"
     r="0.8636959195"
     cy="4.056112289"
     cx="32.5607872" /><circle
     id="circle14"
     r="0.8636959195"
     cy="20.6542511"
     cx="5.292423248" /><path
     d="m 31.4238179,53.16732975 -3.55674361,0 -0.5927906,0.5927906 0.5927906,0.5927906 3.55674361,0 0.59279059,-0.5927906 -0.59279059,-0.5927906 0,0"
     id="path16"
     inkscape:connector-curvature="0" /><path
     d="m 29.64544608,51.38895794 -0.59279059,-0.5927906 -5.92790601,0 -5.92790602,0 -0.5927906,0.5927906 0.5927906,0.59279061 5.92790602,0 5.92790601,0 0.59279059,-0.59279061 0,0"
     id="path18"
     inkscape:connector-curvature="0" /><path
     d="m 34.3877709,50.79616734 -2.37116241,0 -0.59279059,0.5927906 0.59279059,0.59279061 2.37116241,0 0.5927906,-0.59279061 -0.5927906,-0.5927906 0,0"
     id="path20"
     inkscape:connector-curvature="0" /><path
     d="m 19.72095688,42.66854508 -0.63794457,0.42722605 0.56500355,0.51521839 0.63794457,-0.42606825 -0.56500355,-0.51637619 0,0"
     id="path4156"
     inkscape:connector-curvature="0" /><path
     d="m 22.31441576,42.4670889 -0.55111001,0.74677722 0.85445208,0.35081163 0.55111001,-0.74098825 -0.85445208,-0.3566006 0,0"
     id="path4154"
     inkscape:connector-curvature="0" /><path
     d="m 8.66633841,38.13578102 -0.37975648,0.24776794 0.36470516,0.85329428 0.91234178,-0.14819765 -0.36470516,-0.85329428 -0.5325853,-0.0995703 0,0"
     id="path4152"
     inkscape:connector-curvature="0" /><path
     d="m 6.23612851,36.7545326 -0.348496045,0.16440677 0.166722355,0.74677722 0.76530193,0 -0.16672235,-0.74677722 -0.41680589,-0.16440677 0,0"
     id="path4150"
     inkscape:connector-curvature="0" /><path
     d="m 5.361993929,34.92174448 -0.351969419,0.64026015 0.534900888,0.49090472 0.350811628,-0.6333134 -0.533743097,-0.49785147 0,0"
     id="path4148"
     inkscape:connector-curvature="0" /><path
     d="m 2.946835345,31.64287146 1.177476643,0 1.65911901,-2.56682961 0,-1.40556209 -2.836595653,3.9723917 0,0"
     id="path4161"
     inkscape:connector-curvature="0" /><path
     d="m 46.81681321,38.70194235 0,-1.23652414 -1.33262106,-0.0717832 -1.09527325,-0.28944854 0,1.25041768 0.43069941,0.13083073 1.9971949,0.21650751 z"
     id="path4650"
     inkscape:connector-curvature="0" /><path
     d="m 26.300701,11.44052145 0,0.60089516 0,0.60089517 2.08518725,0.96444252 1.91846489,1.2666268 1.71121975,1.53523502 1.28167812,1.89067784 0.64604913,1.19947474 1.02233222,0.90539502 0.5545834,0.45964427 0.1783003,0.67846737 0.3554428,2.16044387 0.75719737,2.06203137 1.0269634,1.94046298 1.3256743,1.75058474 1.8188946,1.43682254 2.2322271,0.5731081 2.40242284,-0.43880398 2.02150858,-1.36156591 1.32451651,-2.05161122 0.49206251,-2.39084492 -0.22808545,-1.65448783 -0.76530194,-1.47734532 -1.31641193,-1.01191207 -1.63017415,-0.33112914 -1.35114577,0.47006443 -0.74561943,1.22494621 -0.0312605,0.17714249 -0.0150513,0.1783003 -0.008105,0 -0.008105,0 -0.0995703,-0.76414413 0.31955117,-0.72362134 2.13960358,-1.4842921 2.60156345,0.23387444 1.69385283,1.2237884 1.15779415,1.7390068 0.51984956,2.02498196 -0.11346382,2.08981842 -0.28134397,1.0663284 -0.40522797,1.02580562 -2.02382415,0.55921457 -1.45997842,1.50976356 -0.31028883,1.02464782 0.12967294,1.06169723 -1.70427297,0.86371443 -1.83394593,0.53837428 -1.90225577,0.17945808 -1.8987824,-0.20608735 -0.44227735,0.045154 -0.31028884,0.31723559 -0.0416806,0.44806634 0.25124133,0.3751253 1.70774636,1.0883265 1.83278812,0.86487222 1.5062902,0.4550131 0,-1.25041767 -0.72709473,-0.19219383 -1.72627107,-0.75719737 1.55723311,-0.118095 1.52481489,-0.34039148 1.46113622,-0.55111001 1.37314385,-0.74561943 0.29986869,0.27323941 0.33691809,0.22461207 0.77224869,0.19914059 0.78382664,-0.14009309 0.51521839,-0.40754354 0.2975531,-0.58815943 0,-0.003473 0,-0.002315 -0.0219981,-0.38438766 -0.25934589,-0.28597515 0.0382072,0 0.0370494,0 0.5545834,0.36123177 0.24197897,0.63562899 -0.60899971,1.78879195 -1.63596312,1.03275238 -1.8385771,0.39133441 -0.54763663,-0.0289448 0,1.23652415 0.0138936,0.001158 1.41482444,-0.12041059 1.37082827,-0.37165192 2.25422519,-1.53291945 0.7502506,-2.57493417 -0.60552633,-1.344199 -1.29788723,-0.65994266 -0.42722603,0.15051324 -0.19798281,0.40754354 0.0694676,0.31144662 0.22345426,0.22808544 -0.40870133,0.0764144 -0.2558725,0.32649795 -0.0613631,0.14588206 -0.10999045,0.10883265 -0.26513485,0.0439962 -0.26976604,-0.0439962 -0.43185722,-0.36007398 -0.26050368,-0.49900927 -0.0497852,-0.56384575 0.17135353,-0.53953207 1.67764371,-1.34072562 2.1349724,0.23271662 0,-0.0208403 0,-0.0208403 1.51323694,1.27357356 0.91002621,1.75753151 0.17366911,1.97056563 -0.59742177,1.88604666 -1.30714959,1.80731666 -1.71585092,1.42408679 -2.01919298,0.94591782 -2.19170432,0.40638574 -2.22412254,-0.1586178 -2.11297432,-0.71320119 -0.98296723,-1.22147282 -1.4044043,-0.69930766 -0.44922411,0.0648365 -0.26976604,0.36702074 0.0683099,0.44690854 0.36354734,0.27092383 1.35693475,0.88223914 0.52563854,1.53060386 -0.34618045,1.73784901 -0.9864406,1.47155635 -1.47155637,0.98644061 -1.73669121,0.34502266 -2.06203136,-0.28481736 -1.91383372,-0.82203385 -1.6417521,-1.28283591 -1.27241576,-1.64985665 -0.82087605,-1.91499151 -0.30218427,-2.06087358 0.90539502,-2.4290521 0.30797325,-2.57377639 -0.17366913,-0.41912148 -0.41912149,-0.17366912 -0.41912147,0.17366912 -0.17366913,0.41912148 -0.33344471,2.54367373 -0.98528281,2.36884682 -1.56417989,2.03424431 -2.03424431,1.56417989 -2.36884681,0.98412501 -2.54367374,0.33344472 -2.16623283,-0.43069942 -1.83510372,-1.22841959 -1.22726179,-1.83510371 -0.43069942,-2.16623284 0.92623531,-2.2333849 2.2322271,-0.92623532 0.39828119,0.0497852 0.37512531,0.14588206 -0.41912149,0.1377775 -0.38091427,0.22345427 -0.7710909,1.147374 -0.0891501,1.38935297 0.5754237,1.26199561 1.07443295,0.88455473 0.80814032,0.30449986 0.85792546,0.0984125 1.1670565,-0.16209118 1.10222002,-0.42491045 0.29871089,-0.34154927 -0.0301027,-0.45269751 -0.34618047,-0.29060633 -0.44806632,0.0231559 -1.41482444,0.43996177 -1.44724268,-0.24429456 -0.65646929,-0.52332295 -0.36933632,-0.7502506 0.0243137,-0.76645973 0.38554544,-0.65068031 0.59626398,-0.16324897 0.60668413,0.16324897 0.34618046,0.0277871 0.30913103,-0.1586178 0.15514442,-0.2952375 -0.0208403,-0.33228692 -0.52911192,-0.92739311 -0.83476959,-0.66225825 1.70890415,-0.76761751 1.65680343,-0.87181899 1.5792312,-1.0084387 1.37777504,-1.25852224 0.31955118,-0.59742177 0.0138936,-0.67036281 -1.41482446,-1.45071606 -2.01687738,-0.57079251 -1.35346136,-0.32070898 -1.30946518,-0.46195986 -2.01108842,-1.59775592 -1.36040812,-2.19054652 -0.6518381,-2.49620417 0.16672236,-2.5714608 0.36470515,-1.09527325 0.53490089,-1.02349003 0,-0.95865355 0,-0.95981136 -1.27588914,1.77026727 -0.77919546,2.0354021 -0.24082119,1.97982799 0.19566722,1.98561695 0.61131531,1.89994018 0.98528281,1.73553343 1.32104312,1.49587003 1.65217224,1.11148238 1.42524459,0.50711383 1.47155636,0.35196942 1.40903547,0.34733824 1.13463826,0.81392928 -1.67648592,1.58038901 -2.03192873,1.16705649 -2.12223665,0.99222959 -2.19286211,0.83129619 -2.25885637,0.62405105 -2.32369285,0.27671279 -2.452208,-0.52563854 -1.26662679,-2.04119107 0.39828119,-1.65101445 1.29904503,-1.04548811 0.59857957,0.006947 0.53605869,0.25934589 0.0497852,0.0671521 0.0347339,0.0752566 -0.0822034,-0.0694676 -0.10188589,-0.0370494 -0.48627354,-0.0312605 -0.46195986,0.16093338 -0.29986868,0.26860824 -0.20377177,0.34849604 -0.0752566,0.23503221 -0.0254714,0.24545236 0.56384575,1.23073517 1.27704693,0.48164237 1.85825961,-0.79077341 0.79887795,-1.85247062 -0.29176412,-1.53060386 -0.85329428,-1.30251841 -1.31293856,-0.83592737 -1.53639283,-0.26166148 -1.78994974,0.24545236 -1.659119007,0.72014796 0,0.70278105 0,0.70278104 1.619754007,-0.89844826 1.83047254,-0.28713294 2.00993063,0.75256619 0.79772016,1.99256372 -0.45038192,1.01770105 -1.02001664,0.43996177 -0.4341728,-0.13430412 -0.21998089,-0.38670324 0.29060633,0.10420147 0.31144662,0.0138935 0.69120311,-0.29060633 0.40175456,-0.62752442 -0.0208403,-0.69583429 -0.35428502,-0.59742177 -1.02349002,-0.56500355 -1.17516105,-0.045154 -2.01224622,1.4414537 -0.66225825,2.42326314 0.42143707,1.66027681 1.17168767,1.25273325 1.59312474,0.6541537 1.71816651,0.17945809 1.10800899,-0.0683098 1.09758885,-0.17482692 -0.58121266,1.17863443 -0.20029839,1.29904504 0.033576,0.67962516 0.10072809,0.6726784 -1.73669122,0.0590475 -1.72163988,-0.22461206 -1.63943651,-0.57195031 -1.44955827,-0.95170678 -1.043172523,-1.13463826 -0.751408399,-1.34651459 -0.439961774,-1.47850312 -0.140093092,-1.53639283 0.07294103,-0.62520884 0.147039857,-0.61363089 -0.588159425,0 -0.589317219,0 -0.144724268,0.61478869 -0.08336118,0.62405104 0.166722357,1.78994975 0.519849569,1.72163989 0.882239137,1.56533768 1.219157234,1.31988532 1.336094446,0.92739311 1.49239665,0.64373355 1.58502018,0.36586294 1.62322739,0.11346382 0.81624487,-0.0301026 0.81161369,-0.0764144 1.02233223,1.76332048 1.49355444,1.38587959 1.83510373,0.88687032 2.0145618,0.30334206 2.52167564,-0.29292192 2.38621372,-0.86834561 2.12223668,-1.39282635 1.75174254,-1.8385771 0.64257575,2.02266637 1.08022193,1.82584136 1.45650503,1.54449738 1.76216269,1.18326562 1.98561695,0.74909281 2.10486974,0.2570303 2.19054653,-0.4353306 1.8571018,-1.24347091 1.24347091,-1.8571018 0.43533061,-2.19054652 -0.006947,-0.0926235 -0.008105,-0.0914657 1.70427298,0.46543323 1.7598471,0.15630222 2.64440182,-0.35775839 2.45452359,-1.04664591 2.08981842,-1.65911901 1.57923122,-2.1523393 0.73635706,-2.32716624 -0.21303412,-2.43368328 -1.12306031,-2.16739063 -1.86752196,-1.57228446 -0.35196941,-0.16788014 -0.36702074,-0.13430412 0.36702074,-1.01075429 0.26281927,-1.04085694 0.12851514,-2.47883726 -0.6321556,-2.39894946 -1.39051077,-2.05161122 -2.01224621,-1.44608489 -1.69385285,-0.45732867 -1.74942694,0.15051322 -1.59544032,0.72941032 -1.21799945,1.26083782 -0.52216515,1.38819518 0.33807588,1.42177121 0.92160414,0.67267839 1.147374,0.0266293 0.23155883,-0.10999043 0.16209118,-0.1991406 0.0405228,-0.38670325 -0.21534972,-0.32418235 -0.0428384,-0.039365 -0.0497852,-0.0312604 -0.0243137,-0.31376221 0.0972547,-0.30334207 0.34849603,-0.39480781 0.50711384,-0.13893529 2.10602755,1.00264972 0.64836471,2.2935902 -0.39828118,1.93583181 -1.07327516,1.66143459 -1.63827872,1.10337782 -1.94509417,0.3554428 -1.7575315,-0.48280016 -1.42756019,-1.15316296 -1.17863442,-1.55607533 -0.91928856,-1.72511327 -0.69351869,-1.82815696 -0.35660059,-1.91499151 -0.27671281,-1.27473135 -0.94939118,-0.91234178 -0.75488178,-0.63794458 -0.47469562,-0.86255663 -1.4414537,-2.23338491 -1.97982799,-1.79458092 -2.24843622,-1.44724268 -2.45452359,-1.05706606 z"
     id="path4736"
     inkscape:connector-curvature="0" /><path
     d="m 27.37744955,21.68005287 -0.78614222,0.0984125 -0.75951295,0.22576986 -0.32997133,0.31144661 -0.0138936,0.45385531 0.31492001,0.32418236 0.44922413,0.0196825 0.56384575,-0.17482691 0.58584383,-0.0752566 0.77803767,1.03391015 1.12190252,0.58468606 0.2581881,-0.033576 0.2373478,-0.10304368 0.42838382,-0.57773927 -0.10420147,-0.72014796 -1.16937208,-1.06864399 -1.57460004,-0.29871089 z"
     id="path4734"
     inkscape:connector-curvature="0" /><path
     d="m 50.53449021,23.18055408 -0.17251134,0.0625209 -0.17019572,0.34965382 0.12041058,0.37975649 0.30681545,0.25124133 0.38554544,-0.0266293 0.17019574,-0.34965383 -0.12041059,-0.37859869 -0.14588206,-0.16093339 -0.18987823,-0.10535926 -0.18408927,-0.0219981 z"
     id="path4732"
     inkscape:connector-curvature="0" /><path
     d="m 50.91308888,25.46603971 -0.37859867,0.15051324 -0.16556457,0.38901883 0.0659943,0.41217471 0.32418235,0.24545236 0.37859869,-0.15051324 0.16556457,-0.38901883 -0.0659943,-0.41101692 -0.32418237,-0.24661015 z"
     id="path4730"
     inkscape:connector-curvature="0" /><path
     d="m 50.59932667,27.77236564 -0.48164235,0.0984125 -0.28481737,0.41680589 -0.0138936,0.50364046 0.32765575,0.36817854 0.48048456,-0.10304369 0.28597515,-0.4133325 0.0150513,-0.50479825 -0.32881354,-0.36586295 z"
     id="path4728"
     inkscape:connector-curvature="0" /><path
     d="m 28.83742797,30.50707541 -0.23155883,0.009262 -0.20956074,0.0972547 -0.15746,0.17019573 -1.25504886,1.65333004 -1.49239665,1.44029591 -0.22113868,0.39480781 0.12388398,0.43533059 0.20724516,0.16672236 0.25818809,0.0590475 0.19103602,-0.0382072 0.17598471,-0.0868346 1.64754108,-1.58270459 1.37545944,-1.82584136 0.0706254,-0.44575075 -0.26629265,-0.36586295 -0.2165075,-0.0810456 z"
     id="path4726"
     inkscape:connector-curvature="0" /><path
     d="m 26.19765733,30.6865335 -0.2188231,0.0717832 -0.17598471,0.14935544 -0.46311765,0.54184766 -0.52332297,0.48395795 -0.25239911,0.37859868 0.0891501,0.44575075 0.21303412,0.19450942 0.2801862,0.0717832 0.16903794,-0.0347338 0.15977558,-0.0659943 0.67036281,-0.59973736 0.58931723,-0.68078296 0.12272618,-0.43880398 -0.22229649,-0.39712339 -0.20608735,-0.10420147 -0.23155882,-0.0162091 z"
     id="path4724"
     inkscape:connector-curvature="0" /><path
     d="m 53.44981586,32.29239398 -0.17366913,0.0625209 -0.17019574,0.34502265 0.1204106,0.37744089 0.30681543,0.25587251 0.38670327,-0.0301027 0.17019572,-0.34618045 -0.12041059,-0.37744089 -0.14588206,-0.16093339 -0.18987823,-0.10535926 -0.18408927,-0.0208403 z"
     id="path4722"
     inkscape:connector-curvature="0" /><path
     d="m 54.1931197,34.57787961 -0.3774409,0.15051324 -0.16672236,0.38901883 0.0659943,0.41101693 0.32418236,0.24661015 0.37859869,-0.15051324 0.16556457,-0.38901883 -0.0659943,-0.41101692 -0.32418236,-0.24661016 z"
     id="path4720"
     inkscape:connector-curvature="0" /><path
     d="m 22.45219326,36.15363744 -0.23040103,0.0173669 -0.20608735,0.10420148 -0.15051325,0.17598471 -1.17168767,1.35809252 -1.71816651,0.36007398 -0.45038191,0.033576 -0.29639531,0.34039148 0.0301027,0.45269751 0.34039147,0.29986868 0.39596559,0.0949391 0.40638576,0.0301026 2.06782034,-0.7108856 1.42987575,-1.67880151 0.0544164,-0.44922413 -0.28134399,-0.35660059 -0.21998088,-0.0717832 z"
     id="path4718"
     inkscape:connector-curvature="0" /><path
     d="m 53.51465232,36.88304775 -0.48164235,0.0995703 -0.28481736,0.41680589 -0.0138936,0.50132486 0.32765575,0.36354736 0.48164236,-0.0984125 0.28481735,-0.41680589 0.0138936,-0.50248265 -0.32765575,-0.36354737 z"
     id="path4716"
     inkscape:connector-curvature="0" /><path
     d="m 34.66229029,37.53835924 -0.21419191,0.0856768 -0.16556456,0.16093339 -0.70278104,1.64638327 -0.0173669,1.78994975 0.66457383,1.66259238 1.25041767,1.27936253 0.80235135,0.38786104 0.88108134,0.13314633 1.39861532,-0.34502266 1.07327518,-0.95865355 0.31260441,-0.72709472 0.006947,-0.7907734 -0.29407972,-0.73635707 -0.55574119,-0.56731913 -1.09064207,-0.22808545 -0.9320243,0.60668413 -0.0937813,0.44343516 0.24776796,0.38091427 0.44459295,0.0960969 0.37975648,-0.25008353 0.17251132,-0.11346383 0.20261398,0.0416806 0.35196942,0.54184766 -0.13198854,0.6321556 -0.50248265,0.4955359 -0.6529959,0.26397706 -0.70393883,-0.004631 -0.64604915,-0.28018619 -1.4206134,-2.18128416 0.5337431,-2.5494627 0.0926235,-0.44459296 -0.24776796,-0.37975647 -0.21303412,-0.0903079 -0.23040103,-0.001158 z"
     id="path4714"
     inkscape:connector-curvature="0" /><path
     d="m 30.98860948,37.89148645 -0.45153971,0.0231559 -0.31260442,0.32649795 -0.26629264,1.50397459 0.14240866,1.5224993 0.53953208,1.42987577 0.87992355,1.25157547 0.1991406,0.14935544 0.24429455,0.0521007 0.20840295,-0.0416806 0.18524707,-0.10651706 0.19798279,-0.40870134 -0.14935545,-0.42722603 -1.13695384,-2.1164477 0.0648365,-2.39431828 -0.0150513,-0.45269752 -0.32997135,-0.31144662 z"
     id="path4712"
     inkscape:connector-curvature="0" /><path
     d="m 17.16223183,42.3698342 -0.1759847,0.0578897 -0.13198854,0.12851515 -0.005789,0.38554545 0.26745044,0.29060633 0.38554545,0.10072809 0.33807589,-0.18987824 0.006947,-0.38554544 -0.26860825,-0.29060634 -0.20029839,-0.0833612 -0.2153497,-0.0138935 z"
     id="path4146"
     inkscape:connector-curvature="0" /><path
     d="m 15.96391489,13.79431695 0,1.9184649 3.63993363,-3.1109857 4.77144081,-0.57427307 1.92541167,0.6147887 0,-1.20179033 -1.75174254,-0.55111001 -4.65821154,0.38463044 -3.92683203,2.52027507 0,0"
     id="path22"
     inkscape:connector-curvature="0" /></svg>