  0
SECTION
  2
HEADER
  9
$ACADVER
  1
AC1012
  9
$DWGCODEPAGE
  3
undefined
  9
$INSBASE
 10
0.0
 20
0.0
 30
0.0
  9
$EXTMIN
 10
1.000000000000000E+20
 20
1.000000000000000E+20
 30
1.000000000000000E+20
  9
$EXTMAX
 10
-1.000000000000000E+20
 20
-1.000000000000000E+20
 30
-1.000000000000000E+20
  9
$LIMMIN
 10
0.0
 20
0.0
  9
$LIMMAX
 10
12.0
 20
9.0
  9
$ORTHOMODE
 70
     0
  9
$REGENMODE
 70
     1
  9
$FILLMODE
 70
     1
  9
$QTEXTMODE
 70
     0
  9
$MIRRTEXT
 70
     1
  9
$DRAGMODE
 70
     2
  9
$LTSCALE
 40
1.0
  9
$OSMODE
 70
    37
  9
$ATTMODE
 70
     1
  9
$TEXTSIZE
 40
0.2
  9
$TRACEWID
 40
0.05
  9
$TEXTSTYLE
  7
STANDARD
  9
$CLAYER
  8
0
  9
$CELTYPE
  6
BYLAYER
  9
$CECOLOR
 62
   256
  9
$CELTSCALE
 40
1.0
  9
$DELOBJ
 70
     1
  9
$DISPSILH
 70
     0
  9
$DIMSCALE
 40
1.0
  9
$DIMASZ
 40
0.18
  9
$DIMEXO
 40
0.0625
  9
$DIMDLI
 40
0.38
  9
$DIMRND
 40
0.0
  9
$DIMDLE
 40
0.0
  9
$DIMEXE
 40
0.18
  9
$DIMTP
 40
0.0
  9
$DIMTM
 40
0.0
  9
$DIMTXT
 40
0.18
  9
$DIMCEN
 40
0.09
  9
$DIMTSZ
 40
0.0
  9
$DIMTOL
 70
     0
  9
$DIMLIM
 70
     0
  9
$DIMTIH
 70
     1
  9
$DIMTOH
 70
     1
  9
$DIMSE1
 70
     0
  9
$DIMSE2
 70
     0
  9
$DIMTAD
 70
     0
  9
$DIMZIN
 70
     0
  9
$DIMBLK
  1

  9
$DIMASO
 70
     1
  9
$DIMSHO
 70
     1
  9
$DIMPOST
  1

  9
$DIMAPOST
  1

  9
$DIMALT
 70
     0
  9
$DIMALTD
 70
     2
  9
$DIMALTF
 40
25.4
  9
$DIMLFAC
 40
1.0
  9
$DIMTOFL
 70
     0
  9
$DIMTVP
 40
0.0
  9
$DIMTIX
 70
     0
  9
$DIMSOXD
 70
     0
  9
$DIMSAH
 70
     0
  9
$DIMBLK1
  1

  9
$DIMBLK2
  1

  9
$DIMSTYLE
  2
STANDARD
  9
$DIMCLRD
 70
     0
  9
$DIMCLRE
 70
     0
  9
$DIMCLRT
 70
     0
  9
$DIMTFAC
 40
1.0
  9
$DIMGAP
 40
0.09
  9
$DIMJUST
 70
     0
  9
$DIMSD1
 70
     0
  9
$DIMSD2
 70
     0
  9
$DIMTOLJ
 70
     1
  9
$DIMTZIN
 70
     0
  9
$DIMALTZ
 70
     0
  9
$DIMALTTZ
 70
     0
  9
$DIMFIT
 70
     3
  9
$DIMUPT
 70
     0
  9
$DIMUNIT
 70
     2
  9
$DIMDEC
 70
     4
  9
$DIMTDEC
 70
     4
  9
$DIMALTU
 70
     2
  9
$DIMALTTD
 70
     2
  9
$DIMTXSTY
  7
STANDARD
  9
$DIMAUNIT
 70
     0
  9
$LUNITS
 70
     2
  9
$LUPREC
 70
     4
  9
$SKETCHINC
 40
0.1
  9
$FILLETRAD
 40
0.5
  9
$AUNITS
 70
     0
  9
$AUPREC
 70
     0
  9
$MENU
  1
.
  9
$ELEVATION
 40
0.0
  9
$PELEVATION
 40
0.0
  9
$THICKNESS
 40
0.0
  9
$LIMCHECK
 70
     0
  9
$CHAMFERA
 40
0.5
  9
$CHAMFERB
 40
0.5
  9
$CHAMFERC
 40
1.0
  9
$CHAMFERD
 40
0.0
  9
$SKPOLY
 70
     0
  9
$TDCREATE
 40
2458082.592824062
  9
$TDUPDATE
 40
2458082.592824062
  9
$TDINDWG
 40
0.0000000116
  9
$TDUSRTIMER
 40
0.0000000116
  9
$USRTIMER
 70
     1
  9
$ANGBASE
 50
0.0
  9
$ANGDIR
 70
     0
  9
$PDMODE
 70
     0
  9
$PDSIZE
 40
0.0
  9
$PLINEWID
 40
0.0
  9
$COORDS
 70
     1
  9
$SPLFRAME
 70
     0
  9
$SPLINETYPE
 70
     6
  9
$SPLINESEGS
 70
     8
  9
$ATTDIA
 70
     0
  9
$ATTREQ
 70
     1
  9
$HANDLING
 70
     1
  9
$HANDSEED
  5
4D
  9
$SURFTAB1
 70
     6
  9
$SURFTAB2
 70
     6
  9
$SURFTYPE
 70
     6
  9
$SURFU
 70
     6
  9
$SURFV
 70
     6
  9
$UCSNAME
  2

  9
$UCSORG
 10
0.0
 20
0.0
 30
0.0
  9
$UCSXDIR
 10
1.0
 20
0.0
 30
0.0
  9
$UCSYDIR
 10
0.0
 20
1.0
 30
0.0
  9
$PUCSNAME
  2

  9
$PUCSORG
 10
0.0
 20
0.0
 30
0.0
  9
$PUCSXDIR
 10
1.0
 20
0.0
 30
0.0
  9
$PUCSYDIR
 10
0.0
 20
1.0
 30
0.0
  9
$USERI1
 70
     0
  9
$USERI2
 70
     0
  9
$USERI3
 70
     0
  9
$USERI4
 70
     0
  9
$USERI5
 70
     0
  9
$USERR1
 40
0.0
  9
$USERR2
 40
0.0
  9
$USERR3
 40
0.0
  9
$USERR4
 40
0.0
  9
$USERR5
 40
0.0
  9
$WORLDVIEW
 70
     1
  9
$SHADEDGE
 70
     3
  9
$SHADEDIF
 70
    70
  9
$TILEMODE
 70
     1
  9
$MAXACTVP
 70
    64
  9
$PINSBASE
 10
0.0
 20
0.0
 30
0.0
  9
$PLIMCHECK
 70
     0
  9
$PEXTMIN
 10
1.000000000000000E+20
 20
1.000000000000000E+20
 30
1.000000000000000E+20
  9
$PEXTMAX
 10
-1.000000000000000E+20
 20
-1.000000000000000E+20
 30
-1.000000000000000E+20
  9
$PLIMMIN
 10
0.0
 20
0.0
  9
$PLIMMAX
 10
12.0
 20
9.0
  9
$UNITMODE
 70
     0
  9
$VISRETAIN
 70
     1
  9
$PLINEGEN
 70
     0
  9
$PSLTSCALE
 70
     1
  9
$TREEDEPTH
 70
  3020
  9
$PICKSTYLE
 70
     1
  9
$CMLSTYLE
  2
STANDARD
  9
$CMLJUST
 70
     0
  9
$CMLSCALE
 40
1.0
  9
$SAVEIMAGES
 70
     1
  0
ENDSEC
  0
SECTION
  2
CLASSES
  0
CLASS
  1
ACDBDICTIONARYWDFLT
  2
AcDbDictionaryWithDefault
  3
ObjectDBX Classes
 90
    32768
280
     0
281
     0
  0
CLASS
  1
VISUALSTYLE
  2
AcDbVisualStyle
  3
ObjectDBX Classes
 90
     4095
280
     0
281
     0
  0
CLASS
  1
MATERIAL
  2
AcDbMaterial
  3
ObjectDBX Classes
 90
     1153
280
     0
281
     0
  0
CLASS
  1
SUN
  2
AcDbSun
  3
SCENEOE
 90
     1024
280
     0
281
     0
  0
CLASS
  1
DICTIONARYVAR
  2
AcDbDictionaryVar
  3
ObjectDBX Classes
 90
        0
280
     0
281
     0
  0
CLASS
  1
XRECORD
  2
AcDbXrecord
  3
AutoCAD 2000
 90
    32768
280
     0
281
     0
  0
CLASS
  1
LWPOLYLINE
  2
AcDbPolyline
  3
AutoCAD 2000
 90
    32768
280
     0
281
     1
  0
CLASS
  1
HATCH
  2
AcDbHatch
  3
AutoCAD 2000
 90
    32768
280
     0
281
     1
  0
CLASS
  1
ACDBPLACEHOLDER
  2
AcDbPlaceHolder
  3
ObjectDBX Classes
 90
        0
280
     0
281
     0
  0
CLASS
  1
LAYOUT
  2
AcDbLayout
  3
ObjectDBX Classes
 90
        0
280
     0
281
     0
  0
ENDSEC
  0
SECTION
  2
TABLES
  0
TABLE
  2
VPORT
  5
8
330
0
100
AcDbSymbolTable
 70
     1
  0
VPORT
  5
29
330
8
100
AcDbSymbolTableRecord
100
AcDbViewportTableRecord
  2
*ACTIVE
 70
     0
 10
0.0
 20
0.0
 11
1.0
 21
1.0
 12
0.0
 22
0.0
 13
0.0
 23
0.0
 14
0.5
 24
0.5
 15
0.5
 25
0.5
 16
0.0
 26
0.0
 36
1.0
 17
49.9991944319445
 27
-39.99970832333349
 37
0.0
 40
79.99941664666697
 41
1.249988975614052
 42
50.0
 43
0.0
 44
0.0
 50
0.0
 51
0.0
 71
     0
 72
   100
 73
     1
 74
     3
 75
     0
 76
     0
 77
     0
 78
     0
  0
ENDTAB
  0
TABLE
  2
LTYPE
  5
5
330
0
100
AcDbSymbolTable
 70
     1
  0
LTYPE
  5
14
330
5
100
AcDbSymbolTableRecord
100
AcDbLinetypeTableRecord
  2
BYBLOCK
 70
     0
  3

 72
    65
 73
     0
 40
0.0
  0
LTYPE
  5
15
330
5
100
AcDbSymbolTableRecord
100
AcDbLinetypeTableRecord
  2
BYLAYER
 70
     0
  3

 72
    65
 73
     0
 40
0.0
  0
LTYPE
  5
16
330
5
100
AcDbSymbolTableRecord
100
AcDbLinetypeTableRecord
  2
CONTINUOUS
 70
     0
  3
Solid line
 72
    65
 73
     0
 40
0.0
  0
ENDTAB
  0
TABLE
  2
LAYER
  5
2
330
0
100
AcDbSymbolTable
 70
     2
  0
LAYER
  5
10
330
2
100
AcDbSymbolTableRecord
100
AcDbLayerTableRecord
  2
0
 70
     0
 62
     7
  6
CONTINUOUS
  0
LAYER
  5
40
330
2
100
AcDbSymbolTableRecord
100
AcDbLayerTableRecord
  2
LAYER_1
 70
     0
 62
     7
  6
CONTINUOUS
  0
ENDTAB
  0
TABLE
  2
STYLE
  5
3
330
0
100
AcDbSymbolTable
 70
     1
  0
STYLE
  5
11
330
3
100
AcDbSymbolTableRecord
100
AcDbTextStyleTableRecord
  2
STANDARD
 70
     0
 40
0.0
 41
1.0
 50
0.0
 71
     0
 42
0.2
  3
txt
  4

  0
ENDTAB
  0
TABLE
  2
VIEW
  5
6
330
0
100
AcDbSymbolTable
 70
     0
  0
ENDTAB
  0
TABLE
  2
UCS
  5
7
330
0
100
AcDbSymbolTable
 70
     0
  0
ENDTAB
  0
TABLE
  2
APPID
  5
9
330
0
100
AcDbSymbolTable
 70
     1
  0
APPID
  5
12
330
9
100
AcDbSymbolTableRecord
100
AcDbRegAppTableRecord
  2
ACAD
 70
     0
  0
ENDTAB
  0
TABLE
  2
DIMSTYLE
  5
A
330
0
100
AcDbSymbolTable
 70
     1
  0
DIMSTYLE
105
27
330
A
100
AcDbSymbolTableRecord
100
AcDbDimStyleTableRecord
  2
STANDARD
 70
     0
  3

  4

  5

  6

  7

 40
1.0
 41
0.18
 42
0.0625
 43
0.38
 44
0.18
 45
0.0
 46
0.0
 47
0.0
 48
0.0
140
0.18
141
0.09
142
0.0
143
25.4
144
1.0
145
0.0
146
1.0
147
0.09
 71
     0
 72
     0
 73
     1
 74
     1
 75
     0
 76
     0
 77
     0
 78
     0
170
     0
171
     2
172
     0
173
     0
174
     0
175
     0
176
     0
177
     0
178
     0
270
     2
271
     4
272
     4
273
     2
274
     2
340
11
275
     0
280
     0
281
     0
282
     0
283
     1
284
     0
285
     0
286
     0
287
     3
288
     0
  0
ENDTAB
  0
TABLE
  2
BLOCK_RECORD
  5
1
330
0
100
AcDbSymbolTable
 70
     1
  0
BLOCK_RECORD
  5
1F
330
1
100
AcDbSymbolTableRecord
100
AcDbBlockTableRecord
  2
*MODEL_SPACE
  0
BLOCK_RECORD
  5
1B
330
1
100
AcDbSymbolTableRecord
100
AcDbBlockTableRecord
  2
*PAPER_SPACE
  0
ENDTAB
  0
ENDSEC
  0
SECTION
  2
BLOCKS
  0
BLOCK
  5
20
330
1F
100
AcDbEntity
  8
0
100
AcDbBlockBegin
  2
*MODEL_SPACE
 70
     0
 10
0.0
 20
0.0
 30
0.0
  3
*MODEL_SPACE
  1

  0
ENDBLK
  5
21
330
1F
100
AcDbEntity
  8
0
100
AcDbBlockEnd
  0
BLOCK
  5
1C
330
1B
100
AcDbEntity
 67
     1
  8
0
100
AcDbBlockBegin
  2
*PAPER_SPACE
 70
     0
 10
0.0
 20
0.0
 30
0.0
  3
*PAPER_SPACE
  1

  0
ENDBLK
  5
1D
330
1B
100
AcDbEntity
 67
     1
  8
0
100
AcDbBlockEnd
  0
ENDSEC
  0
SECTION
  2
ENTITIES
  0
SPLINE
  5
41
330
1F
100
AcDbEntity
  8
LAYER_1
 62
   250
100
AcDbSpline
210
0.0
220
0.0
230
1.0
 70
    11
 71
     3
 72
  1589
 73
  1585
 74
     0
 42
0.0000000001
 43
0.0000000001
 12
1.0
 22
0.0
 32
0.0
 13
1.0
 23
0.0
 33
0.0
 40
0.0
 40
0.0
 40
0.0
 40
0.0
 40
1.0
 40
1.0
 40
1.0
 40
2.0
 40
2.0
 40
2.0
 40
3.0
 40
3.0
 40
3.0
 40
4.0
 40
4.0
 40
4.0
 40
5.0
 40
5.0
 40
5.0
 40
6.0
 40
6.0
 40
6.0
 40
7.0
 40
7.0
 40
7.0
 40
8.0
 40
8.0
 40
8.0
 40
9.0
 40
9.0
 40
9.0
 40
10.0
 40
10.0
 40
10.0
 40
11.0
 40
11.0
 40
11.0
 40
12.0
 40
12.0
 40
12.0
 40
13.0
 40
13.0
 40
13.0
 40
14.0
 40
14.0
 40
14.0
 40
15.0
 40
15.0
 40
15.0
 40
16.0
 40
16.0
 40
16.0
 40
17.0
 40
17.0
 40
17.0
 40
18.0
 40
18.0
 40
18.0
 40
19.0
 40
19.0
 40
19.0
 40
20.0
 40
20.0
 40
20.0
 40
21.0
 40
21.0
 40
21.0
 40
22.0
 40
22.0
 40
22.0
 40
23.0
 40
23.0
 40
23.0
 40
24.0
 40
24.0
 40
24.0
 40
25.0
 40
25.0
 40
25.0
 40
26.0
 40
26.0
 40
26.0
 40
27.0
 40
27.0
 40
27.0
 40
28.0
 40
28.0
 40
28.0
 40
29.0
 40
29.0
 40
29.0
 40
30.0
 40
30.0
 40
30.0
 40
31.0
 40
31.0
 40
31.0
 40
32.0
 40
32.0
 40
32.0
 40
33.0
 40
33.0
 40
33.0
 40
34.0
 40
34.0
 40
34.0
 40
35.0
 40
35.0
 40
35.0
 40
36.0
 40
36.0
 40
36.0
 40
37.0
 40
37.0
 40
37.0
 40
38.0
 40
38.0
 40
38.0
 40
39.0
 40
39.0
 40
39.0
 40
40.0
 40
40.0
 40
40.0
 40
41.0
 40
41.0
 40
41.0
 40
42.0
 40
42.0
 40
42.0
 40
43.0
 40
43.0
 40
43.0
 40
44.0
 40
44.0
 40
44.0
 40
45.0
 40
45.0
 40
45.0
 40
46.0
 40
46.0
 40
46.0
 40
47.0
 40
47.0
 40
47.0
 40
48.0
 40
48.0
 40
48.0
 40
49.0
 40
49.0
 40
49.0
 40
50.0
 40
50.0
 40
50.0
 40
51.0
 40
51.0
 40
51.0
 40
52.0
 40
52.0
 40
52.0
 40
53.0
 40
53.0
 40
53.0
 40
54.0
 40
54.0
 40
54.0
 40
55.0
 40
55.0
 40
55.0
 40
56.0
 40
56.0
 40
56.0
 40
57.0
 40
57.0
 40
57.0
 40
58.0
 40
58.0
 40
58.0
 40
59.0
 40
59.0
 40
59.0
 40
60.0
 40
60.0
 40
60.0
 40
61.0
 40
61.0
 40
61.0
 40
62.0
 40
62.0
 40
62.0
 40
63.0
 40
63.0
 40
63.0
 40
64.0
 40
64.0
 40
64.0
 40
65.0
 40
65.0
 40
65.0
 40
66.0
 40
66.0
 40
66.0
 40
67.0
 40
67.0
 40
67.0
 40
68.0
 40
68.0
 40
68.0
 40
69.0
 40
69.0
 40
69.0
 40
70.0
 40
70.0
 40
70.0
 40
71.0
 40
71.0
 40
71.0
 40
72.0
 40
72.0
 40
72.0
 40
73.0
 40
73.0
 40
73.0
 40
74.0
 40
74.0
 40
74.0
 40
75.0
 40
75.0
 40
75.0
 40
76.0
 40
76.0
 40
76.0
 40
77.0
 40
77.0
 40
77.0
 40
78.0
 40
78.0
 40
78.0
 40
79.0
 40
79.0
 40
79.0
 40
80.0
 40
80.0
 40
80.0
 40
81.0
 40
81.0
 40
81.0
 40
82.0
 40
82.0
 40
82.0
 40
83.0
 40
83.0
 40
83.0
 40
84.0
 40
84.0
 40
84.0
 40
85.0
 40
85.0
 40
85.0
 40
86.0
 40
86.0
 40
86.0
 40
87.0
 40
87.0
 40
87.0
 40
88.0
 40
88.0
 40
88.0
 40
89.0
 40
89.0
 40
89.0
 40
90.0
 40
90.0
 40
90.0
 40
91.0
 40
91.0
 40
91.0
 40
92.0
 40
92.0
 40
92.0
 40
93.0
 40
93.0
 40
93.0
 40
94.0
 40
94.0
 40
94.0
 40
95.0
 40
95.0
 40
95.0
 40
96.0
 40
96.0
 40
96.0
 40
97.0
 40
97.0
 40
97.0
 40
98.0
 40
98.0
 40
98.0
 40
99.0
 40
99.0
 40
99.0
 40
100.0
 40
100.0
 40
100.0
 40
101.0
 40
101.0
 40
101.0
 40
102.0
 40
102.0
 40
102.0
 40
103.0
 40
103.0
 40
103.0
 40
104.0
 40
104.0
 40
104.0
 40
105.0
 40
105.0
 40
105.0
 40
106.0
 40
106.0
 40
106.0
 40
107.0
 40
107.0
 40
107.0
 40
108.0
 40
108.0
 40
108.0
 40
109.0
 40
109.0
 40
109.0
 40
110.0
 40
110.0
 40
110.0
 40
111.0
 40
111.0
 40
111.0
 40
112.0
 40
112.0
 40
112.0
 40
113.0
 40
113.0
 40
113.0
 40
114.0
 40
114.0
 40
114.0
 40
115.0
 40
115.0
 40
115.0
 40
116.0
 40
116.0
 40
116.0
 40
117.0
 40
117.0
 40
117.0
 40
118.0
 40
118.0
 40
118.0
 40
119.0
 40
119.0
 40
119.0
 40
120.0
 40
120.0
 40
120.0
 40
121.0
 40
121.0
 40
121.0
 40
122.0
 40
122.0
 40
122.0
 40
123.0
 40
123.0
 40
123.0
 40
124.0
 40
124.0
 40
124.0
 40
125.0
 40
125.0
 40
125.0
 40
126.0
 40
126.0
 40
126.0
 40
127.0
 40
127.0
 40
127.0
 40
128.0
 40
128.0
 40
128.0
 40
129.0
 40
129.0
 40
129.0
 40
130.0
 40
130.0
 40
130.0
 40
131.0
 40
131.0
 40
131.0
 40
132.0
 40
132.0
 40
132.0
 40
133.0
 40
133.0
 40
133.0
 40
134.0
 40
134.0
 40
134.0
 40
135.0
 40
135.0
 40
135.0
 40
136.0
 40
136.0
 40
136.0
 40
137.0
 40
137.0
 40
137.0
 40
138.0
 40
138.0
 40
138.0
 40
139.0
 40
139.0
 40
139.0
 40
140.0
 40
140.0
 40
140.0
 40
141.0
 40
141.0
 40
141.0
 40
142.0
 40
142.0
 40
142.0
 40
143.0
 40
143.0
 40
143.0
 40
144.0
 40
144.0
 40
144.0
 40
145.0
 40
145.0
 40
145.0
 40
146.0
 40
146.0
 40
146.0
 40
147.0
 40
147.0
 40
147.0
 40
148.0
 40
148.0
 40
148.0
 40
149.0
 40
149.0
 40
149.0
 40
150.0
 40
150.0
 40
150.0
 40
151.0
 40
151.0
 40
151.0
 40
152.0
 40
152.0
 40
152.0
 40
153.0
 40
153.0
 40
153.0
 40
154.0
 40
154.0
 40
154.0
 40
155.0
 40
155.0
 40
155.0
 40
156.0
 40
156.0
 40
156.0
 40
157.0
 40
157.0
 40
157.0
 40
158.0
 40
158.0
 40
158.0
 40
159.0
 40
159.0
 40
159.0
 40
160.0
 40
160.0
 40
160.0
 40
161.0
 40
161.0
 40
161.0
 40
162.0
 40
162.0
 40
162.0
 40
163.0
 40
163.0
 40
163.0
 40
164.0
 40
164.0
 40
164.0
 40
165.0
 40
165.0
 40
165.0
 40
166.0
 40
166.0
 40
166.0
 40
167.0
 40
167.0
 40
167.0
 40
168.0
 40
168.0
 40
168.0
 40
169.0
 40
169.0
 40
169.0
 40
170.0
 40
170.0
 40
170.0
 40
171.0
 40
171.0
 40
171.0
 40
172.0
 40
172.0
 40
172.0
 40
173.0
 40
173.0
 40
173.0
 40
174.0
 40
174.0
 40
174.0
 40
175.0
 40
175.0
 40
175.0
 40
176.0
 40
176.0
 40
176.0
 40
177.0
 40
177.0
 40
177.0
 40
178.0
 40
178.0
 40
178.0
 40
179.0
 40
179.0
 40
179.0
 40
180.0
 40
180.0
 40
180.0
 40
181.0
 40
181.0
 40
181.0
 40
182.0
 40
182.0
 40
182.0
 40
183.0
 40
183.0
 40
183.0
 40
184.0
 40
184.0
 40
184.0
 40
185.0
 40
185.0
 40
185.0
 40
186.0
 40
186.0
 40
186.0
 40
187.0
 40
187.0
 40
187.0
 40
188.0
 40
188.0
 40
188.0
 40
189.0
 40
189.0
 40
189.0
 40
190.0
 40
190.0
 40
190.0
 40
191.0
 40
191.0
 40
191.0
 40
192.0
 40
192.0
 40
192.0
 40
193.0
 40
193.0
 40
193.0
 40
194.0
 40
194.0
 40
194.0
 40
195.0
 40
195.0
 40
195.0
 40
196.0
 40
196.0
 40
196.0
 40
197.0
 40
197.0
 40
197.0
 40
198.0
 40
198.0
 40
198.0
 40
199.0
 40
199.0
 40
199.0
 40
200.0
 40
200.0
 40
200.0
 40
201.0
 40
201.0
 40
201.0
 40
202.0
 40
202.0
 40
202.0
 40
203.0
 40
203.0
 40
203.0
 40
204.0
 40
204.0
 40
204.0
 40
205.0
 40
205.0
 40
205.0
 40
206.0
 40
206.0
 40
206.0
 40
207.0
 40
207.0
 40
207.0
 40
208.0
 40
208.0
 40
208.0
 40
209.0
 40
209.0
 40
209.0
 40
210.0
 40
210.0
 40
210.0
 40
211.0
 40
211.0
 40
211.0
 40
212.0
 40
212.0
 40
212.0
 40
213.0
 40
213.0
 40
213.0
 40
214.0
 40
214.0
 40
214.0
 40
215.0
 40
215.0
 40
215.0
 40
216.0
 40
216.0
 40
216.0
 40
217.0
 40
217.0
 40
217.0
 40
218.0
 40
218.0
 40
218.0
 40
219.0
 40
219.0
 40
219.0
 40
220.0
 40
220.0
 40
220.0
 40
221.0
 40
221.0
 40
221.0
 40
222.0
 40
222.0
 40
222.0
 40
223.0
 40
223.0
 40
223.0
 40
224.0
 40
224.0
 40
224.0
 40
225.0
 40
225.0
 40
225.0
 40
226.0
 40
226.0
 40
226.0
 40
227.0
 40
227.0
 40
227.0
 40
228.0
 40
228.0
 40
228.0
 40
229.0
 40
229.0
 40
229.0
 40
230.0
 40
230.0
 40
230.0
 40
231.0
 40
231.0
 40
231.0
 40
232.0
 40
232.0
 40
232.0
 40
233.0
 40
233.0
 40
233.0
 40
234.0
 40
234.0
 40
234.0
 40
235.0
 40
235.0
 40
235.0
 40
236.0
 40
236.0
 40
236.0
 40
237.0
 40
237.0
 40
237.0
 40
238.0
 40
238.0
 40
238.0
 40
239.0
 40
239.0
 40
239.0
 40
240.0
 40
240.0
 40
240.0
 40
241.0
 40
241.0
 40
241.0
 40
242.0
 40
242.0
 40
242.0
 40
243.0
 40
243.0
 40
243.0
 40
244.0
 40
244.0
 40
244.0
 40
245.0
 40
245.0
 40
245.0
 40
246.0
 40
246.0
 40
246.0
 40
247.0
 40
247.0
 40
247.0
 40
248.0
 40
248.0
 40
248.0
 40
249.0
 40
249.0
 40
249.0
 40
250.0
 40
250.0
 40
250.0
 40
251.0
 40
251.0
 40
251.0
 40
252.0
 40
252.0
 40
252.0
 40
253.0
 40
253.0
 40
253.0
 40
254.0
 40
254.0
 40
254.0
 40
255.0
 40
255.0
 40
255.0
 40
256.0
 40
256.0
 40
256.0
 40
257.0
 40
257.0
 40
257.0
 40
258.0
 40
258.0
 40
258.0
 40
259.0
 40
259.0
 40
259.0
 40
260.0
 40
260.0
 40
260.0
 40
261.0
 40
261.0
 40
261.0
 40
262.0
 40
262.0
 40
262.0
 40
263.0
 40
263.0
 40
263.0
 40
264.0
 40
264.0
 40
264.0
 40
265.0
 40
265.0
 40
265.0
 40
266.0
 40
266.0
 40
266.0
 40
267.0
 40
267.0
 40
267.0
 40
268.0
 40
268.0
 40
268.0
 40
269.0
 40
269.0
 40
269.0
 40
270.0
 40
270.0
 40
270.0
 40
271.0
 40
271.0
 40
271.0
 40
272.0
 40
272.0
 40
272.0
 40
273.0
 40
273.0
 40
273.0
 40
274.0
 40
274.0
 40
274.0
 40
275.0
 40
275.0
 40
275.0
 40
276.0
 40
276.0
 40
276.0
 40
277.0
 40
277.0
 40
277.0
 40
278.0
 40
278.0
 40
278.0
 40
279.0
 40
279.0
 40
279.0
 40
280.0
 40
280.0
 40
280.0
 40
281.0
 40
281.0
 40
281.0
 40
282.0
 40
282.0
 40
282.0
 40
283.0
 40
283.0
 40
283.0
 40
284.0
 40
284.0
 40
284.0
 40
285.0
 40
285.0
 40
285.0
 40
286.0
 40
286.0
 40
286.0
 40
287.0
 40
287.0
 40
287.0
 40
288.0
 40
288.0
 40
288.0
 40
289.0
 40
289.0
 40
289.0
 40
290.0
 40
290.0
 40
290.0
 40
291.0
 40
291.0
 40
291.0
 40
292.0
 40
292.0
 40
292.0
 40
293.0
 40
293.0
 40
293.0
 40
294.0
 40
294.0
 40
294.0
 40
295.0
 40
295.0
 40
295.0
 40
296.0
 40
296.0
 40
296.0
 40
297.0
 40
297.0
 40
297.0
 40
298.0
 40
298.0
 40
298.0
 40
299.0
 40
299.0
 40
299.0
 40
300.0
 40
300.0
 40
300.0
 40
301.0
 40
301.0
 40
301.0
 40
302.0
 40
302.0
 40
302.0
 40
303.0
 40
303.0
 40
303.0
 40
304.0
 40
304.0
 40
304.0
 40
305.0
 40
305.0
 40
305.0
 40
306.0
 40
306.0
 40
306.0
 40
307.0
 40
307.0
 40
307.0
 40
308.0
 40
308.0
 40
308.0
 40
309.0
 40
309.0
 40
309.0
 40
310.0
 40
310.0
 40
310.0
 40
311.0
 40
311.0
 40
311.0
 40
312.0
 40
312.0
 40
312.0
 40
313.0
 40
313.0
 40
313.0
 40
314.0
 40
314.0
 40
314.0
 40
315.0
 40
315.0
 40
315.0
 40
316.0
 40
316.0
 40
316.0
 40
317.0
 40
317.0
 40
317.0
 40
318.0
 40
318.0
 40
318.0
 40
319.0
 40
319.0
 40
319.0
 40
320.0
 40
320.0
 40
320.0
 40
321.0
 40
321.0
 40
321.0
 40
322.0
 40
322.0
 40
322.0
 40
323.0
 40
323.0
 40
323.0
 40
324.0
 40
324.0
 40
324.0
 40
325.0
 40
325.0
 40
325.0
 40
326.0
 40
326.0
 40
326.0
 40
327.0
 40
327.0
 40
327.0
 40
328.0
 40
328.0
 40
328.0
 40
329.0
 40
329.0
 40
329.0
 40
330.0
 40
330.0
 40
330.0
 40
331.0
 40
331.0
 40
331.0
 40
332.0
 40
332.0
 40
332.0
 40
333.0
 40
333.0
 40
333.0
 40
334.0
 40
334.0
 40
334.0
 40
335.0
 40
335.0
 40
335.0
 40
336.0
 40
336.0
 40
336.0
 40
337.0
 40
337.0
 40
337.0
 40
338.0
 40
338.0
 40
338.0
 40
339.0
 40
339.0
 40
339.0
 40
340.0
 40
340.0
 40
340.0
 40
341.0
 40
341.0
 40
341.0
 40
342.0
 40
342.0
 40
342.0
 40
343.0
 40
343.0
 40
343.0
 40
344.0
 40
344.0
 40
344.0
 40
345.0
 40
345.0
 40
345.0
 40
346.0
 40
346.0
 40
346.0
 40
347.0
 40
347.0
 40
347.0
 40
348.0
 40
348.0
 40
348.0
 40
349.0
 40
349.0
 40
349.0
 40
350.0
 40
350.0
 40
350.0
 40
351.0
 40
351.0
 40
351.0
 40
352.0
 40
352.0
 40
352.0
 40
353.0
 40
353.0
 40
353.0
 40
354.0
 40
354.0
 40
354.0
 40
355.0
 40
355.0
 40
355.0
 40
356.0
 40
356.0
 40
356.0
 40
357.0
 40
357.0
 40
357.0
 40
358.0
 40
358.0
 40
358.0
 40
359.0
 40
359.0
 40
359.0
 40
360.0
 40
360.0
 40
360.0
 40
361.0
 40
361.0
 40
361.0
 40
362.0
 40
362.0
 40
362.0
 40
363.0
 40
363.0
 40
363.0
 40
364.0
 40
364.0
 40
364.0
 40
365.0
 40
365.0
 40
365.0
 40
366.0
 40
366.0
 40
366.0
 40
367.0
 40
367.0
 40
367.0
 40
368.0
 40
368.0
 40
368.0
 40
369.0
 40
369.0
 40
369.0
 40
370.0
 40
370.0
 40
370.0
 40
371.0
 40
371.0
 40
371.0
 40
372.0
 40
372.0
 40
372.0
 40
373.0
 40
373.0
 40
373.0
 40
374.0
 40
374.0
 40
374.0
 40
375.0
 40
375.0
 40
375.0
 40
376.0
 40
376.0
 40
376.0
 40
377.0
 40
377.0
 40
377.0
 40
378.0
 40
378.0
 40
378.0
 40
379.0
 40
379.0
 40
379.0
 40
380.0
 40
380.0
 40
380.0
 40
381.0
 40
381.0
 40
381.0
 40
382.0
 40
382.0
 40
382.0
 40
383.0
 40
383.0
 40
383.0
 40
384.0
 40
384.0
 40
384.0
 40
385.0
 40
385.0
 40
385.0
 40
386.0
 40
386.0
 40
386.0
 40
387.0
 40
387.0
 40
387.0
 40
388.0
 40
388.0
 40
388.0
 40
389.0
 40
389.0
 40
389.0
 40
390.0
 40
390.0
 40
390.0
 40
391.0
 40
391.0
 40
391.0
 40
392.0
 40
392.0
 40
392.0
 40
393.0
 40
393.0
 40
393.0
 40
394.0
 40
394.0
 40
394.0
 40
395.0
 40
395.0
 40
395.0
 40
396.0
 40
396.0
 40
396.0
 40
397.0
 40
397.0
 40
397.0
 40
398.0
 40
398.0
 40
398.0
 40
399.0
 40
399.0
 40
399.0
 40
400.0
 40
400.0
 40
400.0
 40
401.0
 40
401.0
 40
401.0
 40
402.0
 40
402.0
 40
402.0
 40
403.0
 40
403.0
 40
403.0
 40
404.0
 40
404.0
 40
404.0
 40
405.0
 40
405.0
 40
405.0
 40
406.0
 40
406.0
 40
406.0
 40
407.0
 40
407.0
 40
407.0
 40
408.0
 40
408.0
 40
408.0
 40
409.0
 40
409.0
 40
409.0
 40
410.0
 40
410.0
 40
410.0
 40
411.0
 40
411.0
 40
411.0
 40
412.0
 40
412.0
 40
412.0
 40
413.0
 40
413.0
 40
413.0
 40
414.0
 40
414.0
 40
414.0
 40
415.0
 40
415.0
 40
415.0
 40
416.0
 40
416.0
 40
416.0
 40
417.0
 40
417.0
 40
417.0
 40
418.0
 40
418.0
 40
418.0
 40
419.0
 40
419.0
 40
419.0
 40
420.0
 40
420.0
 40
420.0
 40
421.0
 40
421.0
 40
421.0
 40
422.0
 40
422.0
 40
422.0
 40
423.0
 40
423.0
 40
423.0
 40
424.0
 40
424.0
 40
424.0
 40
425.0
 40
425.0
 40
425.0
 40
426.0
 40
426.0
 40
426.0
 40
427.0
 40
427.0
 40
427.0
 40
428.0
 40
428.0
 40
428.0
 40
429.0
 40
429.0
 40
429.0
 40
430.0
 40
430.0
 40
430.0
 40
431.0
 40
431.0
 40
431.0
 40
432.0
 40
432.0
 40
432.0
 40
433.0
 40
433.0
 40
433.0
 40
434.0
 40
434.0
 40
434.0
 40
435.0
 40
435.0
 40
435.0
 40
436.0
 40
436.0
 40
436.0
 40
437.0
 40
437.0
 40
437.0
 40
438.0
 40
438.0
 40
438.0
 40
439.0
 40
439.0
 40
439.0
 40
440.0
 40
440.0
 40
440.0
 40
441.0
 40
441.0
 40
441.0
 40
442.0
 40
442.0
 40
442.0
 40
443.0
 40
443.0
 40
443.0
 40
444.0
 40
444.0
 40
444.0
 40
445.0
 40
445.0
 40
445.0
 40
446.0
 40
446.0
 40
446.0
 40
447.0
 40
447.0
 40
447.0
 40
448.0
 40
448.0
 40
448.0
 40
449.0
 40
449.0
 40
449.0
 40
450.0
 40
450.0
 40
450.0
 40
451.0
 40
451.0
 40
451.0
 40
452.0
 40
452.0
 40
452.0
 40
453.0
 40
453.0
 40
453.0
 40
454.0
 40
454.0
 40
454.0
 40
455.0
 40
455.0
 40
455.0
 40
456.0
 40
456.0
 40
456.0
 40
457.0
 40
457.0
 40
457.0
 40
458.0
 40
458.0
 40
458.0
 40
459.0
 40
459.0
 40
459.0
 40
460.0
 40
460.0
 40
460.0
 40
461.0
 40
461.0
 40
461.0
 40
462.0
 40
462.0
 40
462.0
 40
463.0
 40
463.0
 40
463.0
 40
464.0
 40
464.0
 40
464.0
 40
465.0
 40
465.0
 40
465.0
 40
466.0
 40
466.0
 40
466.0
 40
467.0
 40
467.0
 40
467.0
 40
468.0
 40
468.0
 40
468.0
 40
469.0
 40
469.0
 40
469.0
 40
470.0
 40
470.0
 40
470.0
 40
471.0
 40
471.0
 40
471.0
 40
472.0
 40
472.0
 40
472.0
 40
473.0
 40
473.0
 40
473.0
 40
474.0
 40
474.0
 40
474.0
 40
475.0
 40
475.0
 40
475.0
 40
476.0
 40
476.0
 40
476.0
 40
477.0
 40
477.0
 40
477.0
 40
478.0
 40
478.0
 40
478.0
 40
479.0
 40
479.0
 40
479.0
 40
480.0
 40
480.0
 40
480.0
 40
481.0
 40
481.0
 40
481.0
 40
482.0
 40
482.0
 40
482.0
 40
483.0
 40
483.0
 40
483.0
 40
484.0
 40
484.0
 40
484.0
 40
485.0
 40
485.0
 40
485.0
 40
486.0
 40
486.0
 40
486.0
 40
487.0
 40
487.0
 40
487.0
 40
488.0
 40
488.0
 40
488.0
 40
489.0
 40
489.0
 40
489.0
 40
490.0
 40
490.0
 40
490.0
 40
491.0
 40
491.0
 40
491.0
 40
492.0
 40
492.0
 40
492.0
 40
493.0
 40
493.0
 40
493.0
 40
494.0
 40
494.0
 40
494.0
 40
495.0
 40
495.0
 40
495.0
 40
496.0
 40
496.0
 40
496.0
 40
497.0
 40
497.0
 40
497.0
 40
498.0
 40
498.0
 40
498.0
 40
499.0
 40
499.0
 40
499.0
 40
500.0
 40
500.0
 40
500.0
 40
501.0
 40
501.0
 40
501.0
 40
502.0
 40
502.0
 40
502.0
 40
503.0
 40
503.0
 40
503.0
 40
504.0
 40
504.0
 40
504.0
 40
505.0
 40
505.0
 40
505.0
 40
506.0
 40
506.0
 40
506.0
 40
507.0
 40
507.0
 40
507.0
 40
508.0
 40
508.0
 40
508.0
 40
509.0
 40
509.0
 40
509.0
 40
510.0
 40
510.0
 40
510.0
 40
511.0
 40
511.0
 40
511.0
 40
512.0
 40
512.0
 40
512.0
 40
513.0
 40
513.0
 40
513.0
 40
514.0
 40
514.0
 40
514.0
 40
515.0
 40
515.0
 40
515.0
 40
516.0
 40
516.0
 40
516.0
 40
517.0
 40
517.0
 40
517.0
 40
518.0
 40
518.0
 40
518.0
 40
519.0
 40
519.0
 40
519.0
 40
520.0
 40
520.0
 40
520.0
 40
521.0
 40
521.0
 40
521.0
 40
522.0
 40
522.0
 40
522.0
 40
523.0
 40
523.0
 40
523.0
 40
524.0
 40
524.0
 40
524.0
 40
525.0
 40
525.0
 40
525.0
 40
526.0
 40
526.0
 40
526.0
 40
527.0
 40
527.0
 40
527.0
 40
528.0
 40
528.0
 40
528.0
 40
528.0
 10
77.49918855213129
 20
-38.99998812230296
 30
0.0
 10
77.49918855213129
 20
-38.99998812230296
 30
0.0
 10
77.94590439437258
 20
-38.99998812230296
 30
0.0
 10
77.94590439437258
 20
-38.99998812230296
 30
0.0
 10
77.94590439437258
 20
-38.99998812230296
 30
0.0
 10
78.39262023661387
 20
-38.99998812230296
 30
0.0
 10
78.39262023661387
 20
-38.99998812230296
 30
0.0
 10
78.39262023661387
 20
-38.99998812230296
 30
0.0
 10
78.83933607885517
 20
-38.99998812230296
 30
0.0
 10
78.83933607885517
 20
-38.99998812230296
 30
0.0
 10
78.83933607885517
 20
-38.99998812230296
 30
0.0
 10
79.28605192109646
 20
-38.99998812230296
 30
0.0
 10
79.28605192109646
 20
-38.99998812230296
 30
0.0
 10
79.28605192109646
 20
-38.99998812230296
 30
0.0
 10
79.73276776333775
 20
-38.99998812230296
 30
0.0
 10
79.73276776333775
 20
-38.99998812230296
 30
0.0
 10
79.73276776333775
 20
-38.99998812230296
 30
0.0
 10
80.17948360557905
 20
-38.99998812230296
 30
0.0
 10
80.17948360557905
 20
-38.99998812230296
 30
0.0
 10
80.17948360557905
 20
-38.99998812230296
 30
0.0
 10
80.62619944782034
 20
-38.99998812230296
 30
0.0
 10
80.62619944782034
 20
-38.99998812230296
 30
0.0
 10
80.62619944782034
 20
-38.99998812230296
 30
0.0
 10
81.07291529006163
 20
-38.99998812230296
 30
0.0
 10
81.07291529006163
 20
-38.99998812230296
 30
0.0
 10
81.24584293453609
 20
-39.29880170899312
 30
0.0
 10
81.43751472450519
 20
-39.58541178508401
 30
0.0
 10
81.64632506548004
 20
-39.85820026593343
 30
0.0
 10
81.85513540645489
 20
-40.13098874678285
 30
0.0
 10
82.08108429843547
 20
-40.38995563239078
 30
0.0
 10
82.32256614693289
 20
-40.63348283811501
 30
0.0
 10
82.56404799543031
 20
-40.87701004383925
 30
0.0
 10
82.82106280044457
 20
-41.10509756967978
 30
0.0
 10
83.09200496748674
 20
-41.3161273309944
 30
0.0
 10
83.36294713452892
 20
-41.52715709230902
 30
0.0
 10
83.64781666359902
 20
-41.72112908909772
 30
0.0
 10
83.94500796020814
 20
-41.89642523671828
 30
0.0
 10
84.24219925681726
 20
-42.07172138433884
 30
0.0
 10
84.5517123209654
 20
-42.22834168279127
 30
0.0
 10
84.87194155816364
 20
-42.36466804743335
 30
0.0
 10
85.19217079536189
 20
-42.50099441207542
 30
0.0
 10
85.52311620561024
 20
-42.61702684290714
 30
0.0
 10
85.8631721944198
 20
-42.7111472552863
 30
0.0
 10
86.20322818322936
 20
-42.80526766766545
 30
0.0
 10
86.5523947506001
 20
-42.87747606159203
 30
0.0
 10
86.90906630204316
 20
-42.92615435242383
 30
0.0
 10
87.2657378534862
 20
-42.97483264325562
 30
0.0
 10
87.62991438900154
 20
-42.99998083099263
 30
0.0
 10
87.99999031410027
 20
-42.99998083099263
 30
0.0
 10
88.55227680111769
 20
-42.99998083099263
 30
0.0
 10
89.0914917749624
 20
-42.94401653328815
 30
0.0
 10
89.61227363756797
 20
-42.83744957800005
 30
0.0
 10
90.13305550017351
 20
-42.73088262271195
 30
0.0
 10
90.6354042515399
 20
-42.57371300984023
 30
0.0
 10
91.11395829360063
 20
-42.37130237950575
 30
0.0
 10
91.59251233566138
 20
-42.16889174917127
 30
0.0
 10
92.04727166841647
 20
-41.92124010137403
 30
0.0
 10
92.47287469379945
 20
-41.6337090762349
 30
0.0
 10
92.89847771918244
 20
-41.34617805109577
 30
0.0
 10
93.2949244371933
 20
-41.01876764861473
 30
0.0
 10
93.65685324976559
 20
-40.65683950891267
 30
0.0
 10
94.01878206233786
 20
-40.2949113692106
 30
0.0
 10
94.34619296947156
 20
-39.8984654922875
 30
0.0
 10
94.63372437310018
 20
-39.47286351826423
 30
0.0
 10
94.92125577672881
 20
-39.04726154424095
 30
0.0
 10
95.16890767685237
 20
-38.5925034731175
 30
0.0
 10
95.37131847540441
 20
-38.11395094501474
 30
0.0
 10
95.57372927395645
 20
-37.63539841691197
 30
0.0
 10
95.73089897093693
 20
-37.13305143182989
 30
0.0
 10
95.83746596827942
 20
-36.61227162988936
 30
0.0
 10
95.94403296562191
 20
-36.09149182794884
 30
0.0
 10
95.99999726332639
 20
-35.55227920914985
 30
0.0
 10
95.99999726332639
 20
-34.99999541361328
 30
0.0
 10
95.99999726332639
 20
-34.44770892659587
 30
0.0
 10
95.94403296562191
 20
-33.90849395275114
 30
0.0
 10
95.83746596827942
 20
-33.38771209014559
 30
0.0
 10
95.73089897093693
 20
-32.86693022754004
 30
0.0
 10
95.57372927395645
 20
-32.36458147617365
 30
0.0
 10
95.37131847540441
 20
-31.88602743411291
 30
0.0
 10
95.16890767685237
 20
-31.40747339205217
 30
0.0
 10
94.92125577672881
 20
-30.95271405929707
 30
0.0
 10
94.63372437310018
 20
-30.52711103391409
 30
0.0
 10
94.34619296947156
 20
-30.10150800853111
 30
0.0
 10
94.01878206233786
 20
-29.70506129052024
 30
0.0
 10
93.65685324976559
 20
-29.34313247794796
 30
0.0
 10
93.2949244371933
 20
-28.98120366537568
 30
0.0
 10
92.89847771918244
 20
-28.65379275824199
 30
0.0
 10
92.47287469379945
 20
-28.36626135461337
 30
0.0
 10
92.04727166841647
 20
-28.07872995098474
 30
0.0
 10
91.59251233566138
 20
-27.83107805086117
 30
0.0
 10
91.11395829360063
 20
-27.62866725230914
 30
0.0
 10
90.6354042515399
 20
-27.42625645375711
 30
0.0
 10
90.13305550017351
 20
-27.26908675677662
 30
0.0
 10
89.61227363756797
 20
-27.16251975943413
 30
0.0
 10
89.0914917749624
 20
-27.05595276209164
 30
0.0
 10
88.55227680111769
 20
-26.99998846438716
 30
0.0
 10
87.99999031410027
 20
-26.99998846438716
 30
0.0
 10
87.62991438900154
 20
-26.99998846438716
 30
0.0
 10
87.2657378534862
 20
-27.02513665212416
 30
0.0
 10
86.90906630204316
 20
-27.07381494295596
 30
0.0
 10
86.5523947506001
 20
-27.12249323378775
 30
0.0
 10
86.20322818322936
 20
-27.19470162771433
 30
0.0
 10
85.8631721944198
 20
-27.28882204009349
 30
0.0
 10
85.52311620561024
 20
-27.38294245247264
 30
0.0
 10
85.19217079536189
 20
-27.49897488330436
 30
0.0
 10
84.87194155816364
 20
-27.63530124794644
 30
0.0
 10
84.5517123209654
 20
-27.77162761258851
 30
0.0
 10
84.24219925681726
 20
-27.92824791104094
 30
0.0
 10
83.94500796020814
 20
-28.10354405866151
 30
0.0
 10
83.64781666359902
 20
-28.27884020628207
 30
0.0
 10
83.36294713452892
 20
-28.47281220307077
 30
0.0
 10
83.09200496748674
 20
-28.68384196438539
 30
0.0
 10
82.82106280044457
 20
-28.8948717257
 30
0.0
 10
82.56404799543031
 20
-29.12295925154054
 30
0.0
 10
82.32256614693289
 20
-29.36648645726477
 30
0.0
 10
82.08108429843547
 20
-29.610013662989
 30
0.0
 10
81.85513540645489
 20
-29.86898054859694
 30
0.0
 10
81.64632506548004
 20
-30.14176902944635
 30
0.0
 10
81.43751472450519
 20
-30.41455751029577
 30
0.0
 10
81.24584293453609
 20
-30.70116758638667
 30
0.0
 10
81.07291529006163
 20
-30.99998117307683
 30
0.0
 10
81.07291529006163
 20
-30.99998117307683
 30
0.0
 10
80.62619944782034
 20
-30.99998117307683
 30
0.0
 10
80.62619944782034
 20
-30.99998117307683
 30
0.0
 10
80.62619944782034
 20
-30.99998117307683
 30
0.0
 10
80.17948360557905
 20
-30.99998117307683
 30
0.0
 10
80.17948360557905
 20
-30.99998117307683
 30
0.0
 10
80.17948360557905
 20
-30.99998117307683
 30
0.0
 10
79.73276776333775
 20
-30.99998117307683
 30
0.0
 10
79.73276776333775
 20
-30.99998117307683
 30
0.0
 10
79.73276776333775
 20
-30.99998117307683
 30
0.0
 10
79.28605192109646
 20
-30.99998117307683
 30
0.0
 10
79.28605192109646
 20
-30.99998117307683
 30
0.0
 10
79.28605192109646
 20
-30.99998117307683
 30
0.0
 10
78.83933607885517
 20
-30.99998117307683
 30
0.0
 10
78.83933607885517
 20
-30.99998117307683
 30
0.0
 10
78.83933607885517
 20
-30.99998117307683
 30
0.0
 10
78.39262023661387
 20
-30.99998117307683
 30
0.0
 10
78.39262023661387
 20
-30.99998117307683
 30
0.0
 10
78.39262023661387
 20
-30.99998117307683
 30
0.0
 10
77.94590439437258
 20
-30.99998117307683
 30
0.0
 10
77.94590439437258
 20
-30.99998117307683
 30
0.0
 10
77.94590439437258
 20
-30.99998117307683
 30
0.0
 10
77.49918855213129
 20
-30.99998117307683
 30
0.0
 10
77.49918855213129
 20
-30.99998117307683
 30
0.0
 10
77.49918855213129
 20
-30.99998117307683
 30
0.0
 10
77.49918855213129
 20
-29.74990943588799
 30
0.0
 10
77.49918855213129
 20
-29.74990943588799
 30
0.0
 10
77.49918855213129
 20
-29.74990943588799
 30
0.0
 10
77.49918855213129
 20
-28.49983769869915
 30
0.0
 10
77.49918855213129
 20
-28.49983769869915
 30
0.0
 10
77.49918855213129
 20
-28.49983769869915
 30
0.0
 10
77.49918855213129
 20
-27.24976596151031
 30
0.0
 10
77.49918855213129
 20
-27.24976596151031
 30
0.0
 10
77.49918855213129
 20
-27.24976596151031
 30
0.0
 10
77.49918855213129
 20
-25.99969422432148
 30
0.0
 10
77.49918855213129
 20
-25.99969422432148
 30
0.0
 10
77.49918855213129
 20
-25.99969422432148
 30
0.0
 10
77.49918855213129
 20
-24.74962248713264
 30
0.0
 10
77.49918855213129
 20
-24.74962248713264
 30
0.0
 10
77.49918855213129
 20
-24.74962248713264
 30
0.0
 10
77.49918855213129
 20
-23.4995507499438
 30
0.0
 10
77.49918855213129
 20
-23.4995507499438
 30
0.0
 10
77.49918855213129
 20
-23.4995507499438
 30
0.0
 10
77.49918855213129
 20
-22.24947901275496
 30
0.0
 10
77.49918855213129
 20
-22.24947901275496
 30
0.0
 10
77.49918855213129
 20
-22.24947901275496
 30
0.0
 10
77.49918855213129
 20
-20.99940727556612
 30
0.0
 10
77.49918855213129
 20
-20.99940727556612
 30
0.0
 10
77.49918855213129
 20
-20.99940727556612
 30
0.0
 10
77.94590708585342
 20
-20.99940727556612
 30
0.0
 10
77.94590708585342
 20
-20.99940727556612
 30
0.0
 10
77.94590708585342
 20
-20.99940727556612
 30
0.0
 10
78.39262561957557
 20
-20.99940727556612
 30
0.0
 10
78.39262561957557
 20
-20.99940727556612
 30
0.0
 10
78.39262561957557
 20
-20.99940727556612
 30
0.0
 10
78.8393441532977
 20
-20.99940727556612
 30
0.0
 10
78.8393441532977
 20
-20.99940727556612
 30
0.0
 10
78.8393441532977
 20
-20.99940727556612
 30
0.0
 10
79.28606268701985
 20
-20.99940727556612
 30
0.0
 10
79.28606268701985
 20
-20.99940727556612
 30
0.0
 10
79.28606268701985
 20
-20.99940727556612
 30
0.0
 10
79.732781220742
 20
-20.99940727556612
 30
0.0
 10
79.732781220742
 20
-20.99940727556612
 30
0.0
 10
79.732781220742
 20
-20.99940727556612
 30
0.0
 10
80.17949975446413
 20
-20.99940727556612
 30
0.0
 10
80.17949975446413
 20
-20.99940727556612
 30
0.0
 10
80.17949975446413
 20
-20.99940727556612
 30
0.0
 10
80.62621828818628
 20
-20.99940727556612
 30
0.0
 10
80.62621828818628
 20
-20.99940727556612
 30
0.0
 10
80.62621828818628
 20
-20.99940727556612
 30
0.0
 10
81.07293682190841
 20
-20.99940727556612
 30
0.0
 10
81.07293682190841
 20
-20.99940727556612
 30
0.0
 10
81.24586446638287
 20
-21.29821817077543
 30
0.0
 10
81.43753625635198
 20
-21.5848262282557
 30
0.0
 10
81.64634655527243
 20
-21.85761323720152
 30
0.0
 10
81.8551568541929
 20
-22.13040024614735
 30
0.0
 10
82.0811056620647
 20
-22.38936620655874
 30
0.0
 10
82.32258734234456
 20
-22.63289290763032
 30
0.0
 10
82.56406902262444
 20
-22.87641960870189
 30
0.0
 10
82.82108357531236
 20
-23.10450705043365
 30
0.0
 10
83.09202536386505
 20
-23.31553702202021
 30
0.0
 10
83.36296715241772
 20
-23.52656699360677
 30
0.0
 10
83.64783617683517
 20
-23.72053949504813
 30
0.0
 10
83.94502680057408
 20
-23.8958363155389
 30
0.0
 10
84.24221742431298
 20
-24.07113313602968
 30
0.0
 10
84.55172964737335
 20
-24.22775427556987
 30
0.0
 10
84.8719578332119
 20
-24.3640815233541
 30
0.0
 10
85.19218601905044
 20
-24.50040877113833
 30
0.0
 10
85.52313016766715
 20
-24.61644212716659
 30
0.0
 10
85.86318464251872
 20
-24.71056338063351
 30
0.0
 10
86.2032391173703
 20
-24.80468463410043
 30
0.0
 10
86.55240391845675
 20
-24.876893785006
 30
0.0
 10
86.90907340923476
 20
-24.92557262254484
 30
0.0
 10
87.2657429000128
 20
-24.97425146008368
 30
0.0
 10
87.62991708048239
 20
-24.99939998425579
 30
0.0
 10
87.99999031410027
 20
-24.99939998425579
 30
0.0
 10
88.55227680111769
 20
-24.99939998425579
 30
0.0
 10
89.0914917749624
 20
-24.94343535011621
 30
0.0
 10
89.61227363756797
 20
-24.83686780606667
 30
0.0
 10
90.13305550017351
 20
-24.73030026201713
 30
0.0
 10
90.6354042515399
 20
-24.57312980805765
 30
0.0
 10
91.11395829360063
 20
-24.37071816841785
 30
0.0
 10
91.59251233566138
 20
-24.16830652877806
 30
0.0
 10
92.04727166841647
 20
-23.92065370345795
 30
0.0
 10
92.47287469379945
 20
-23.63312141668717
 30
0.0
 10
92.89847771918244
 20
-23.34558912991639
 30
0.0
 10
93.2949244371933
 20
-23.01817738169493
 30
0.0
 10
93.65685324976559
 20
-22.65624789625244
 30
0.0
 10
94.01878206233786
 20
-22.29431841080995
 30
0.0
 10
94.34619296947156
 20
-21.89787118814643
 30
0.0
 10
94.63372437310018
 20
-21.4722679524915
 30
0.0
 10
94.92125577672881
 20
-21.04666471683658
 30
0.0
 10
95.16890767685237
 20
-20.59190546819026
 30
0.0
 10
95.37131847540441
 20
-20.11335193078218
 30
0.0
 10
95.57372927395645
 20
-19.63479839337409
 30
0.0
 10
95.73089897093693
 20
-19.13245056720425
 30
0.0
 10
95.83746596827942
 20
-18.61167017650229
 30
0.0
 10
95.94403296562191
 20
-18.09088978580033
 30
0.0
 10
95.99999726332639
 20
-17.55167683056624
 30
0.0
 10
95.99999726332639
 20
-16.99939303502967
 30
0.0
 10
95.99999726332639
 20
-16.44710923949309
 30
0.0
 10
95.94403296562191
 20
-15.90789628425901
 30
0.0
 10
95.83746596827942
 20
-15.38711589355704
 30
0.0
 10
95.73089897093693
 20
-14.86633550285508
 30
0.0
 10
95.57372927395645
 20
-14.36398767668524
 30
0.0
 10
95.37131847540441
 20
-13.88543413927716
 30
0.0
 10
95.16890767685237
 20
-13.40688060186907
 30
0.0
 10
94.92125577672881
 20
-12.95212135322275
 30
0.0
 10
94.63372437310018
 20
-12.52651811756783
 30
0.0
 10
94.34619296947156
 20
-12.10091488191291
 30
0.0
 10
94.01878206233786
 20
-11.70446765924938
 30
0.0
 10
93.65685324976559
 20
-11.34253817380689
 30
0.0
 10
93.2949244371933
 20
-10.9806086883644
 30
0.0
 10
92.89847771918244
 20
-10.65319694014294
 30
0.0
 10
92.47287469379945
 20
-10.36566465337216
 30
0.0
 10
92.04727166841647
 20
-10.07813236660138
 30
0.0
 10
91.59251233566138
 20
-9.830479541281276
 30
0.0
 10
91.11395829360063
 20
-9.62806790164148
 30
0.0
 10
90.6354042515399
 20
-9.425656262001683
 30
0.0
 10
90.13305550017351
 20
-9.268485808042199
 30
0.0
 10
89.61227363756797
 20
-9.161918263992662
 30
0.0
 10
89.0914917749624
 20
-9.055350719943126
 30
0.0
 10
88.55227680111769
 20
-8.99938608580354
 30
0.0
 10
87.99999031410027
 20
-8.99938608580354
 30
0.0
 10
87.62991438900154
 20
-8.99938608580354
 30
0.0
 10
87.2657378534862
 20
-9.024534273540546
 30
0.0
 10
86.90906630204316
 20
-9.073212606426727
 30
0.0
 10
86.5523947506001
 20
-9.12189093931291
 30
0.0
 10
86.20322818322936
 20
-9.19409941734827
 30
0.0
 10
85.8631721944198
 20
-9.288219997944974
 30
0.0
 10
85.52311620561024
 20
-9.38234057854168
 30
0.0
 10
85.19217079536189
 20
-9.498373261699733
 30
0.0
 10
84.87194155816364
 20
-9.634700004831304
 30
0.0
 10
84.5517123209654
 20
-9.771026747962873
 30
0.0
 10
84.24219925681726
 20
-9.927647551067961
 30
0.0
 10
83.94500796020814
 20
-10.10294437155874
 30
0.0
 10
83.64781666359902
 20
-10.27824119204951
 30
0.0
 10
83.36294713452892
 20
-10.47221402992598
 30
0.0
 10
83.09200496748674
 20
-10.6832448426003
 30
0.0
 10
82.82106280044457
 20
-10.89427565527462
 30
0.0
 10
82.56404799543031
 20
-11.1223644427468
 30
0.0
 10
82.32256614693289
 20
-11.36589316242901
 30
0.0
 10
82.08108429843547
 20
-11.60942188211123
 30
0.0
 10
81.85513540645489
 20
-11.86839053400347
 30
0.0
 10
81.64632506548004
 20
-12.1411810755179
 30
0.0
 10
81.43751472450519
 20
-12.41397161703235
 30
0.0
 10
81.24584293453609
 20
-12.70058404816898
 30
0.0
 10
81.07291529006163
 20
-12.99940032633999
 30
0.0
 10
81.07291529006163
 20
-12.99940032633999
 30
0.0
 10
80.61364638114597
 20
-12.99940032633999
 30
0.0
 10
80.61364638114597
 20
-12.99940032633999
 30
0.0
 10
80.61364638114597
 20
-12.99940032633999
 30
0.0
 10
80.1543774722303
 20
-12.99940032633999
 30
0.0
 10
80.1543774722303
 20
-12.99940032633999
 30
0.0
 10
80.1543774722303
 20
-12.99940032633999
 30
0.0
 10
79.69510856331462
 20
-12.99940032633999
 30
0.0
 10
79.69510856331462
 20
-12.99940032633999
 30
0.0
 10
79.69510856331462
 20
-12.99940032633999
 30
0.0
 10
79.23583965439894
 20
-12.99940032633999
 30
0.0
 10
79.23583965439894
 20
-12.99940032633999
 30
0.0
 10
79.23583965439894
 20
-12.99940032633999
 30
0.0
 10
78.77657074548327
 20
-12.99940032633999
 30
0.0
 10
78.77657074548327
 20
-12.99940032633999
 30
0.0
 10
78.77657074548327
 20
-12.99940032633999
 30
0.0
 10
78.3173018365676
 20
-12.99940032633999
 30
0.0
 10
78.3173018365676
 20
-12.99940032633999
 30
0.0
 10
78.3173018365676
 20
-12.99940032633999
 30
0.0
 10
77.85803292765192
 20
-12.99940032633999
 30
0.0
 10
77.85803292765192
 20
-12.99940032633999
 30
0.0
 10
77.85803292765192
 20
-12.99940032633999
 30
0.0
 10
77.39876401873624
 20
-12.99940032633999
 30
0.0
 10
77.39876401873624
 20
-12.99940032633999
 30
0.0
 10
77.34084873385218
 20
-12.71413027127622
 30
0.0
 10
77.25865191806412
 20
-12.43767784390511
 30
0.0
 10
77.15442444839424
 20
-12.17229598191388
 30
0.0
 10
77.05019697872436
 20
-11.90691411992264
 30
0.0
 10
76.92393885517265
 20
-11.65260282331128
 30
0.0
 10
76.77790095476132
 20
-11.411615029767
 30
0.0
 10
76.63186305434998
 20
-11.17062723622271
 30
0.0
 10
76.46604537707901
 20
-10.9429629457455
 30
0.0
 10
76.28269879997058
 20
-10.73087509602257
 30
0.0
 10
76.09935222286215
 20
-10.51878724629965
 30
0.0
 10
75.89847674591627
 20
-10.322275837331
 30
0.0
 10
75.68232324615511
 20
-10.14359380680384
 30
0.0
 10
75.46616974639394
 20
-9.964911776276676
 30
0.0
 10
75.23473822381752
 20
-9.804059124191001
 30
0.0
 10
74.99027955544798
 20
-9.663288788234016
 30
0.0
 10
74.74582088707845
 20
-9.522518452277032
 30
0.0
 10
74.48833507291582
 20
-9.401830432448737
 30
0.0
 10
74.22007298998228
 20
-9.303477666436338
 30
0.0
 10
73.95181090704874
 20
-9.20512490042394
 30
0.0
 10
73.67277255534428
 20
-9.129107388227435
 30
0.0
 10
73.38520881189109
 20
-9.07767806753403
 30
0.0
 10
73.0976450684379
 20
-9.026248746840627
 30
0.0
 10
72.80155593323597
 20
-8.999407617650322
 30
0.0
 10
72.4991922833075
 20
-8.999407617650322
 30
0.0
 10
72.4991922833075
 20
-8.999407617650322
 30
0.0
 10
66.87419109791904
 20
-8.999407617650322
 30
0.0
 10
66.87419109791904
 20
-8.999407617650322
 30
0.0
 10
66.87419109791904
 20
-8.999407617650322
 30
0.0
 10
61.24918991253059
 20
-8.999407617650322
 30
0.0
 10
61.24918991253059
 20
-8.999407617650322
 30
0.0
 10
61.24918991253059
 20
-8.999407617650322
 30
0.0
 10
55.62418872714213
 20
-8.999407617650322
 30
0.0
 10
55.62418872714213
 20
-8.999407617650322
 30
0.0
 10
55.62418872714213
 20
-8.999407617650322
 30
0.0
 10
49.99918754175368
 20
-8.999407617650322
 30
0.0
 10
49.99918754175368
 20
-8.999407617650322
 30
0.0
 10
49.99918754175368
 20
-8.999407617650322
 30
0.0
 10
44.37418635636522
 20
-8.999407617650322
 30
0.0
 10
44.37418635636522
 20
-8.999407617650322
 30
0.0
 10
44.37418635636522
 20
-8.999407617650322
 30
0.0
 10
38.74918517097677
 20
-8.999407617650322
 30
0.0
 10
38.74918517097677
 20
-8.999407617650322
 30
0.0
 10
38.74918517097677
 20
-8.999407617650322
 30
0.0
 10
33.12418398558831
 20
-8.999407617650322
 30
0.0
 10
33.12418398558831
 20
-8.999407617650322
 30
0.0
 10
33.12418398558831
 20
-8.999407617650322
 30
0.0
 10
27.49918280019986
 20
-8.999407617650322
 30
0.0
 10
27.49918280019986
 20
-8.999407617650322
 30
0.0
 10
27.19681915027138
 20
-8.999407617650322
 30
0.0
 10
26.90073001506946
 20
-9.026248746840627
 30
0.0
 10
26.61316627161627
 20
-9.07767806753403
 30
0.0
 10
26.32560252816307
 20
-9.129107388227435
 30
0.0
 10
26.04656417645862
 20
-9.20512490042394
 30
0.0
 10
25.77830209352508
 20
-9.303477666436338
 30
0.0
 10
25.51004001059153
 20
-9.401830432448737
 30
0.0
 10
25.25255419642891
 20
-9.522518452277032
 30
0.0
 10
25.00809552805938
 20
-9.663288788234016
 30
0.0
 10
24.76363685968985
 20
-9.804059124191001
 30
0.0
 10
24.53220533711341
 20
-9.964911776276676
 30
0.0
 10
24.31605183735225
 20
-10.14359380680384
 30
0.0
 10
24.09989833759109
 20
-10.322275837331
 30
0.0
 10
23.8990228606452
 20
-10.51878724629965
 30
0.0
 10
23.71567628353677
 20
-10.73087509602257
 30
0.0
 10
23.53232970642835
 20
-10.9429629457455
 30
0.0
 10
23.36651202915737
 20
-11.17062723622271
 30
0.0
 10
23.22047412874604
 20
-11.411615029767
 30
0.0
 10
23.0744362283347
 20
-11.65260282331128
 30
0.0
 10
22.948178104783
 20
-11.90691411992264
 30
0.0
 10
22.84395063511312
 20
-12.17229598191388
 30
0.0
 10
22.73972316544324
 20
-12.43767784390511
 30
0.0
 10
22.65752634965517
 20
-12.71413027127622
 30
0.0
 10
22.5996110647711
 20
-12.99940032633999
 30
0.0
 10
22.5996110647711
 20
-12.99940032633999
 30
0.0
 10
22.14054401691902
 20
-12.99940032633999
 30
0.0
 10
22.14054401691902
 20
-12.99940032633999
 30
0.0
 10
22.14054401691902
 20
-12.99940032633999
 30
0.0
 10
21.68147696906694
 20
-12.99940032633999
 30
0.0
 10
21.68147696906694
 20
-12.99940032633999
 30
0.0
 10
21.68147696906694
 20
-12.99940032633999
 30
0.0
 10
21.22240992121485
 20
-12.99940032633999
 30
0.0
 10
21.22240992121485
 20
-12.99940032633999
 30
0.0
 10
21.22240992121485
 20
-12.99940032633999
 30
0.0
 10
20.76334287336277
 20
-12.99940032633999
 30
0.0
 10
20.76334287336277
 20
-12.99940032633999
 30
0.0
 10
20.76334287336277
 20
-12.99940032633999
 30
0.0
 10
20.30427582551068
 20
-12.99940032633999
 30
0.0
 10
20.30427582551068
 20
-12.99940032633999
 30
0.0
 10
20.30427582551068
 20
-12.99940032633999
 30
0.0
 10
19.8452087776586
 20
-12.99940032633999
 30
0.0
 10
19.8452087776586
 20
-12.99940032633999
 30
0.0
 10
19.8452087776586
 20
-12.99940032633999
 30
0.0
 10
19.38614172980651
 20
-12.99940032633999
 30
0.0
 10
19.38614172980651
 20
-12.99940032633999
 30
0.0
 10
19.38614172980651
 20
-12.99940032633999
 30
0.0
 10
18.92707468195443
 20
-12.99940032633999
 30
0.0
 10
18.92707468195443
 20
-12.99940032633999
 30
0.0
 10
18.75414703747997
 20
-12.70058673964983
 30
0.0
 10
18.56247524751087
 20
-12.41397666355893
 30
0.0
 10
18.35366490653603
 20
-12.14118818270952
 30
0.0
 10
18.14485456556118
 20
-11.8683997018601
 30
0.0
 10
17.91890567358059
 20
-11.60943281625217
 30
0.0
 10
17.67742382508317
 20
-11.36590561052794
 30
0.0
 10
17.43594197658576
 20
-11.1223784048037
 30
0.0
 10
17.1789271715715
 20
-10.89429087896317
 30
0.0
 10
16.90798500452932
 20
-10.68326111764855
 30
0.0
 10
16.63704283748715
 20
-10.47223135633394
 30
0.0
 10
16.35217330841704
 20
-10.27825935954524
 30
0.0
 10
16.05498201180792
 20
-10.10296321192467
 30
0.0
 10
15.75779071519881
 20
-9.927667064304108
 30
0.0
 10
15.44827765105067
 20
-9.771046765851679
 30
0.0
 10
15.12804841385242
 20
-9.634720401209604
 30
0.0
 10
14.80781917665418
 20
-9.498394036567527
 30
0.0
 10
14.47687376640582
 20
-9.382361605735804
 30
0.0
 10
14.13681777759627
 20
-9.28824119335665
 30
0.0
 10
13.79676178878671
 20
-9.194120780977498
 30
0.0
 10
13.44759522141596
 20
-9.121912387050916
 30
0.0
 10
13.09092366997291
 20
-9.073234096219123
 30
0.0
 10
12.73425211852986
 20
-9.024555805387328
 30
0.0
 10
12.37007558301452
 20
-8.999407617650322
 30
0.0
 10
11.9999996579158
 20
-8.999407617650322
 30
0.0
 10
11.44771586237923
 20
-8.999407617650322
 30
0.0
 10
10.90850290714514
 20
-9.055371915354803
 30
0.0
 10
10.38772251644318
 20
-9.161938870642903
 30
0.0
 10
9.866942125741213
 20
-9.268505825931005
 30
0.0
 10
9.36459429957137
 20
-9.425675438802724
 30
0.0
 10
8.88604076216329
 20
-9.628086069137202
 30
0.0
 10
8.407487224755208
 20
-9.83049669947168
 30
0.0
 10
7.952727976108886
 20
-10.07814834726892
 30
0.0
 10
7.527124740453963
 20
-10.36567937240805
 30
0.0
 10
7.101521504799039
 20
-10.65321039754718
 30
0.0
 10
6.705074282135513
 20
-10.98062080002821
 30
0.0
 10
6.343144796693022
 20
-11.34254893973028
 30
0.0
 10
5.981215311250533
 20
-11.70447707943235
 30
0.0
 10
5.653803563029078
 20
-12.10092295635545
 30
0.0
 10
5.366271276258297
 20
-12.52652493037873
 30
0.0
 10
5.078738989487516
 20
-12.952126904402
 30
0.0
 10
4.831086164167409
 20
-13.40688497552545
 30
0.0
 10
4.628674524527612
 20
-13.88543750362822
 30
0.0
 10
4.426262884887816
 20
-14.36399003173098
 30
0.0
 10
4.269092430928331
 20
-14.86633701681306
 30
0.0
 10
4.162524886878795
 20
-15.38711681875359
 30
0.0
 10
4.055957342829259
 20
-15.90789662069412
 30
0.0
 10
3.999992708689672
 20
-16.44710923949309
 30
0.0
 10
3.999992708689672
 20
-16.99939303502967
 30
0.0
 10
3.999992708689672
 20
-17.55167952204708
 30
0.0
 10
4.055957342829259
 20
-18.09089449589181
 30
0.0
 10
4.162524886878795
 20
-18.61167635849736
 30
0.0
 10
4.269092430928331
 20
-19.13245822110291
 30
0.0
 10
4.426262884887816
 20
-19.6348069724693
 30
0.0
 10
4.628674524527612
 20
-20.11336101453004
 30
0.0
 10
4.831086164167409
 20
-20.59191505659078
 30
0.0
 10
5.078738989487516
 20
-21.04667438934588
 30
0.0
 10
5.366271276258297
 20
-21.47227741472886
 30
0.0
 10
5.653803563029078
 20
-21.89788044011184
 30
0.0
 10
5.981215311250533
 20
-22.29432715812271
 30
0.0
 10
6.343144796693022
 20
-22.65625597069499
 30
0.0
 10
6.705074282135513
 20
-23.01818478326727
 30
0.0
 10
7.101521504799039
 20
-23.34559569040096
 30
0.0
 10
7.527124740453963
 20
-23.63312709402958
 30
0.0
 10
7.952727976108886
 20
-23.92065849765821
 30
0.0
 10
8.407487224755208
 20
-24.16831039778178
 30
0.0
 10
8.88604076216329
 20
-24.37072119633381
 30
0.0
 10
9.36459429957137
 20
-24.57313199488584
 30
0.0
 10
9.866942125741213
 20
-24.73030169186633
 30
0.0
 10
10.38772251644318
 20
-24.83686868920882
 30
0.0
 10
10.90850290714514
 20
-24.94343568655131
 30
0.0
 10
11.44771586237923
 20
-24.99939998425579
 30
0.0
 10
11.9999996579158
 20
-24.99939998425579
 30
0.0
 10
12.37007558301452
 20
-24.99939998425579
 30
0.0
 10
12.73425211852986
 20
-24.97425179651879
 30
0.0
 10
13.09092366997291
 20
-24.92557350568699
 30
0.0
 10
13.44759522141596
 20
-24.8768952148552
 30
0.0
 10
13.79676178878671
 20
-24.80468682092862
 30
0.0
 10
14.13681777759627
 20
-24.71056640854946
 30
0.0
 10
14.47687376640582
 20
-24.61644599617031
 30
0.0
 10
14.80781917665418
 20
-24.50041356533859
 30
0.0
 10
15.12804841385242
 20
-24.36408720069651
 30
0.0
 10
15.44827765105067
 20
-24.22776083605444
 30
0.0
 10
15.75779071519881
 20
-24.07114053760201
 30
0.0
 10
16.05498201180792
 20
-23.89584438998144
 30
0.0
 10
16.35217330841704
 20
-23.72054824236088
 30
0.0
 10
16.63704283748715
 20
-23.52657624557218
 30
0.0
 10
16.90798500452932
 20
-23.31554648425756
 30
0.0
 10
17.1789271715715
 20
-23.10451672294295
 30
0.0
 10
17.43594197658576
 20
-22.87642919710241
 30
0.0
 10
17.67742382508317
 20
-22.63290199137818
 30
0.0
 10
17.91890567358059
 20
-22.38937478565395
 30
0.0
 10
18.14485456556118
 20
-22.13040790004601
 30
0.0
 10
18.35366490653603
 20
-21.8576194191966
 30
0.0
 10
18.56247524751087
 20
-21.58483093834718
 30
0.0
 10
18.75414703747997
 20
-21.29822086225628
 30
0.0
 10
18.92707468195443
 20
-20.99940727556612
 30
0.0
 10
18.92707468195443
 20
-20.99940727556612
 30
0.0
 10
19.37358866313214
 20
-20.99940727556612
 30
0.0
 10
19.37358866313214
 20
-20.99940727556612
 30
0.0
 10
19.37358866313214
 20
-20.99940727556612
 30
0.0
 10
19.82010264430984
 20
-20.99940727556612
 30
0.0
 10
19.82010264430984
 20
-20.99940727556612
 30
0.0
 10
19.82010264430984
 20
-20.99940727556612
 30
0.0
 10
20.26661662548755
 20
-20.99940727556612
 30
0.0
 10
20.26661662548755
 20
-20.99940727556612
 30
0.0
 10
20.26661662548755
 20
-20.99940727556612
 30
0.0
 10
20.71313060666525
 20
-20.99940727556612
 30
0.0
 10
20.71313060666525
 20
-20.99940727556612
 30
0.0
 10
20.71313060666525
 20
-20.99940727556612
 30
0.0
 10
21.15964458784295
 20
-20.99940727556612
 30
0.0
 10
21.15964458784295
 20
-20.99940727556612
 30
0.0
 10
21.15964458784295
 20
-20.99940727556612
 30
0.0
 10
21.60615856902066
 20
-20.99940727556612
 30
0.0
 10
21.60615856902066
 20
-20.99940727556612
 30
0.0
 10
21.60615856902066
 20
-20.99940727556612
 30
0.0
 10
22.05267255019837
 20
-20.99940727556612
 30
0.0
 10
22.05267255019837
 20
-20.99940727556612
 30
0.0
 10
22.05267255019837
 20
-20.99940727556612
 30
0.0
 10
22.49918653137607
 20
-20.99940727556612
 30
0.0
 10
22.49918653137607
 20
-20.99940727556612
 30
0.0
 10
22.49918653137607
 20
-20.99940727556612
 30
0.0
 10
22.49918653137607
 20
-22.24947901275496
 30
0.0
 10
22.49918653137607
 20
-22.24947901275496
 30
0.0
 10
22.49918653137607
 20
-22.24947901275496
 30
0.0
 10
22.49918653137607
 20
-23.4995507499438
 30
0.0
 10
22.49918653137607
 20
-23.4995507499438
 30
0.0
 10
22.49918653137607
 20
-23.4995507499438
 30
0.0
 10
22.49918653137607
 20
-24.74962248713264
 30
0.0
 10
22.49918653137607
 20
-24.74962248713264
 30
0.0
 10
22.49918653137607
 20
-24.74962248713264
 30
0.0
 10
22.49918653137607
 20
-25.99969422432148
 30
0.0
 10
22.49918653137607
 20
-25.99969422432148
 30
0.0
 10
22.49918653137607
 20
-25.99969422432148
 30
0.0
 10
22.49918653137607
 20
-27.24976596151031
 30
0.0
 10
22.49918653137607
 20
-27.24976596151031
 30
0.0
 10
22.49918653137607
 20
-27.24976596151031
 30
0.0
 10
22.49918653137607
 20
-28.49983769869915
 30
0.0
 10
22.49918653137607
 20
-28.49983769869915
 30
0.0
 10
22.49918653137607
 20
-28.49983769869915
 30
0.0
 10
22.49918653137607
 20
-29.74990943588799
 30
0.0
 10
22.49918653137607
 20
-29.74990943588799
 30
0.0
 10
22.49918653137607
 20
-29.74990943588799
 30
0.0
 10
22.49918653137607
 20
-30.99998117307683
 30
0.0
 10
22.49918653137607
 20
-30.99998117307683
 30
0.0
 10
22.49918653137607
 20
-30.99998117307683
 30
0.0
 10
22.05267255019837
 20
-30.99998117307683
 30
0.0
 10
22.05267255019837
 20
-30.99998117307683
 30
0.0
 10
22.05267255019837
 20
-30.99998117307683
 30
0.0
 10
21.60615856902066
 20
-30.99998117307683
 30
0.0
 10
21.60615856902066
 20
-30.99998117307683
 30
0.0
 10
21.60615856902066
 20
-30.99998117307683
 30
0.0
 10
21.15964458784295
 20
-30.99998117307683
 30
0.0
 10
21.15964458784295
 20
-30.99998117307683
 30
0.0
 10
21.15964458784295
 20
-30.99998117307683
 30
0.0
 10
20.71313060666525
 20
-30.99998117307683
 30
0.0
 10
20.71313060666525
 20
-30.99998117307683
 30
0.0
 10
20.71313060666525
 20
-30.99998117307683
 30
0.0
 10
20.26661662548755
 20
-30.99998117307683
 30
0.0
 10
20.26661662548755
 20
-30.99998117307683
 30
0.0
 10
20.26661662548755
 20
-30.99998117307683
 30
0.0
 10
19.82010264430984
 20
-30.99998117307683
 30
0.0
 10
19.82010264430984
 20
-30.99998117307683
 30
0.0
 10
19.82010264430984
 20
-30.99998117307683
 30
0.0
 10
19.37358866313214
 20
-30.99998117307683
 30
0.0
 10
19.37358866313214
 20
-30.99998117307683
 30
0.0
 10
19.37358866313214
 20
-30.99998117307683
 30
0.0
 10
18.92707468195443
 20
-30.99998117307683
 30
0.0
 10
18.92707468195443
 20
-30.99998117307683
 30
0.0
 10
18.75414434599913
 20
-30.70117027786752
 30
0.0
 10
18.56247020098428
 20
-30.41456222038725
 30
0.0
 10
18.3536578413988
 20
-30.14177521144143
 30
0.0
 10
18.14484548181332
 20
-29.8689882024956
 30
0.0
 10
17.9188949076572
 20
-29.61002224208421
 30
0.0
 10
17.67741171341936
 20
-29.36649554101263
 30
0.0
 10
17.43592851918152
 20
-29.12296883994106
 30
0.0
 10
17.17891270486194
 20
-28.8948813982093
 30
0.0
 10
16.90796986494955
 20
-28.68385142662274
 30
0.0
 10
16.63702702503717
 20
-28.47282145503618
 30
0.0
 10
16.35215715953196
 20
-28.27884895359483
 30
0.0
 10
16.05496586292284
 20
-28.10355213310405
 30
0.0
 10
15.75777456631372
 20
-27.92825531261327
 30
0.0
 10
15.44826183860069
 20
-27.77163417307308
 30
0.0
 10
15.12803327427265
 20
-27.63530692528885
 30
0.0
 10
14.80780470994462
 20
-27.49897967750462
 30
0.0
 10
14.47686030900158
 20
-27.38294632147636
 30
0.0
 10
14.13680566593245
 20
-27.28882506800944
 30
0.0
 10
13.79675102286332
 20
-27.19470381454252
 30
0.0
 10
13.4475861376681
 20
-27.12249466363695
 30
0.0
 10
13.09091660483569
 20
-27.07381582609811
 30
0.0
 10
12.73424707200327
 20
-27.02513698855927
 30
0.0
 10
12.37007289153368
 20
-26.99998846438716
 30
0.0
 10
11.9999996579158
 20
-26.99998846438716
 30
0.0
 10
11.44771586237923
 20
-26.99998846438716
 30
0.0
 10
10.90850290714514
 20
-27.05595309852674
 30
0.0
 10
10.38772251644318
 20
-27.16252064257628
 30
0.0
 10
9.866942125741213
 20
-27.26908818662582
 30
0.0
 10
9.36459429957137
 20
-27.4262586405853
 30
0.0
 10
8.88604076216329
 20
-27.6286702802251
 30
0.0
 10
8.407487224755208
 20
-27.83108191986489
 30
0.0
 10
7.952727976108886
 20
-28.078734745185
 30
0.0
 10
7.527124740453963
 20
-28.36626703195578
 30
0.0
 10
7.101521504799039
 20
-28.65379931872656
 30
0.0
 10
6.705074282135513
 20
-28.98121106694802
 30
0.0
 10
6.343144796693022
 20
-29.34314055239051
 30
0.0
 10
5.981215311250533
 20
-29.705070037833
 30
0.0
 10
5.653803563029078
 20
-30.10151726049653
 30
0.0
 10
5.366271276258297
 20
-30.52712049615145
 30
0.0
 10
5.078738989487516
 20
-30.95272373180637
 30
0.0
 10
4.831086164167409
 20
-31.40748298045269
 30
0.0
 10
4.628674524527612
 20
-31.88603651786077
 30
0.0
 10
4.426262884887816
 20
-32.36459005526886
 30
0.0
 10
4.269092430928331
 20
-32.8669378814387
 30
0.0
 10
4.162524886878795
 20
-33.38771827214066
 30
0.0
 10
4.055957342829259
 20
-33.90849866284263
 30
0.0
 10
3.999992708689672
 20
-34.44771161807671
 30
0.0
 10
3.999992708689672
 20
-34.99999541361328
 30
0.0
 10
3.999992708689672
 20
-35.55227920914985
 30
0.0
 10
4.055957342829259
 20
-36.09149216438394
 30
0.0
 10
4.162524886878795
 20
-36.61227255508591
 30
0.0
 10
4.269092430928331
 20
-37.13305294578787
 30
0.0
 10
4.426262884887816
 20
-37.63540077195771
 30
0.0
 10
4.628674524527612
 20
-38.11395430936579
 30
0.0
 10
4.831086164167409
 20
-38.59250784677388
 30
0.0
 10
5.078738989487516
 20
-39.0472670954202
 30
0.0
 10
5.366271276258297
 20
-39.47287033107512
 30
0.0
 10
5.653803563029078
 20
-39.89847356673005
 30
0.0
 10
5.981215311250533
 20
-40.29492078939357
 30
0.0
 10
6.343144796693022
 20
-40.65685027483606
 30
0.0
 10
6.705074282135513
 20
-41.01877976027855
 30
0.0
 10
7.101521504799039
 20
-41.34619150850001
 30
0.0
 10
7.527124740453963
 20
-41.63372379527079
 30
0.0
 10
7.952727976108886
 20
-41.92125608204157
 30
0.0
 10
8.407487224755208
 20
-42.16890890736168
 30
0.0
 10
8.88604076216329
 20
-42.37132054700147
 30
0.0
 10
9.36459429957137
 20
-42.57373218664127
 30
0.0
 10
9.866942125741213
 20
-42.73090264060075
 30
0.0
 10
10.38772251644318
 20
-42.83747018465029
 30
0.0
 10
10.90850290714514
 20
-42.94403772869983
 30
0.0
 10
11.44771586237923
 20
-43.00000236283941
 30
0.0
 10
11.9999996579158
 20
-43.00000236283941
 30
0.0
 10
12.37007558301452
 20
-43.00000236283941
 30
0.0
 10
12.73425211852986
 20
-42.97485417510241
 30
0.0
 10
13.09092366997291
 20
-42.92617584221622
 30
0.0
 10
13.44759522141596
 20
-42.87749750933004
 30
0.0
 10
13.79676178878671
 20
-42.80528903129468
 30
0.0
 10
14.13681777759627
 20
-42.71116845069798
 30
0.0
 10
14.47687376640582
 20
-42.61704787010127
 30
0.0
 10
14.80781917665418
 20
-42.50101518694322
 30
0.0
 10
15.12804841385242
 20
-42.36468844381164
 30
0.0
 10
15.44827765105067
 20
-42.22836170068008
 30
0.0
 10
15.75779071519881
 20
-42.07174089757499
 30
0.0
 10
16.05498201180792
 20
-41.89644407708421
 30
0.0
 10
16.35217330841704
 20
-41.72114725659344
 30
0.0
 10
16.63704283748715
 20
-41.52717441871697
 30
0.0
 10
16.90798500452932
 20
-41.31614360604265
 30
0.0
 10
17.1789271715715
 20
-41.10511279336833
 30
0.0
 10
17.43594197658576
 20
-40.87702400589615
 30
0.0
 10
17.67742382508317
 20
-40.63349528621394
 30
0.0
 10
17.91890567358059
 20
-40.38996656653173
 30
0.0
 10
18.14485456556118
 20
-40.13099791463949
 30
0.0
 10
18.35366490653603
 20
-39.85820737312505
 30
0.0
 10
18.56247524751087
 20
-39.58541683161061
 30
0.0
 10
18.75414703747997
 20
-39.29880440047397
 30
0.0
 10
18.92707468195443
 20
-38.99998812230296
 30
0.0
 10
18.92707468195443
 20
-38.99998812230296
 30
0.0
 10
19.37358866313214
 20
-38.99998812230296
 30
0.0
 10
19.37358866313214
 20
-38.99998812230296
 30
0.0
 10
19.37358866313214
 20
-38.99998812230296
 30
0.0
 10
19.82010264430984
 20
-38.99998812230296
 30
0.0
 10
19.82010264430984
 20
-38.99998812230296
 30
0.0
 10
19.82010264430984
 20
-38.99998812230296
 30
0.0
 10
20.26661662548755
 20
-38.99998812230296
 30
0.0
 10
20.26661662548755
 20
-38.99998812230296
 30
0.0
 10
20.26661662548755
 20
-38.99998812230296
 30
0.0
 10
20.71313060666525
 20
-38.99998812230296
 30
0.0
 10
20.71313060666525
 20
-38.99998812230296
 30
0.0
 10
20.71313060666525
 20
-38.99998812230296
 30
0.0
 10
21.15964458784295
 20
-38.99998812230296
 30
0.0
 10
21.15964458784295
 20
-38.99998812230296
 30
0.0
 10
21.15964458784295
 20
-38.99998812230296
 30
0.0
 10
21.60615856902066
 20
-38.99998812230296
 30
0.0
 10
21.60615856902066
 20
-38.99998812230296
 30
0.0
 10
21.60615856902066
 20
-38.99998812230296
 30
0.0
 10
22.05267255019837
 20
-38.99998812230296
 30
0.0
 10
22.05267255019837
 20
-38.99998812230296
 30
0.0
 10
22.05267255019837
 20
-38.99998812230296
 30
0.0
 10
22.49918653137607
 20
-38.99998812230296
 30
0.0
 10
22.49918653137607
 20
-38.99998812230296
 30
0.0
 10
22.49918653137607
 20
-38.99998812230296
 30
0.0
 10
22.49918653137607
 20
-40.37498763452567
 30
0.0
 10
22.49918653137607
 20
-40.37498763452567
 30
0.0
 10
22.49918653137607
 20
-40.37498763452567
 30
0.0
 10
22.49918653137607
 20
-41.74998714674837
 30
0.0
 10
22.49918653137607
 20
-41.74998714674837
 30
0.0
 10
22.49918653137607
 20
-41.74998714674837
 30
0.0
 10
22.49918653137607
 20
-43.12498665897109
 30
0.0
 10
22.49918653137607
 20
-43.12498665897109
 30
0.0
 10
22.49918653137607
 20
-43.12498665897109
 30
0.0
 10
22.49918653137607
 20
-44.4999861711938
 30
0.0
 10
22.49918653137607
 20
-44.4999861711938
 30
0.0
 10
22.49918653137607
 20
-44.4999861711938
 30
0.0
 10
22.49918653137607
 20
-45.87498568341651
 30
0.0
 10
22.49918653137607
 20
-45.87498568341651
 30
0.0
 10
22.49918653137607
 20
-45.87498568341651
 30
0.0
 10
22.49918653137607
 20
-47.24998519563922
 30
0.0
 10
22.49918653137607
 20
-47.24998519563922
 30
0.0
 10
22.49918653137607
 20
-47.24998519563922
 30
0.0
 10
22.49918653137607
 20
-48.62498470786193
 30
0.0
 10
22.49918653137607
 20
-48.62498470786193
 30
0.0
 10
22.49918653137607
 20
-48.62498470786193
 30
0.0
 10
22.49918653137607
 20
-49.99998422008464
 30
0.0
 10
22.49918653137607
 20
-49.99998422008464
 30
0.0
 10
22.49918653137607
 20
-49.99998422008464
 30
0.0
 10
22.05267255019837
 20
-49.99998422008464
 30
0.0
 10
22.05267255019837
 20
-49.99998422008464
 30
0.0
 10
22.05267255019837
 20
-49.99998422008464
 30
0.0
 10
21.60615856902066
 20
-49.99998422008464
 30
0.0
 10
21.60615856902066
 20
-49.99998422008464
 30
0.0
 10
21.60615856902066
 20
-49.99998422008464
 30
0.0
 10
21.15964458784295
 20
-49.99998422008464
 30
0.0
 10
21.15964458784295
 20
-49.99998422008464
 30
0.0
 10
21.15964458784295
 20
-49.99998422008464
 30
0.0
 10
20.71313060666525
 20
-49.99998422008464
 30
0.0
 10
20.71313060666525
 20
-49.99998422008464
 30
0.0
 10
20.71313060666525
 20
-49.99998422008464
 30
0.0
 10
20.26661662548755
 20
-49.99998422008464
 30
0.0
 10
20.26661662548755
 20
-49.99998422008464
 30
0.0
 10
20.26661662548755
 20
-49.99998422008464
 30
0.0
 10
19.82010264430984
 20
-49.99998422008464
 30
0.0
 10
19.82010264430984
 20
-49.99998422008464
 30
0.0
 10
19.82010264430984
 20
-49.99998422008464
 30
0.0
 10
19.37358866313214
 20
-49.99998422008464
 30
0.0
 10
19.37358866313214
 20
-49.99998422008464
 30
0.0
 10
19.37358866313214
 20
-49.99998422008464
 30
0.0
 10
18.92707468195443
 20
-49.99998422008464
 30
0.0
 10
18.92707468195443
 20
-49.99998422008464
 30
0.0
 10
18.75414703747997
 20
-49.70117063339448
 30
0.0
 10
18.56247524751087
 20
-49.41456055730358
 30
0.0
 10
18.35366490653603
 20
-49.14177207645417
 30
0.0
 10
18.14485456556118
 20
-48.86898359560475
 30
0.0
 10
17.91890567358059
 20
-48.61001670999682
 30
0.0
 10
17.67742382508317
 20
-48.36648950427259
 30
0.0
 10
17.43594197658576
 20
-48.12296229854835
 30
0.0
 10
17.1789271715715
 20
-47.89487477270782
 30
0.0
 10
16.90798500452932
 20
-47.6838450113932
 30
0.0
 10
16.63704283748715
 20
-47.47281525007858
 30
0.0
 10
16.35217330841704
 20
-47.27884325328989
 30
0.0
 10
16.05498201180792
 20
-47.10354710566932
 30
0.0
 10
15.75779071519881
 20
-46.92825095804876
 30
0.0
 10
15.44827765105067
 20
-46.77163065959633
 30
0.0
 10
15.12804841385242
 20
-46.63530429495425
 30
0.0
 10
14.80781917665418
 20
-46.49897793031217
 30
0.0
 10
14.47687376640582
 20
-46.38294549948045
 30
0.0
 10
14.13681777759627
 20
-46.2888250871013
 30
0.0
 10
13.79676178878671
 20
-46.19470467472215
 30
0.0
 10
13.44759522141596
 20
-46.12249628079557
 30
0.0
 10
13.09092366997291
 20
-46.07381798996377
 30
0.0
 10
12.73425211852986
 20
-46.02513969913198
 30
0.0
 10
12.37007558301452
 20
-45.99999151139497
 30
0.0
 10
11.9999996579158
 20
-45.99999151139497
 30
0.0
 10
11.44771586237923
 20
-45.99999151139497
 30
0.0
 10
10.90850290714514
 20
-46.05595580909945
 30
0.0
 10
10.38772251644318
 20
-46.16252280644194
 30
0.0
 10
9.866942125741213
 20
-46.26908980378442
 30
0.0
 10
9.36459429957137
 20
-46.42625950076492
 30
0.0
 10
8.88604076216329
 20
-46.62867029931696
 30
0.0
 10
8.407487224755208
 20
-46.83108109786899
 30
0.0
 10
7.952727976108886
 20
-47.07873299799255
 30
0.0
 10
7.527124740453963
 20
-47.36626440162118
 30
0.0
 10
7.101521504799039
 20
-47.65379580524981
 30
0.0
 10
6.705074282135513
 20
-47.9812067123835
 30
0.0
 10
6.343144796693022
 20
-48.34313552495578
 30
0.0
 10
5.981215311250533
 20
-48.70506433752806
 30
0.0
 10
5.653803563029078
 20
-49.10151105553892
 30
0.0
 10
5.366271276258297
 20
-49.5271140809219
 30
0.0
 10
5.078738989487516
 20
-49.95271710630489
 30
0.0
 10
4.831086164167409
 20
-50.40747643905998
 30
0.0
 10
4.628674524527612
 20
-50.88603048112073
 30
0.0
 10
4.426262884887816
 20
-51.36458452318146
 30
0.0
 10
4.269092430928331
 20
-51.86693327454785
 30
0.0
 10
4.162524886878795
 20
-52.3877151371534
 30
0.0
 10
4.055957342829259
 20
-52.90849699975895
 30
0.0
 10
3.999992708689672
 20
-53.44771197360368
 30
0.0
 10
3.999992708689672
 20
-53.9999984606211
 30
0.0
 10
3.999992708689672
 20
-54.55228225615767
 30
0.0
 10
4.055957342829259
 20
-55.09149487495664
 30
0.0
 10
4.162524886878795
 20
-55.61227467689718
 30
0.0
 10
4.269092430928331
 20
-56.13305447883771
 30
0.0
 10
4.426262884887816
 20
-56.63540146391978
 30
0.0
 10
4.628674524527612
 20
-57.11395399202254
 30
0.0
 10
4.831086164167409
 20
-57.59250652012531
 30
0.0
 10
5.078738989487516
 20
-58.04726459124876
 30
0.0
 10
5.366271276258297
 20
-58.47286656527204
 30
0.0
 10
5.653803563029078
 20
-58.89846853929532
 30
0.0
 10
5.981215311250533
 20
-59.29491441621842
 30
0.0
 10
6.343144796693022
 20
-59.65684255592048
 30
0.0
 10
6.705074282135513
 20
-60.01877069562255
 30
0.0
 10
7.101521504799039
 20
-60.34618109810358
 30
0.0
 10
7.527124740453963
 20
-60.63371212324271
 30
0.0
 10
7.952727976108886
 20
-60.92124314838185
 30
0.0
 10
8.407487224755208
 20
-61.16889479617908
 30
0.0
 10
8.88604076216329
 20
-61.37130542651356
 30
0.0
 10
9.36459429957137
 20
-61.57371605684804
 30
0.0
 10
9.866942125741213
 20
-61.73088566971976
 30
0.0
 10
10.38772251644318
 20
-61.83745262500786
 30
0.0
 10
10.90850290714514
 20
-61.94401958029596
 30
0.0
 10
11.44771586237923
 20
-61.99998387800044
 30
0.0
 10
11.9999996579158
 20
-61.99998387800044
 30
0.0
 10
12.37007558301452
 20
-61.99998387800044
 30
0.0
 10
12.73425211852986
 20
-61.97483569026343
 30
0.0
 10
13.09092366997291
 20
-61.92615739943164
 30
0.0
 10
13.44759522141596
 20
-61.87747910859985
 30
0.0
 10
13.79676178878671
 20
-61.80527071467326
 30
0.0
 10
14.13681777759627
 20
-61.71115030229412
 30
0.0
 10
14.47687376640582
 20
-61.61702988991496
 30
0.0
 10
14.80781917665418
 20
-61.50099745908324
 30
0.0
 10
15.12804841385242
 20
-61.36467109444116
 30
0.0
 10
15.44827765105067
 20
-61.22834472979908
 30
0.0
 10
15.75779071519881
 20
-61.07172443134665
 30
0.0
 10
16.05498201180792
 20
-60.89642828372609
 30
0.0
 10
16.35217330841704
 20
-60.72113213610552
 30
0.0
 10
16.63704283748715
 20
-60.52716013931683
 30
0.0
 10
16.90798500452932
 20
-60.31613037800221
 30
0.0
 10
17.1789271715715
 20
-60.10510061668759
 30
0.0
 10
17.43594197658576
 20
-59.87701309084706
 30
0.0
 10
17.67742382508317
 20
-59.63348588512283
 30
0.0
 10
17.91890567358059
 20
-59.3899586793986
 30
0.0
 10
18.14485456556118
 20
-59.13099179379066
 30
0.0
 10
18.35366490653603
 20
-58.85820331294124
 30
0.0
 10
18.56247524751087
 20
-58.58541483209183
 30
0.0
 10
18.75414703747997
 20
-58.29880475600093
 30
0.0
 10
18.92707468195443
 20
-57.99999116931077
 30
0.0
 10
18.92707468195443
 20
-57.99999116931077
 30
0.0
 10
19.37358866313214
 20
-57.99999116931077
 30
0.0
 10
19.37358866313214
 20
-57.99999116931077
 30
0.0
 10
19.37358866313214
 20
-57.99999116931077
 30
0.0
 10
19.82010264430984
 20
-57.99999116931077
 30
0.0
 10
19.82010264430984
 20
-57.99999116931077
 30
0.0
 10
19.82010264430984
 20
-57.99999116931077
 30
0.0
 10
20.26661662548755
 20
-57.99999116931077
 30
0.0
 10
20.26661662548755
 20
-57.99999116931077
 30
0.0
 10
20.26661662548755
 20
-57.99999116931077
 30
0.0
 10
20.71313060666525
 20
-57.99999116931077
 30
0.0
 10
20.71313060666525
 20
-57.99999116931077
 30
0.0
 10
20.71313060666525
 20
-57.99999116931077
 30
0.0
 10
21.15964458784295
 20
-57.99999116931077
 30
0.0
 10
21.15964458784295
 20
-57.99999116931077
 30
0.0
 10
21.15964458784295
 20
-57.99999116931077
 30
0.0
 10
21.60615856902066
 20
-57.99999116931077
 30
0.0
 10
21.60615856902066
 20
-57.99999116931077
 30
0.0
 10
21.60615856902066
 20
-57.99999116931077
 30
0.0
 10
22.05267255019837
 20
-57.99999116931077
 30
0.0
 10
22.05267255019837
 20
-57.99999116931077
 30
0.0
 10
22.05267255019837
 20
-57.99999116931077
 30
0.0
 10
22.49918653137607
 20
-57.99999116931077
 30
0.0
 10
22.49918653137607
 20
-57.99999116931077
 30
0.0
 10
22.49918653137607
 20
-57.99999116931077
 30
0.0
 10
22.49918653137607
 20
-59.24991756653382
 30
0.0
 10
22.49918653137607
 20
-59.24991756653382
 30
0.0
 10
22.49918653137607
 20
-59.24991756653382
 30
0.0
 10
22.49918653137607
 20
-60.49984396375688
 30
0.0
 10
22.49918653137607
 20
-60.49984396375688
 30
0.0
 10
22.49918653137607
 20
-60.49984396375688
 30
0.0
 10
22.49918653137607
 20
-61.74977036097993
 30
0.0
 10
22.49918653137607
 20
-61.74977036097993
 30
0.0
 10
22.49918653137607
 20
-61.74977036097993
 30
0.0
 10
22.49918653137607
 20
-62.99969675820299
 30
0.0
 10
22.49918653137607
 20
-62.99969675820299
 30
0.0
 10
22.49918653137607
 20
-62.99969675820299
 30
0.0
 10
22.49918653137607
 20
-64.24962315542604
 30
0.0
 10
22.49918653137607
 20
-64.24962315542604
 30
0.0
 10
22.49918653137607
 20
-64.24962315542604
 30
0.0
 10
22.49918653137607
 20
-65.4995495526491
 30
0.0
 10
22.49918653137607
 20
-65.4995495526491
 30
0.0
 10
22.49918653137607
 20
-65.4995495526491
 30
0.0
 10
22.49918653137607
 20
-66.74947594987215
 30
0.0
 10
22.49918653137607
 20
-66.74947594987215
 30
0.0
 10
22.49918653137607
 20
-66.74947594987215
 30
0.0
 10
22.49918653137607
 20
-67.9994023470952
 30
0.0
 10
22.49918653137607
 20
-67.9994023470952
 30
0.0
 10
22.49918653137607
 20
-67.9994023470952
 30
0.0
 10
22.05267255019837
 20
-67.9994023470952
 30
0.0
 10
22.05267255019837
 20
-67.9994023470952
 30
0.0
 10
22.05267255019837
 20
-67.9994023470952
 30
0.0
 10
21.60615856902066
 20
-67.9994023470952
 30
0.0
 10
21.60615856902066
 20
-67.9994023470952
 30
0.0
 10
21.60615856902066
 20
-67.9994023470952
 30
0.0
 10
21.15964458784295
 20
-67.9994023470952
 30
0.0
 10
21.15964458784295
 20
-67.9994023470952
 30
0.0
 10
21.15964458784295
 20
-67.9994023470952
 30
0.0
 10
20.71313060666525
 20
-67.9994023470952
 30
0.0
 10
20.71313060666525
 20
-67.9994023470952
 30
0.0
 10
20.71313060666525
 20
-67.9994023470952
 30
0.0
 10
20.26661662548755
 20
-67.9994023470952
 30
0.0
 10
20.26661662548755
 20
-67.9994023470952
 30
0.0
 10
20.26661662548755
 20
-67.9994023470952
 30
0.0
 10
19.82010264430984
 20
-67.9994023470952
 30
0.0
 10
19.82010264430984
 20
-67.9994023470952
 30
0.0
 10
19.82010264430984
 20
-67.9994023470952
 30
0.0
 10
19.37358866313214
 20
-67.9994023470952
 30
0.0
 10
19.37358866313214
 20
-67.9994023470952
 30
0.0
 10
19.37358866313214
 20
-67.9994023470952
 30
0.0
 10
18.92707468195443
 20
-67.9994023470952
 30
0.0
 10
18.92707468195443
 20
-67.9994023470952
 30
0.0
 10
18.75414703747997
 20
-67.70058876040504
 30
0.0
 10
18.56247524751087
 20
-67.41397868431415
 30
0.0
 10
18.35366490653603
 20
-67.14119020346473
 30
0.0
 10
18.14485456556118
 20
-66.86840172261532
 30
0.0
 10
17.91890567358059
 20
-66.60943483700738
 30
0.0
 10
17.67742382508317
 20
-66.36590763128315
 30
0.0
 10
17.43594197658576
 20
-66.12238042555892
 30
0.0
 10
17.1789271715715
 20
-65.89429289971838
 30
0.0
 10
16.90798500452932
 20
-65.68326313840376
 30
0.0
 10
16.63704283748715
 20
-65.47223337708914
 30
0.0
 10
16.35217330841704
 20
-65.27826138030045
 30
0.0
 10
16.05498201180792
 20
-65.10296523267988
 30
0.0
 10
15.75779071519881
 20
-64.92766908505932
 30
0.0
 10
15.44827765105067
 20
-64.77104878660688
 30
0.0
 10
15.12804841385242
 20
-64.63472242196481
 30
0.0
 10
14.80781917665418
 20
-64.49839605732274
 30
0.0
 10
14.47687376640582
 20
-64.38236362649101
 30
0.0
 10
14.13681777759627
 20
-64.28824321411186
 30
0.0
 10
13.79676178878671
 20
-64.1941228017327
 30
0.0
 10
13.44759522141596
 20
-64.12191440780613
 30
0.0
 10
13.09092366997291
 20
-64.07323611697433
 30
0.0
 10
12.73425211852986
 20
-64.02455782614254
 30
0.0
 10
12.37007558301452
 20
-63.99940963840553
 30
0.0
 10
11.9999996579158
 20
-63.99940963840553
 30
0.0
 10
11.44771586237923
 20
-63.99940963840553
 30
0.0
 10
10.90850290714514
 20
-64.05537393611002
 30
0.0
 10
10.38772251644318
 20
-64.1619409334525
 30
0.0
 10
9.866942125741213
 20
-64.268507930795
 30
0.0
 10
9.36459429957137
 20
-64.42567762777549
 30
0.0
 10
8.88604076216329
 20
-64.62808842632752
 30
0.0
 10
8.407487224755208
 20
-64.83049922487955
 30
0.0
 10
7.952727976108886
 20
-65.07815112500312
 30
0.0
 10
7.527124740453963
 20
-65.36568252863174
 30
0.0
 10
7.101521504799039
 20
-65.65321393226037
 30
0.0
 10
6.705074282135513
 20
-65.98062483939407
 30
0.0
 10
6.343144796693022
 20
-66.34255365196634
 30
0.0
 10
5.981215311250533
 20
-66.70448246453861
 30
0.0
 10
5.653803563029078
 20
-67.10092918254948
 30
0.0
 10
5.366271276258297
 20
-67.52653220793246
 30
0.0
 10
5.078738989487516
 20
-67.95213523331545
 30
0.0
 10
4.831086164167409
 20
-68.40689456607055
 30
0.0
 10
4.628674524527612
 20
-68.88544860813128
 30
0.0
 10
4.426262884887816
 20
-69.36400265019203
 30
0.0
 10
4.269092430928331
 20
-69.86635140155842
 30
0.0
 10
4.162524886878795
 20
-70.38713326416396
 30
0.0
 10
4.055957342829259
 20
-70.90791512676952
 30
0.0
 10
3.999992708689672
 20
-71.44713010061425
 30
0.0
 10
3.999992708689672
 20
-71.99941658763166
 30
0.0
 10
3.999992708689672
 20
-72.55170038316822
 30
0.0
 10
4.055957342829259
 20
-73.09091300196721
 30
0.0
 10
4.162524886878795
 20
-73.61169280390774
 30
0.0
 10
4.269092430928331
 20
-74.13247260584826
 30
0.0
 10
4.426262884887816
 20
-74.63481959093035
 30
0.0
 10
4.628674524527612
 20
-75.11337211903312
 30
0.0
 10
4.831086164167409
 20
-75.59192464713587
 30
0.0
 10
5.078738989487516
 20
-76.04668271825932
 30
0.0
 10
5.366271276258297
 20
-76.4722846922826
 30
0.0
 10
5.653803563029078
 20
-76.89788666630588
 30
0.0
 10
5.981215311250533
 20
-77.29433254322898
 30
0.0
 10
6.343144796693022
 20
-77.65626068293105
 30
0.0
 10
6.705074282135513
 20
-78.0181888226331
 30
0.0
 10
7.101521504799039
 20
-78.34559922511414
 30
0.0
 10
7.527124740453963
 20
-78.63313025025327
 30
0.0
 10
7.952727976108886
 20
-78.9206612753924
 30
0.0
 10
8.407487224755208
 20
-79.16831292318965
 30
0.0
 10
8.88604076216329
 20
-79.37072355352413
 30
0.0
 10
9.36459429957137
 20
-79.5731341838586
 30
0.0
 10
9.866942125741213
 20
-79.73030379673033
 30
0.0
 10
10.38772251644318
 20
-79.83687075201843
 30
0.0
 10
10.90850290714514
 20
-79.94343770730653
 30
0.0
 10
11.44771586237923
 20
-79.999402005011
 30
0.0
 10
11.9999996579158
 20
-79.999402005011
 30
0.0
 10
12.37007558301452
 20
-79.999402005011
 30
0.0
 10
12.73425211852986
 20
-79.974253817274
 30
0.0
 10
13.09092366997291
 20
-79.9255755264422
 30
0.0
 10
13.44759522141596
 20
-79.87689723561041
 30
0.0
 10
13.79676178878671
 20
-79.80468884168383
 30
0.0
 10
14.13681777759627
 20
-79.71056842930467
 30
0.0
 10
14.47687376640582
 20
-79.61644801692552
 30
0.0
 10
14.80781917665418
 20
-79.5004155860938
 30
0.0
 10
15.12804841385242
 20
-79.36408922145172
 30
0.0
 10
15.44827765105067
 20
-79.22776285680965
 30
0.0
 10
15.75779071519881
 20
-79.07114255835722
 30
0.0
 10
16.05498201180792
 20
-78.89584641073665
 30
0.0
 10
16.35217330841704
 20
-78.7205502631161
 30
0.0
 10
16.63704283748715
 20
-78.52657826632739
 30
0.0
 10
16.90798500452932
 20
-78.31554850501277
 30
0.0
 10
17.1789271715715
 20
-78.10451874369815
 30
0.0
 10
17.43594197658576
 20
-77.87643121785763
 30
0.0
 10
17.67742382508317
 20
-77.6329040121334
 30
0.0
 10
17.91890567358059
 20
-77.38937680640916
 30
0.0
 10
18.14485456556118
 20
-77.13040992080123
 30
0.0
 10
18.35366490653603
 20
-76.85762143995181
 30
0.0
 10
18.56247524751087
 20
-76.58483295910239
 30
0.0
 10
18.75414703747997
 20
-76.29822288301149
 30
0.0
 10
18.92707468195443
 20
-75.99940929632133
 30
0.0
 10
18.92707468195443
 20
-75.99940929632133
 30
0.0
 10
19.37358866313214
 20
-75.99940929632133
 30
0.0
 10
19.37358866313214
 20
-75.99940929632133
 30
0.0
 10
19.37358866313214
 20
-75.99940929632133
 30
0.0
 10
19.82010264430984
 20
-75.99940929632133
 30
0.0
 10
19.82010264430984
 20
-75.99940929632133
 30
0.0
 10
19.82010264430984
 20
-75.99940929632133
 30
0.0
 10
20.26661662548755
 20
-75.99940929632133
 30
0.0
 10
20.26661662548755
 20
-75.99940929632133
 30
0.0
 10
20.26661662548755
 20
-75.99940929632133
 30
0.0
 10
20.71313060666525
 20
-75.99940929632133
 30
0.0
 10
20.71313060666525
 20
-75.99940929632133
 30
0.0
 10
20.71313060666525
 20
-75.99940929632133
 30
0.0
 10
21.15964458784295
 20
-75.99940929632133
 30
0.0
 10
21.15964458784295
 20
-75.99940929632133
 30
0.0
 10
21.15964458784295
 20
-75.99940929632133
 30
0.0
 10
21.60615856902066
 20
-75.99940929632133
 30
0.0
 10
21.60615856902066
 20
-75.99940929632133
 30
0.0
 10
21.60615856902066
 20
-75.99940929632133
 30
0.0
 10
22.05267255019837
 20
-75.99940929632133
 30
0.0
 10
22.05267255019837
 20
-75.99940929632133
 30
0.0
 10
22.05267255019837
 20
-75.99940929632133
 30
0.0
 10
22.49918653137607
 20
-75.99940929632133
 30
0.0
 10
22.49918653137607
 20
-75.99940929632133
 30
0.0
 10
22.49918653137607
 20
-75.99940929632133
 30
0.0
 10
22.49918653137607
 20
-76.49940838490754
 30
0.0
 10
22.49918653137607
 20
-76.49940838490754
 30
0.0
 10
22.49918653137607
 20
-76.49940838490754
 30
0.0
 10
22.49918653137607
 20
-76.99940747349375
 30
0.0
 10
22.49918653137607
 20
-76.99940747349375
 30
0.0
 10
22.49918653137607
 20
-76.99940747349375
 30
0.0
 10
22.49918653137607
 20
-77.49940656207995
 30
0.0
 10
22.49918653137607
 20
-77.49940656207995
 30
0.0
 10
22.49918653137607
 20
-77.49940656207995
 30
0.0
 10
22.49918653137607
 20
-77.99940565066616
 30
0.0
 10
22.49918653137607
 20
-77.99940565066616
 30
0.0
 10
22.49918653137607
 20
-77.99940565066616
 30
0.0
 10
22.49918653137607
 20
-78.49940473925237
 30
0.0
 10
22.49918653137607
 20
-78.49940473925237
 30
0.0
 10
22.49918653137607
 20
-78.49940473925237
 30
0.0
 10
22.49918653137607
 20
-78.99940382783859
 30
0.0
 10
22.49918653137607
 20
-78.99940382783859
 30
0.0
 10
22.49918653137607
 20
-78.99940382783859
 30
0.0
 10
22.49918653137607
 20
-79.4994029164248
 30
0.0
 10
22.49918653137607
 20
-79.4994029164248
 30
0.0
 10
22.49918653137607
 20
-79.4994029164248
 30
0.0
 10
22.49918653137607
 20
-79.999402005011
 30
0.0
 10
22.49918653137607
 20
-79.999402005011
 30
0.0
 10
22.49918653137607
 20
-79.999402005011
 30
0.0
 10
24.06168805686435
 20
-79.999402005011
 30
0.0
 10
24.06168805686435
 20
-79.999402005011
 30
0.0
 10
24.06168805686435
 20
-79.999402005011
 30
0.0
 10
25.62418958235263
 20
-79.999402005011
 30
0.0
 10
25.62418958235263
 20
-79.999402005011
 30
0.0
 10
25.62418958235263
 20
-79.999402005011
 30
0.0
 10
27.18669110784091
 20
-79.999402005011
 30
0.0
 10
27.18669110784091
 20
-79.999402005011
 30
0.0
 10
27.18669110784091
 20
-79.999402005011
 30
0.0
 10
28.7491926333292
 20
-79.999402005011
 30
0.0
 10
28.7491926333292
 20
-79.999402005011
 30
0.0
 10
28.7491926333292
 20
-79.999402005011
 30
0.0
 10
30.31169415881748
 20
-79.999402005011
 30
0.0
 10
30.31169415881748
 20
-79.999402005011
 30
0.0
 10
30.31169415881748
 20
-79.999402005011
 30
0.0
 10
31.87419568430576
 20
-79.999402005011
 30
0.0
 10
31.87419568430576
 20
-79.999402005011
 30
0.0
 10
31.87419568430576
 20
-79.999402005011
 30
0.0
 10
33.43669720979404
 20
-79.999402005011
 30
0.0
 10
33.43669720979404
 20
-79.999402005011
 30
0.0
 10
33.43669720979404
 20
-79.999402005011
 30
0.0
 10
34.99919873528232
 20
-79.999402005011
 30
0.0
 10
34.99919873528232
 20
-79.999402005011
 30
0.0
 10
34.99919873528232
 20
-79.999402005011
 30
0.0
 10
34.99919873528232
 20
-79.99190084788805
 30
0.0
 10
34.99919873528232
 20
-79.99190084788805
 30
0.0
 10
34.99919873528232
 20
-79.99190084788805
 30
0.0
 10
34.99919873528232
 20
-79.98439969076507
 30
0.0
 10
34.99919873528232
 20
-79.98439969076507
 30
0.0
 10
34.99919873528232
 20
-79.98439969076507
 30
0.0
 10
34.99919873528232
 20
-79.97689853364211
 30
0.0
 10
34.99919873528232
 20
-79.97689853364211
 30
0.0
 10
34.99919873528232
 20
-79.97689853364211
 30
0.0
 10
34.99919873528232
 20
-79.96939737651915
 30
0.0
 10
34.99919873528232
 20
-79.96939737651915
 30
0.0
 10
34.99919873528232
 20
-79.96939737651915
 30
0.0
 10
34.99919873528232
 20
-79.9618962193962
 30
0.0
 10
34.99919873528232
 20
-79.9618962193962
 30
0.0
 10
34.99919873528232
 20
-79.9618962193962
 30
0.0
 10
34.99919873528232
 20
-79.95439506227324
 30
0.0
 10
34.99919873528232
 20
-79.95439506227324
 30
0.0
 10
34.99919873528232
 20
-79.95439506227324
 30
0.0
 10
34.99919873528232
 20
-79.94689390515028
 30
0.0
 10
34.99919873528232
 20
-79.94689390515028
 30
0.0
 10
34.99919873528232
 20
-79.94689390515028
 30
0.0
 10
34.99919873528232
 20
-79.9393927480273
 30
0.0
 10
34.99919873528232
 20
-79.9393927480273
 30
0.0
 10
34.99919873528232
 20
-79.52932141752952
 30
0.0
 10
35.04075217165719
 20
-79.12895556696907
 30
0.0
 10
35.11987804985225
 20
-78.74227619090067
 30
0.0
 10
35.1990039280473
 20
-78.35559681483227
 30
0.0
 10
35.31570224806254
 20
-77.9826039132559
 30
0.0
 10
35.46599201534327
 20
-77.62727848072628
 30
0.0
 10
35.616281782624
 20
-77.27195304819665
 30
0.0
 10
35.80016299717022
 20
-76.93429508471375
 30
0.0
 10
36.01365466442724
 20
-76.61828558483228
 30
0.0
 10
36.22714633168427
 20
-76.3022760849508
 30
0.0
 10
36.47024845165209
 20
-76.00791504867075
 30
0.0
 10
36.73898002977603
 20
-75.73918347054682
 30
0.0
 10
37.00771160789997
 20
-75.47045189242287
 30
0.0
 10
37.30207264418002
 20
-75.22734977245506
 30
0.0
 10
37.6180821440615
 20
-75.01385810519803
 30
0.0
 10
37.93409164394297
 20
-74.80036643794101
 30
0.0
 10
38.27174960742586
 20
-74.61648522339478
 30
0.0
 10
38.62707503995549
 20
-74.46619545611405
 30
0.0
 10
38.98240047248512
 20
-74.31590568883333
 30
0.0
 10
39.35539337406148
 20
-74.19920736881808
 30
0.0
 10
39.74207275012988
 20
-74.12008149062304
 30
0.0
 10
40.12875212619829
 20
-74.04095561242798
 30
0.0
 10
40.52911797675873
 20
-73.99940217605311
 30
0.0
 10
40.93918930725653
 20
-73.99940217605311
 30
0.0
 10
40.93918930725653
 20
-73.99940217605311
 30
0.0
 10
43.20419155736166
 20
-73.99940217605311
 30
0.0
 10
43.20419155736166
 20
-73.99940217605311
 30
0.0
 10
43.20419155736166
 20
-73.99940217605311
 30
0.0
 10
45.46919380746679
 20
-73.99940217605311
 30
0.0
 10
45.46919380746679
 20
-73.99940217605311
 30
0.0
 10
45.46919380746679
 20
-73.99940217605311
 30
0.0
 10
47.73419605757194
 20
-73.99940217605311
 30
0.0
 10
47.73419605757194
 20
-73.99940217605311
 30
0.0
 10
47.73419605757194
 20
-73.99940217605311
 30
0.0
 10
49.99919830767707
 20
-73.99940217605311
 30
0.0
 10
49.99919830767707
 20
-73.99940217605311
 30
0.0
 10
49.99919830767707
 20
-73.99940217605311
 30
0.0
 10
52.2642005577822
 20
-73.99940217605311
 30
0.0
 10
52.2642005577822
 20
-73.99940217605311
 30
0.0
 10
52.2642005577822
 20
-73.99940217605311
 30
0.0
 10
54.52920280788734
 20
-73.99940217605311
 30
0.0
 10
54.52920280788734
 20
-73.99940217605311
 30
0.0
 10
54.52920280788734
 20
-73.99940217605311
 30
0.0
 10
56.79420505799248
 20
-73.99940217605311
 30
0.0
 10
56.79420505799248
 20
-73.99940217605311
 30
0.0
 10
56.79420505799248
 20
-73.99940217605311
 30
0.0
 10
59.05920730809761
 20
-73.99940217605311
 30
0.0
 10
59.05920730809761
 20
-73.99940217605311
 30
0.0
 10
59.46927863859541
 20
-73.99940217605311
 30
0.0
 10
59.86964448915585
 20
-74.04095561242798
 30
0.0
 10
60.25632386522426
 20
-74.12008149062304
 30
0.0
 10
60.64300324129266
 20
-74.19920736881808
 30
0.0
 10
61.01599614286902
 20
-74.31590568883333
 30
0.0
 10
61.37132157539865
 20
-74.46619545611405
 30
0.0
 10
61.72664700792828
 20
-74.61648522339478
 30
0.0
 10
62.06430497141117
 20
-74.80036643794101
 30
0.0
 10
62.38031447129264
 20
-75.01385810519803
 30
0.0
 10
62.69632397117412
 20
-75.22734977245506
 30
0.0
 10
62.99068500745417
 20
-75.47045189242287
 30
0.0
 10
63.25941658557811
 20
-75.73918347054682
 30
0.0
 10
63.52814816370204
 20
-76.00791504867075
 30
0.0
 10
63.77125028366987
 20
-76.3022760849508
 30
0.0
 10
63.9847419509269
 20
-76.61828558483228
 30
0.0
 10
64.19823361818392
 20
-76.93429508471375
 30
0.0
 10
64.38211483273014
 20
-77.27195304819665
 30
0.0
 10
64.53240460001086
 20
-77.62727848072628
 30
0.0
 10
64.6826943672916
 20
-77.9826039132559
 30
0.0
 10
64.79939268730683
 20
-78.35559681483227
 30
0.0
 10
64.87851856550189
 20
-78.74227619090067
 30
0.0
 10
64.95764444369695
 20
-79.12895556696907
 30
0.0
 10
64.99919788007182
 20
-79.52932141752952
 30
0.0
 10
64.99919788007182
 20
-79.9393927480273
 30
0.0
 10
64.99919788007182
 20
-79.9393927480273
 30
0.0
 10
64.99919788007182
 20
-79.94689390515028
 30
0.0
 10
64.99919788007182
 20
-79.94689390515028
 30
0.0
 10
64.99919788007182
 20
-79.94689390515028
 30
0.0
 10
64.99919788007182
 20
-79.95439506227324
 30
0.0
 10
64.99919788007182
 20
-79.95439506227324
 30
0.0
 10
64.99919788007182
 20
-79.95439506227324
 30
0.0
 10
64.99919788007182
 20
-79.9618962193962
 30
0.0
 10
64.99919788007182
 20
-79.9618962193962
 30
0.0
 10
64.99919788007182
 20
-79.9618962193962
 30
0.0
 10
64.99919788007182
 20
-79.96939737651915
 30
0.0
 10
64.99919788007182
 20
-79.96939737651915
 30
0.0
 10
64.99919788007182
 20
-79.96939737651915
 30
0.0
 10
64.99919788007182
 20
-79.97689853364211
 30
0.0
 10
64.99919788007182
 20
-79.97689853364211
 30
0.0
 10
64.99919788007182
 20
-79.97689853364211
 30
0.0
 10
64.99919788007182
 20
-79.98439969076507
 30
0.0
 10
64.99919788007182
 20
-79.98439969076507
 30
0.0
 10
64.99919788007182
 20
-79.98439969076507
 30
0.0
 10
64.99919788007182
 20
-79.99190084788805
 30
0.0
 10
64.99919788007182
 20
-79.99190084788805
 30
0.0
 10
64.99919788007182
 20
-79.99190084788805
 30
0.0
 10
64.99919788007182
 20
-79.999402005011
 30
0.0
 10
64.99919788007182
 20
-79.999402005011
 30
0.0
 10
64.99919788007182
 20
-79.999402005011
 30
0.0
 10
66.56169671407925
 20
-79.999402005011
 30
0.0
 10
66.56169671407925
 20
-79.999402005011
 30
0.0
 10
66.56169671407925
 20
-79.999402005011
 30
0.0
 10
68.12419554808669
 20
-79.999402005011
 30
0.0
 10
68.12419554808669
 20
-79.999402005011
 30
0.0
 10
68.12419554808669
 20
-79.999402005011
 30
0.0
 10
69.68669438209412
 20
-79.999402005011
 30
0.0
 10
69.68669438209412
 20
-79.999402005011
 30
0.0
 10
69.68669438209412
 20
-79.999402005011
 30
0.0
 10
71.24919321610155
 20
-79.999402005011
 30
0.0
 10
71.24919321610155
 20
-79.999402005011
 30
0.0
 10
71.24919321610155
 20
-79.999402005011
 30
0.0
 10
72.81169205010899
 20
-79.999402005011
 30
0.0
 10
72.81169205010899
 20
-79.999402005011
 30
0.0
 10
72.81169205010899
 20
-79.999402005011
 30
0.0
 10
74.37419088411642
 20
-79.999402005011
 30
0.0
 10
74.37419088411642
 20
-79.999402005011
 30
0.0
 10
74.37419088411642
 20
-79.999402005011
 30
0.0
 10
75.93668971812384
 20
-79.999402005011
 30
0.0
 10
75.93668971812384
 20
-79.999402005011
 30
0.0
 10
75.93668971812384
 20
-79.999402005011
 30
0.0
 10
77.49918855213129
 20
-79.999402005011
 30
0.0
 10
77.49918855213129
 20
-79.999402005011
 30
0.0
 10
77.49918855213129
 20
-79.999402005011
 30
0.0
 10
77.49918855213129
 20
-79.4994029164248
 30
0.0
 10
77.49918855213129
 20
-79.4994029164248
 30
0.0
 10
77.49918855213129
 20
-79.4994029164248
 30
0.0
 10
77.49918855213129
 20
-78.99940382783859
 30
0.0
 10
77.49918855213129
 20
-78.99940382783859
 30
0.0
 10
77.49918855213129
 20
-78.99940382783859
 30
0.0
 10
77.49918855213129
 20
-78.49940473925237
 30
0.0
 10
77.49918855213129
 20
-78.49940473925237
 30
0.0
 10
77.49918855213129
 20
-78.49940473925237
 30
0.0
 10
77.49918855213129
 20
-77.99940565066616
 30
0.0
 10
77.49918855213129
 20
-77.99940565066616
 30
0.0
 10
77.49918855213129
 20
-77.99940565066616
 30
0.0
 10
77.49918855213129
 20
-77.49940656207995
 30
0.0
 10
77.49918855213129
 20
-77.49940656207995
 30
0.0
 10
77.49918855213129
 20
-77.49940656207995
 30
0.0
 10
77.49918855213129
 20
-76.99940747349375
 30
0.0
 10
77.49918855213129
 20
-76.99940747349375
 30
0.0
 10
77.49918855213129
 20
-76.99940747349375
 30
0.0
 10
77.49918855213129
 20
-76.49940838490754
 30
0.0
 10
77.49918855213129
 20
-76.49940838490754
 30
0.0
 10
77.49918855213129
 20
-76.49940838490754
 30
0.0
 10
77.49918855213129
 20
-75.99940929632133
 30
0.0
 10
77.49918855213129
 20
-75.99940929632133
 30
0.0
 10
77.49918855213129
 20
-75.99940929632133
 30
0.0
 10
77.94590439437258
 20
-75.99940929632133
 30
0.0
 10
77.94590439437258
 20
-75.99940929632133
 30
0.0
 10
77.94590439437258
 20
-75.99940929632133
 30
0.0
 10
78.39262023661387
 20
-75.99940929632133
 30
0.0
 10
78.39262023661387
 20
-75.99940929632133
 30
0.0
 10
78.39262023661387
 20
-75.99940929632133
 30
0.0
 10
78.83933607885517
 20
-75.99940929632133
 30
0.0
 10
78.83933607885517
 20
-75.99940929632133
 30
0.0
 10
78.83933607885517
 20
-75.99940929632133
 30
0.0
 10
79.28605192109646
 20
-75.99940929632133
 30
0.0
 10
79.28605192109646
 20
-75.99940929632133
 30
0.0
 10
79.28605192109646
 20
-75.99940929632133
 30
0.0
 10
79.73276776333775
 20
-75.99940929632133
 30
0.0
 10
79.73276776333775
 20
-75.99940929632133
 30
0.0
 10
79.73276776333775
 20
-75.99940929632133
 30
0.0
 10
80.17948360557905
 20
-75.99940929632133
 30
0.0
 10
80.17948360557905
 20
-75.99940929632133
 30
0.0
 10
80.17948360557905
 20
-75.99940929632133
 30
0.0
 10
80.62619944782034
 20
-75.99940929632133
 30
0.0
 10
80.62619944782034
 20
-75.99940929632133
 30
0.0
 10
80.62619944782034
 20
-75.99940929632133
 30
0.0
 10
81.07291529006163
 20
-75.99940929632133
 30
0.0
 10
81.07291529006163
 20
-75.99940929632133
 30
0.0
 10
81.24584293453609
 20
-76.29822288301149
 30
0.0
 10
81.43751472450519
 20
-76.58483295910239
 30
0.0
 10
81.64632506548004
 20
-76.85762143995181
 30
0.0
 10
81.85513540645489
 20
-77.13040992080123
 30
0.0
 10
82.08108429843547
 20
-77.38937680640916
 30
0.0
 10
82.32256614693289
 20
-77.6329040121334
 30
0.0
 10
82.56404799543031
 20
-77.87643121785763
 30
0.0
 10
82.82106280044457
 20
-78.10451874369815
 30
0.0
 10
83.09200496748674
 20
-78.31554850501277
 30
0.0
 10
83.36294713452892
 20
-78.52657826632739
 30
0.0
 10
83.64781666359902
 20
-78.7205502631161
 30
0.0
 10
83.94500796020814
 20
-78.89584641073665
 30
0.0
 10
84.24219925681726
 20
-79.07114255835722
 30
0.0
 10
84.5517123209654
 20
-79.22776285680965
 30
0.0
 10
84.87194155816364
 20
-79.36408922145172
 30
0.0
 10
85.19217079536189
 20
-79.5004155860938
 30
0.0
 10
85.52311620561024
 20
-79.61644801692552
 30
0.0
 10
85.8631721944198
 20
-79.71056842930467
 30
0.0
 10
86.20322818322936
 20
-79.80468884168383
 30
0.0
 10
86.5523947506001
 20
-79.87689723561041
 30
0.0
 10
86.90906630204316
 20
-79.9255755264422
 30
0.0
 10
87.2657378534862
 20
-79.974253817274
 30
0.0
 10
87.62991438900154
 20
-79.999402005011
 30
0.0
 10
87.99999031410027
 20
-79.999402005011
 30
0.0
 10
88.55227680111769
 20
-79.999402005011
 30
0.0
 10
89.0914917749624
 20
-79.94343770730653
 30
0.0
 10
89.61227363756797
 20
-79.83687070996403
 30
0.0
 10
90.13305550017351
 20
-79.73030371262155
 30
0.0
 10
90.6354042515399
 20
-79.57313401564105
 30
0.0
 10
91.11395829360063
 20
-79.37072321708902
 30
0.0
 10
91.59251233566138
 20
-79.16831241853698
 30
0.0
 10
92.04727166841647
 20
-78.92066051841341
 30
0.0
 10
92.47287469379945
 20
-78.6331291147848
 30
0.0
 10
92.89847771918244
 20
-78.34559771115616
 30
0.0
 10
93.2949244371933
 20
-78.01818680402248
 30
0.0
 10
93.65685324976559
 20
-77.6562579914502
 30
0.0
 10
94.01878206233786
 20
-77.29432917887792
 30
0.0
 10
94.34619296947156
 20
-76.89788246086705
 30
0.0
 10
94.63372437310018
 20
-76.47227943548407
 30
0.0
 10
94.92125577672881
 20
-76.04667641010109
 30
0.0
 10
95.16890767685237
 20
-75.59191707734598
 30
0.0
 10
95.37131847540441
 20
-75.11336303528525
 30
0.0
 10
95.57372927395645
 20
-74.63480899322451
 30
0.0
 10
95.73089897093693
 20
-74.13246024185813
 30
0.0
 10
95.83746596827942
 20
-73.61167837925257
 30
0.0
 10
95.94403296562191
 20
-73.09089651664702
 30
0.0
 10
95.99999726332639
 20
-72.5516815428023
 30
0.0
 10
95.99999726332639
 20
-71.99939505578487
 30
0.0
 10
95.99999726332639
 20
-71.4471112602483
 30
0.0
 10
95.94403296562191
 20
-70.90789864144932
 30
0.0
 10
95.83746596827942
 20
-70.3871188395088
 30
0.0
 10
95.73089897093693
 20
-69.86633903756827
 30
0.0
 10
95.57372927395645
 20
-69.3639920524862
 30
0.0
 10
95.37131847540441
 20
-68.88543952438343
 30
0.0
 10
95.16890767685237
 20
-68.40688699628066
 30
0.0
 10
94.92125577672881
 20
-67.95212892515721
 30
0.0
 10
94.63372437310018
 20
-67.52652695113393
 30
0.0
 10
94.34619296947156
 20
-67.10092497711067
 30
0.0
 10
94.01878206233786
 20
-66.70447910018756
 30
0.0
 10
93.65685324976559
 20
-66.3425509604855
 30
0.0
 10
93.2949244371933
 20
-65.98062282078342
 30
0.0
 10
92.89847771918244
 20
-65.65321241830239
 30
0.0
 10
92.47287469379945
 20
-65.36568139316326
 30
0.0
 10
92.04727166841647
 20
-65.07815036802413
 30
0.0
 10
91.59251233566138
 20
-64.83049872022688
 30
0.0
 10
91.11395829360063
 20
-64.62808808989242
 30
0.0
 10
90.6354042515399
 20
-64.42567745955793
 30
0.0
 10
90.13305550017351
 20
-64.26850784668622
 30
0.0
 10
89.61227363756797
 20
-64.16194089139812
 30
0.0
 10
89.0914917749624
 20
-64.05537393611002
 30
0.0
 10
88.55227680111769
 20
-63.99940963840553
 30
0.0
 10
87.99999031410027
 20
-63.99940963840553
 30
0.0
 10
87.62991438900154
 20
-63.99940963840553
 30
0.0
 10
87.2657378534862
 20
-64.02455782614254
 30
0.0
 10
86.90906630204316
 20
-64.07323611697433
 30
0.0
 10
86.5523947506001
 20
-64.12191440780613
 30
0.0
 10
86.20322818322936
 20
-64.1941228017327
 30
0.0
 10
85.8631721944198
 20
-64.28824321411186
 30
0.0
 10
85.52311620561024
 20
-64.38236362649101
 30
0.0
 10
85.19217079536189
 20
-64.49839605732274
 30
0.0
 10
84.87194155816364
 20
-64.63472242196481
 30
0.0
 10
84.5517123209654
 20
-64.77104878660688
 30
0.0
 10
84.24219925681726
 20
-64.92766908505932
 30
0.0
 10
83.94500796020814
 20
-65.10296523267988
 30
0.0
 10
83.64781666359902
 20
-65.27826138030045
 30
0.0
 10
83.36294713452892
 20
-65.47223337708914
 30
0.0
 10
83.09200496748674
 20
-65.68326313840376
 30
0.0
 10
82.82106280044457
 20
-65.89429289971838
 30
0.0
 10
82.56404799543031
 20
-66.12238042555892
 30
0.0
 10
82.32256614693289
 20
-66.36590763128315
 30
0.0
 10
82.08108429843547
 20
-66.60943483700738
 30
0.0
 10
81.85513540645489
 20
-66.86840172261532
 30
0.0
 10
81.64632506548004
 20
-67.14119020346473
 30
0.0
 10
81.43751472450519
 20
-67.41397868431415
 30
0.0
 10
81.24584293453609
 20
-67.70058876040504
 30
0.0
 10
81.07291529006163
 20
-67.9994023470952
 30
0.0
 10
81.07291529006163
 20
-67.9994023470952
 30
0.0
 10
80.62619944782034
 20
-67.9994023470952
 30
0.0
 10
80.62619944782034
 20
-67.9994023470952
 30
0.0
 10
80.62619944782034
 20
-67.9994023470952
 30
0.0
 10
80.17948360557905
 20
-67.9994023470952
 30
0.0
 10
80.17948360557905
 20
-67.9994023470952
 30
0.0
 10
80.17948360557905
 20
-67.9994023470952
 30
0.0
 10
79.73276776333775
 20
-67.9994023470952
 30
0.0
 10
79.73276776333775
 20
-67.9994023470952
 30
0.0
 10
79.73276776333775
 20
-67.9994023470952
 30
0.0
 10
79.28605192109646
 20
-67.9994023470952
 30
0.0
 10
79.28605192109646
 20
-67.9994023470952
 30
0.0
 10
79.28605192109646
 20
-67.9994023470952
 30
0.0
 10
78.83933607885517
 20
-67.9994023470952
 30
0.0
 10
78.83933607885517
 20
-67.9994023470952
 30
0.0
 10
78.83933607885517
 20
-67.9994023470952
 30
0.0
 10
78.39262023661387
 20
-67.9994023470952
 30
0.0
 10
78.39262023661387
 20
-67.9994023470952
 30
0.0
 10
78.39262023661387
 20
-67.9994023470952
 30
0.0
 10
77.94590439437258
 20
-67.9994023470952
 30
0.0
 10
77.94590439437258
 20
-67.9994023470952
 30
0.0
 10
77.94590439437258
 20
-67.9994023470952
 30
0.0
 10
77.49918855213129
 20
-67.9994023470952
 30
0.0
 10
77.49918855213129
 20
-67.9994023470952
 30
0.0
 10
77.49918855213129
 20
-67.9994023470952
 30
0.0
 10
77.49918855213129
 20
-66.74947594987215
 30
0.0
 10
77.49918855213129
 20
-66.74947594987215
 30
0.0
 10
77.49918855213129
 20
-66.74947594987215
 30
0.0
 10
77.49918855213129
 20
-65.4995495526491
 30
0.0
 10
77.49918855213129
 20
-65.4995495526491
 30
0.0
 10
77.49918855213129
 20
-65.4995495526491
 30
0.0
 10
77.49918855213129
 20
-64.24962315542604
 30
0.0
 10
77.49918855213129
 20
-64.24962315542604
 30
0.0
 10
77.49918855213129
 20
-64.24962315542604
 30
0.0
 10
77.49918855213129
 20
-62.99969675820299
 30
0.0
 10
77.49918855213129
 20
-62.99969675820299
 30
0.0
 10
77.49918855213129
 20
-62.99969675820299
 30
0.0
 10
77.49918855213129
 20
-61.74977036097993
 30
0.0
 10
77.49918855213129
 20
-61.74977036097993
 30
0.0
 10
77.49918855213129
 20
-61.74977036097993
 30
0.0
 10
77.49918855213129
 20
-60.49984396375688
 30
0.0
 10
77.49918855213129
 20
-60.49984396375688
 30
0.0
 10
77.49918855213129
 20
-60.49984396375688
 30
0.0
 10
77.49918855213129
 20
-59.24991756653382
 30
0.0
 10
77.49918855213129
 20
-59.24991756653382
 30
0.0
 10
77.49918855213129
 20
-59.24991756653382
 30
0.0
 10
77.49918855213129
 20
-57.99999116931077
 30
0.0
 10
77.49918855213129
 20
-57.99999116931077
 30
0.0
 10
77.49918855213129
 20
-57.99999116931077
 30
0.0
 10
77.94590439437258
 20
-57.99999116931077
 30
0.0
 10
77.94590439437258
 20
-57.99999116931077
 30
0.0
 10
77.94590439437258
 20
-57.99999116931077
 30
0.0
 10
78.39262023661387
 20
-57.99999116931077
 30
0.0
 10
78.39262023661387
 20
-57.99999116931077
 30
0.0
 10
78.39262023661387
 20
-57.99999116931077
 30
0.0
 10
78.83933607885517
 20
-57.99999116931077
 30
0.0
 10
78.83933607885517
 20
-57.99999116931077
 30
0.0
 10
78.83933607885517
 20
-57.99999116931077
 30
0.0
 10
79.28605192109646
 20
-57.99999116931077
 30
0.0
 10
79.28605192109646
 20
-57.99999116931077
 30
0.0
 10
79.28605192109646
 20
-57.99999116931077
 30
0.0
 10
79.73276776333775
 20
-57.99999116931077
 30
0.0
 10
79.73276776333775
 20
-57.99999116931077
 30
0.0
 10
79.73276776333775
 20
-57.99999116931077
 30
0.0
 10
80.17948360557905
 20
-57.99999116931077
 30
0.0
 10
80.17948360557905
 20
-57.99999116931077
 30
0.0
 10
80.17948360557905
 20
-57.99999116931077
 30
0.0
 10
80.62619944782034
 20
-57.99999116931077
 30
0.0
 10
80.62619944782034
 20
-57.99999116931077
 30
0.0
 10
80.62619944782034
 20
-57.99999116931077
 30
0.0
 10
81.07291529006163
 20
-57.99999116931077
 30
0.0
 10
81.07291529006163
 20
-57.99999116931077
 30
0.0
 10
81.24584293453609
 20
-58.29880475600093
 30
0.0
 10
81.43751472450519
 20
-58.58541483209183
 30
0.0
 10
81.64632506548004
 20
-58.85820331294124
 30
0.0
 10
81.85513540645489
 20
-59.13099179379066
 30
0.0
 10
82.08108429843547
 20
-59.3899586793986
 30
0.0
 10
82.32256614693289
 20
-59.63348588512283
 30
0.0
 10
82.56404799543031
 20
-59.87701309084706
 30
0.0
 10
82.82106280044457
 20
-60.10510061668759
 30
0.0
 10
83.09200496748674
 20
-60.31613037800221
 30
0.0
 10
83.36294713452892
 20
-60.52716013931683
 30
0.0
 10
83.64781666359902
 20
-60.72113213610552
 30
0.0
 10
83.94500796020814
 20
-60.89642828372609
 30
0.0
 10
84.24219925681726
 20
-61.07172443134665
 30
0.0
 10
84.5517123209654
 20
-61.22834472979908
 30
0.0
 10
84.87194155816364
 20
-61.36467109444116
 30
0.0
 10
85.19217079536189
 20
-61.50099745908324
 30
0.0
 10
85.52311620561024
 20
-61.61702988991496
 30
0.0
 10
85.8631721944198
 20
-61.71115030229412
 30
0.0
 10
86.20322818322936
 20
-61.80527071467326
 30
0.0
 10
86.5523947506001
 20
-61.87747910859985
 30
0.0
 10
86.90906630204316
 20
-61.92615739943164
 30
0.0
 10
87.2657378534862
 20
-61.97483569026343
 30
0.0
 10
87.62991438900154
 20
-61.99998387800044
 30
0.0
 10
87.99999031410027
 20
-61.99998387800044
 30
0.0
 10
88.55227680111769
 20
-61.99998387800044
 30
0.0
 10
89.0914917749624
 20
-61.94401958029596
 30
0.0
 10
89.61227363756797
 20
-61.83745258295347
 30
0.0
 10
90.13305550017351
 20
-61.73088558561098
 30
0.0
 10
90.6354042515399
 20
-61.57371588863049
 30
0.0
 10
91.11395829360063
 20
-61.37130509007846
 30
0.0
 10
91.59251233566138
 20
-61.16889429152642
 30
0.0
 10
92.04727166841647
 20
-60.92124239140286
 30
0.0
 10
92.47287469379945
 20
-60.63371098777423
 30
0.0
 10
92.89847771918244
 20
-60.3461795841456
 30
0.0
 10
93.2949244371933
 20
-60.01876867701191
 30
0.0
 10
93.65685324976559
 20
-59.65683986443963
 30
0.0
 10
94.01878206233786
 20
-59.29491105186736
 30
0.0
 10
94.34619296947156
 20
-58.89846433385649
 30
0.0
 10
94.63372437310018
 20
-58.4728613084735
 30
0.0
 10
94.92125577672881
 20
-58.04725828309052
 30
0.0
 10
95.16890767685237
 20
-57.59249895033543
 30
0.0
 10
95.37131847540441
 20
-57.11394490827468
 30
0.0
 10
95.57372927395645
 20
-56.63539086621395
 30
0.0
 10
95.73089897093693
 20
-56.13304211484756
 30
0.0
 10
95.83746596827942
 20
-55.61226025224201
 30
0.0
 10
95.94403296562191
 20
-55.09147838963646
 30
0.0
 10
95.99999726332639
 20
-54.55226341579174
 30
0.0
 10
95.99999726332639
 20
-53.99997692877432
 30
0.0
 10
95.99999726332639
 20
-53.44769313323774
 30
0.0
 10
95.94403296562191
 20
-52.90848051443876
 30
0.0
 10
95.83746596827942
 20
-52.38770071249824
 30
0.0
 10
95.73089897093693
 20
-51.8669209105577
 30
0.0
 10
95.57372927395645
 20
-51.36457392547563
 30
0.0
 10
95.37131847540441
 20
-50.88602139737286
 30
0.0
 10
95.16890767685237
 20
-50.4074688692701
 30
0.0
 10
94.92125577672881
 20
-49.95271079814665
 30
0.0
 10
94.63372437310018
 20
-49.52710882412337
 30
0.0
 10
94.34619296947156
 20
-49.10150685010009
 30
0.0
 10
94.01878206233786
 20
-48.705060973177
 30
0.0
 10
93.65685324976559
 20
-48.34313283347493
 30
0.0
 10
93.2949244371933
 20
-47.98120469377286
 30
0.0
 10
92.89847771918244
 20
-47.65379429129183
 30
0.0
 10
92.47287469379945
 20
-47.3662632661527
 30
0.0
 10
92.04727166841647
 20
-47.07873224101356
 30
0.0
 10
91.59251233566138
 20
-46.83108059321633
 30
0.0
 10
91.11395829360063
 20
-46.62866996288185
 30
0.0
 10
90.6354042515399
 20
-46.42625933254737
 30
0.0
 10
90.13305550017351
 20
-46.26908971967565
 30
0.0
 10
89.61227363756797
 20
-46.16252276438755
 30
0.0
 10
89.0914917749624
 20
-46.05595580909945
 30
0.0
 10
88.55227680111769
 20
-45.99999151139497
 30
0.0
 10
87.99999031410027
 20
-45.99999151139497
 30
0.0
 10
87.62991438900154
 20
-45.99999151139497
 30
0.0
 10
87.2657378534862
 20
-46.02513969913198
 30
0.0
 10
86.90906630204316
 20
-46.07381798996377
 30
0.0
 10
86.5523947506001
 20
-46.12249628079557
 30
0.0
 10
86.20322818322936
 20
-46.19470467472215
 30
0.0
 10
85.8631721944198
 20
-46.2888250871013
 30
0.0
 10
85.52311620561024
 20
-46.38294549948045
 30
0.0
 10
85.19217079536189
 20
-46.49897793031217
 30
0.0
 10
84.87194155816364
 20
-46.63530429495425
 30
0.0
 10
84.5517123209654
 20
-46.77163065959633
 30
0.0
 10
84.24219925681726
 20
-46.92825095804876
 30
0.0
 10
83.94500796020814
 20
-47.10354710566932
 30
0.0
 10
83.64781666359902
 20
-47.27884325328989
 30
0.0
 10
83.36294713452892
 20
-47.47281525007858
 30
0.0
 10
83.09200496748674
 20
-47.6838450113932
 30
0.0
 10
82.82106280044457
 20
-47.89487477270782
 30
0.0
 10
82.56404799543031
 20
-48.12296229854835
 30
0.0
 10
82.32256614693289
 20
-48.36648950427259
 30
0.0
 10
82.08108429843547
 20
-48.61001670999682
 30
0.0
 10
81.85513540645489
 20
-48.86898359560475
 30
0.0
 10
81.64632506548004
 20
-49.14177207645417
 30
0.0
 10
81.43751472450519
 20
-49.41456055730358
 30
0.0
 10
81.24584293453609
 20
-49.70117063339448
 30
0.0
 10
81.07291529006163
 20
-49.99998422008464
 30
0.0
 10
81.07291529006163
 20
-49.99998422008464
 30
0.0
 10
80.62619944782034
 20
-49.99998422008464
 30
0.0
 10
80.62619944782034
 20
-49.99998422008464
 30
0.0
 10
80.62619944782034
 20
-49.99998422008464
 30
0.0
 10
80.17948360557905
 20
-49.99998422008464
 30
0.0
 10
80.17948360557905
 20
-49.99998422008464
 30
0.0
 10
80.17948360557905
 20
-49.99998422008464
 30
0.0
 10
79.73276776333775
 20
-49.99998422008464
 30
0.0
 10
79.73276776333775
 20
-49.99998422008464
 30
0.0
 10
79.73276776333775
 20
-49.99998422008464
 30
0.0
 10
79.28605192109646
 20
-49.99998422008464
 30
0.0
 10
79.28605192109646
 20
-49.99998422008464
 30
0.0
 10
79.28605192109646
 20
-49.99998422008464
 30
0.0
 10
78.83933607885517
 20
-49.99998422008464
 30
0.0
 10
78.83933607885517
 20
-49.99998422008464
 30
0.0
 10
78.83933607885517
 20
-49.99998422008464
 30
0.0
 10
78.39262023661387
 20
-49.99998422008464
 30
0.0
 10
78.39262023661387
 20
-49.99998422008464
 30
0.0
 10
78.39262023661387
 20
-49.99998422008464
 30
0.0
 10
77.94590439437258
 20
-49.99998422008464
 30
0.0
 10
77.94590439437258
 20
-49.99998422008464
 30
0.0
 10
77.94590439437258
 20
-49.99998422008464
 30
0.0
 10
77.49918855213129
 20
-49.99998422008464
 30
0.0
 10
77.49918855213129
 20
-49.99998422008464
 30
0.0
 10
77.49918855213129
 20
-49.99998422008464
 30
0.0
 10
77.49918855213129
 20
-48.62498470786193
 30
0.0
 10
77.49918855213129
 20
-48.62498470786193
 30
0.0
 10
77.49918855213129
 20
-48.62498470786193
 30
0.0
 10
77.49918855213129
 20
-47.24998519563922
 30
0.0
 10
77.49918855213129
 20
-47.24998519563922
 30
0.0
 10
77.49918855213129
 20
-47.24998519563922
 30
0.0
 10
77.49918855213129
 20
-45.87498568341651
 30
0.0
 10
77.49918855213129
 20
-45.87498568341651
 30
0.0
 10
77.49918855213129
 20
-45.87498568341651
 30
0.0
 10
77.49918855213129
 20
-44.4999861711938
 30
0.0
 10
77.49918855213129
 20
-44.4999861711938
 30
0.0
 10
77.49918855213129
 20
-44.4999861711938
 30
0.0
 10
77.49918855213129
 20
-43.12498665897109
 30
0.0
 10
77.49918855213129
 20
-43.12498665897109
 30
0.0
 10
77.49918855213129
 20
-43.12498665897109
 30
0.0
 10
77.49918855213129
 20
-41.74998714674837
 30
0.0
 10
77.49918855213129
 20
-41.74998714674837
 30
0.0
 10
77.49918855213129
 20
-41.74998714674837
 30
0.0
 10
77.49918855213129
 20
-40.37498763452567
 30
0.0
 10
77.49918855213129
 20
-40.37498763452567
 30
0.0
 10
77.49918855213129
 20
-40.37498763452567
 30
0.0
 10
77.49918855213129
 20
-38.99998812230296
 30
0.0
 10
77.49918855213129
 20
-38.99998812230296
 30
0.0
  0
ENDSEC
  0
SECTION
  2
OBJECTS
  0
DICTIONARY
  5
C
330
0
100
AcDbDictionary
  3
ACAD_GROUP
350
D
  3
ACAD_LAYOUT
350
1A
  3
ACAD_MATERIAL
350
3B
  3
ACAD_MLEADERSTYLE
350
44
  3
ACAD_MLINESTYLE
350
17
  3
ACAD_PLOTSETTINGS
350
19
  3
ACAD_VISUALSTYLE
350
2A
  3
ACDBVARIABLEDICTIONARY
350
42
1001
ACAD
1000
TREAT_AS_HARD
1070
     0
  0
DICTIONARY
  5
D
102
{ACAD_REACTORS
330
C
102
}
330
C
100
AcDbDictionary
1001
ACAD
1000
TREAT_AS_HARD
1070
     0
  0
DICTIONARY
  5
1A
102
{ACAD_REACTORS
330
C
102
}
330
C
100
AcDbDictionary
1001
ACAD
1000
TREAT_AS_HARD
1070
     0
  0
DICTIONARY
  5
3B
102
{ACAD_REACTORS
330
C
102
}
330
C
100
AcDbDictionary
  3
BYBLOCK
350
3D
  3
BYLAYER
350
3C
  3
GLOBAL
350
3E
1001
ACAD
1000
TREAT_AS_HARD
1070
     0
  0
DICTIONARY
  5
44
102
{ACAD_REACTORS
330
C
102
}
330
C
100
AcDbDictionary
1001
ACAD
1000
TREAT_AS_HARD
1070
     0
  0
DICTIONARY
  5
17
102
{ACAD_REACTORS
330
C
102
}
330
C
100
AcDbDictionary
  3
STANDARD
350
18
1001
ACAD
1000
TREAT_AS_HARD
1070
     0
  0
DICTIONARY
  5
19
102
{ACAD_REACTORS
330
C
102
}
330
C
100
AcDbDictionary
1001
ACAD
1000
TREAT_AS_HARD
1070
     0
  0
DICTIONARY
  5
2A
102
{ACAD_REACTORS
330
C
102
}
330
C
100
AcDbDictionary
  3
2DWIREFRAME
350
2F
  3
3DWIREFRAME
350
30
  3
3D_HIDDEN
350
31
  3
BASIC
350
32
  3
BRIGHTEN
350
36
  3
COLORCHANGE
350
3A
  3
CONCEPTUAL
350
34
  3
DIM
350
35
  3
FACEPATTERN
350
39
  3
FLAT
350
2B
  3
FLATWITHEDGES
350
2C
  3
GOURAUD
350
2D
  3
GOURAUDWITHEDGES
350
2E
  3
LINEPATTERN
350
38
  3
REALISTIC
350
33
  3
THICKEN
350
37
1001
ACAD
1000
TREAT_AS_HARD
1070
     0
  0
DICTIONARY
  5
42
102
{ACAD_REACTORS
330
C
102
}
330
C
100
AcDbDictionary
  3
DIMASSOC
350
45
  3
HIDETEXT
350
46
1001
ACAD
1000
TREAT_AS_HARD
1070
     0
  0
MATERIAL
  5
3D
102
{ACAD_REACTORS
330
3B
102
}
102
{ACAD_XDICTIONARY
360
49
102
}
330
3B
100
AcDbMaterial
  1
ByBlock
  0
MATERIAL
  5
3C
102
{ACAD_REACTORS
330
3B
102
}
102
{ACAD_XDICTIONARY
360
47
102
}
330
3B
100
AcDbMaterial
  1
ByLayer
  0
MATERIAL
  5
3E
102
{ACAD_REACTORS
330
3B
102
}
102
{ACAD_XDICTIONARY
360
4B
102
}
330
3B
100
AcDbMaterial
  1
Global
  0
MLINESTYLE
  5
18
102
{ACAD_REACTORS
330
17
102
}
330
17
100
AcDbMlineStyle
  2
Standard
 70
     0
  3

 62
   256
 51
90.0
 52
90.0
 71
     2
 49
0.5
 62
   256
  6
BYLAYER
 49
-0.5
 62
   256
  6
BYLAYER
  0
ACAD_PROXY_OBJECT
  5
2F
102
{ACAD_REACTORS
330
2A
102
}
330
2A
100
AcDbZombieObject
 90
      499
 91
      501
 93
      436
310
42CC9915DA5C99599C985B595049028333333333333E3BF0000000000000FB0107901411070040501600405405064090741402480A0340
1001
ACAD
1000
AcDbSavedByObjectVersion
1070
     0
  0
ACAD_PROXY_OBJECT
  5
30
102
{ACAD_REACTORS
330
2A
102
}
330
2A
100
AcDbZombieObject
 90
      499
 91
      501
 93
      436
310
42CCD915DA5C99599C985B595059028333333333333E3BF0000000000000FB0107901411070040501600405405064090741402480A0340
1001
ACAD
1000
AcDbSavedByObjectVersion
1070
     0
  0
ACAD_PROXY_OBJECT
  5
31
102
{ACAD_REACTORS
330
2A
102
}
330
2A
100
AcDbZombieObject
 90
      499
 91
      501
 93
      500
310
424CD108121A5919195B90640502408333333333333E3BF0000000000000FB01079024090700405020000000000001110200405405064090740C02480A0340
1001
ACAD
1000
AcDbSavedByObjectVersion
1070
     0
  0
ACAD_PROXY_OBJECT
  5
32
102
{ACAD_REACTORS
330
2A
102
}
330
2A
100
AcDbZombieObject
 90
      499
 91
      501
 93
      388
310
4150985CDA58D07406404333333333333E3BF0000000000000FB0107A41107004050150841D405064090741402480A0350
1001
ACAD
1000
AcDbSavedByObjectVersion
1070
     0
  0
ACAD_PROXY_OBJECT
  5
36
102
{ACAD_REACTORS
330
2A
102
}
330
2A
100
AcDbZombieObject
 90
      499
 91
      501
 93
      428
310
42109C9A59DA1D195B90C409028333333333333E3BF0000000000000FB010790141107004050150841D405064090741402480A029950
1001
ACAD
1000
AcDbSavedByObjectVersion
1070
     0
  0
ACAD_PROXY_OBJECT
  5
3A
102
{ACAD_REACTORS
330
2A
102
}
330
2A
100
AcDbZombieObject
 90
      499
 91
      501
 93
      452
310
42D0DBDB1BDC90DA185B99D95104090240C333333333333E3BF0000000000000FB0108901411070040501508421405064090741402480A0350
1001
ACAD
1000
AcDbSavedByObjectVersion
1070
     0
  0
ACAD_PROXY_OBJECT
  5
34
102
{ACAD_REACTORS
330
2A
102
}
330
2A
100
AcDbZombieObject
 90
      499
 91
      501
 93
      500
310
4290DBDB98D95C1D1D585B10940D028333333333333E3BF0000000000000FB0107902409070040501000000000000111010841D405064090740C02480A0340
1001
ACAD
1000
AcDbSavedByObjectVersion
1070
     0
  0
ACAD_PROXY_OBJECT
  5
35
102
{ACAD_REACTORS
330
2A
102
}
330
2A
100
AcDbZombieObject
 90
      499
 91
      501
 93
      412
310
40D11A5B50B409028333333333333E3BF0000000000000FB010790141107004050150841D405064090741402480A02677FFFFFD0
1001
ACAD
1000
AcDbSavedByObjectVersion
1070
     0
  0
ACAD_PROXY_OBJECT
  5
39
102
{ACAD_REACTORS
330
2A
102
}
330
2A
100
AcDbZombieObject
 90
      499
 91
      501
 93
      444
310
42D19858D95C185D1D195C9B90F409028333333333333E3BF0000000000000FB010790141107004050150841D405064090741402480A0350
1001
ACAD
1000
AcDbSavedByObjectVersion
1070
     0
  0
ACAD_PROXY_OBJECT
  5
2B
102
{ACAD_REACTORS
330
2A
102
}
330
2A
100
AcDbZombieObject
 90
      499
 91
      501
 93
      388
310
41119B185D240901404333333333333E3BF0000000000000F9010740A41107004050150841D405064090741402480A1B50
1001
ACAD
1000
AcDbSavedByObjectVersion
1070
     0
  0
ACAD_PROXY_OBJECT
  5
2C
102
{ACAD_REACTORS
330
2A
102
}
330
2A
100
AcDbZombieObject
 90
      499
 91
      501
 93
      476
310
43519B185D15DA5D1A115919D95CD0140901404333333333333E3BF0000000000000F9010740901411070040501600405405064090741402480A1B50
1001
ACAD
1000
AcDbSavedByObjectVersion
1070
     0
  0
ACAD_PROXY_OBJECT
  5
2D
102
{ACAD_REACTORS
330
2A
102
}
330
2A
100
AcDbZombieObject
 90
      499
 91
      501
 93
      412
310
41D1DBDD5C985D5910240902404333333333333E3BF0000000000000F9010740A411070040501641D405064090741402480A1B50
1001
ACAD
1000
AcDbSavedByObjectVersion
1070
     0
  0
ACAD_PROXY_OBJECT
  5
2E
102
{ACAD_REACTORS
330
2A
102
}
330
2A
100
AcDbZombieObject
 90
      499
 91
      501
 93
      500
310
4411DBDD5C985D5915DA5D1A115919D95CD0340902404333333333333E3BF0000000000000F9010740901411070040501600405405064090741402480A1B50
1001
ACAD
1000
AcDbSavedByObjectVersion
1070
     0
  0
ACAD_PROXY_OBJECT
  5
38
102
{ACAD_REACTORS
330
2A
102
}
330
2A
100
AcDbZombieObject
 90
      499
 91
      501
 93
      444
310
42D31A5B995C185D1D195C9B90E409028333333333333E3BF0000000000000FB010790141107004050750841D405064090741402483A0350
1001
ACAD
1000
AcDbSavedByObjectVersion
1070
     0
  0
ACAD_PROXY_OBJECT
  5
33
102
{ACAD_REACTORS
330
2A
102
}
330
2A
100
AcDbZombieObject
 90
      499
 91
      501
 93
      420
310
425499585B1A5CDD1A58D08409028333333333333E3BF0000000000000FB01079019070040501508421405064090741402480A1B40
1001
ACAD
1000
AcDbSavedByObjectVersion
1070
     0
  0
ACAD_PROXY_OBJECT
  5
37
102
{ACAD_REACTORS
330
2A
102
}
330
2A
100
AcDbZombieObject
 90
      499
 91
      501
 93
      412
310
41D51A1A58DAD95B90D409028333333333333E3BF0000000000000FB010790141107004050150C41D405064090741402480A0350
1001
ACAD
1000
AcDbSavedByObjectVersion
1070
     0
  0
DICTIONARYVAR
  5
45
102
{ACAD_REACTORS
330
42
102
}
330
42
100
DictionaryVariables
280
     0
  1
2
  0
DICTIONARYVAR
  5
46
102
{ACAD_REACTORS
330
42
102
}
330
42
100
DictionaryVariables
280
     0
  1
1
  0
DICTIONARY
  5
49
330
3D
100
AcDbDictionary
  3
ACAD_XREC_ROUNDTRIP
360
4A
1001
ACAD
1000
TREAT_AS_HARD
1070
     1
  0
DICTIONARY
  5
47
330
3C
100
AcDbDictionary
  3
ACAD_XREC_ROUNDTRIP
360
48
1001
ACAD
1000
TREAT_AS_HARD
1070
     1
  0
DICTIONARY
  5
4B
330
3E
100
AcDbDictionary
  3
ACAD_XREC_ROUNDTRIP
360
4C
1001
ACAD
1000
TREAT_AS_HARD
1070
     1
  0
XRECORD
  5
4A
102
{ACAD_REACTORS
330
49
102
}
330
49
100
AcDbXrecord
102
MATERIAL
148
0.0
149
0.0
149
0.0
 93
        0
 94
      127
282
     0
 72
     1
 77
     1
171
     1
175
     1
179
     1
273
     0
  0
XRECORD
  5
48
102
{ACAD_REACTORS
330
47
102
}
330
47
100
AcDbXrecord
102
MATERIAL
148
0.0
149
0.0
149
0.0
 93
        0
 94
      127
282
     0
 72
     1
 77
     1
171
     1
175
     1
179
     1
273
     0
  0
XRECORD
  5
4C
102
{ACAD_REACTORS
330
4B
102
}
330
4B
100
AcDbXrecord
102
MATERIAL
148
0.0
149
0.0
149
0.0
 93
        0
 94
      127
282
     0
 72
     1
 77
     1
171
     1
175
     1
179
     1
273
     0
  0
ENDSEC
  0
EOF
