%
M48
M72
T01C0.01575
T02C0.01969
T03C0.03937
T04C0.12598
%
T01
X42339Y81772
X32496Y91614
X22654Y103425
X44307Y95551
X65495Y86789
X71866Y81772
X69898Y99488
X24622Y152638
X32496Y162480
X44307Y166417
X62024Y174291
X63992Y164449
X67929Y154606
X101394Y168386
X130921Y186102
X101000Y214843
X107299Y231378
X113778Y240376
X69898Y245157
X68483Y234858
X69898Y227441
X44307Y243189
X32496Y237283
X42339Y227441
X22654Y176260
X20685Y249094
X42339Y298307
X32496Y308150
X44307Y312087
X22654Y319961
X69898Y306181
X71866Y302244
X71866Y312087
X71866Y317992
X91551Y312087
X97457Y304213
X148244Y302244
X181315Y289252
X169504Y270354
X188402Y250276
X181315Y245551
X169504Y245551
X169504Y237283
X188402Y234921
X194307Y234921
X181315Y216024
X169504Y214843
X169504Y205394
X181315Y200669
X188402Y193583
X194307Y192402
X169504Y186496
X188402Y166417
X181315Y158150
X188402Y146339
X188402Y128622
X204543Y158543
X204937Y166417
X234257Y194162
X251961Y148638
X294307Y154606
X299324Y164272
X294307Y174291
X319898Y158543
X331709Y162480
X343520Y150669
X321866Y101457
X331709Y91614
X341551Y79803
X319898Y85709
X294307Y93583
X290370Y99488
X292339Y81772
X260843Y99488
X321866Y174291
X319898Y233346
X331709Y237283
X321866Y247126
X341551Y296339
X331709Y308150
X321866Y317992
X319898Y302244
X297945Y310732
X294307Y304213
X290370Y298307
X294307Y317992
X271079Y317992
X258458Y302244
X236827Y274635
X294307Y247126
X294307Y239252
X294307Y227441
X343520Y225472
X131709Y149098
T02
X116354Y308150
X123441Y293976
X142339Y293976
X181315Y273898
X188402Y265630
X181315Y257362
X181315Y226654
X188402Y225472
X163598Y195945
X144701Y198307
X151787Y223110
X145882Y245551
X188402Y288071
X232102Y278622
X236827Y236102
X236827Y216024
X259268Y231378
X221472Y174685
X181315Y147520
X169504Y142795
X162417Y146339
X152969Y126260
X111630Y86102
X105724Y115630
X154150Y171142
X169504Y175866
X239189Y132953
T03
X82043Y300000
X82043Y290000
X82043Y280000
X82043Y270000
X82043Y260000
X82043Y250000
X82043Y240000
X82043Y230000
X82043Y220000
X82043Y210000
X82043Y200000
X82043Y190000
X82043Y180000
X82043Y170000
X82043Y160000
X82043Y150000
X82043Y140000
X82043Y130000
X82043Y120000
X82043Y110000
X82043Y100000
X82043Y90000
X82043Y80000
X92043Y80000
X92043Y90000
X92043Y100000
X92043Y110000
X92043Y120000
X92043Y130000
X92043Y140000
X92043Y150000
X92043Y160000
X92043Y170000
X92043Y180000
X92043Y190000
X92043Y200000
X92043Y210000
X92043Y220000
X92043Y230000
X92043Y240000
X92043Y250000
X92043Y260000
X92043Y270000
X92043Y280000
X92043Y290000
X92043Y300000
X272043Y300000
X272043Y290000
X272043Y280000
X272043Y270000
X272043Y260000
X272043Y250000
X272043Y240000
X272043Y230000
X272043Y220000
X272043Y210000
X272043Y200000
X272043Y190000
X272043Y180000
X272043Y170000
X272043Y160000
X272043Y150000
X272043Y140000
X272043Y130000
X272043Y120000
X272043Y110000
X272043Y100000
X272043Y90000
X272043Y80000
X282043Y80000
X282043Y90000
X282043Y100000
X282043Y110000
X282043Y120000
X282043Y130000
X282043Y140000
X282043Y150000
X282043Y160000
X282043Y170000
X282043Y180000
X282043Y190000
X282043Y200000
X282043Y210000
X282043Y220000
X282043Y230000
X282043Y240000
X282043Y250000
X282043Y260000
X282043Y270000
X282043Y280000
X282043Y290000
X282043Y300000
T04
X32496Y69961
X32496Y113268
X32496Y140827
X32496Y184134
X32496Y215630
X32496Y258937
X32496Y286496
X32496Y329803
X331709Y329803
X331709Y286496
X331709Y258937
X331709Y215630
X331709Y184134
X331709Y140827
X331709Y113268
X331709Y69961
M30
