G75*
%MOIN*%
%OFA0B0*%
%FSLAX25Y25*%
%IPPOS*%
%LPD*%
%AMOC8*
5,1,8,0,0,1.08239X$1,22.5*
%
%ADD10C,0.00000*%
%ADD11C,0.02953*%
%ADD12R,0.11811X0.05906*%
%ADD13R,0.05937X0.05937*%
%ADD14C,0.05937*%
%ADD15C,0.02775*%
%ADD16C,0.01181*%
%ADD17C,0.02362*%
%ADD18C,0.03169*%
D10*
X0022120Y0061838D02*
X0024098Y0061219D01*
X0026149Y0060800D01*
X0028199Y0060380D01*
X0030322Y0060160D01*
X0033953Y0060160D01*
X0035387Y0060259D01*
X0036791Y0060450D01*
X0038195Y0060642D01*
X0039570Y0060926D01*
X0040909Y0061297D01*
X0042248Y0061668D01*
X0043550Y0062124D01*
X0044811Y0062661D01*
X0046072Y0063198D01*
X0047291Y0063814D01*
X0049631Y0065195D01*
X0050752Y0065958D01*
X0051819Y0066789D01*
X0052886Y0067620D01*
X0053897Y0068518D01*
X0054848Y0069477D01*
X0055799Y0070436D01*
X0056688Y0071455D01*
X0058333Y0073603D01*
X0059087Y0074731D01*
X0059768Y0075908D01*
X0073831Y0075908D01*
X0073831Y0060160D01*
X0123044Y0060160D01*
X0123044Y0062011D01*
X0123208Y0063587D01*
X0123519Y0065109D01*
X0123831Y0066632D01*
X0124290Y0068100D01*
X0124882Y0069499D01*
X0125474Y0070898D01*
X0126198Y0072227D01*
X0127038Y0073471D01*
X0127879Y0074715D01*
X0128836Y0075874D01*
X0129894Y0076932D01*
X0130952Y0077990D01*
X0132111Y0078947D01*
X0133355Y0079788D01*
X0134599Y0080628D01*
X0135928Y0081352D01*
X0137327Y0081944D01*
X0138726Y0082536D01*
X0140194Y0082995D01*
X0141717Y0083307D01*
X0143239Y0083618D01*
X0144815Y0083782D01*
X0219383Y0083782D01*
X0220959Y0083618D01*
X0222482Y0083307D01*
X0224004Y0082995D01*
X0225472Y0082536D01*
X0226871Y0081944D01*
X0228270Y0081352D01*
X0229600Y0080628D01*
X0230844Y0079788D01*
X0232088Y0078947D01*
X0233247Y0077990D01*
X0235363Y0075874D01*
X0236320Y0074715D01*
X0237160Y0073471D01*
X0238001Y0072227D01*
X0238725Y0070898D01*
X0239317Y0069499D01*
X0239908Y0068100D01*
X0240368Y0066632D01*
X0240679Y0065109D01*
X0240991Y0063587D01*
X0241154Y0062011D01*
X0241154Y0060160D01*
X0290367Y0060160D01*
X0290367Y0075908D01*
X0304437Y0075908D01*
X0305118Y0074731D01*
X0305872Y0073603D01*
X0307516Y0071455D01*
X0308406Y0070436D01*
X0309357Y0069477D01*
X0310307Y0068518D01*
X0311319Y0067620D01*
X0312386Y0066789D01*
X0313453Y0065958D01*
X0314574Y0065195D01*
X0315744Y0064505D01*
X0316914Y0063814D01*
X0318133Y0063198D01*
X0319393Y0062661D01*
X0320654Y0062124D01*
X0321957Y0061668D01*
X0323296Y0061297D01*
X0324635Y0060926D01*
X0326009Y0060642D01*
X0328818Y0060259D01*
X0330252Y0060160D01*
X0333883Y0060160D01*
X0336006Y0060380D01*
X0338056Y0060800D01*
X0340107Y0061219D01*
X0342084Y0061838D01*
X0343968Y0062635D01*
X0345852Y0063432D01*
X0347643Y0064407D01*
X0349318Y0065539D01*
X0350994Y0066671D01*
X0352555Y0067960D01*
X0353980Y0069385D01*
X0355405Y0070810D01*
X0356694Y0072371D01*
X0358958Y0075722D01*
X0359933Y0077512D01*
X0361527Y0081280D01*
X0362145Y0083258D01*
X0362565Y0085308D01*
X0362984Y0087359D01*
X0363205Y0089482D01*
X0363205Y0093830D01*
X0362984Y0095953D01*
X0362565Y0098003D01*
X0362145Y0100054D01*
X0361527Y0102032D01*
X0360730Y0103916D01*
X0359933Y0105800D01*
X0358958Y0107590D01*
X0357826Y0109266D01*
X0356694Y0110941D01*
X0355405Y0112502D01*
X0352555Y0115352D01*
X0350994Y0116641D01*
X0347643Y0118905D01*
X0345852Y0119880D01*
X0343968Y0120677D01*
X0342084Y0121474D01*
X0340107Y0122092D01*
X0338056Y0122512D01*
X0336006Y0122932D01*
X0333883Y0123152D01*
X0330252Y0123152D01*
X0328818Y0123053D01*
X0327414Y0122861D01*
X0326009Y0122670D01*
X0324635Y0122385D01*
X0323296Y0122015D01*
X0321957Y0121644D01*
X0320654Y0121187D01*
X0319393Y0120651D01*
X0318133Y0120114D01*
X0316914Y0119497D01*
X0315744Y0118807D01*
X0314574Y0118117D01*
X0313453Y0117353D01*
X0312386Y0116523D01*
X0311319Y0115692D01*
X0310307Y0114794D01*
X0309357Y0113835D01*
X0308406Y0112876D01*
X0307516Y0111857D01*
X0305872Y0109709D01*
X0305118Y0108580D01*
X0304437Y0107404D01*
X0290367Y0107404D01*
X0290367Y0146772D01*
X0304437Y0146772D01*
X0305118Y0145595D01*
X0305872Y0144467D01*
X0307516Y0142319D01*
X0308406Y0141299D01*
X0309357Y0140341D01*
X0310307Y0139382D01*
X0311319Y0138484D01*
X0312386Y0137653D01*
X0313453Y0136822D01*
X0314574Y0136059D01*
X0315744Y0135368D01*
X0316914Y0134678D01*
X0318133Y0134062D01*
X0319393Y0133525D01*
X0320654Y0132988D01*
X0321957Y0132531D01*
X0323296Y0132161D01*
X0324635Y0131790D01*
X0326009Y0131506D01*
X0327414Y0131314D01*
X0328818Y0131123D01*
X0330252Y0131024D01*
X0333883Y0131024D01*
X0336006Y0131244D01*
X0338056Y0131664D01*
X0340107Y0132083D01*
X0342084Y0132702D01*
X0343968Y0133499D01*
X0345852Y0134296D01*
X0347643Y0135271D01*
X0349318Y0136403D01*
X0350994Y0137535D01*
X0352555Y0138824D01*
X0355405Y0141674D01*
X0356694Y0143234D01*
X0357826Y0144910D01*
X0358958Y0146586D01*
X0359933Y0148376D01*
X0360730Y0150260D01*
X0361527Y0152144D01*
X0362145Y0154122D01*
X0362565Y0156172D01*
X0362984Y0158223D01*
X0363205Y0160345D01*
X0363205Y0164694D01*
X0362984Y0166817D01*
X0362565Y0168867D01*
X0362145Y0170918D01*
X0361527Y0172895D01*
X0359933Y0176664D01*
X0358958Y0178454D01*
X0356694Y0181805D01*
X0355405Y0183366D01*
X0352555Y0186216D01*
X0350994Y0187505D01*
X0347643Y0189769D01*
X0345852Y0190744D01*
X0343968Y0191541D01*
X0342084Y0192338D01*
X0340107Y0192956D01*
X0338056Y0193376D01*
X0336006Y0193795D01*
X0333883Y0194016D01*
X0330252Y0194016D01*
X0328818Y0193917D01*
X0326009Y0193533D01*
X0324635Y0193249D01*
X0321957Y0192508D01*
X0320654Y0192051D01*
X0319393Y0191515D01*
X0318133Y0190978D01*
X0316914Y0190361D01*
X0315744Y0189671D01*
X0314574Y0188981D01*
X0313453Y0188217D01*
X0312386Y0187386D01*
X0311319Y0186556D01*
X0310307Y0185658D01*
X0309357Y0184699D01*
X0308406Y0183740D01*
X0307516Y0182721D01*
X0306694Y0181647D01*
X0305872Y0180573D01*
X0305118Y0179444D01*
X0304437Y0178268D01*
X0290367Y0178268D01*
X0290367Y0221575D01*
X0292126Y0221575D02*
X0304437Y0221575D01*
X0305118Y0220398D01*
X0305872Y0219270D01*
X0307516Y0217122D01*
X0308406Y0216103D01*
X0309357Y0215144D01*
X0310307Y0214185D01*
X0311319Y0213287D01*
X0312386Y0212456D01*
X0313453Y0211625D01*
X0314574Y0210862D01*
X0315744Y0210172D01*
X0316914Y0209481D01*
X0318133Y0208865D01*
X0319393Y0208328D01*
X0320654Y0207791D01*
X0321957Y0207335D01*
X0323296Y0206964D01*
X0324635Y0206593D01*
X0326009Y0206309D01*
X0327414Y0206118D01*
X0328818Y0205926D01*
X0330252Y0205827D01*
X0333883Y0205827D01*
X0336006Y0206047D01*
X0338056Y0206467D01*
X0340107Y0206886D01*
X0342084Y0207505D01*
X0343968Y0208302D01*
X0345852Y0209099D01*
X0347643Y0210074D01*
X0350994Y0212338D01*
X0352555Y0213627D01*
X0355405Y0216477D01*
X0356694Y0218038D01*
X0357826Y0219713D01*
X0358958Y0221389D01*
X0359933Y0223179D01*
X0361527Y0226947D01*
X0362145Y0228925D01*
X0362565Y0230975D01*
X0362984Y0233026D01*
X0363205Y0235149D01*
X0363205Y0239497D01*
X0362984Y0241620D01*
X0362565Y0243670D01*
X0362145Y0245721D01*
X0361527Y0247698D01*
X0360730Y0249583D01*
X0359933Y0251467D01*
X0358958Y0253257D01*
X0357826Y0254933D01*
X0356694Y0256608D01*
X0355405Y0258169D01*
X0353980Y0259594D01*
X0352555Y0261019D01*
X0350994Y0262308D01*
X0347643Y0264572D01*
X0345852Y0265547D01*
X0343968Y0266344D01*
X0342084Y0267141D01*
X0340107Y0267759D01*
X0338056Y0268179D01*
X0336006Y0268599D01*
X0333883Y0268819D01*
X0330252Y0268819D01*
X0328818Y0268720D01*
X0326009Y0268337D01*
X0324635Y0268052D01*
X0321957Y0267311D01*
X0320654Y0266854D01*
X0319393Y0266318D01*
X0318133Y0265781D01*
X0316914Y0265164D01*
X0315744Y0264474D01*
X0314574Y0263784D01*
X0313453Y0263020D01*
X0312386Y0262190D01*
X0311319Y0261359D01*
X0310307Y0260461D01*
X0309357Y0259502D01*
X0308406Y0258543D01*
X0307516Y0257524D01*
X0306694Y0256450D01*
X0305872Y0255376D01*
X0305118Y0254247D01*
X0304437Y0253071D01*
X0290367Y0253071D01*
X0290367Y0292443D01*
X0304437Y0292443D01*
X0305118Y0291267D01*
X0305872Y0290138D01*
X0307516Y0287991D01*
X0308406Y0286971D01*
X0309357Y0286012D01*
X0310307Y0285053D01*
X0311319Y0284155D01*
X0312386Y0283325D01*
X0313453Y0282494D01*
X0314574Y0281730D01*
X0315744Y0281040D01*
X0316914Y0280350D01*
X0318133Y0279733D01*
X0320654Y0278660D01*
X0321957Y0278203D01*
X0324635Y0277462D01*
X0326009Y0277178D01*
X0327414Y0276986D01*
X0328818Y0276794D01*
X0330252Y0276695D01*
X0333883Y0276695D01*
X0336006Y0276916D01*
X0338056Y0277335D01*
X0340107Y0277755D01*
X0342084Y0278373D01*
X0343968Y0279170D01*
X0345852Y0279967D01*
X0347643Y0280942D01*
X0349318Y0282074D01*
X0350994Y0283206D01*
X0352555Y0284495D01*
X0353980Y0285920D01*
X0355405Y0287345D01*
X0356694Y0288906D01*
X0358958Y0292257D01*
X0359933Y0294048D01*
X0360730Y0295932D01*
X0361527Y0297816D01*
X0362145Y0299794D01*
X0362565Y0301844D01*
X0362984Y0303894D01*
X0363205Y0306017D01*
X0363205Y0310366D01*
X0362984Y0312489D01*
X0362565Y0314539D01*
X0362145Y0316589D01*
X0361527Y0318567D01*
X0359933Y0322335D01*
X0358958Y0324126D01*
X0356694Y0327477D01*
X0355405Y0329038D01*
X0353980Y0330462D01*
X0352555Y0331887D01*
X0350994Y0333176D01*
X0349318Y0334308D01*
X0347643Y0335440D01*
X0345852Y0336415D01*
X0343968Y0337212D01*
X0342084Y0338009D01*
X0340107Y0338628D01*
X0338056Y0339048D01*
X0336006Y0339467D01*
X0333883Y0339687D01*
X0330252Y0339687D01*
X0328818Y0339588D01*
X0326009Y0339205D01*
X0324635Y0338921D01*
X0323296Y0338550D01*
X0321957Y0338180D01*
X0320654Y0337723D01*
X0319393Y0337186D01*
X0318133Y0336649D01*
X0316914Y0336033D01*
X0315744Y0335343D01*
X0314574Y0334653D01*
X0313453Y0333889D01*
X0312386Y0333058D01*
X0311319Y0332227D01*
X0310307Y0331329D01*
X0309357Y0330370D01*
X0308406Y0329412D01*
X0307516Y0328392D01*
X0305872Y0326244D01*
X0305118Y0325116D01*
X0304437Y0323939D01*
X0289972Y0323939D01*
X0289744Y0325062D01*
X0289420Y0326151D01*
X0289010Y0327196D01*
X0288599Y0328241D01*
X0288102Y0329242D01*
X0286952Y0331139D01*
X0286299Y0332036D01*
X0285578Y0332871D01*
X0284856Y0333706D01*
X0284065Y0334479D01*
X0283214Y0335183D01*
X0282363Y0335886D01*
X0281452Y0336519D01*
X0280489Y0337074D01*
X0279527Y0337628D01*
X0278513Y0338103D01*
X0277457Y0338490D01*
X0276401Y0338877D01*
X0275302Y0339177D01*
X0274170Y0339379D01*
X0273038Y0339582D01*
X0271872Y0339687D01*
X0092326Y0339687D01*
X0091160Y0339582D01*
X0090028Y0339379D01*
X0088896Y0339177D01*
X0087798Y0338877D01*
X0086741Y0338490D01*
X0085685Y0338103D01*
X0084671Y0337628D01*
X0083709Y0337074D01*
X0082747Y0336519D01*
X0081835Y0335886D01*
X0080984Y0335183D01*
X0080133Y0334479D01*
X0079343Y0333706D01*
X0078621Y0332871D01*
X0077899Y0332036D01*
X0077246Y0331139D01*
X0076096Y0329242D01*
X0075599Y0328241D01*
X0075189Y0327196D01*
X0074778Y0326151D01*
X0074455Y0325062D01*
X0074227Y0323939D01*
X0059768Y0323939D01*
X0059087Y0325116D01*
X0058333Y0326244D01*
X0057511Y0327318D01*
X0056688Y0328392D01*
X0055799Y0329412D01*
X0054848Y0330370D01*
X0053897Y0331329D01*
X0052886Y0332227D01*
X0051819Y0333058D01*
X0050752Y0333889D01*
X0049631Y0334653D01*
X0047291Y0336033D01*
X0046072Y0336649D01*
X0044811Y0337186D01*
X0043550Y0337723D01*
X0042248Y0338180D01*
X0040909Y0338550D01*
X0039570Y0338921D01*
X0038195Y0339205D01*
X0036791Y0339397D01*
X0035387Y0339588D01*
X0033953Y0339687D01*
X0030322Y0339687D01*
X0028199Y0339467D01*
X0026149Y0339047D01*
X0024098Y0338628D01*
X0022120Y0338009D01*
X0020236Y0337212D01*
X0018352Y0336415D01*
X0016562Y0335440D01*
X0013211Y0333176D01*
X0011650Y0331887D01*
X0010225Y0330462D01*
X0008800Y0329037D01*
X0007511Y0327477D01*
X0006379Y0325801D01*
X0005247Y0324125D01*
X0004272Y0322335D01*
X0002678Y0318567D01*
X0002059Y0316589D01*
X0001640Y0314539D01*
X0001220Y0312489D01*
X0001000Y0310366D01*
X0001000Y0306017D01*
X0001220Y0303894D01*
X0001640Y0301844D01*
X0002059Y0299793D01*
X0002678Y0297816D01*
X0003475Y0295932D01*
X0004272Y0294048D01*
X0005247Y0292257D01*
X0006379Y0290582D01*
X0007511Y0288906D01*
X0008800Y0287345D01*
X0010225Y0285920D01*
X0011650Y0284495D01*
X0013211Y0283206D01*
X0016562Y0280942D01*
X0018352Y0279967D01*
X0020236Y0279170D01*
X0022120Y0278373D01*
X0024098Y0277755D01*
X0026149Y0277335D01*
X0028199Y0276916D01*
X0030322Y0276695D01*
X0033953Y0276695D01*
X0035387Y0276794D01*
X0036791Y0276986D01*
X0038195Y0277178D01*
X0039570Y0277462D01*
X0040909Y0277832D01*
X0042248Y0278203D01*
X0043550Y0278660D01*
X0044811Y0279197D01*
X0046072Y0279733D01*
X0047291Y0280350D01*
X0049631Y0281730D01*
X0050752Y0282494D01*
X0051819Y0283325D01*
X0052886Y0284155D01*
X0053897Y0285053D01*
X0054848Y0286012D01*
X0055799Y0286971D01*
X0056688Y0287991D01*
X0057511Y0289064D01*
X0058333Y0290138D01*
X0059087Y0291267D01*
X0059768Y0292443D01*
X0073831Y0292443D01*
X0073831Y0253071D01*
X0059768Y0253071D01*
X0059087Y0254247D01*
X0058333Y0255376D01*
X0057510Y0256450D01*
X0056688Y0257524D01*
X0055799Y0258543D01*
X0054848Y0259502D01*
X0053897Y0260461D01*
X0052886Y0261359D01*
X0051819Y0262190D01*
X0050752Y0263020D01*
X0049631Y0263784D01*
X0047290Y0265164D01*
X0046072Y0265781D01*
X0044811Y0266318D01*
X0043550Y0266854D01*
X0042248Y0267311D01*
X0040909Y0267682D01*
X0039570Y0268052D01*
X0038195Y0268337D01*
X0036791Y0268528D01*
X0035387Y0268720D01*
X0033953Y0268819D01*
X0030322Y0268819D01*
X0028199Y0268599D01*
X0026149Y0268179D01*
X0024098Y0267759D01*
X0022120Y0267141D01*
X0020236Y0266344D01*
X0018352Y0265547D01*
X0016562Y0264572D01*
X0014886Y0263440D01*
X0013211Y0262308D01*
X0011650Y0261019D01*
X0010225Y0259594D01*
X0008800Y0258169D01*
X0007511Y0256608D01*
X0006379Y0254933D01*
X0005247Y0253257D01*
X0004272Y0251467D01*
X0002678Y0247698D01*
X0002059Y0245721D01*
X0001640Y0243670D01*
X0001220Y0241620D01*
X0001000Y0239497D01*
X0001000Y0235149D01*
X0001220Y0233026D01*
X0001640Y0230975D01*
X0002059Y0228925D01*
X0002678Y0226947D01*
X0003475Y0225063D01*
X0004272Y0223179D01*
X0005247Y0221389D01*
X0006379Y0219713D01*
X0007511Y0218037D01*
X0008800Y0216477D01*
X0011650Y0213627D01*
X0013211Y0212338D01*
X0014886Y0211206D01*
X0016562Y0210074D01*
X0018352Y0209099D01*
X0020236Y0208302D01*
X0022120Y0207505D01*
X0024098Y0206886D01*
X0026149Y0206467D01*
X0028199Y0206047D01*
X0030322Y0205827D01*
X0033953Y0205827D01*
X0035387Y0205926D01*
X0036791Y0206117D01*
X0038195Y0206309D01*
X0039570Y0206593D01*
X0040909Y0206964D01*
X0042248Y0207334D01*
X0043550Y0207791D01*
X0044811Y0208328D01*
X0046072Y0208865D01*
X0047291Y0209481D01*
X0049631Y0210862D01*
X0050752Y0211625D01*
X0051819Y0212456D01*
X0052886Y0213287D01*
X0053897Y0214185D01*
X0054848Y0215144D01*
X0055799Y0216102D01*
X0056688Y0217122D01*
X0058333Y0219270D01*
X0059087Y0220398D01*
X0059768Y0221575D01*
X0073831Y0221575D01*
X0073831Y0178268D01*
X0059768Y0178268D01*
X0059087Y0179444D01*
X0058333Y0180573D01*
X0057511Y0181647D01*
X0056688Y0182721D01*
X0055799Y0183740D01*
X0054848Y0184699D01*
X0053897Y0185658D01*
X0052886Y0186556D01*
X0051819Y0187386D01*
X0050752Y0188217D01*
X0049631Y0188981D01*
X0047291Y0190361D01*
X0046072Y0190978D01*
X0044811Y0191515D01*
X0043550Y0192051D01*
X0042248Y0192508D01*
X0039570Y0193249D01*
X0038195Y0193533D01*
X0036791Y0193725D01*
X0035387Y0193917D01*
X0033953Y0194016D01*
X0030322Y0194016D01*
X0028199Y0193795D01*
X0026149Y0193376D01*
X0024098Y0192956D01*
X0022120Y0192338D01*
X0020236Y0191541D01*
X0018352Y0190744D01*
X0016562Y0189769D01*
X0014886Y0188637D01*
X0013211Y0187505D01*
X0011650Y0186216D01*
X0010225Y0184791D01*
X0008800Y0183366D01*
X0007511Y0181805D01*
X0006379Y0180129D01*
X0005247Y0178454D01*
X0004272Y0176663D01*
X0003475Y0174779D01*
X0002678Y0172895D01*
X0002059Y0170918D01*
X0001640Y0168867D01*
X0001220Y0166817D01*
X0001000Y0164694D01*
X0001000Y0160345D01*
X0001220Y0158222D01*
X0001640Y0156172D01*
X0002059Y0154122D01*
X0002678Y0152144D01*
X0004272Y0148376D01*
X0005247Y0146586D01*
X0006379Y0144910D01*
X0007511Y0143234D01*
X0008800Y0141674D01*
X0010225Y0140249D01*
X0011650Y0138824D01*
X0013211Y0137535D01*
X0016562Y0135271D01*
X0018352Y0134296D01*
X0020236Y0133499D01*
X0022120Y0132702D01*
X0024098Y0132083D01*
X0028199Y0131244D01*
X0030322Y0131024D01*
X0033953Y0131024D01*
X0035387Y0131123D01*
X0036791Y0131314D01*
X0038195Y0131506D01*
X0039570Y0131790D01*
X0040909Y0132161D01*
X0042248Y0132531D01*
X0043550Y0132988D01*
X0044811Y0133525D01*
X0046072Y0134062D01*
X0047291Y0134678D01*
X0049631Y0136059D01*
X0050752Y0136822D01*
X0051819Y0137653D01*
X0052886Y0138484D01*
X0053897Y0139382D01*
X0054848Y0140341D01*
X0055799Y0141299D01*
X0056688Y0142319D01*
X0058333Y0144467D01*
X0059087Y0145595D01*
X0059768Y0146772D01*
X0073831Y0146772D01*
X0073831Y0107404D01*
X0059768Y0107404D01*
X0059087Y0108580D01*
X0058333Y0109709D01*
X0056688Y0111857D01*
X0055799Y0112876D01*
X0054848Y0113835D01*
X0053897Y0114794D01*
X0052886Y0115692D01*
X0051819Y0116523D01*
X0050752Y0117353D01*
X0049631Y0118117D01*
X0047291Y0119497D01*
X0046072Y0120114D01*
X0044811Y0120651D01*
X0043550Y0121187D01*
X0042248Y0121644D01*
X0040909Y0122015D01*
X0039570Y0122385D01*
X0038195Y0122670D01*
X0036791Y0122861D01*
X0035387Y0123053D01*
X0033953Y0123152D01*
X0030322Y0123152D01*
X0028199Y0122932D01*
X0026149Y0122512D01*
X0024098Y0122092D01*
X0022120Y0121474D01*
X0020236Y0120677D01*
X0018352Y0119880D01*
X0016562Y0118905D01*
X0014886Y0117773D01*
X0013211Y0116641D01*
X0011650Y0115352D01*
X0010225Y0113927D01*
X0008800Y0112502D01*
X0007511Y0110941D01*
X0006379Y0109266D01*
X0005247Y0107590D01*
X0004272Y0105800D01*
X0003475Y0103916D01*
X0002678Y0102031D01*
X0002059Y0100054D01*
X0001640Y0098003D01*
X0001220Y0095953D01*
X0001000Y0093830D01*
X0001000Y0089481D01*
X0001220Y0087359D01*
X0001640Y0085308D01*
X0002059Y0083258D01*
X0002678Y0081280D01*
X0004272Y0077512D01*
X0005247Y0075722D01*
X0006379Y0074046D01*
X0007511Y0072371D01*
X0008800Y0070810D01*
X0010225Y0069385D01*
X0011650Y0067960D01*
X0013211Y0066671D01*
X0016562Y0064407D01*
X0018352Y0063432D01*
X0020236Y0062635D01*
X0022120Y0061838D01*
X0026197Y0069961D02*
X0026199Y0070119D01*
X0026205Y0070277D01*
X0026215Y0070435D01*
X0026229Y0070593D01*
X0026247Y0070750D01*
X0026268Y0070907D01*
X0026294Y0071063D01*
X0026324Y0071219D01*
X0026357Y0071374D01*
X0026395Y0071527D01*
X0026436Y0071680D01*
X0026481Y0071832D01*
X0026530Y0071983D01*
X0026583Y0072132D01*
X0026639Y0072280D01*
X0026699Y0072426D01*
X0026763Y0072571D01*
X0026831Y0072714D01*
X0026902Y0072856D01*
X0026976Y0072996D01*
X0027054Y0073133D01*
X0027136Y0073269D01*
X0027220Y0073403D01*
X0027309Y0073534D01*
X0027400Y0073663D01*
X0027495Y0073790D01*
X0027592Y0073915D01*
X0027693Y0074037D01*
X0027797Y0074156D01*
X0027904Y0074273D01*
X0028014Y0074387D01*
X0028127Y0074498D01*
X0028242Y0074607D01*
X0028360Y0074712D01*
X0028481Y0074814D01*
X0028604Y0074914D01*
X0028730Y0075010D01*
X0028858Y0075103D01*
X0028988Y0075193D01*
X0029121Y0075279D01*
X0029256Y0075363D01*
X0029392Y0075442D01*
X0029531Y0075519D01*
X0029672Y0075591D01*
X0029814Y0075661D01*
X0029958Y0075726D01*
X0030104Y0075788D01*
X0030251Y0075846D01*
X0030400Y0075901D01*
X0030550Y0075952D01*
X0030701Y0075999D01*
X0030853Y0076042D01*
X0031006Y0076081D01*
X0031161Y0076117D01*
X0031316Y0076148D01*
X0031472Y0076176D01*
X0031628Y0076200D01*
X0031785Y0076220D01*
X0031943Y0076236D01*
X0032100Y0076248D01*
X0032259Y0076256D01*
X0032417Y0076260D01*
X0032575Y0076260D01*
X0032733Y0076256D01*
X0032892Y0076248D01*
X0033049Y0076236D01*
X0033207Y0076220D01*
X0033364Y0076200D01*
X0033520Y0076176D01*
X0033676Y0076148D01*
X0033831Y0076117D01*
X0033986Y0076081D01*
X0034139Y0076042D01*
X0034291Y0075999D01*
X0034442Y0075952D01*
X0034592Y0075901D01*
X0034741Y0075846D01*
X0034888Y0075788D01*
X0035034Y0075726D01*
X0035178Y0075661D01*
X0035320Y0075591D01*
X0035461Y0075519D01*
X0035600Y0075442D01*
X0035736Y0075363D01*
X0035871Y0075279D01*
X0036004Y0075193D01*
X0036134Y0075103D01*
X0036262Y0075010D01*
X0036388Y0074914D01*
X0036511Y0074814D01*
X0036632Y0074712D01*
X0036750Y0074607D01*
X0036865Y0074498D01*
X0036978Y0074387D01*
X0037088Y0074273D01*
X0037195Y0074156D01*
X0037299Y0074037D01*
X0037400Y0073915D01*
X0037497Y0073790D01*
X0037592Y0073663D01*
X0037683Y0073534D01*
X0037772Y0073403D01*
X0037856Y0073269D01*
X0037938Y0073133D01*
X0038016Y0072996D01*
X0038090Y0072856D01*
X0038161Y0072714D01*
X0038229Y0072571D01*
X0038293Y0072426D01*
X0038353Y0072280D01*
X0038409Y0072132D01*
X0038462Y0071983D01*
X0038511Y0071832D01*
X0038556Y0071680D01*
X0038597Y0071527D01*
X0038635Y0071374D01*
X0038668Y0071219D01*
X0038698Y0071063D01*
X0038724Y0070907D01*
X0038745Y0070750D01*
X0038763Y0070593D01*
X0038777Y0070435D01*
X0038787Y0070277D01*
X0038793Y0070119D01*
X0038795Y0069961D01*
X0038793Y0069803D01*
X0038787Y0069645D01*
X0038777Y0069487D01*
X0038763Y0069329D01*
X0038745Y0069172D01*
X0038724Y0069015D01*
X0038698Y0068859D01*
X0038668Y0068703D01*
X0038635Y0068548D01*
X0038597Y0068395D01*
X0038556Y0068242D01*
X0038511Y0068090D01*
X0038462Y0067939D01*
X0038409Y0067790D01*
X0038353Y0067642D01*
X0038293Y0067496D01*
X0038229Y0067351D01*
X0038161Y0067208D01*
X0038090Y0067066D01*
X0038016Y0066926D01*
X0037938Y0066789D01*
X0037856Y0066653D01*
X0037772Y0066519D01*
X0037683Y0066388D01*
X0037592Y0066259D01*
X0037497Y0066132D01*
X0037400Y0066007D01*
X0037299Y0065885D01*
X0037195Y0065766D01*
X0037088Y0065649D01*
X0036978Y0065535D01*
X0036865Y0065424D01*
X0036750Y0065315D01*
X0036632Y0065210D01*
X0036511Y0065108D01*
X0036388Y0065008D01*
X0036262Y0064912D01*
X0036134Y0064819D01*
X0036004Y0064729D01*
X0035871Y0064643D01*
X0035736Y0064559D01*
X0035600Y0064480D01*
X0035461Y0064403D01*
X0035320Y0064331D01*
X0035178Y0064261D01*
X0035034Y0064196D01*
X0034888Y0064134D01*
X0034741Y0064076D01*
X0034592Y0064021D01*
X0034442Y0063970D01*
X0034291Y0063923D01*
X0034139Y0063880D01*
X0033986Y0063841D01*
X0033831Y0063805D01*
X0033676Y0063774D01*
X0033520Y0063746D01*
X0033364Y0063722D01*
X0033207Y0063702D01*
X0033049Y0063686D01*
X0032892Y0063674D01*
X0032733Y0063666D01*
X0032575Y0063662D01*
X0032417Y0063662D01*
X0032259Y0063666D01*
X0032100Y0063674D01*
X0031943Y0063686D01*
X0031785Y0063702D01*
X0031628Y0063722D01*
X0031472Y0063746D01*
X0031316Y0063774D01*
X0031161Y0063805D01*
X0031006Y0063841D01*
X0030853Y0063880D01*
X0030701Y0063923D01*
X0030550Y0063970D01*
X0030400Y0064021D01*
X0030251Y0064076D01*
X0030104Y0064134D01*
X0029958Y0064196D01*
X0029814Y0064261D01*
X0029672Y0064331D01*
X0029531Y0064403D01*
X0029392Y0064480D01*
X0029256Y0064559D01*
X0029121Y0064643D01*
X0028988Y0064729D01*
X0028858Y0064819D01*
X0028730Y0064912D01*
X0028604Y0065008D01*
X0028481Y0065108D01*
X0028360Y0065210D01*
X0028242Y0065315D01*
X0028127Y0065424D01*
X0028014Y0065535D01*
X0027904Y0065649D01*
X0027797Y0065766D01*
X0027693Y0065885D01*
X0027592Y0066007D01*
X0027495Y0066132D01*
X0027400Y0066259D01*
X0027309Y0066388D01*
X0027220Y0066519D01*
X0027136Y0066653D01*
X0027054Y0066789D01*
X0026976Y0066926D01*
X0026902Y0067066D01*
X0026831Y0067208D01*
X0026763Y0067351D01*
X0026699Y0067496D01*
X0026639Y0067642D01*
X0026583Y0067790D01*
X0026530Y0067939D01*
X0026481Y0068090D01*
X0026436Y0068242D01*
X0026395Y0068395D01*
X0026357Y0068548D01*
X0026324Y0068703D01*
X0026294Y0068859D01*
X0026268Y0069015D01*
X0026247Y0069172D01*
X0026229Y0069329D01*
X0026215Y0069487D01*
X0026205Y0069645D01*
X0026199Y0069803D01*
X0026197Y0069961D01*
X0026197Y0113268D02*
X0026199Y0113426D01*
X0026205Y0113584D01*
X0026215Y0113742D01*
X0026229Y0113900D01*
X0026247Y0114057D01*
X0026268Y0114214D01*
X0026294Y0114370D01*
X0026324Y0114526D01*
X0026357Y0114681D01*
X0026395Y0114834D01*
X0026436Y0114987D01*
X0026481Y0115139D01*
X0026530Y0115290D01*
X0026583Y0115439D01*
X0026639Y0115587D01*
X0026699Y0115733D01*
X0026763Y0115878D01*
X0026831Y0116021D01*
X0026902Y0116163D01*
X0026976Y0116303D01*
X0027054Y0116440D01*
X0027136Y0116576D01*
X0027220Y0116710D01*
X0027309Y0116841D01*
X0027400Y0116970D01*
X0027495Y0117097D01*
X0027592Y0117222D01*
X0027693Y0117344D01*
X0027797Y0117463D01*
X0027904Y0117580D01*
X0028014Y0117694D01*
X0028127Y0117805D01*
X0028242Y0117914D01*
X0028360Y0118019D01*
X0028481Y0118121D01*
X0028604Y0118221D01*
X0028730Y0118317D01*
X0028858Y0118410D01*
X0028988Y0118500D01*
X0029121Y0118586D01*
X0029256Y0118670D01*
X0029392Y0118749D01*
X0029531Y0118826D01*
X0029672Y0118898D01*
X0029814Y0118968D01*
X0029958Y0119033D01*
X0030104Y0119095D01*
X0030251Y0119153D01*
X0030400Y0119208D01*
X0030550Y0119259D01*
X0030701Y0119306D01*
X0030853Y0119349D01*
X0031006Y0119388D01*
X0031161Y0119424D01*
X0031316Y0119455D01*
X0031472Y0119483D01*
X0031628Y0119507D01*
X0031785Y0119527D01*
X0031943Y0119543D01*
X0032100Y0119555D01*
X0032259Y0119563D01*
X0032417Y0119567D01*
X0032575Y0119567D01*
X0032733Y0119563D01*
X0032892Y0119555D01*
X0033049Y0119543D01*
X0033207Y0119527D01*
X0033364Y0119507D01*
X0033520Y0119483D01*
X0033676Y0119455D01*
X0033831Y0119424D01*
X0033986Y0119388D01*
X0034139Y0119349D01*
X0034291Y0119306D01*
X0034442Y0119259D01*
X0034592Y0119208D01*
X0034741Y0119153D01*
X0034888Y0119095D01*
X0035034Y0119033D01*
X0035178Y0118968D01*
X0035320Y0118898D01*
X0035461Y0118826D01*
X0035600Y0118749D01*
X0035736Y0118670D01*
X0035871Y0118586D01*
X0036004Y0118500D01*
X0036134Y0118410D01*
X0036262Y0118317D01*
X0036388Y0118221D01*
X0036511Y0118121D01*
X0036632Y0118019D01*
X0036750Y0117914D01*
X0036865Y0117805D01*
X0036978Y0117694D01*
X0037088Y0117580D01*
X0037195Y0117463D01*
X0037299Y0117344D01*
X0037400Y0117222D01*
X0037497Y0117097D01*
X0037592Y0116970D01*
X0037683Y0116841D01*
X0037772Y0116710D01*
X0037856Y0116576D01*
X0037938Y0116440D01*
X0038016Y0116303D01*
X0038090Y0116163D01*
X0038161Y0116021D01*
X0038229Y0115878D01*
X0038293Y0115733D01*
X0038353Y0115587D01*
X0038409Y0115439D01*
X0038462Y0115290D01*
X0038511Y0115139D01*
X0038556Y0114987D01*
X0038597Y0114834D01*
X0038635Y0114681D01*
X0038668Y0114526D01*
X0038698Y0114370D01*
X0038724Y0114214D01*
X0038745Y0114057D01*
X0038763Y0113900D01*
X0038777Y0113742D01*
X0038787Y0113584D01*
X0038793Y0113426D01*
X0038795Y0113268D01*
X0038793Y0113110D01*
X0038787Y0112952D01*
X0038777Y0112794D01*
X0038763Y0112636D01*
X0038745Y0112479D01*
X0038724Y0112322D01*
X0038698Y0112166D01*
X0038668Y0112010D01*
X0038635Y0111855D01*
X0038597Y0111702D01*
X0038556Y0111549D01*
X0038511Y0111397D01*
X0038462Y0111246D01*
X0038409Y0111097D01*
X0038353Y0110949D01*
X0038293Y0110803D01*
X0038229Y0110658D01*
X0038161Y0110515D01*
X0038090Y0110373D01*
X0038016Y0110233D01*
X0037938Y0110096D01*
X0037856Y0109960D01*
X0037772Y0109826D01*
X0037683Y0109695D01*
X0037592Y0109566D01*
X0037497Y0109439D01*
X0037400Y0109314D01*
X0037299Y0109192D01*
X0037195Y0109073D01*
X0037088Y0108956D01*
X0036978Y0108842D01*
X0036865Y0108731D01*
X0036750Y0108622D01*
X0036632Y0108517D01*
X0036511Y0108415D01*
X0036388Y0108315D01*
X0036262Y0108219D01*
X0036134Y0108126D01*
X0036004Y0108036D01*
X0035871Y0107950D01*
X0035736Y0107866D01*
X0035600Y0107787D01*
X0035461Y0107710D01*
X0035320Y0107638D01*
X0035178Y0107568D01*
X0035034Y0107503D01*
X0034888Y0107441D01*
X0034741Y0107383D01*
X0034592Y0107328D01*
X0034442Y0107277D01*
X0034291Y0107230D01*
X0034139Y0107187D01*
X0033986Y0107148D01*
X0033831Y0107112D01*
X0033676Y0107081D01*
X0033520Y0107053D01*
X0033364Y0107029D01*
X0033207Y0107009D01*
X0033049Y0106993D01*
X0032892Y0106981D01*
X0032733Y0106973D01*
X0032575Y0106969D01*
X0032417Y0106969D01*
X0032259Y0106973D01*
X0032100Y0106981D01*
X0031943Y0106993D01*
X0031785Y0107009D01*
X0031628Y0107029D01*
X0031472Y0107053D01*
X0031316Y0107081D01*
X0031161Y0107112D01*
X0031006Y0107148D01*
X0030853Y0107187D01*
X0030701Y0107230D01*
X0030550Y0107277D01*
X0030400Y0107328D01*
X0030251Y0107383D01*
X0030104Y0107441D01*
X0029958Y0107503D01*
X0029814Y0107568D01*
X0029672Y0107638D01*
X0029531Y0107710D01*
X0029392Y0107787D01*
X0029256Y0107866D01*
X0029121Y0107950D01*
X0028988Y0108036D01*
X0028858Y0108126D01*
X0028730Y0108219D01*
X0028604Y0108315D01*
X0028481Y0108415D01*
X0028360Y0108517D01*
X0028242Y0108622D01*
X0028127Y0108731D01*
X0028014Y0108842D01*
X0027904Y0108956D01*
X0027797Y0109073D01*
X0027693Y0109192D01*
X0027592Y0109314D01*
X0027495Y0109439D01*
X0027400Y0109566D01*
X0027309Y0109695D01*
X0027220Y0109826D01*
X0027136Y0109960D01*
X0027054Y0110096D01*
X0026976Y0110233D01*
X0026902Y0110373D01*
X0026831Y0110515D01*
X0026763Y0110658D01*
X0026699Y0110803D01*
X0026639Y0110949D01*
X0026583Y0111097D01*
X0026530Y0111246D01*
X0026481Y0111397D01*
X0026436Y0111549D01*
X0026395Y0111702D01*
X0026357Y0111855D01*
X0026324Y0112010D01*
X0026294Y0112166D01*
X0026268Y0112322D01*
X0026247Y0112479D01*
X0026229Y0112636D01*
X0026215Y0112794D01*
X0026205Y0112952D01*
X0026199Y0113110D01*
X0026197Y0113268D01*
X0026197Y0140827D02*
X0026199Y0140985D01*
X0026205Y0141143D01*
X0026215Y0141301D01*
X0026229Y0141459D01*
X0026247Y0141616D01*
X0026268Y0141773D01*
X0026294Y0141929D01*
X0026324Y0142085D01*
X0026357Y0142240D01*
X0026395Y0142393D01*
X0026436Y0142546D01*
X0026481Y0142698D01*
X0026530Y0142849D01*
X0026583Y0142998D01*
X0026639Y0143146D01*
X0026699Y0143292D01*
X0026763Y0143437D01*
X0026831Y0143580D01*
X0026902Y0143722D01*
X0026976Y0143862D01*
X0027054Y0143999D01*
X0027136Y0144135D01*
X0027220Y0144269D01*
X0027309Y0144400D01*
X0027400Y0144529D01*
X0027495Y0144656D01*
X0027592Y0144781D01*
X0027693Y0144903D01*
X0027797Y0145022D01*
X0027904Y0145139D01*
X0028014Y0145253D01*
X0028127Y0145364D01*
X0028242Y0145473D01*
X0028360Y0145578D01*
X0028481Y0145680D01*
X0028604Y0145780D01*
X0028730Y0145876D01*
X0028858Y0145969D01*
X0028988Y0146059D01*
X0029121Y0146145D01*
X0029256Y0146229D01*
X0029392Y0146308D01*
X0029531Y0146385D01*
X0029672Y0146457D01*
X0029814Y0146527D01*
X0029958Y0146592D01*
X0030104Y0146654D01*
X0030251Y0146712D01*
X0030400Y0146767D01*
X0030550Y0146818D01*
X0030701Y0146865D01*
X0030853Y0146908D01*
X0031006Y0146947D01*
X0031161Y0146983D01*
X0031316Y0147014D01*
X0031472Y0147042D01*
X0031628Y0147066D01*
X0031785Y0147086D01*
X0031943Y0147102D01*
X0032100Y0147114D01*
X0032259Y0147122D01*
X0032417Y0147126D01*
X0032575Y0147126D01*
X0032733Y0147122D01*
X0032892Y0147114D01*
X0033049Y0147102D01*
X0033207Y0147086D01*
X0033364Y0147066D01*
X0033520Y0147042D01*
X0033676Y0147014D01*
X0033831Y0146983D01*
X0033986Y0146947D01*
X0034139Y0146908D01*
X0034291Y0146865D01*
X0034442Y0146818D01*
X0034592Y0146767D01*
X0034741Y0146712D01*
X0034888Y0146654D01*
X0035034Y0146592D01*
X0035178Y0146527D01*
X0035320Y0146457D01*
X0035461Y0146385D01*
X0035600Y0146308D01*
X0035736Y0146229D01*
X0035871Y0146145D01*
X0036004Y0146059D01*
X0036134Y0145969D01*
X0036262Y0145876D01*
X0036388Y0145780D01*
X0036511Y0145680D01*
X0036632Y0145578D01*
X0036750Y0145473D01*
X0036865Y0145364D01*
X0036978Y0145253D01*
X0037088Y0145139D01*
X0037195Y0145022D01*
X0037299Y0144903D01*
X0037400Y0144781D01*
X0037497Y0144656D01*
X0037592Y0144529D01*
X0037683Y0144400D01*
X0037772Y0144269D01*
X0037856Y0144135D01*
X0037938Y0143999D01*
X0038016Y0143862D01*
X0038090Y0143722D01*
X0038161Y0143580D01*
X0038229Y0143437D01*
X0038293Y0143292D01*
X0038353Y0143146D01*
X0038409Y0142998D01*
X0038462Y0142849D01*
X0038511Y0142698D01*
X0038556Y0142546D01*
X0038597Y0142393D01*
X0038635Y0142240D01*
X0038668Y0142085D01*
X0038698Y0141929D01*
X0038724Y0141773D01*
X0038745Y0141616D01*
X0038763Y0141459D01*
X0038777Y0141301D01*
X0038787Y0141143D01*
X0038793Y0140985D01*
X0038795Y0140827D01*
X0038793Y0140669D01*
X0038787Y0140511D01*
X0038777Y0140353D01*
X0038763Y0140195D01*
X0038745Y0140038D01*
X0038724Y0139881D01*
X0038698Y0139725D01*
X0038668Y0139569D01*
X0038635Y0139414D01*
X0038597Y0139261D01*
X0038556Y0139108D01*
X0038511Y0138956D01*
X0038462Y0138805D01*
X0038409Y0138656D01*
X0038353Y0138508D01*
X0038293Y0138362D01*
X0038229Y0138217D01*
X0038161Y0138074D01*
X0038090Y0137932D01*
X0038016Y0137792D01*
X0037938Y0137655D01*
X0037856Y0137519D01*
X0037772Y0137385D01*
X0037683Y0137254D01*
X0037592Y0137125D01*
X0037497Y0136998D01*
X0037400Y0136873D01*
X0037299Y0136751D01*
X0037195Y0136632D01*
X0037088Y0136515D01*
X0036978Y0136401D01*
X0036865Y0136290D01*
X0036750Y0136181D01*
X0036632Y0136076D01*
X0036511Y0135974D01*
X0036388Y0135874D01*
X0036262Y0135778D01*
X0036134Y0135685D01*
X0036004Y0135595D01*
X0035871Y0135509D01*
X0035736Y0135425D01*
X0035600Y0135346D01*
X0035461Y0135269D01*
X0035320Y0135197D01*
X0035178Y0135127D01*
X0035034Y0135062D01*
X0034888Y0135000D01*
X0034741Y0134942D01*
X0034592Y0134887D01*
X0034442Y0134836D01*
X0034291Y0134789D01*
X0034139Y0134746D01*
X0033986Y0134707D01*
X0033831Y0134671D01*
X0033676Y0134640D01*
X0033520Y0134612D01*
X0033364Y0134588D01*
X0033207Y0134568D01*
X0033049Y0134552D01*
X0032892Y0134540D01*
X0032733Y0134532D01*
X0032575Y0134528D01*
X0032417Y0134528D01*
X0032259Y0134532D01*
X0032100Y0134540D01*
X0031943Y0134552D01*
X0031785Y0134568D01*
X0031628Y0134588D01*
X0031472Y0134612D01*
X0031316Y0134640D01*
X0031161Y0134671D01*
X0031006Y0134707D01*
X0030853Y0134746D01*
X0030701Y0134789D01*
X0030550Y0134836D01*
X0030400Y0134887D01*
X0030251Y0134942D01*
X0030104Y0135000D01*
X0029958Y0135062D01*
X0029814Y0135127D01*
X0029672Y0135197D01*
X0029531Y0135269D01*
X0029392Y0135346D01*
X0029256Y0135425D01*
X0029121Y0135509D01*
X0028988Y0135595D01*
X0028858Y0135685D01*
X0028730Y0135778D01*
X0028604Y0135874D01*
X0028481Y0135974D01*
X0028360Y0136076D01*
X0028242Y0136181D01*
X0028127Y0136290D01*
X0028014Y0136401D01*
X0027904Y0136515D01*
X0027797Y0136632D01*
X0027693Y0136751D01*
X0027592Y0136873D01*
X0027495Y0136998D01*
X0027400Y0137125D01*
X0027309Y0137254D01*
X0027220Y0137385D01*
X0027136Y0137519D01*
X0027054Y0137655D01*
X0026976Y0137792D01*
X0026902Y0137932D01*
X0026831Y0138074D01*
X0026763Y0138217D01*
X0026699Y0138362D01*
X0026639Y0138508D01*
X0026583Y0138656D01*
X0026530Y0138805D01*
X0026481Y0138956D01*
X0026436Y0139108D01*
X0026395Y0139261D01*
X0026357Y0139414D01*
X0026324Y0139569D01*
X0026294Y0139725D01*
X0026268Y0139881D01*
X0026247Y0140038D01*
X0026229Y0140195D01*
X0026215Y0140353D01*
X0026205Y0140511D01*
X0026199Y0140669D01*
X0026197Y0140827D01*
X0026197Y0184134D02*
X0026199Y0184292D01*
X0026205Y0184450D01*
X0026215Y0184608D01*
X0026229Y0184766D01*
X0026247Y0184923D01*
X0026268Y0185080D01*
X0026294Y0185236D01*
X0026324Y0185392D01*
X0026357Y0185547D01*
X0026395Y0185700D01*
X0026436Y0185853D01*
X0026481Y0186005D01*
X0026530Y0186156D01*
X0026583Y0186305D01*
X0026639Y0186453D01*
X0026699Y0186599D01*
X0026763Y0186744D01*
X0026831Y0186887D01*
X0026902Y0187029D01*
X0026976Y0187169D01*
X0027054Y0187306D01*
X0027136Y0187442D01*
X0027220Y0187576D01*
X0027309Y0187707D01*
X0027400Y0187836D01*
X0027495Y0187963D01*
X0027592Y0188088D01*
X0027693Y0188210D01*
X0027797Y0188329D01*
X0027904Y0188446D01*
X0028014Y0188560D01*
X0028127Y0188671D01*
X0028242Y0188780D01*
X0028360Y0188885D01*
X0028481Y0188987D01*
X0028604Y0189087D01*
X0028730Y0189183D01*
X0028858Y0189276D01*
X0028988Y0189366D01*
X0029121Y0189452D01*
X0029256Y0189536D01*
X0029392Y0189615D01*
X0029531Y0189692D01*
X0029672Y0189764D01*
X0029814Y0189834D01*
X0029958Y0189899D01*
X0030104Y0189961D01*
X0030251Y0190019D01*
X0030400Y0190074D01*
X0030550Y0190125D01*
X0030701Y0190172D01*
X0030853Y0190215D01*
X0031006Y0190254D01*
X0031161Y0190290D01*
X0031316Y0190321D01*
X0031472Y0190349D01*
X0031628Y0190373D01*
X0031785Y0190393D01*
X0031943Y0190409D01*
X0032100Y0190421D01*
X0032259Y0190429D01*
X0032417Y0190433D01*
X0032575Y0190433D01*
X0032733Y0190429D01*
X0032892Y0190421D01*
X0033049Y0190409D01*
X0033207Y0190393D01*
X0033364Y0190373D01*
X0033520Y0190349D01*
X0033676Y0190321D01*
X0033831Y0190290D01*
X0033986Y0190254D01*
X0034139Y0190215D01*
X0034291Y0190172D01*
X0034442Y0190125D01*
X0034592Y0190074D01*
X0034741Y0190019D01*
X0034888Y0189961D01*
X0035034Y0189899D01*
X0035178Y0189834D01*
X0035320Y0189764D01*
X0035461Y0189692D01*
X0035600Y0189615D01*
X0035736Y0189536D01*
X0035871Y0189452D01*
X0036004Y0189366D01*
X0036134Y0189276D01*
X0036262Y0189183D01*
X0036388Y0189087D01*
X0036511Y0188987D01*
X0036632Y0188885D01*
X0036750Y0188780D01*
X0036865Y0188671D01*
X0036978Y0188560D01*
X0037088Y0188446D01*
X0037195Y0188329D01*
X0037299Y0188210D01*
X0037400Y0188088D01*
X0037497Y0187963D01*
X0037592Y0187836D01*
X0037683Y0187707D01*
X0037772Y0187576D01*
X0037856Y0187442D01*
X0037938Y0187306D01*
X0038016Y0187169D01*
X0038090Y0187029D01*
X0038161Y0186887D01*
X0038229Y0186744D01*
X0038293Y0186599D01*
X0038353Y0186453D01*
X0038409Y0186305D01*
X0038462Y0186156D01*
X0038511Y0186005D01*
X0038556Y0185853D01*
X0038597Y0185700D01*
X0038635Y0185547D01*
X0038668Y0185392D01*
X0038698Y0185236D01*
X0038724Y0185080D01*
X0038745Y0184923D01*
X0038763Y0184766D01*
X0038777Y0184608D01*
X0038787Y0184450D01*
X0038793Y0184292D01*
X0038795Y0184134D01*
X0038793Y0183976D01*
X0038787Y0183818D01*
X0038777Y0183660D01*
X0038763Y0183502D01*
X0038745Y0183345D01*
X0038724Y0183188D01*
X0038698Y0183032D01*
X0038668Y0182876D01*
X0038635Y0182721D01*
X0038597Y0182568D01*
X0038556Y0182415D01*
X0038511Y0182263D01*
X0038462Y0182112D01*
X0038409Y0181963D01*
X0038353Y0181815D01*
X0038293Y0181669D01*
X0038229Y0181524D01*
X0038161Y0181381D01*
X0038090Y0181239D01*
X0038016Y0181099D01*
X0037938Y0180962D01*
X0037856Y0180826D01*
X0037772Y0180692D01*
X0037683Y0180561D01*
X0037592Y0180432D01*
X0037497Y0180305D01*
X0037400Y0180180D01*
X0037299Y0180058D01*
X0037195Y0179939D01*
X0037088Y0179822D01*
X0036978Y0179708D01*
X0036865Y0179597D01*
X0036750Y0179488D01*
X0036632Y0179383D01*
X0036511Y0179281D01*
X0036388Y0179181D01*
X0036262Y0179085D01*
X0036134Y0178992D01*
X0036004Y0178902D01*
X0035871Y0178816D01*
X0035736Y0178732D01*
X0035600Y0178653D01*
X0035461Y0178576D01*
X0035320Y0178504D01*
X0035178Y0178434D01*
X0035034Y0178369D01*
X0034888Y0178307D01*
X0034741Y0178249D01*
X0034592Y0178194D01*
X0034442Y0178143D01*
X0034291Y0178096D01*
X0034139Y0178053D01*
X0033986Y0178014D01*
X0033831Y0177978D01*
X0033676Y0177947D01*
X0033520Y0177919D01*
X0033364Y0177895D01*
X0033207Y0177875D01*
X0033049Y0177859D01*
X0032892Y0177847D01*
X0032733Y0177839D01*
X0032575Y0177835D01*
X0032417Y0177835D01*
X0032259Y0177839D01*
X0032100Y0177847D01*
X0031943Y0177859D01*
X0031785Y0177875D01*
X0031628Y0177895D01*
X0031472Y0177919D01*
X0031316Y0177947D01*
X0031161Y0177978D01*
X0031006Y0178014D01*
X0030853Y0178053D01*
X0030701Y0178096D01*
X0030550Y0178143D01*
X0030400Y0178194D01*
X0030251Y0178249D01*
X0030104Y0178307D01*
X0029958Y0178369D01*
X0029814Y0178434D01*
X0029672Y0178504D01*
X0029531Y0178576D01*
X0029392Y0178653D01*
X0029256Y0178732D01*
X0029121Y0178816D01*
X0028988Y0178902D01*
X0028858Y0178992D01*
X0028730Y0179085D01*
X0028604Y0179181D01*
X0028481Y0179281D01*
X0028360Y0179383D01*
X0028242Y0179488D01*
X0028127Y0179597D01*
X0028014Y0179708D01*
X0027904Y0179822D01*
X0027797Y0179939D01*
X0027693Y0180058D01*
X0027592Y0180180D01*
X0027495Y0180305D01*
X0027400Y0180432D01*
X0027309Y0180561D01*
X0027220Y0180692D01*
X0027136Y0180826D01*
X0027054Y0180962D01*
X0026976Y0181099D01*
X0026902Y0181239D01*
X0026831Y0181381D01*
X0026763Y0181524D01*
X0026699Y0181669D01*
X0026639Y0181815D01*
X0026583Y0181963D01*
X0026530Y0182112D01*
X0026481Y0182263D01*
X0026436Y0182415D01*
X0026395Y0182568D01*
X0026357Y0182721D01*
X0026324Y0182876D01*
X0026294Y0183032D01*
X0026268Y0183188D01*
X0026247Y0183345D01*
X0026229Y0183502D01*
X0026215Y0183660D01*
X0026205Y0183818D01*
X0026199Y0183976D01*
X0026197Y0184134D01*
X0026197Y0215630D02*
X0026199Y0215788D01*
X0026205Y0215946D01*
X0026215Y0216104D01*
X0026229Y0216262D01*
X0026247Y0216419D01*
X0026268Y0216576D01*
X0026294Y0216732D01*
X0026324Y0216888D01*
X0026357Y0217043D01*
X0026395Y0217196D01*
X0026436Y0217349D01*
X0026481Y0217501D01*
X0026530Y0217652D01*
X0026583Y0217801D01*
X0026639Y0217949D01*
X0026699Y0218095D01*
X0026763Y0218240D01*
X0026831Y0218383D01*
X0026902Y0218525D01*
X0026976Y0218665D01*
X0027054Y0218802D01*
X0027136Y0218938D01*
X0027220Y0219072D01*
X0027309Y0219203D01*
X0027400Y0219332D01*
X0027495Y0219459D01*
X0027592Y0219584D01*
X0027693Y0219706D01*
X0027797Y0219825D01*
X0027904Y0219942D01*
X0028014Y0220056D01*
X0028127Y0220167D01*
X0028242Y0220276D01*
X0028360Y0220381D01*
X0028481Y0220483D01*
X0028604Y0220583D01*
X0028730Y0220679D01*
X0028858Y0220772D01*
X0028988Y0220862D01*
X0029121Y0220948D01*
X0029256Y0221032D01*
X0029392Y0221111D01*
X0029531Y0221188D01*
X0029672Y0221260D01*
X0029814Y0221330D01*
X0029958Y0221395D01*
X0030104Y0221457D01*
X0030251Y0221515D01*
X0030400Y0221570D01*
X0030550Y0221621D01*
X0030701Y0221668D01*
X0030853Y0221711D01*
X0031006Y0221750D01*
X0031161Y0221786D01*
X0031316Y0221817D01*
X0031472Y0221845D01*
X0031628Y0221869D01*
X0031785Y0221889D01*
X0031943Y0221905D01*
X0032100Y0221917D01*
X0032259Y0221925D01*
X0032417Y0221929D01*
X0032575Y0221929D01*
X0032733Y0221925D01*
X0032892Y0221917D01*
X0033049Y0221905D01*
X0033207Y0221889D01*
X0033364Y0221869D01*
X0033520Y0221845D01*
X0033676Y0221817D01*
X0033831Y0221786D01*
X0033986Y0221750D01*
X0034139Y0221711D01*
X0034291Y0221668D01*
X0034442Y0221621D01*
X0034592Y0221570D01*
X0034741Y0221515D01*
X0034888Y0221457D01*
X0035034Y0221395D01*
X0035178Y0221330D01*
X0035320Y0221260D01*
X0035461Y0221188D01*
X0035600Y0221111D01*
X0035736Y0221032D01*
X0035871Y0220948D01*
X0036004Y0220862D01*
X0036134Y0220772D01*
X0036262Y0220679D01*
X0036388Y0220583D01*
X0036511Y0220483D01*
X0036632Y0220381D01*
X0036750Y0220276D01*
X0036865Y0220167D01*
X0036978Y0220056D01*
X0037088Y0219942D01*
X0037195Y0219825D01*
X0037299Y0219706D01*
X0037400Y0219584D01*
X0037497Y0219459D01*
X0037592Y0219332D01*
X0037683Y0219203D01*
X0037772Y0219072D01*
X0037856Y0218938D01*
X0037938Y0218802D01*
X0038016Y0218665D01*
X0038090Y0218525D01*
X0038161Y0218383D01*
X0038229Y0218240D01*
X0038293Y0218095D01*
X0038353Y0217949D01*
X0038409Y0217801D01*
X0038462Y0217652D01*
X0038511Y0217501D01*
X0038556Y0217349D01*
X0038597Y0217196D01*
X0038635Y0217043D01*
X0038668Y0216888D01*
X0038698Y0216732D01*
X0038724Y0216576D01*
X0038745Y0216419D01*
X0038763Y0216262D01*
X0038777Y0216104D01*
X0038787Y0215946D01*
X0038793Y0215788D01*
X0038795Y0215630D01*
X0038793Y0215472D01*
X0038787Y0215314D01*
X0038777Y0215156D01*
X0038763Y0214998D01*
X0038745Y0214841D01*
X0038724Y0214684D01*
X0038698Y0214528D01*
X0038668Y0214372D01*
X0038635Y0214217D01*
X0038597Y0214064D01*
X0038556Y0213911D01*
X0038511Y0213759D01*
X0038462Y0213608D01*
X0038409Y0213459D01*
X0038353Y0213311D01*
X0038293Y0213165D01*
X0038229Y0213020D01*
X0038161Y0212877D01*
X0038090Y0212735D01*
X0038016Y0212595D01*
X0037938Y0212458D01*
X0037856Y0212322D01*
X0037772Y0212188D01*
X0037683Y0212057D01*
X0037592Y0211928D01*
X0037497Y0211801D01*
X0037400Y0211676D01*
X0037299Y0211554D01*
X0037195Y0211435D01*
X0037088Y0211318D01*
X0036978Y0211204D01*
X0036865Y0211093D01*
X0036750Y0210984D01*
X0036632Y0210879D01*
X0036511Y0210777D01*
X0036388Y0210677D01*
X0036262Y0210581D01*
X0036134Y0210488D01*
X0036004Y0210398D01*
X0035871Y0210312D01*
X0035736Y0210228D01*
X0035600Y0210149D01*
X0035461Y0210072D01*
X0035320Y0210000D01*
X0035178Y0209930D01*
X0035034Y0209865D01*
X0034888Y0209803D01*
X0034741Y0209745D01*
X0034592Y0209690D01*
X0034442Y0209639D01*
X0034291Y0209592D01*
X0034139Y0209549D01*
X0033986Y0209510D01*
X0033831Y0209474D01*
X0033676Y0209443D01*
X0033520Y0209415D01*
X0033364Y0209391D01*
X0033207Y0209371D01*
X0033049Y0209355D01*
X0032892Y0209343D01*
X0032733Y0209335D01*
X0032575Y0209331D01*
X0032417Y0209331D01*
X0032259Y0209335D01*
X0032100Y0209343D01*
X0031943Y0209355D01*
X0031785Y0209371D01*
X0031628Y0209391D01*
X0031472Y0209415D01*
X0031316Y0209443D01*
X0031161Y0209474D01*
X0031006Y0209510D01*
X0030853Y0209549D01*
X0030701Y0209592D01*
X0030550Y0209639D01*
X0030400Y0209690D01*
X0030251Y0209745D01*
X0030104Y0209803D01*
X0029958Y0209865D01*
X0029814Y0209930D01*
X0029672Y0210000D01*
X0029531Y0210072D01*
X0029392Y0210149D01*
X0029256Y0210228D01*
X0029121Y0210312D01*
X0028988Y0210398D01*
X0028858Y0210488D01*
X0028730Y0210581D01*
X0028604Y0210677D01*
X0028481Y0210777D01*
X0028360Y0210879D01*
X0028242Y0210984D01*
X0028127Y0211093D01*
X0028014Y0211204D01*
X0027904Y0211318D01*
X0027797Y0211435D01*
X0027693Y0211554D01*
X0027592Y0211676D01*
X0027495Y0211801D01*
X0027400Y0211928D01*
X0027309Y0212057D01*
X0027220Y0212188D01*
X0027136Y0212322D01*
X0027054Y0212458D01*
X0026976Y0212595D01*
X0026902Y0212735D01*
X0026831Y0212877D01*
X0026763Y0213020D01*
X0026699Y0213165D01*
X0026639Y0213311D01*
X0026583Y0213459D01*
X0026530Y0213608D01*
X0026481Y0213759D01*
X0026436Y0213911D01*
X0026395Y0214064D01*
X0026357Y0214217D01*
X0026324Y0214372D01*
X0026294Y0214528D01*
X0026268Y0214684D01*
X0026247Y0214841D01*
X0026229Y0214998D01*
X0026215Y0215156D01*
X0026205Y0215314D01*
X0026199Y0215472D01*
X0026197Y0215630D01*
X0026197Y0258937D02*
X0026199Y0259095D01*
X0026205Y0259253D01*
X0026215Y0259411D01*
X0026229Y0259569D01*
X0026247Y0259726D01*
X0026268Y0259883D01*
X0026294Y0260039D01*
X0026324Y0260195D01*
X0026357Y0260350D01*
X0026395Y0260503D01*
X0026436Y0260656D01*
X0026481Y0260808D01*
X0026530Y0260959D01*
X0026583Y0261108D01*
X0026639Y0261256D01*
X0026699Y0261402D01*
X0026763Y0261547D01*
X0026831Y0261690D01*
X0026902Y0261832D01*
X0026976Y0261972D01*
X0027054Y0262109D01*
X0027136Y0262245D01*
X0027220Y0262379D01*
X0027309Y0262510D01*
X0027400Y0262639D01*
X0027495Y0262766D01*
X0027592Y0262891D01*
X0027693Y0263013D01*
X0027797Y0263132D01*
X0027904Y0263249D01*
X0028014Y0263363D01*
X0028127Y0263474D01*
X0028242Y0263583D01*
X0028360Y0263688D01*
X0028481Y0263790D01*
X0028604Y0263890D01*
X0028730Y0263986D01*
X0028858Y0264079D01*
X0028988Y0264169D01*
X0029121Y0264255D01*
X0029256Y0264339D01*
X0029392Y0264418D01*
X0029531Y0264495D01*
X0029672Y0264567D01*
X0029814Y0264637D01*
X0029958Y0264702D01*
X0030104Y0264764D01*
X0030251Y0264822D01*
X0030400Y0264877D01*
X0030550Y0264928D01*
X0030701Y0264975D01*
X0030853Y0265018D01*
X0031006Y0265057D01*
X0031161Y0265093D01*
X0031316Y0265124D01*
X0031472Y0265152D01*
X0031628Y0265176D01*
X0031785Y0265196D01*
X0031943Y0265212D01*
X0032100Y0265224D01*
X0032259Y0265232D01*
X0032417Y0265236D01*
X0032575Y0265236D01*
X0032733Y0265232D01*
X0032892Y0265224D01*
X0033049Y0265212D01*
X0033207Y0265196D01*
X0033364Y0265176D01*
X0033520Y0265152D01*
X0033676Y0265124D01*
X0033831Y0265093D01*
X0033986Y0265057D01*
X0034139Y0265018D01*
X0034291Y0264975D01*
X0034442Y0264928D01*
X0034592Y0264877D01*
X0034741Y0264822D01*
X0034888Y0264764D01*
X0035034Y0264702D01*
X0035178Y0264637D01*
X0035320Y0264567D01*
X0035461Y0264495D01*
X0035600Y0264418D01*
X0035736Y0264339D01*
X0035871Y0264255D01*
X0036004Y0264169D01*
X0036134Y0264079D01*
X0036262Y0263986D01*
X0036388Y0263890D01*
X0036511Y0263790D01*
X0036632Y0263688D01*
X0036750Y0263583D01*
X0036865Y0263474D01*
X0036978Y0263363D01*
X0037088Y0263249D01*
X0037195Y0263132D01*
X0037299Y0263013D01*
X0037400Y0262891D01*
X0037497Y0262766D01*
X0037592Y0262639D01*
X0037683Y0262510D01*
X0037772Y0262379D01*
X0037856Y0262245D01*
X0037938Y0262109D01*
X0038016Y0261972D01*
X0038090Y0261832D01*
X0038161Y0261690D01*
X0038229Y0261547D01*
X0038293Y0261402D01*
X0038353Y0261256D01*
X0038409Y0261108D01*
X0038462Y0260959D01*
X0038511Y0260808D01*
X0038556Y0260656D01*
X0038597Y0260503D01*
X0038635Y0260350D01*
X0038668Y0260195D01*
X0038698Y0260039D01*
X0038724Y0259883D01*
X0038745Y0259726D01*
X0038763Y0259569D01*
X0038777Y0259411D01*
X0038787Y0259253D01*
X0038793Y0259095D01*
X0038795Y0258937D01*
X0038793Y0258779D01*
X0038787Y0258621D01*
X0038777Y0258463D01*
X0038763Y0258305D01*
X0038745Y0258148D01*
X0038724Y0257991D01*
X0038698Y0257835D01*
X0038668Y0257679D01*
X0038635Y0257524D01*
X0038597Y0257371D01*
X0038556Y0257218D01*
X0038511Y0257066D01*
X0038462Y0256915D01*
X0038409Y0256766D01*
X0038353Y0256618D01*
X0038293Y0256472D01*
X0038229Y0256327D01*
X0038161Y0256184D01*
X0038090Y0256042D01*
X0038016Y0255902D01*
X0037938Y0255765D01*
X0037856Y0255629D01*
X0037772Y0255495D01*
X0037683Y0255364D01*
X0037592Y0255235D01*
X0037497Y0255108D01*
X0037400Y0254983D01*
X0037299Y0254861D01*
X0037195Y0254742D01*
X0037088Y0254625D01*
X0036978Y0254511D01*
X0036865Y0254400D01*
X0036750Y0254291D01*
X0036632Y0254186D01*
X0036511Y0254084D01*
X0036388Y0253984D01*
X0036262Y0253888D01*
X0036134Y0253795D01*
X0036004Y0253705D01*
X0035871Y0253619D01*
X0035736Y0253535D01*
X0035600Y0253456D01*
X0035461Y0253379D01*
X0035320Y0253307D01*
X0035178Y0253237D01*
X0035034Y0253172D01*
X0034888Y0253110D01*
X0034741Y0253052D01*
X0034592Y0252997D01*
X0034442Y0252946D01*
X0034291Y0252899D01*
X0034139Y0252856D01*
X0033986Y0252817D01*
X0033831Y0252781D01*
X0033676Y0252750D01*
X0033520Y0252722D01*
X0033364Y0252698D01*
X0033207Y0252678D01*
X0033049Y0252662D01*
X0032892Y0252650D01*
X0032733Y0252642D01*
X0032575Y0252638D01*
X0032417Y0252638D01*
X0032259Y0252642D01*
X0032100Y0252650D01*
X0031943Y0252662D01*
X0031785Y0252678D01*
X0031628Y0252698D01*
X0031472Y0252722D01*
X0031316Y0252750D01*
X0031161Y0252781D01*
X0031006Y0252817D01*
X0030853Y0252856D01*
X0030701Y0252899D01*
X0030550Y0252946D01*
X0030400Y0252997D01*
X0030251Y0253052D01*
X0030104Y0253110D01*
X0029958Y0253172D01*
X0029814Y0253237D01*
X0029672Y0253307D01*
X0029531Y0253379D01*
X0029392Y0253456D01*
X0029256Y0253535D01*
X0029121Y0253619D01*
X0028988Y0253705D01*
X0028858Y0253795D01*
X0028730Y0253888D01*
X0028604Y0253984D01*
X0028481Y0254084D01*
X0028360Y0254186D01*
X0028242Y0254291D01*
X0028127Y0254400D01*
X0028014Y0254511D01*
X0027904Y0254625D01*
X0027797Y0254742D01*
X0027693Y0254861D01*
X0027592Y0254983D01*
X0027495Y0255108D01*
X0027400Y0255235D01*
X0027309Y0255364D01*
X0027220Y0255495D01*
X0027136Y0255629D01*
X0027054Y0255765D01*
X0026976Y0255902D01*
X0026902Y0256042D01*
X0026831Y0256184D01*
X0026763Y0256327D01*
X0026699Y0256472D01*
X0026639Y0256618D01*
X0026583Y0256766D01*
X0026530Y0256915D01*
X0026481Y0257066D01*
X0026436Y0257218D01*
X0026395Y0257371D01*
X0026357Y0257524D01*
X0026324Y0257679D01*
X0026294Y0257835D01*
X0026268Y0257991D01*
X0026247Y0258148D01*
X0026229Y0258305D01*
X0026215Y0258463D01*
X0026205Y0258621D01*
X0026199Y0258779D01*
X0026197Y0258937D01*
X0026197Y0286496D02*
X0026199Y0286654D01*
X0026205Y0286812D01*
X0026215Y0286970D01*
X0026229Y0287128D01*
X0026247Y0287285D01*
X0026268Y0287442D01*
X0026294Y0287598D01*
X0026324Y0287754D01*
X0026357Y0287909D01*
X0026395Y0288062D01*
X0026436Y0288215D01*
X0026481Y0288367D01*
X0026530Y0288518D01*
X0026583Y0288667D01*
X0026639Y0288815D01*
X0026699Y0288961D01*
X0026763Y0289106D01*
X0026831Y0289249D01*
X0026902Y0289391D01*
X0026976Y0289531D01*
X0027054Y0289668D01*
X0027136Y0289804D01*
X0027220Y0289938D01*
X0027309Y0290069D01*
X0027400Y0290198D01*
X0027495Y0290325D01*
X0027592Y0290450D01*
X0027693Y0290572D01*
X0027797Y0290691D01*
X0027904Y0290808D01*
X0028014Y0290922D01*
X0028127Y0291033D01*
X0028242Y0291142D01*
X0028360Y0291247D01*
X0028481Y0291349D01*
X0028604Y0291449D01*
X0028730Y0291545D01*
X0028858Y0291638D01*
X0028988Y0291728D01*
X0029121Y0291814D01*
X0029256Y0291898D01*
X0029392Y0291977D01*
X0029531Y0292054D01*
X0029672Y0292126D01*
X0029814Y0292196D01*
X0029958Y0292261D01*
X0030104Y0292323D01*
X0030251Y0292381D01*
X0030400Y0292436D01*
X0030550Y0292487D01*
X0030701Y0292534D01*
X0030853Y0292577D01*
X0031006Y0292616D01*
X0031161Y0292652D01*
X0031316Y0292683D01*
X0031472Y0292711D01*
X0031628Y0292735D01*
X0031785Y0292755D01*
X0031943Y0292771D01*
X0032100Y0292783D01*
X0032259Y0292791D01*
X0032417Y0292795D01*
X0032575Y0292795D01*
X0032733Y0292791D01*
X0032892Y0292783D01*
X0033049Y0292771D01*
X0033207Y0292755D01*
X0033364Y0292735D01*
X0033520Y0292711D01*
X0033676Y0292683D01*
X0033831Y0292652D01*
X0033986Y0292616D01*
X0034139Y0292577D01*
X0034291Y0292534D01*
X0034442Y0292487D01*
X0034592Y0292436D01*
X0034741Y0292381D01*
X0034888Y0292323D01*
X0035034Y0292261D01*
X0035178Y0292196D01*
X0035320Y0292126D01*
X0035461Y0292054D01*
X0035600Y0291977D01*
X0035736Y0291898D01*
X0035871Y0291814D01*
X0036004Y0291728D01*
X0036134Y0291638D01*
X0036262Y0291545D01*
X0036388Y0291449D01*
X0036511Y0291349D01*
X0036632Y0291247D01*
X0036750Y0291142D01*
X0036865Y0291033D01*
X0036978Y0290922D01*
X0037088Y0290808D01*
X0037195Y0290691D01*
X0037299Y0290572D01*
X0037400Y0290450D01*
X0037497Y0290325D01*
X0037592Y0290198D01*
X0037683Y0290069D01*
X0037772Y0289938D01*
X0037856Y0289804D01*
X0037938Y0289668D01*
X0038016Y0289531D01*
X0038090Y0289391D01*
X0038161Y0289249D01*
X0038229Y0289106D01*
X0038293Y0288961D01*
X0038353Y0288815D01*
X0038409Y0288667D01*
X0038462Y0288518D01*
X0038511Y0288367D01*
X0038556Y0288215D01*
X0038597Y0288062D01*
X0038635Y0287909D01*
X0038668Y0287754D01*
X0038698Y0287598D01*
X0038724Y0287442D01*
X0038745Y0287285D01*
X0038763Y0287128D01*
X0038777Y0286970D01*
X0038787Y0286812D01*
X0038793Y0286654D01*
X0038795Y0286496D01*
X0038793Y0286338D01*
X0038787Y0286180D01*
X0038777Y0286022D01*
X0038763Y0285864D01*
X0038745Y0285707D01*
X0038724Y0285550D01*
X0038698Y0285394D01*
X0038668Y0285238D01*
X0038635Y0285083D01*
X0038597Y0284930D01*
X0038556Y0284777D01*
X0038511Y0284625D01*
X0038462Y0284474D01*
X0038409Y0284325D01*
X0038353Y0284177D01*
X0038293Y0284031D01*
X0038229Y0283886D01*
X0038161Y0283743D01*
X0038090Y0283601D01*
X0038016Y0283461D01*
X0037938Y0283324D01*
X0037856Y0283188D01*
X0037772Y0283054D01*
X0037683Y0282923D01*
X0037592Y0282794D01*
X0037497Y0282667D01*
X0037400Y0282542D01*
X0037299Y0282420D01*
X0037195Y0282301D01*
X0037088Y0282184D01*
X0036978Y0282070D01*
X0036865Y0281959D01*
X0036750Y0281850D01*
X0036632Y0281745D01*
X0036511Y0281643D01*
X0036388Y0281543D01*
X0036262Y0281447D01*
X0036134Y0281354D01*
X0036004Y0281264D01*
X0035871Y0281178D01*
X0035736Y0281094D01*
X0035600Y0281015D01*
X0035461Y0280938D01*
X0035320Y0280866D01*
X0035178Y0280796D01*
X0035034Y0280731D01*
X0034888Y0280669D01*
X0034741Y0280611D01*
X0034592Y0280556D01*
X0034442Y0280505D01*
X0034291Y0280458D01*
X0034139Y0280415D01*
X0033986Y0280376D01*
X0033831Y0280340D01*
X0033676Y0280309D01*
X0033520Y0280281D01*
X0033364Y0280257D01*
X0033207Y0280237D01*
X0033049Y0280221D01*
X0032892Y0280209D01*
X0032733Y0280201D01*
X0032575Y0280197D01*
X0032417Y0280197D01*
X0032259Y0280201D01*
X0032100Y0280209D01*
X0031943Y0280221D01*
X0031785Y0280237D01*
X0031628Y0280257D01*
X0031472Y0280281D01*
X0031316Y0280309D01*
X0031161Y0280340D01*
X0031006Y0280376D01*
X0030853Y0280415D01*
X0030701Y0280458D01*
X0030550Y0280505D01*
X0030400Y0280556D01*
X0030251Y0280611D01*
X0030104Y0280669D01*
X0029958Y0280731D01*
X0029814Y0280796D01*
X0029672Y0280866D01*
X0029531Y0280938D01*
X0029392Y0281015D01*
X0029256Y0281094D01*
X0029121Y0281178D01*
X0028988Y0281264D01*
X0028858Y0281354D01*
X0028730Y0281447D01*
X0028604Y0281543D01*
X0028481Y0281643D01*
X0028360Y0281745D01*
X0028242Y0281850D01*
X0028127Y0281959D01*
X0028014Y0282070D01*
X0027904Y0282184D01*
X0027797Y0282301D01*
X0027693Y0282420D01*
X0027592Y0282542D01*
X0027495Y0282667D01*
X0027400Y0282794D01*
X0027309Y0282923D01*
X0027220Y0283054D01*
X0027136Y0283188D01*
X0027054Y0283324D01*
X0026976Y0283461D01*
X0026902Y0283601D01*
X0026831Y0283743D01*
X0026763Y0283886D01*
X0026699Y0284031D01*
X0026639Y0284177D01*
X0026583Y0284325D01*
X0026530Y0284474D01*
X0026481Y0284625D01*
X0026436Y0284777D01*
X0026395Y0284930D01*
X0026357Y0285083D01*
X0026324Y0285238D01*
X0026294Y0285394D01*
X0026268Y0285550D01*
X0026247Y0285707D01*
X0026229Y0285864D01*
X0026215Y0286022D01*
X0026205Y0286180D01*
X0026199Y0286338D01*
X0026197Y0286496D01*
X0026197Y0329803D02*
X0026199Y0329961D01*
X0026205Y0330119D01*
X0026215Y0330277D01*
X0026229Y0330435D01*
X0026247Y0330592D01*
X0026268Y0330749D01*
X0026294Y0330905D01*
X0026324Y0331061D01*
X0026357Y0331216D01*
X0026395Y0331369D01*
X0026436Y0331522D01*
X0026481Y0331674D01*
X0026530Y0331825D01*
X0026583Y0331974D01*
X0026639Y0332122D01*
X0026699Y0332268D01*
X0026763Y0332413D01*
X0026831Y0332556D01*
X0026902Y0332698D01*
X0026976Y0332838D01*
X0027054Y0332975D01*
X0027136Y0333111D01*
X0027220Y0333245D01*
X0027309Y0333376D01*
X0027400Y0333505D01*
X0027495Y0333632D01*
X0027592Y0333757D01*
X0027693Y0333879D01*
X0027797Y0333998D01*
X0027904Y0334115D01*
X0028014Y0334229D01*
X0028127Y0334340D01*
X0028242Y0334449D01*
X0028360Y0334554D01*
X0028481Y0334656D01*
X0028604Y0334756D01*
X0028730Y0334852D01*
X0028858Y0334945D01*
X0028988Y0335035D01*
X0029121Y0335121D01*
X0029256Y0335205D01*
X0029392Y0335284D01*
X0029531Y0335361D01*
X0029672Y0335433D01*
X0029814Y0335503D01*
X0029958Y0335568D01*
X0030104Y0335630D01*
X0030251Y0335688D01*
X0030400Y0335743D01*
X0030550Y0335794D01*
X0030701Y0335841D01*
X0030853Y0335884D01*
X0031006Y0335923D01*
X0031161Y0335959D01*
X0031316Y0335990D01*
X0031472Y0336018D01*
X0031628Y0336042D01*
X0031785Y0336062D01*
X0031943Y0336078D01*
X0032100Y0336090D01*
X0032259Y0336098D01*
X0032417Y0336102D01*
X0032575Y0336102D01*
X0032733Y0336098D01*
X0032892Y0336090D01*
X0033049Y0336078D01*
X0033207Y0336062D01*
X0033364Y0336042D01*
X0033520Y0336018D01*
X0033676Y0335990D01*
X0033831Y0335959D01*
X0033986Y0335923D01*
X0034139Y0335884D01*
X0034291Y0335841D01*
X0034442Y0335794D01*
X0034592Y0335743D01*
X0034741Y0335688D01*
X0034888Y0335630D01*
X0035034Y0335568D01*
X0035178Y0335503D01*
X0035320Y0335433D01*
X0035461Y0335361D01*
X0035600Y0335284D01*
X0035736Y0335205D01*
X0035871Y0335121D01*
X0036004Y0335035D01*
X0036134Y0334945D01*
X0036262Y0334852D01*
X0036388Y0334756D01*
X0036511Y0334656D01*
X0036632Y0334554D01*
X0036750Y0334449D01*
X0036865Y0334340D01*
X0036978Y0334229D01*
X0037088Y0334115D01*
X0037195Y0333998D01*
X0037299Y0333879D01*
X0037400Y0333757D01*
X0037497Y0333632D01*
X0037592Y0333505D01*
X0037683Y0333376D01*
X0037772Y0333245D01*
X0037856Y0333111D01*
X0037938Y0332975D01*
X0038016Y0332838D01*
X0038090Y0332698D01*
X0038161Y0332556D01*
X0038229Y0332413D01*
X0038293Y0332268D01*
X0038353Y0332122D01*
X0038409Y0331974D01*
X0038462Y0331825D01*
X0038511Y0331674D01*
X0038556Y0331522D01*
X0038597Y0331369D01*
X0038635Y0331216D01*
X0038668Y0331061D01*
X0038698Y0330905D01*
X0038724Y0330749D01*
X0038745Y0330592D01*
X0038763Y0330435D01*
X0038777Y0330277D01*
X0038787Y0330119D01*
X0038793Y0329961D01*
X0038795Y0329803D01*
X0038793Y0329645D01*
X0038787Y0329487D01*
X0038777Y0329329D01*
X0038763Y0329171D01*
X0038745Y0329014D01*
X0038724Y0328857D01*
X0038698Y0328701D01*
X0038668Y0328545D01*
X0038635Y0328390D01*
X0038597Y0328237D01*
X0038556Y0328084D01*
X0038511Y0327932D01*
X0038462Y0327781D01*
X0038409Y0327632D01*
X0038353Y0327484D01*
X0038293Y0327338D01*
X0038229Y0327193D01*
X0038161Y0327050D01*
X0038090Y0326908D01*
X0038016Y0326768D01*
X0037938Y0326631D01*
X0037856Y0326495D01*
X0037772Y0326361D01*
X0037683Y0326230D01*
X0037592Y0326101D01*
X0037497Y0325974D01*
X0037400Y0325849D01*
X0037299Y0325727D01*
X0037195Y0325608D01*
X0037088Y0325491D01*
X0036978Y0325377D01*
X0036865Y0325266D01*
X0036750Y0325157D01*
X0036632Y0325052D01*
X0036511Y0324950D01*
X0036388Y0324850D01*
X0036262Y0324754D01*
X0036134Y0324661D01*
X0036004Y0324571D01*
X0035871Y0324485D01*
X0035736Y0324401D01*
X0035600Y0324322D01*
X0035461Y0324245D01*
X0035320Y0324173D01*
X0035178Y0324103D01*
X0035034Y0324038D01*
X0034888Y0323976D01*
X0034741Y0323918D01*
X0034592Y0323863D01*
X0034442Y0323812D01*
X0034291Y0323765D01*
X0034139Y0323722D01*
X0033986Y0323683D01*
X0033831Y0323647D01*
X0033676Y0323616D01*
X0033520Y0323588D01*
X0033364Y0323564D01*
X0033207Y0323544D01*
X0033049Y0323528D01*
X0032892Y0323516D01*
X0032733Y0323508D01*
X0032575Y0323504D01*
X0032417Y0323504D01*
X0032259Y0323508D01*
X0032100Y0323516D01*
X0031943Y0323528D01*
X0031785Y0323544D01*
X0031628Y0323564D01*
X0031472Y0323588D01*
X0031316Y0323616D01*
X0031161Y0323647D01*
X0031006Y0323683D01*
X0030853Y0323722D01*
X0030701Y0323765D01*
X0030550Y0323812D01*
X0030400Y0323863D01*
X0030251Y0323918D01*
X0030104Y0323976D01*
X0029958Y0324038D01*
X0029814Y0324103D01*
X0029672Y0324173D01*
X0029531Y0324245D01*
X0029392Y0324322D01*
X0029256Y0324401D01*
X0029121Y0324485D01*
X0028988Y0324571D01*
X0028858Y0324661D01*
X0028730Y0324754D01*
X0028604Y0324850D01*
X0028481Y0324950D01*
X0028360Y0325052D01*
X0028242Y0325157D01*
X0028127Y0325266D01*
X0028014Y0325377D01*
X0027904Y0325491D01*
X0027797Y0325608D01*
X0027693Y0325727D01*
X0027592Y0325849D01*
X0027495Y0325974D01*
X0027400Y0326101D01*
X0027309Y0326230D01*
X0027220Y0326361D01*
X0027136Y0326495D01*
X0027054Y0326631D01*
X0026976Y0326768D01*
X0026902Y0326908D01*
X0026831Y0327050D01*
X0026763Y0327193D01*
X0026699Y0327338D01*
X0026639Y0327484D01*
X0026583Y0327632D01*
X0026530Y0327781D01*
X0026481Y0327932D01*
X0026436Y0328084D01*
X0026395Y0328237D01*
X0026357Y0328390D01*
X0026324Y0328545D01*
X0026294Y0328701D01*
X0026268Y0328857D01*
X0026247Y0329014D01*
X0026229Y0329171D01*
X0026215Y0329329D01*
X0026205Y0329487D01*
X0026199Y0329645D01*
X0026197Y0329803D01*
X0325410Y0329803D02*
X0325412Y0329961D01*
X0325418Y0330119D01*
X0325428Y0330277D01*
X0325442Y0330435D01*
X0325460Y0330592D01*
X0325481Y0330749D01*
X0325507Y0330905D01*
X0325537Y0331061D01*
X0325570Y0331216D01*
X0325608Y0331369D01*
X0325649Y0331522D01*
X0325694Y0331674D01*
X0325743Y0331825D01*
X0325796Y0331974D01*
X0325852Y0332122D01*
X0325912Y0332268D01*
X0325976Y0332413D01*
X0326044Y0332556D01*
X0326115Y0332698D01*
X0326189Y0332838D01*
X0326267Y0332975D01*
X0326349Y0333111D01*
X0326433Y0333245D01*
X0326522Y0333376D01*
X0326613Y0333505D01*
X0326708Y0333632D01*
X0326805Y0333757D01*
X0326906Y0333879D01*
X0327010Y0333998D01*
X0327117Y0334115D01*
X0327227Y0334229D01*
X0327340Y0334340D01*
X0327455Y0334449D01*
X0327573Y0334554D01*
X0327694Y0334656D01*
X0327817Y0334756D01*
X0327943Y0334852D01*
X0328071Y0334945D01*
X0328201Y0335035D01*
X0328334Y0335121D01*
X0328469Y0335205D01*
X0328605Y0335284D01*
X0328744Y0335361D01*
X0328885Y0335433D01*
X0329027Y0335503D01*
X0329171Y0335568D01*
X0329317Y0335630D01*
X0329464Y0335688D01*
X0329613Y0335743D01*
X0329763Y0335794D01*
X0329914Y0335841D01*
X0330066Y0335884D01*
X0330219Y0335923D01*
X0330374Y0335959D01*
X0330529Y0335990D01*
X0330685Y0336018D01*
X0330841Y0336042D01*
X0330998Y0336062D01*
X0331156Y0336078D01*
X0331313Y0336090D01*
X0331472Y0336098D01*
X0331630Y0336102D01*
X0331788Y0336102D01*
X0331946Y0336098D01*
X0332105Y0336090D01*
X0332262Y0336078D01*
X0332420Y0336062D01*
X0332577Y0336042D01*
X0332733Y0336018D01*
X0332889Y0335990D01*
X0333044Y0335959D01*
X0333199Y0335923D01*
X0333352Y0335884D01*
X0333504Y0335841D01*
X0333655Y0335794D01*
X0333805Y0335743D01*
X0333954Y0335688D01*
X0334101Y0335630D01*
X0334247Y0335568D01*
X0334391Y0335503D01*
X0334533Y0335433D01*
X0334674Y0335361D01*
X0334813Y0335284D01*
X0334949Y0335205D01*
X0335084Y0335121D01*
X0335217Y0335035D01*
X0335347Y0334945D01*
X0335475Y0334852D01*
X0335601Y0334756D01*
X0335724Y0334656D01*
X0335845Y0334554D01*
X0335963Y0334449D01*
X0336078Y0334340D01*
X0336191Y0334229D01*
X0336301Y0334115D01*
X0336408Y0333998D01*
X0336512Y0333879D01*
X0336613Y0333757D01*
X0336710Y0333632D01*
X0336805Y0333505D01*
X0336896Y0333376D01*
X0336985Y0333245D01*
X0337069Y0333111D01*
X0337151Y0332975D01*
X0337229Y0332838D01*
X0337303Y0332698D01*
X0337374Y0332556D01*
X0337442Y0332413D01*
X0337506Y0332268D01*
X0337566Y0332122D01*
X0337622Y0331974D01*
X0337675Y0331825D01*
X0337724Y0331674D01*
X0337769Y0331522D01*
X0337810Y0331369D01*
X0337848Y0331216D01*
X0337881Y0331061D01*
X0337911Y0330905D01*
X0337937Y0330749D01*
X0337958Y0330592D01*
X0337976Y0330435D01*
X0337990Y0330277D01*
X0338000Y0330119D01*
X0338006Y0329961D01*
X0338008Y0329803D01*
X0338006Y0329645D01*
X0338000Y0329487D01*
X0337990Y0329329D01*
X0337976Y0329171D01*
X0337958Y0329014D01*
X0337937Y0328857D01*
X0337911Y0328701D01*
X0337881Y0328545D01*
X0337848Y0328390D01*
X0337810Y0328237D01*
X0337769Y0328084D01*
X0337724Y0327932D01*
X0337675Y0327781D01*
X0337622Y0327632D01*
X0337566Y0327484D01*
X0337506Y0327338D01*
X0337442Y0327193D01*
X0337374Y0327050D01*
X0337303Y0326908D01*
X0337229Y0326768D01*
X0337151Y0326631D01*
X0337069Y0326495D01*
X0336985Y0326361D01*
X0336896Y0326230D01*
X0336805Y0326101D01*
X0336710Y0325974D01*
X0336613Y0325849D01*
X0336512Y0325727D01*
X0336408Y0325608D01*
X0336301Y0325491D01*
X0336191Y0325377D01*
X0336078Y0325266D01*
X0335963Y0325157D01*
X0335845Y0325052D01*
X0335724Y0324950D01*
X0335601Y0324850D01*
X0335475Y0324754D01*
X0335347Y0324661D01*
X0335217Y0324571D01*
X0335084Y0324485D01*
X0334949Y0324401D01*
X0334813Y0324322D01*
X0334674Y0324245D01*
X0334533Y0324173D01*
X0334391Y0324103D01*
X0334247Y0324038D01*
X0334101Y0323976D01*
X0333954Y0323918D01*
X0333805Y0323863D01*
X0333655Y0323812D01*
X0333504Y0323765D01*
X0333352Y0323722D01*
X0333199Y0323683D01*
X0333044Y0323647D01*
X0332889Y0323616D01*
X0332733Y0323588D01*
X0332577Y0323564D01*
X0332420Y0323544D01*
X0332262Y0323528D01*
X0332105Y0323516D01*
X0331946Y0323508D01*
X0331788Y0323504D01*
X0331630Y0323504D01*
X0331472Y0323508D01*
X0331313Y0323516D01*
X0331156Y0323528D01*
X0330998Y0323544D01*
X0330841Y0323564D01*
X0330685Y0323588D01*
X0330529Y0323616D01*
X0330374Y0323647D01*
X0330219Y0323683D01*
X0330066Y0323722D01*
X0329914Y0323765D01*
X0329763Y0323812D01*
X0329613Y0323863D01*
X0329464Y0323918D01*
X0329317Y0323976D01*
X0329171Y0324038D01*
X0329027Y0324103D01*
X0328885Y0324173D01*
X0328744Y0324245D01*
X0328605Y0324322D01*
X0328469Y0324401D01*
X0328334Y0324485D01*
X0328201Y0324571D01*
X0328071Y0324661D01*
X0327943Y0324754D01*
X0327817Y0324850D01*
X0327694Y0324950D01*
X0327573Y0325052D01*
X0327455Y0325157D01*
X0327340Y0325266D01*
X0327227Y0325377D01*
X0327117Y0325491D01*
X0327010Y0325608D01*
X0326906Y0325727D01*
X0326805Y0325849D01*
X0326708Y0325974D01*
X0326613Y0326101D01*
X0326522Y0326230D01*
X0326433Y0326361D01*
X0326349Y0326495D01*
X0326267Y0326631D01*
X0326189Y0326768D01*
X0326115Y0326908D01*
X0326044Y0327050D01*
X0325976Y0327193D01*
X0325912Y0327338D01*
X0325852Y0327484D01*
X0325796Y0327632D01*
X0325743Y0327781D01*
X0325694Y0327932D01*
X0325649Y0328084D01*
X0325608Y0328237D01*
X0325570Y0328390D01*
X0325537Y0328545D01*
X0325507Y0328701D01*
X0325481Y0328857D01*
X0325460Y0329014D01*
X0325442Y0329171D01*
X0325428Y0329329D01*
X0325418Y0329487D01*
X0325412Y0329645D01*
X0325410Y0329803D01*
X0325410Y0286496D02*
X0325412Y0286654D01*
X0325418Y0286812D01*
X0325428Y0286970D01*
X0325442Y0287128D01*
X0325460Y0287285D01*
X0325481Y0287442D01*
X0325507Y0287598D01*
X0325537Y0287754D01*
X0325570Y0287909D01*
X0325608Y0288062D01*
X0325649Y0288215D01*
X0325694Y0288367D01*
X0325743Y0288518D01*
X0325796Y0288667D01*
X0325852Y0288815D01*
X0325912Y0288961D01*
X0325976Y0289106D01*
X0326044Y0289249D01*
X0326115Y0289391D01*
X0326189Y0289531D01*
X0326267Y0289668D01*
X0326349Y0289804D01*
X0326433Y0289938D01*
X0326522Y0290069D01*
X0326613Y0290198D01*
X0326708Y0290325D01*
X0326805Y0290450D01*
X0326906Y0290572D01*
X0327010Y0290691D01*
X0327117Y0290808D01*
X0327227Y0290922D01*
X0327340Y0291033D01*
X0327455Y0291142D01*
X0327573Y0291247D01*
X0327694Y0291349D01*
X0327817Y0291449D01*
X0327943Y0291545D01*
X0328071Y0291638D01*
X0328201Y0291728D01*
X0328334Y0291814D01*
X0328469Y0291898D01*
X0328605Y0291977D01*
X0328744Y0292054D01*
X0328885Y0292126D01*
X0329027Y0292196D01*
X0329171Y0292261D01*
X0329317Y0292323D01*
X0329464Y0292381D01*
X0329613Y0292436D01*
X0329763Y0292487D01*
X0329914Y0292534D01*
X0330066Y0292577D01*
X0330219Y0292616D01*
X0330374Y0292652D01*
X0330529Y0292683D01*
X0330685Y0292711D01*
X0330841Y0292735D01*
X0330998Y0292755D01*
X0331156Y0292771D01*
X0331313Y0292783D01*
X0331472Y0292791D01*
X0331630Y0292795D01*
X0331788Y0292795D01*
X0331946Y0292791D01*
X0332105Y0292783D01*
X0332262Y0292771D01*
X0332420Y0292755D01*
X0332577Y0292735D01*
X0332733Y0292711D01*
X0332889Y0292683D01*
X0333044Y0292652D01*
X0333199Y0292616D01*
X0333352Y0292577D01*
X0333504Y0292534D01*
X0333655Y0292487D01*
X0333805Y0292436D01*
X0333954Y0292381D01*
X0334101Y0292323D01*
X0334247Y0292261D01*
X0334391Y0292196D01*
X0334533Y0292126D01*
X0334674Y0292054D01*
X0334813Y0291977D01*
X0334949Y0291898D01*
X0335084Y0291814D01*
X0335217Y0291728D01*
X0335347Y0291638D01*
X0335475Y0291545D01*
X0335601Y0291449D01*
X0335724Y0291349D01*
X0335845Y0291247D01*
X0335963Y0291142D01*
X0336078Y0291033D01*
X0336191Y0290922D01*
X0336301Y0290808D01*
X0336408Y0290691D01*
X0336512Y0290572D01*
X0336613Y0290450D01*
X0336710Y0290325D01*
X0336805Y0290198D01*
X0336896Y0290069D01*
X0336985Y0289938D01*
X0337069Y0289804D01*
X0337151Y0289668D01*
X0337229Y0289531D01*
X0337303Y0289391D01*
X0337374Y0289249D01*
X0337442Y0289106D01*
X0337506Y0288961D01*
X0337566Y0288815D01*
X0337622Y0288667D01*
X0337675Y0288518D01*
X0337724Y0288367D01*
X0337769Y0288215D01*
X0337810Y0288062D01*
X0337848Y0287909D01*
X0337881Y0287754D01*
X0337911Y0287598D01*
X0337937Y0287442D01*
X0337958Y0287285D01*
X0337976Y0287128D01*
X0337990Y0286970D01*
X0338000Y0286812D01*
X0338006Y0286654D01*
X0338008Y0286496D01*
X0338006Y0286338D01*
X0338000Y0286180D01*
X0337990Y0286022D01*
X0337976Y0285864D01*
X0337958Y0285707D01*
X0337937Y0285550D01*
X0337911Y0285394D01*
X0337881Y0285238D01*
X0337848Y0285083D01*
X0337810Y0284930D01*
X0337769Y0284777D01*
X0337724Y0284625D01*
X0337675Y0284474D01*
X0337622Y0284325D01*
X0337566Y0284177D01*
X0337506Y0284031D01*
X0337442Y0283886D01*
X0337374Y0283743D01*
X0337303Y0283601D01*
X0337229Y0283461D01*
X0337151Y0283324D01*
X0337069Y0283188D01*
X0336985Y0283054D01*
X0336896Y0282923D01*
X0336805Y0282794D01*
X0336710Y0282667D01*
X0336613Y0282542D01*
X0336512Y0282420D01*
X0336408Y0282301D01*
X0336301Y0282184D01*
X0336191Y0282070D01*
X0336078Y0281959D01*
X0335963Y0281850D01*
X0335845Y0281745D01*
X0335724Y0281643D01*
X0335601Y0281543D01*
X0335475Y0281447D01*
X0335347Y0281354D01*
X0335217Y0281264D01*
X0335084Y0281178D01*
X0334949Y0281094D01*
X0334813Y0281015D01*
X0334674Y0280938D01*
X0334533Y0280866D01*
X0334391Y0280796D01*
X0334247Y0280731D01*
X0334101Y0280669D01*
X0333954Y0280611D01*
X0333805Y0280556D01*
X0333655Y0280505D01*
X0333504Y0280458D01*
X0333352Y0280415D01*
X0333199Y0280376D01*
X0333044Y0280340D01*
X0332889Y0280309D01*
X0332733Y0280281D01*
X0332577Y0280257D01*
X0332420Y0280237D01*
X0332262Y0280221D01*
X0332105Y0280209D01*
X0331946Y0280201D01*
X0331788Y0280197D01*
X0331630Y0280197D01*
X0331472Y0280201D01*
X0331313Y0280209D01*
X0331156Y0280221D01*
X0330998Y0280237D01*
X0330841Y0280257D01*
X0330685Y0280281D01*
X0330529Y0280309D01*
X0330374Y0280340D01*
X0330219Y0280376D01*
X0330066Y0280415D01*
X0329914Y0280458D01*
X0329763Y0280505D01*
X0329613Y0280556D01*
X0329464Y0280611D01*
X0329317Y0280669D01*
X0329171Y0280731D01*
X0329027Y0280796D01*
X0328885Y0280866D01*
X0328744Y0280938D01*
X0328605Y0281015D01*
X0328469Y0281094D01*
X0328334Y0281178D01*
X0328201Y0281264D01*
X0328071Y0281354D01*
X0327943Y0281447D01*
X0327817Y0281543D01*
X0327694Y0281643D01*
X0327573Y0281745D01*
X0327455Y0281850D01*
X0327340Y0281959D01*
X0327227Y0282070D01*
X0327117Y0282184D01*
X0327010Y0282301D01*
X0326906Y0282420D01*
X0326805Y0282542D01*
X0326708Y0282667D01*
X0326613Y0282794D01*
X0326522Y0282923D01*
X0326433Y0283054D01*
X0326349Y0283188D01*
X0326267Y0283324D01*
X0326189Y0283461D01*
X0326115Y0283601D01*
X0326044Y0283743D01*
X0325976Y0283886D01*
X0325912Y0284031D01*
X0325852Y0284177D01*
X0325796Y0284325D01*
X0325743Y0284474D01*
X0325694Y0284625D01*
X0325649Y0284777D01*
X0325608Y0284930D01*
X0325570Y0285083D01*
X0325537Y0285238D01*
X0325507Y0285394D01*
X0325481Y0285550D01*
X0325460Y0285707D01*
X0325442Y0285864D01*
X0325428Y0286022D01*
X0325418Y0286180D01*
X0325412Y0286338D01*
X0325410Y0286496D01*
X0325410Y0258937D02*
X0325412Y0259095D01*
X0325418Y0259253D01*
X0325428Y0259411D01*
X0325442Y0259569D01*
X0325460Y0259726D01*
X0325481Y0259883D01*
X0325507Y0260039D01*
X0325537Y0260195D01*
X0325570Y0260350D01*
X0325608Y0260503D01*
X0325649Y0260656D01*
X0325694Y0260808D01*
X0325743Y0260959D01*
X0325796Y0261108D01*
X0325852Y0261256D01*
X0325912Y0261402D01*
X0325976Y0261547D01*
X0326044Y0261690D01*
X0326115Y0261832D01*
X0326189Y0261972D01*
X0326267Y0262109D01*
X0326349Y0262245D01*
X0326433Y0262379D01*
X0326522Y0262510D01*
X0326613Y0262639D01*
X0326708Y0262766D01*
X0326805Y0262891D01*
X0326906Y0263013D01*
X0327010Y0263132D01*
X0327117Y0263249D01*
X0327227Y0263363D01*
X0327340Y0263474D01*
X0327455Y0263583D01*
X0327573Y0263688D01*
X0327694Y0263790D01*
X0327817Y0263890D01*
X0327943Y0263986D01*
X0328071Y0264079D01*
X0328201Y0264169D01*
X0328334Y0264255D01*
X0328469Y0264339D01*
X0328605Y0264418D01*
X0328744Y0264495D01*
X0328885Y0264567D01*
X0329027Y0264637D01*
X0329171Y0264702D01*
X0329317Y0264764D01*
X0329464Y0264822D01*
X0329613Y0264877D01*
X0329763Y0264928D01*
X0329914Y0264975D01*
X0330066Y0265018D01*
X0330219Y0265057D01*
X0330374Y0265093D01*
X0330529Y0265124D01*
X0330685Y0265152D01*
X0330841Y0265176D01*
X0330998Y0265196D01*
X0331156Y0265212D01*
X0331313Y0265224D01*
X0331472Y0265232D01*
X0331630Y0265236D01*
X0331788Y0265236D01*
X0331946Y0265232D01*
X0332105Y0265224D01*
X0332262Y0265212D01*
X0332420Y0265196D01*
X0332577Y0265176D01*
X0332733Y0265152D01*
X0332889Y0265124D01*
X0333044Y0265093D01*
X0333199Y0265057D01*
X0333352Y0265018D01*
X0333504Y0264975D01*
X0333655Y0264928D01*
X0333805Y0264877D01*
X0333954Y0264822D01*
X0334101Y0264764D01*
X0334247Y0264702D01*
X0334391Y0264637D01*
X0334533Y0264567D01*
X0334674Y0264495D01*
X0334813Y0264418D01*
X0334949Y0264339D01*
X0335084Y0264255D01*
X0335217Y0264169D01*
X0335347Y0264079D01*
X0335475Y0263986D01*
X0335601Y0263890D01*
X0335724Y0263790D01*
X0335845Y0263688D01*
X0335963Y0263583D01*
X0336078Y0263474D01*
X0336191Y0263363D01*
X0336301Y0263249D01*
X0336408Y0263132D01*
X0336512Y0263013D01*
X0336613Y0262891D01*
X0336710Y0262766D01*
X0336805Y0262639D01*
X0336896Y0262510D01*
X0336985Y0262379D01*
X0337069Y0262245D01*
X0337151Y0262109D01*
X0337229Y0261972D01*
X0337303Y0261832D01*
X0337374Y0261690D01*
X0337442Y0261547D01*
X0337506Y0261402D01*
X0337566Y0261256D01*
X0337622Y0261108D01*
X0337675Y0260959D01*
X0337724Y0260808D01*
X0337769Y0260656D01*
X0337810Y0260503D01*
X0337848Y0260350D01*
X0337881Y0260195D01*
X0337911Y0260039D01*
X0337937Y0259883D01*
X0337958Y0259726D01*
X0337976Y0259569D01*
X0337990Y0259411D01*
X0338000Y0259253D01*
X0338006Y0259095D01*
X0338008Y0258937D01*
X0338006Y0258779D01*
X0338000Y0258621D01*
X0337990Y0258463D01*
X0337976Y0258305D01*
X0337958Y0258148D01*
X0337937Y0257991D01*
X0337911Y0257835D01*
X0337881Y0257679D01*
X0337848Y0257524D01*
X0337810Y0257371D01*
X0337769Y0257218D01*
X0337724Y0257066D01*
X0337675Y0256915D01*
X0337622Y0256766D01*
X0337566Y0256618D01*
X0337506Y0256472D01*
X0337442Y0256327D01*
X0337374Y0256184D01*
X0337303Y0256042D01*
X0337229Y0255902D01*
X0337151Y0255765D01*
X0337069Y0255629D01*
X0336985Y0255495D01*
X0336896Y0255364D01*
X0336805Y0255235D01*
X0336710Y0255108D01*
X0336613Y0254983D01*
X0336512Y0254861D01*
X0336408Y0254742D01*
X0336301Y0254625D01*
X0336191Y0254511D01*
X0336078Y0254400D01*
X0335963Y0254291D01*
X0335845Y0254186D01*
X0335724Y0254084D01*
X0335601Y0253984D01*
X0335475Y0253888D01*
X0335347Y0253795D01*
X0335217Y0253705D01*
X0335084Y0253619D01*
X0334949Y0253535D01*
X0334813Y0253456D01*
X0334674Y0253379D01*
X0334533Y0253307D01*
X0334391Y0253237D01*
X0334247Y0253172D01*
X0334101Y0253110D01*
X0333954Y0253052D01*
X0333805Y0252997D01*
X0333655Y0252946D01*
X0333504Y0252899D01*
X0333352Y0252856D01*
X0333199Y0252817D01*
X0333044Y0252781D01*
X0332889Y0252750D01*
X0332733Y0252722D01*
X0332577Y0252698D01*
X0332420Y0252678D01*
X0332262Y0252662D01*
X0332105Y0252650D01*
X0331946Y0252642D01*
X0331788Y0252638D01*
X0331630Y0252638D01*
X0331472Y0252642D01*
X0331313Y0252650D01*
X0331156Y0252662D01*
X0330998Y0252678D01*
X0330841Y0252698D01*
X0330685Y0252722D01*
X0330529Y0252750D01*
X0330374Y0252781D01*
X0330219Y0252817D01*
X0330066Y0252856D01*
X0329914Y0252899D01*
X0329763Y0252946D01*
X0329613Y0252997D01*
X0329464Y0253052D01*
X0329317Y0253110D01*
X0329171Y0253172D01*
X0329027Y0253237D01*
X0328885Y0253307D01*
X0328744Y0253379D01*
X0328605Y0253456D01*
X0328469Y0253535D01*
X0328334Y0253619D01*
X0328201Y0253705D01*
X0328071Y0253795D01*
X0327943Y0253888D01*
X0327817Y0253984D01*
X0327694Y0254084D01*
X0327573Y0254186D01*
X0327455Y0254291D01*
X0327340Y0254400D01*
X0327227Y0254511D01*
X0327117Y0254625D01*
X0327010Y0254742D01*
X0326906Y0254861D01*
X0326805Y0254983D01*
X0326708Y0255108D01*
X0326613Y0255235D01*
X0326522Y0255364D01*
X0326433Y0255495D01*
X0326349Y0255629D01*
X0326267Y0255765D01*
X0326189Y0255902D01*
X0326115Y0256042D01*
X0326044Y0256184D01*
X0325976Y0256327D01*
X0325912Y0256472D01*
X0325852Y0256618D01*
X0325796Y0256766D01*
X0325743Y0256915D01*
X0325694Y0257066D01*
X0325649Y0257218D01*
X0325608Y0257371D01*
X0325570Y0257524D01*
X0325537Y0257679D01*
X0325507Y0257835D01*
X0325481Y0257991D01*
X0325460Y0258148D01*
X0325442Y0258305D01*
X0325428Y0258463D01*
X0325418Y0258621D01*
X0325412Y0258779D01*
X0325410Y0258937D01*
X0325410Y0215630D02*
X0325412Y0215788D01*
X0325418Y0215946D01*
X0325428Y0216104D01*
X0325442Y0216262D01*
X0325460Y0216419D01*
X0325481Y0216576D01*
X0325507Y0216732D01*
X0325537Y0216888D01*
X0325570Y0217043D01*
X0325608Y0217196D01*
X0325649Y0217349D01*
X0325694Y0217501D01*
X0325743Y0217652D01*
X0325796Y0217801D01*
X0325852Y0217949D01*
X0325912Y0218095D01*
X0325976Y0218240D01*
X0326044Y0218383D01*
X0326115Y0218525D01*
X0326189Y0218665D01*
X0326267Y0218802D01*
X0326349Y0218938D01*
X0326433Y0219072D01*
X0326522Y0219203D01*
X0326613Y0219332D01*
X0326708Y0219459D01*
X0326805Y0219584D01*
X0326906Y0219706D01*
X0327010Y0219825D01*
X0327117Y0219942D01*
X0327227Y0220056D01*
X0327340Y0220167D01*
X0327455Y0220276D01*
X0327573Y0220381D01*
X0327694Y0220483D01*
X0327817Y0220583D01*
X0327943Y0220679D01*
X0328071Y0220772D01*
X0328201Y0220862D01*
X0328334Y0220948D01*
X0328469Y0221032D01*
X0328605Y0221111D01*
X0328744Y0221188D01*
X0328885Y0221260D01*
X0329027Y0221330D01*
X0329171Y0221395D01*
X0329317Y0221457D01*
X0329464Y0221515D01*
X0329613Y0221570D01*
X0329763Y0221621D01*
X0329914Y0221668D01*
X0330066Y0221711D01*
X0330219Y0221750D01*
X0330374Y0221786D01*
X0330529Y0221817D01*
X0330685Y0221845D01*
X0330841Y0221869D01*
X0330998Y0221889D01*
X0331156Y0221905D01*
X0331313Y0221917D01*
X0331472Y0221925D01*
X0331630Y0221929D01*
X0331788Y0221929D01*
X0331946Y0221925D01*
X0332105Y0221917D01*
X0332262Y0221905D01*
X0332420Y0221889D01*
X0332577Y0221869D01*
X0332733Y0221845D01*
X0332889Y0221817D01*
X0333044Y0221786D01*
X0333199Y0221750D01*
X0333352Y0221711D01*
X0333504Y0221668D01*
X0333655Y0221621D01*
X0333805Y0221570D01*
X0333954Y0221515D01*
X0334101Y0221457D01*
X0334247Y0221395D01*
X0334391Y0221330D01*
X0334533Y0221260D01*
X0334674Y0221188D01*
X0334813Y0221111D01*
X0334949Y0221032D01*
X0335084Y0220948D01*
X0335217Y0220862D01*
X0335347Y0220772D01*
X0335475Y0220679D01*
X0335601Y0220583D01*
X0335724Y0220483D01*
X0335845Y0220381D01*
X0335963Y0220276D01*
X0336078Y0220167D01*
X0336191Y0220056D01*
X0336301Y0219942D01*
X0336408Y0219825D01*
X0336512Y0219706D01*
X0336613Y0219584D01*
X0336710Y0219459D01*
X0336805Y0219332D01*
X0336896Y0219203D01*
X0336985Y0219072D01*
X0337069Y0218938D01*
X0337151Y0218802D01*
X0337229Y0218665D01*
X0337303Y0218525D01*
X0337374Y0218383D01*
X0337442Y0218240D01*
X0337506Y0218095D01*
X0337566Y0217949D01*
X0337622Y0217801D01*
X0337675Y0217652D01*
X0337724Y0217501D01*
X0337769Y0217349D01*
X0337810Y0217196D01*
X0337848Y0217043D01*
X0337881Y0216888D01*
X0337911Y0216732D01*
X0337937Y0216576D01*
X0337958Y0216419D01*
X0337976Y0216262D01*
X0337990Y0216104D01*
X0338000Y0215946D01*
X0338006Y0215788D01*
X0338008Y0215630D01*
X0338006Y0215472D01*
X0338000Y0215314D01*
X0337990Y0215156D01*
X0337976Y0214998D01*
X0337958Y0214841D01*
X0337937Y0214684D01*
X0337911Y0214528D01*
X0337881Y0214372D01*
X0337848Y0214217D01*
X0337810Y0214064D01*
X0337769Y0213911D01*
X0337724Y0213759D01*
X0337675Y0213608D01*
X0337622Y0213459D01*
X0337566Y0213311D01*
X0337506Y0213165D01*
X0337442Y0213020D01*
X0337374Y0212877D01*
X0337303Y0212735D01*
X0337229Y0212595D01*
X0337151Y0212458D01*
X0337069Y0212322D01*
X0336985Y0212188D01*
X0336896Y0212057D01*
X0336805Y0211928D01*
X0336710Y0211801D01*
X0336613Y0211676D01*
X0336512Y0211554D01*
X0336408Y0211435D01*
X0336301Y0211318D01*
X0336191Y0211204D01*
X0336078Y0211093D01*
X0335963Y0210984D01*
X0335845Y0210879D01*
X0335724Y0210777D01*
X0335601Y0210677D01*
X0335475Y0210581D01*
X0335347Y0210488D01*
X0335217Y0210398D01*
X0335084Y0210312D01*
X0334949Y0210228D01*
X0334813Y0210149D01*
X0334674Y0210072D01*
X0334533Y0210000D01*
X0334391Y0209930D01*
X0334247Y0209865D01*
X0334101Y0209803D01*
X0333954Y0209745D01*
X0333805Y0209690D01*
X0333655Y0209639D01*
X0333504Y0209592D01*
X0333352Y0209549D01*
X0333199Y0209510D01*
X0333044Y0209474D01*
X0332889Y0209443D01*
X0332733Y0209415D01*
X0332577Y0209391D01*
X0332420Y0209371D01*
X0332262Y0209355D01*
X0332105Y0209343D01*
X0331946Y0209335D01*
X0331788Y0209331D01*
X0331630Y0209331D01*
X0331472Y0209335D01*
X0331313Y0209343D01*
X0331156Y0209355D01*
X0330998Y0209371D01*
X0330841Y0209391D01*
X0330685Y0209415D01*
X0330529Y0209443D01*
X0330374Y0209474D01*
X0330219Y0209510D01*
X0330066Y0209549D01*
X0329914Y0209592D01*
X0329763Y0209639D01*
X0329613Y0209690D01*
X0329464Y0209745D01*
X0329317Y0209803D01*
X0329171Y0209865D01*
X0329027Y0209930D01*
X0328885Y0210000D01*
X0328744Y0210072D01*
X0328605Y0210149D01*
X0328469Y0210228D01*
X0328334Y0210312D01*
X0328201Y0210398D01*
X0328071Y0210488D01*
X0327943Y0210581D01*
X0327817Y0210677D01*
X0327694Y0210777D01*
X0327573Y0210879D01*
X0327455Y0210984D01*
X0327340Y0211093D01*
X0327227Y0211204D01*
X0327117Y0211318D01*
X0327010Y0211435D01*
X0326906Y0211554D01*
X0326805Y0211676D01*
X0326708Y0211801D01*
X0326613Y0211928D01*
X0326522Y0212057D01*
X0326433Y0212188D01*
X0326349Y0212322D01*
X0326267Y0212458D01*
X0326189Y0212595D01*
X0326115Y0212735D01*
X0326044Y0212877D01*
X0325976Y0213020D01*
X0325912Y0213165D01*
X0325852Y0213311D01*
X0325796Y0213459D01*
X0325743Y0213608D01*
X0325694Y0213759D01*
X0325649Y0213911D01*
X0325608Y0214064D01*
X0325570Y0214217D01*
X0325537Y0214372D01*
X0325507Y0214528D01*
X0325481Y0214684D01*
X0325460Y0214841D01*
X0325442Y0214998D01*
X0325428Y0215156D01*
X0325418Y0215314D01*
X0325412Y0215472D01*
X0325410Y0215630D01*
X0325410Y0184134D02*
X0325412Y0184292D01*
X0325418Y0184450D01*
X0325428Y0184608D01*
X0325442Y0184766D01*
X0325460Y0184923D01*
X0325481Y0185080D01*
X0325507Y0185236D01*
X0325537Y0185392D01*
X0325570Y0185547D01*
X0325608Y0185700D01*
X0325649Y0185853D01*
X0325694Y0186005D01*
X0325743Y0186156D01*
X0325796Y0186305D01*
X0325852Y0186453D01*
X0325912Y0186599D01*
X0325976Y0186744D01*
X0326044Y0186887D01*
X0326115Y0187029D01*
X0326189Y0187169D01*
X0326267Y0187306D01*
X0326349Y0187442D01*
X0326433Y0187576D01*
X0326522Y0187707D01*
X0326613Y0187836D01*
X0326708Y0187963D01*
X0326805Y0188088D01*
X0326906Y0188210D01*
X0327010Y0188329D01*
X0327117Y0188446D01*
X0327227Y0188560D01*
X0327340Y0188671D01*
X0327455Y0188780D01*
X0327573Y0188885D01*
X0327694Y0188987D01*
X0327817Y0189087D01*
X0327943Y0189183D01*
X0328071Y0189276D01*
X0328201Y0189366D01*
X0328334Y0189452D01*
X0328469Y0189536D01*
X0328605Y0189615D01*
X0328744Y0189692D01*
X0328885Y0189764D01*
X0329027Y0189834D01*
X0329171Y0189899D01*
X0329317Y0189961D01*
X0329464Y0190019D01*
X0329613Y0190074D01*
X0329763Y0190125D01*
X0329914Y0190172D01*
X0330066Y0190215D01*
X0330219Y0190254D01*
X0330374Y0190290D01*
X0330529Y0190321D01*
X0330685Y0190349D01*
X0330841Y0190373D01*
X0330998Y0190393D01*
X0331156Y0190409D01*
X0331313Y0190421D01*
X0331472Y0190429D01*
X0331630Y0190433D01*
X0331788Y0190433D01*
X0331946Y0190429D01*
X0332105Y0190421D01*
X0332262Y0190409D01*
X0332420Y0190393D01*
X0332577Y0190373D01*
X0332733Y0190349D01*
X0332889Y0190321D01*
X0333044Y0190290D01*
X0333199Y0190254D01*
X0333352Y0190215D01*
X0333504Y0190172D01*
X0333655Y0190125D01*
X0333805Y0190074D01*
X0333954Y0190019D01*
X0334101Y0189961D01*
X0334247Y0189899D01*
X0334391Y0189834D01*
X0334533Y0189764D01*
X0334674Y0189692D01*
X0334813Y0189615D01*
X0334949Y0189536D01*
X0335084Y0189452D01*
X0335217Y0189366D01*
X0335347Y0189276D01*
X0335475Y0189183D01*
X0335601Y0189087D01*
X0335724Y0188987D01*
X0335845Y0188885D01*
X0335963Y0188780D01*
X0336078Y0188671D01*
X0336191Y0188560D01*
X0336301Y0188446D01*
X0336408Y0188329D01*
X0336512Y0188210D01*
X0336613Y0188088D01*
X0336710Y0187963D01*
X0336805Y0187836D01*
X0336896Y0187707D01*
X0336985Y0187576D01*
X0337069Y0187442D01*
X0337151Y0187306D01*
X0337229Y0187169D01*
X0337303Y0187029D01*
X0337374Y0186887D01*
X0337442Y0186744D01*
X0337506Y0186599D01*
X0337566Y0186453D01*
X0337622Y0186305D01*
X0337675Y0186156D01*
X0337724Y0186005D01*
X0337769Y0185853D01*
X0337810Y0185700D01*
X0337848Y0185547D01*
X0337881Y0185392D01*
X0337911Y0185236D01*
X0337937Y0185080D01*
X0337958Y0184923D01*
X0337976Y0184766D01*
X0337990Y0184608D01*
X0338000Y0184450D01*
X0338006Y0184292D01*
X0338008Y0184134D01*
X0338006Y0183976D01*
X0338000Y0183818D01*
X0337990Y0183660D01*
X0337976Y0183502D01*
X0337958Y0183345D01*
X0337937Y0183188D01*
X0337911Y0183032D01*
X0337881Y0182876D01*
X0337848Y0182721D01*
X0337810Y0182568D01*
X0337769Y0182415D01*
X0337724Y0182263D01*
X0337675Y0182112D01*
X0337622Y0181963D01*
X0337566Y0181815D01*
X0337506Y0181669D01*
X0337442Y0181524D01*
X0337374Y0181381D01*
X0337303Y0181239D01*
X0337229Y0181099D01*
X0337151Y0180962D01*
X0337069Y0180826D01*
X0336985Y0180692D01*
X0336896Y0180561D01*
X0336805Y0180432D01*
X0336710Y0180305D01*
X0336613Y0180180D01*
X0336512Y0180058D01*
X0336408Y0179939D01*
X0336301Y0179822D01*
X0336191Y0179708D01*
X0336078Y0179597D01*
X0335963Y0179488D01*
X0335845Y0179383D01*
X0335724Y0179281D01*
X0335601Y0179181D01*
X0335475Y0179085D01*
X0335347Y0178992D01*
X0335217Y0178902D01*
X0335084Y0178816D01*
X0334949Y0178732D01*
X0334813Y0178653D01*
X0334674Y0178576D01*
X0334533Y0178504D01*
X0334391Y0178434D01*
X0334247Y0178369D01*
X0334101Y0178307D01*
X0333954Y0178249D01*
X0333805Y0178194D01*
X0333655Y0178143D01*
X0333504Y0178096D01*
X0333352Y0178053D01*
X0333199Y0178014D01*
X0333044Y0177978D01*
X0332889Y0177947D01*
X0332733Y0177919D01*
X0332577Y0177895D01*
X0332420Y0177875D01*
X0332262Y0177859D01*
X0332105Y0177847D01*
X0331946Y0177839D01*
X0331788Y0177835D01*
X0331630Y0177835D01*
X0331472Y0177839D01*
X0331313Y0177847D01*
X0331156Y0177859D01*
X0330998Y0177875D01*
X0330841Y0177895D01*
X0330685Y0177919D01*
X0330529Y0177947D01*
X0330374Y0177978D01*
X0330219Y0178014D01*
X0330066Y0178053D01*
X0329914Y0178096D01*
X0329763Y0178143D01*
X0329613Y0178194D01*
X0329464Y0178249D01*
X0329317Y0178307D01*
X0329171Y0178369D01*
X0329027Y0178434D01*
X0328885Y0178504D01*
X0328744Y0178576D01*
X0328605Y0178653D01*
X0328469Y0178732D01*
X0328334Y0178816D01*
X0328201Y0178902D01*
X0328071Y0178992D01*
X0327943Y0179085D01*
X0327817Y0179181D01*
X0327694Y0179281D01*
X0327573Y0179383D01*
X0327455Y0179488D01*
X0327340Y0179597D01*
X0327227Y0179708D01*
X0327117Y0179822D01*
X0327010Y0179939D01*
X0326906Y0180058D01*
X0326805Y0180180D01*
X0326708Y0180305D01*
X0326613Y0180432D01*
X0326522Y0180561D01*
X0326433Y0180692D01*
X0326349Y0180826D01*
X0326267Y0180962D01*
X0326189Y0181099D01*
X0326115Y0181239D01*
X0326044Y0181381D01*
X0325976Y0181524D01*
X0325912Y0181669D01*
X0325852Y0181815D01*
X0325796Y0181963D01*
X0325743Y0182112D01*
X0325694Y0182263D01*
X0325649Y0182415D01*
X0325608Y0182568D01*
X0325570Y0182721D01*
X0325537Y0182876D01*
X0325507Y0183032D01*
X0325481Y0183188D01*
X0325460Y0183345D01*
X0325442Y0183502D01*
X0325428Y0183660D01*
X0325418Y0183818D01*
X0325412Y0183976D01*
X0325410Y0184134D01*
X0325410Y0140827D02*
X0325412Y0140985D01*
X0325418Y0141143D01*
X0325428Y0141301D01*
X0325442Y0141459D01*
X0325460Y0141616D01*
X0325481Y0141773D01*
X0325507Y0141929D01*
X0325537Y0142085D01*
X0325570Y0142240D01*
X0325608Y0142393D01*
X0325649Y0142546D01*
X0325694Y0142698D01*
X0325743Y0142849D01*
X0325796Y0142998D01*
X0325852Y0143146D01*
X0325912Y0143292D01*
X0325976Y0143437D01*
X0326044Y0143580D01*
X0326115Y0143722D01*
X0326189Y0143862D01*
X0326267Y0143999D01*
X0326349Y0144135D01*
X0326433Y0144269D01*
X0326522Y0144400D01*
X0326613Y0144529D01*
X0326708Y0144656D01*
X0326805Y0144781D01*
X0326906Y0144903D01*
X0327010Y0145022D01*
X0327117Y0145139D01*
X0327227Y0145253D01*
X0327340Y0145364D01*
X0327455Y0145473D01*
X0327573Y0145578D01*
X0327694Y0145680D01*
X0327817Y0145780D01*
X0327943Y0145876D01*
X0328071Y0145969D01*
X0328201Y0146059D01*
X0328334Y0146145D01*
X0328469Y0146229D01*
X0328605Y0146308D01*
X0328744Y0146385D01*
X0328885Y0146457D01*
X0329027Y0146527D01*
X0329171Y0146592D01*
X0329317Y0146654D01*
X0329464Y0146712D01*
X0329613Y0146767D01*
X0329763Y0146818D01*
X0329914Y0146865D01*
X0330066Y0146908D01*
X0330219Y0146947D01*
X0330374Y0146983D01*
X0330529Y0147014D01*
X0330685Y0147042D01*
X0330841Y0147066D01*
X0330998Y0147086D01*
X0331156Y0147102D01*
X0331313Y0147114D01*
X0331472Y0147122D01*
X0331630Y0147126D01*
X0331788Y0147126D01*
X0331946Y0147122D01*
X0332105Y0147114D01*
X0332262Y0147102D01*
X0332420Y0147086D01*
X0332577Y0147066D01*
X0332733Y0147042D01*
X0332889Y0147014D01*
X0333044Y0146983D01*
X0333199Y0146947D01*
X0333352Y0146908D01*
X0333504Y0146865D01*
X0333655Y0146818D01*
X0333805Y0146767D01*
X0333954Y0146712D01*
X0334101Y0146654D01*
X0334247Y0146592D01*
X0334391Y0146527D01*
X0334533Y0146457D01*
X0334674Y0146385D01*
X0334813Y0146308D01*
X0334949Y0146229D01*
X0335084Y0146145D01*
X0335217Y0146059D01*
X0335347Y0145969D01*
X0335475Y0145876D01*
X0335601Y0145780D01*
X0335724Y0145680D01*
X0335845Y0145578D01*
X0335963Y0145473D01*
X0336078Y0145364D01*
X0336191Y0145253D01*
X0336301Y0145139D01*
X0336408Y0145022D01*
X0336512Y0144903D01*
X0336613Y0144781D01*
X0336710Y0144656D01*
X0336805Y0144529D01*
X0336896Y0144400D01*
X0336985Y0144269D01*
X0337069Y0144135D01*
X0337151Y0143999D01*
X0337229Y0143862D01*
X0337303Y0143722D01*
X0337374Y0143580D01*
X0337442Y0143437D01*
X0337506Y0143292D01*
X0337566Y0143146D01*
X0337622Y0142998D01*
X0337675Y0142849D01*
X0337724Y0142698D01*
X0337769Y0142546D01*
X0337810Y0142393D01*
X0337848Y0142240D01*
X0337881Y0142085D01*
X0337911Y0141929D01*
X0337937Y0141773D01*
X0337958Y0141616D01*
X0337976Y0141459D01*
X0337990Y0141301D01*
X0338000Y0141143D01*
X0338006Y0140985D01*
X0338008Y0140827D01*
X0338006Y0140669D01*
X0338000Y0140511D01*
X0337990Y0140353D01*
X0337976Y0140195D01*
X0337958Y0140038D01*
X0337937Y0139881D01*
X0337911Y0139725D01*
X0337881Y0139569D01*
X0337848Y0139414D01*
X0337810Y0139261D01*
X0337769Y0139108D01*
X0337724Y0138956D01*
X0337675Y0138805D01*
X0337622Y0138656D01*
X0337566Y0138508D01*
X0337506Y0138362D01*
X0337442Y0138217D01*
X0337374Y0138074D01*
X0337303Y0137932D01*
X0337229Y0137792D01*
X0337151Y0137655D01*
X0337069Y0137519D01*
X0336985Y0137385D01*
X0336896Y0137254D01*
X0336805Y0137125D01*
X0336710Y0136998D01*
X0336613Y0136873D01*
X0336512Y0136751D01*
X0336408Y0136632D01*
X0336301Y0136515D01*
X0336191Y0136401D01*
X0336078Y0136290D01*
X0335963Y0136181D01*
X0335845Y0136076D01*
X0335724Y0135974D01*
X0335601Y0135874D01*
X0335475Y0135778D01*
X0335347Y0135685D01*
X0335217Y0135595D01*
X0335084Y0135509D01*
X0334949Y0135425D01*
X0334813Y0135346D01*
X0334674Y0135269D01*
X0334533Y0135197D01*
X0334391Y0135127D01*
X0334247Y0135062D01*
X0334101Y0135000D01*
X0333954Y0134942D01*
X0333805Y0134887D01*
X0333655Y0134836D01*
X0333504Y0134789D01*
X0333352Y0134746D01*
X0333199Y0134707D01*
X0333044Y0134671D01*
X0332889Y0134640D01*
X0332733Y0134612D01*
X0332577Y0134588D01*
X0332420Y0134568D01*
X0332262Y0134552D01*
X0332105Y0134540D01*
X0331946Y0134532D01*
X0331788Y0134528D01*
X0331630Y0134528D01*
X0331472Y0134532D01*
X0331313Y0134540D01*
X0331156Y0134552D01*
X0330998Y0134568D01*
X0330841Y0134588D01*
X0330685Y0134612D01*
X0330529Y0134640D01*
X0330374Y0134671D01*
X0330219Y0134707D01*
X0330066Y0134746D01*
X0329914Y0134789D01*
X0329763Y0134836D01*
X0329613Y0134887D01*
X0329464Y0134942D01*
X0329317Y0135000D01*
X0329171Y0135062D01*
X0329027Y0135127D01*
X0328885Y0135197D01*
X0328744Y0135269D01*
X0328605Y0135346D01*
X0328469Y0135425D01*
X0328334Y0135509D01*
X0328201Y0135595D01*
X0328071Y0135685D01*
X0327943Y0135778D01*
X0327817Y0135874D01*
X0327694Y0135974D01*
X0327573Y0136076D01*
X0327455Y0136181D01*
X0327340Y0136290D01*
X0327227Y0136401D01*
X0327117Y0136515D01*
X0327010Y0136632D01*
X0326906Y0136751D01*
X0326805Y0136873D01*
X0326708Y0136998D01*
X0326613Y0137125D01*
X0326522Y0137254D01*
X0326433Y0137385D01*
X0326349Y0137519D01*
X0326267Y0137655D01*
X0326189Y0137792D01*
X0326115Y0137932D01*
X0326044Y0138074D01*
X0325976Y0138217D01*
X0325912Y0138362D01*
X0325852Y0138508D01*
X0325796Y0138656D01*
X0325743Y0138805D01*
X0325694Y0138956D01*
X0325649Y0139108D01*
X0325608Y0139261D01*
X0325570Y0139414D01*
X0325537Y0139569D01*
X0325507Y0139725D01*
X0325481Y0139881D01*
X0325460Y0140038D01*
X0325442Y0140195D01*
X0325428Y0140353D01*
X0325418Y0140511D01*
X0325412Y0140669D01*
X0325410Y0140827D01*
X0325410Y0113268D02*
X0325412Y0113426D01*
X0325418Y0113584D01*
X0325428Y0113742D01*
X0325442Y0113900D01*
X0325460Y0114057D01*
X0325481Y0114214D01*
X0325507Y0114370D01*
X0325537Y0114526D01*
X0325570Y0114681D01*
X0325608Y0114834D01*
X0325649Y0114987D01*
X0325694Y0115139D01*
X0325743Y0115290D01*
X0325796Y0115439D01*
X0325852Y0115587D01*
X0325912Y0115733D01*
X0325976Y0115878D01*
X0326044Y0116021D01*
X0326115Y0116163D01*
X0326189Y0116303D01*
X0326267Y0116440D01*
X0326349Y0116576D01*
X0326433Y0116710D01*
X0326522Y0116841D01*
X0326613Y0116970D01*
X0326708Y0117097D01*
X0326805Y0117222D01*
X0326906Y0117344D01*
X0327010Y0117463D01*
X0327117Y0117580D01*
X0327227Y0117694D01*
X0327340Y0117805D01*
X0327455Y0117914D01*
X0327573Y0118019D01*
X0327694Y0118121D01*
X0327817Y0118221D01*
X0327943Y0118317D01*
X0328071Y0118410D01*
X0328201Y0118500D01*
X0328334Y0118586D01*
X0328469Y0118670D01*
X0328605Y0118749D01*
X0328744Y0118826D01*
X0328885Y0118898D01*
X0329027Y0118968D01*
X0329171Y0119033D01*
X0329317Y0119095D01*
X0329464Y0119153D01*
X0329613Y0119208D01*
X0329763Y0119259D01*
X0329914Y0119306D01*
X0330066Y0119349D01*
X0330219Y0119388D01*
X0330374Y0119424D01*
X0330529Y0119455D01*
X0330685Y0119483D01*
X0330841Y0119507D01*
X0330998Y0119527D01*
X0331156Y0119543D01*
X0331313Y0119555D01*
X0331472Y0119563D01*
X0331630Y0119567D01*
X0331788Y0119567D01*
X0331946Y0119563D01*
X0332105Y0119555D01*
X0332262Y0119543D01*
X0332420Y0119527D01*
X0332577Y0119507D01*
X0332733Y0119483D01*
X0332889Y0119455D01*
X0333044Y0119424D01*
X0333199Y0119388D01*
X0333352Y0119349D01*
X0333504Y0119306D01*
X0333655Y0119259D01*
X0333805Y0119208D01*
X0333954Y0119153D01*
X0334101Y0119095D01*
X0334247Y0119033D01*
X0334391Y0118968D01*
X0334533Y0118898D01*
X0334674Y0118826D01*
X0334813Y0118749D01*
X0334949Y0118670D01*
X0335084Y0118586D01*
X0335217Y0118500D01*
X0335347Y0118410D01*
X0335475Y0118317D01*
X0335601Y0118221D01*
X0335724Y0118121D01*
X0335845Y0118019D01*
X0335963Y0117914D01*
X0336078Y0117805D01*
X0336191Y0117694D01*
X0336301Y0117580D01*
X0336408Y0117463D01*
X0336512Y0117344D01*
X0336613Y0117222D01*
X0336710Y0117097D01*
X0336805Y0116970D01*
X0336896Y0116841D01*
X0336985Y0116710D01*
X0337069Y0116576D01*
X0337151Y0116440D01*
X0337229Y0116303D01*
X0337303Y0116163D01*
X0337374Y0116021D01*
X0337442Y0115878D01*
X0337506Y0115733D01*
X0337566Y0115587D01*
X0337622Y0115439D01*
X0337675Y0115290D01*
X0337724Y0115139D01*
X0337769Y0114987D01*
X0337810Y0114834D01*
X0337848Y0114681D01*
X0337881Y0114526D01*
X0337911Y0114370D01*
X0337937Y0114214D01*
X0337958Y0114057D01*
X0337976Y0113900D01*
X0337990Y0113742D01*
X0338000Y0113584D01*
X0338006Y0113426D01*
X0338008Y0113268D01*
X0338006Y0113110D01*
X0338000Y0112952D01*
X0337990Y0112794D01*
X0337976Y0112636D01*
X0337958Y0112479D01*
X0337937Y0112322D01*
X0337911Y0112166D01*
X0337881Y0112010D01*
X0337848Y0111855D01*
X0337810Y0111702D01*
X0337769Y0111549D01*
X0337724Y0111397D01*
X0337675Y0111246D01*
X0337622Y0111097D01*
X0337566Y0110949D01*
X0337506Y0110803D01*
X0337442Y0110658D01*
X0337374Y0110515D01*
X0337303Y0110373D01*
X0337229Y0110233D01*
X0337151Y0110096D01*
X0337069Y0109960D01*
X0336985Y0109826D01*
X0336896Y0109695D01*
X0336805Y0109566D01*
X0336710Y0109439D01*
X0336613Y0109314D01*
X0336512Y0109192D01*
X0336408Y0109073D01*
X0336301Y0108956D01*
X0336191Y0108842D01*
X0336078Y0108731D01*
X0335963Y0108622D01*
X0335845Y0108517D01*
X0335724Y0108415D01*
X0335601Y0108315D01*
X0335475Y0108219D01*
X0335347Y0108126D01*
X0335217Y0108036D01*
X0335084Y0107950D01*
X0334949Y0107866D01*
X0334813Y0107787D01*
X0334674Y0107710D01*
X0334533Y0107638D01*
X0334391Y0107568D01*
X0334247Y0107503D01*
X0334101Y0107441D01*
X0333954Y0107383D01*
X0333805Y0107328D01*
X0333655Y0107277D01*
X0333504Y0107230D01*
X0333352Y0107187D01*
X0333199Y0107148D01*
X0333044Y0107112D01*
X0332889Y0107081D01*
X0332733Y0107053D01*
X0332577Y0107029D01*
X0332420Y0107009D01*
X0332262Y0106993D01*
X0332105Y0106981D01*
X0331946Y0106973D01*
X0331788Y0106969D01*
X0331630Y0106969D01*
X0331472Y0106973D01*
X0331313Y0106981D01*
X0331156Y0106993D01*
X0330998Y0107009D01*
X0330841Y0107029D01*
X0330685Y0107053D01*
X0330529Y0107081D01*
X0330374Y0107112D01*
X0330219Y0107148D01*
X0330066Y0107187D01*
X0329914Y0107230D01*
X0329763Y0107277D01*
X0329613Y0107328D01*
X0329464Y0107383D01*
X0329317Y0107441D01*
X0329171Y0107503D01*
X0329027Y0107568D01*
X0328885Y0107638D01*
X0328744Y0107710D01*
X0328605Y0107787D01*
X0328469Y0107866D01*
X0328334Y0107950D01*
X0328201Y0108036D01*
X0328071Y0108126D01*
X0327943Y0108219D01*
X0327817Y0108315D01*
X0327694Y0108415D01*
X0327573Y0108517D01*
X0327455Y0108622D01*
X0327340Y0108731D01*
X0327227Y0108842D01*
X0327117Y0108956D01*
X0327010Y0109073D01*
X0326906Y0109192D01*
X0326805Y0109314D01*
X0326708Y0109439D01*
X0326613Y0109566D01*
X0326522Y0109695D01*
X0326433Y0109826D01*
X0326349Y0109960D01*
X0326267Y0110096D01*
X0326189Y0110233D01*
X0326115Y0110373D01*
X0326044Y0110515D01*
X0325976Y0110658D01*
X0325912Y0110803D01*
X0325852Y0110949D01*
X0325796Y0111097D01*
X0325743Y0111246D01*
X0325694Y0111397D01*
X0325649Y0111549D01*
X0325608Y0111702D01*
X0325570Y0111855D01*
X0325537Y0112010D01*
X0325507Y0112166D01*
X0325481Y0112322D01*
X0325460Y0112479D01*
X0325442Y0112636D01*
X0325428Y0112794D01*
X0325418Y0112952D01*
X0325412Y0113110D01*
X0325410Y0113268D01*
X0325410Y0069961D02*
X0325412Y0070119D01*
X0325418Y0070277D01*
X0325428Y0070435D01*
X0325442Y0070593D01*
X0325460Y0070750D01*
X0325481Y0070907D01*
X0325507Y0071063D01*
X0325537Y0071219D01*
X0325570Y0071374D01*
X0325608Y0071527D01*
X0325649Y0071680D01*
X0325694Y0071832D01*
X0325743Y0071983D01*
X0325796Y0072132D01*
X0325852Y0072280D01*
X0325912Y0072426D01*
X0325976Y0072571D01*
X0326044Y0072714D01*
X0326115Y0072856D01*
X0326189Y0072996D01*
X0326267Y0073133D01*
X0326349Y0073269D01*
X0326433Y0073403D01*
X0326522Y0073534D01*
X0326613Y0073663D01*
X0326708Y0073790D01*
X0326805Y0073915D01*
X0326906Y0074037D01*
X0327010Y0074156D01*
X0327117Y0074273D01*
X0327227Y0074387D01*
X0327340Y0074498D01*
X0327455Y0074607D01*
X0327573Y0074712D01*
X0327694Y0074814D01*
X0327817Y0074914D01*
X0327943Y0075010D01*
X0328071Y0075103D01*
X0328201Y0075193D01*
X0328334Y0075279D01*
X0328469Y0075363D01*
X0328605Y0075442D01*
X0328744Y0075519D01*
X0328885Y0075591D01*
X0329027Y0075661D01*
X0329171Y0075726D01*
X0329317Y0075788D01*
X0329464Y0075846D01*
X0329613Y0075901D01*
X0329763Y0075952D01*
X0329914Y0075999D01*
X0330066Y0076042D01*
X0330219Y0076081D01*
X0330374Y0076117D01*
X0330529Y0076148D01*
X0330685Y0076176D01*
X0330841Y0076200D01*
X0330998Y0076220D01*
X0331156Y0076236D01*
X0331313Y0076248D01*
X0331472Y0076256D01*
X0331630Y0076260D01*
X0331788Y0076260D01*
X0331946Y0076256D01*
X0332105Y0076248D01*
X0332262Y0076236D01*
X0332420Y0076220D01*
X0332577Y0076200D01*
X0332733Y0076176D01*
X0332889Y0076148D01*
X0333044Y0076117D01*
X0333199Y0076081D01*
X0333352Y0076042D01*
X0333504Y0075999D01*
X0333655Y0075952D01*
X0333805Y0075901D01*
X0333954Y0075846D01*
X0334101Y0075788D01*
X0334247Y0075726D01*
X0334391Y0075661D01*
X0334533Y0075591D01*
X0334674Y0075519D01*
X0334813Y0075442D01*
X0334949Y0075363D01*
X0335084Y0075279D01*
X0335217Y0075193D01*
X0335347Y0075103D01*
X0335475Y0075010D01*
X0335601Y0074914D01*
X0335724Y0074814D01*
X0335845Y0074712D01*
X0335963Y0074607D01*
X0336078Y0074498D01*
X0336191Y0074387D01*
X0336301Y0074273D01*
X0336408Y0074156D01*
X0336512Y0074037D01*
X0336613Y0073915D01*
X0336710Y0073790D01*
X0336805Y0073663D01*
X0336896Y0073534D01*
X0336985Y0073403D01*
X0337069Y0073269D01*
X0337151Y0073133D01*
X0337229Y0072996D01*
X0337303Y0072856D01*
X0337374Y0072714D01*
X0337442Y0072571D01*
X0337506Y0072426D01*
X0337566Y0072280D01*
X0337622Y0072132D01*
X0337675Y0071983D01*
X0337724Y0071832D01*
X0337769Y0071680D01*
X0337810Y0071527D01*
X0337848Y0071374D01*
X0337881Y0071219D01*
X0337911Y0071063D01*
X0337937Y0070907D01*
X0337958Y0070750D01*
X0337976Y0070593D01*
X0337990Y0070435D01*
X0338000Y0070277D01*
X0338006Y0070119D01*
X0338008Y0069961D01*
X0338006Y0069803D01*
X0338000Y0069645D01*
X0337990Y0069487D01*
X0337976Y0069329D01*
X0337958Y0069172D01*
X0337937Y0069015D01*
X0337911Y0068859D01*
X0337881Y0068703D01*
X0337848Y0068548D01*
X0337810Y0068395D01*
X0337769Y0068242D01*
X0337724Y0068090D01*
X0337675Y0067939D01*
X0337622Y0067790D01*
X0337566Y0067642D01*
X0337506Y0067496D01*
X0337442Y0067351D01*
X0337374Y0067208D01*
X0337303Y0067066D01*
X0337229Y0066926D01*
X0337151Y0066789D01*
X0337069Y0066653D01*
X0336985Y0066519D01*
X0336896Y0066388D01*
X0336805Y0066259D01*
X0336710Y0066132D01*
X0336613Y0066007D01*
X0336512Y0065885D01*
X0336408Y0065766D01*
X0336301Y0065649D01*
X0336191Y0065535D01*
X0336078Y0065424D01*
X0335963Y0065315D01*
X0335845Y0065210D01*
X0335724Y0065108D01*
X0335601Y0065008D01*
X0335475Y0064912D01*
X0335347Y0064819D01*
X0335217Y0064729D01*
X0335084Y0064643D01*
X0334949Y0064559D01*
X0334813Y0064480D01*
X0334674Y0064403D01*
X0334533Y0064331D01*
X0334391Y0064261D01*
X0334247Y0064196D01*
X0334101Y0064134D01*
X0333954Y0064076D01*
X0333805Y0064021D01*
X0333655Y0063970D01*
X0333504Y0063923D01*
X0333352Y0063880D01*
X0333199Y0063841D01*
X0333044Y0063805D01*
X0332889Y0063774D01*
X0332733Y0063746D01*
X0332577Y0063722D01*
X0332420Y0063702D01*
X0332262Y0063686D01*
X0332105Y0063674D01*
X0331946Y0063666D01*
X0331788Y0063662D01*
X0331630Y0063662D01*
X0331472Y0063666D01*
X0331313Y0063674D01*
X0331156Y0063686D01*
X0330998Y0063702D01*
X0330841Y0063722D01*
X0330685Y0063746D01*
X0330529Y0063774D01*
X0330374Y0063805D01*
X0330219Y0063841D01*
X0330066Y0063880D01*
X0329914Y0063923D01*
X0329763Y0063970D01*
X0329613Y0064021D01*
X0329464Y0064076D01*
X0329317Y0064134D01*
X0329171Y0064196D01*
X0329027Y0064261D01*
X0328885Y0064331D01*
X0328744Y0064403D01*
X0328605Y0064480D01*
X0328469Y0064559D01*
X0328334Y0064643D01*
X0328201Y0064729D01*
X0328071Y0064819D01*
X0327943Y0064912D01*
X0327817Y0065008D01*
X0327694Y0065108D01*
X0327573Y0065210D01*
X0327455Y0065315D01*
X0327340Y0065424D01*
X0327227Y0065535D01*
X0327117Y0065649D01*
X0327010Y0065766D01*
X0326906Y0065885D01*
X0326805Y0066007D01*
X0326708Y0066132D01*
X0326613Y0066259D01*
X0326522Y0066388D01*
X0326433Y0066519D01*
X0326349Y0066653D01*
X0326267Y0066789D01*
X0326189Y0066926D01*
X0326115Y0067066D01*
X0326044Y0067208D01*
X0325976Y0067351D01*
X0325912Y0067496D01*
X0325852Y0067642D01*
X0325796Y0067790D01*
X0325743Y0067939D01*
X0325694Y0068090D01*
X0325649Y0068242D01*
X0325608Y0068395D01*
X0325570Y0068548D01*
X0325537Y0068703D01*
X0325507Y0068859D01*
X0325481Y0069015D01*
X0325460Y0069172D01*
X0325442Y0069329D01*
X0325428Y0069487D01*
X0325418Y0069645D01*
X0325412Y0069803D01*
X0325410Y0069961D01*
D11*
X0336138Y0082637D02*
X0344996Y0082637D01*
X0336138Y0082637D02*
X0336138Y0085591D01*
X0344996Y0085591D01*
X0344996Y0082637D01*
X0344996Y0085589D02*
X0336138Y0085589D01*
X0336138Y0153503D02*
X0344996Y0153503D01*
X0336138Y0153503D02*
X0336138Y0156457D01*
X0344996Y0156457D01*
X0344996Y0153503D01*
X0344996Y0156455D02*
X0336138Y0156455D01*
X0336138Y0228306D02*
X0344996Y0228306D01*
X0336138Y0228306D02*
X0336138Y0231260D01*
X0344996Y0231260D01*
X0344996Y0228306D01*
X0344996Y0231258D02*
X0336138Y0231258D01*
X0336138Y0299173D02*
X0344996Y0299173D01*
X0336138Y0299173D02*
X0336138Y0302127D01*
X0344996Y0302127D01*
X0344996Y0299173D01*
X0344996Y0302125D02*
X0336138Y0302125D01*
X0028067Y0317127D02*
X0019209Y0317127D01*
X0028067Y0317127D02*
X0028067Y0314173D01*
X0019209Y0314173D01*
X0019209Y0317127D01*
X0019209Y0317125D02*
X0028067Y0317125D01*
X0028067Y0246260D02*
X0019209Y0246260D01*
X0028067Y0246260D02*
X0028067Y0243306D01*
X0019209Y0243306D01*
X0019209Y0246260D01*
X0019209Y0246258D02*
X0028067Y0246258D01*
X0028067Y0171457D02*
X0019209Y0171457D01*
X0028067Y0171457D02*
X0028067Y0168503D01*
X0019209Y0168503D01*
X0019209Y0171457D01*
X0019209Y0171455D02*
X0028067Y0171455D01*
X0028067Y0100591D02*
X0019209Y0100591D01*
X0028067Y0100591D02*
X0028067Y0097637D01*
X0019209Y0097637D01*
X0019209Y0100591D01*
X0019209Y0100589D02*
X0028067Y0100589D01*
D12*
X0023638Y0089114D03*
X0041354Y0084114D03*
X0041354Y0094114D03*
X0041354Y0154980D03*
X0041354Y0164980D03*
X0023638Y0159980D03*
X0041354Y0229783D03*
X0041354Y0239783D03*
X0023638Y0234783D03*
X0041354Y0300650D03*
X0041354Y0310650D03*
X0023638Y0305650D03*
X0322850Y0305650D03*
X0322850Y0315650D03*
X0340567Y0310650D03*
X0322850Y0244783D03*
X0322850Y0234783D03*
X0340567Y0239783D03*
X0322850Y0169980D03*
X0322850Y0159980D03*
X0340567Y0164980D03*
X0322850Y0099114D03*
X0322850Y0089114D03*
X0340567Y0094114D03*
D13*
X0282043Y0080000D03*
X0092043Y0080000D03*
D14*
X0092043Y0090000D03*
X0082043Y0090000D03*
X0082043Y0080000D03*
X0082043Y0100000D03*
X0082043Y0110000D03*
X0082043Y0120000D03*
X0082043Y0130000D03*
X0082043Y0140000D03*
X0082043Y0150000D03*
X0082043Y0160000D03*
X0082043Y0170000D03*
X0082043Y0180000D03*
X0082043Y0190000D03*
X0082043Y0200000D03*
X0082043Y0210000D03*
X0082043Y0220000D03*
X0082043Y0230000D03*
X0082043Y0240000D03*
X0082043Y0250000D03*
X0082043Y0260000D03*
X0082043Y0270000D03*
X0082043Y0280000D03*
X0082043Y0290000D03*
X0082043Y0300000D03*
X0092043Y0300000D03*
X0092043Y0290000D03*
X0092043Y0280000D03*
X0092043Y0270000D03*
X0092043Y0260000D03*
X0092043Y0250000D03*
X0092043Y0240000D03*
X0092043Y0230000D03*
X0092043Y0220000D03*
X0092043Y0210000D03*
X0092043Y0200000D03*
X0092043Y0190000D03*
X0092043Y0180000D03*
X0092043Y0170000D03*
X0092043Y0160000D03*
X0092043Y0150000D03*
X0092043Y0140000D03*
X0092043Y0130000D03*
X0092043Y0120000D03*
X0092043Y0110000D03*
X0092043Y0100000D03*
X0272043Y0100000D03*
X0272043Y0090000D03*
X0272043Y0080000D03*
X0282043Y0090000D03*
X0282043Y0100000D03*
X0282043Y0110000D03*
X0272043Y0110000D03*
X0272043Y0120000D03*
X0272043Y0130000D03*
X0272043Y0140000D03*
X0272043Y0150000D03*
X0272043Y0160000D03*
X0272043Y0170000D03*
X0272043Y0180000D03*
X0272043Y0190000D03*
X0272043Y0200000D03*
X0272043Y0210000D03*
X0272043Y0220000D03*
X0272043Y0230000D03*
X0272043Y0240000D03*
X0272043Y0250000D03*
X0272043Y0260000D03*
X0272043Y0270000D03*
X0272043Y0280000D03*
X0272043Y0290000D03*
X0272043Y0300000D03*
X0282043Y0300000D03*
X0282043Y0290000D03*
X0282043Y0280000D03*
X0282043Y0270000D03*
X0282043Y0260000D03*
X0282043Y0250000D03*
X0282043Y0240000D03*
X0282043Y0230000D03*
X0282043Y0220000D03*
X0282043Y0210000D03*
X0282043Y0200000D03*
X0282043Y0190000D03*
X0282043Y0180000D03*
X0282043Y0170000D03*
X0282043Y0160000D03*
X0282043Y0150000D03*
X0282043Y0140000D03*
X0282043Y0130000D03*
X0282043Y0120000D03*
D15*
X0290370Y0099488D03*
X0294307Y0093583D03*
X0292339Y0081772D03*
X0319898Y0085709D03*
X0331709Y0091614D03*
X0321866Y0101457D03*
X0341551Y0079803D03*
X0343520Y0150669D03*
X0331709Y0162480D03*
X0319898Y0158543D03*
X0321866Y0174291D03*
X0299324Y0164272D03*
X0294307Y0154606D03*
X0294307Y0174291D03*
X0251961Y0148638D03*
X0204543Y0158543D03*
X0204937Y0166417D03*
X0188402Y0166417D03*
X0181315Y0158150D03*
X0188402Y0146339D03*
X0188402Y0128622D03*
X0131709Y0149098D03*
X0101394Y0168386D03*
X0130921Y0186102D03*
X0101000Y0214843D03*
X0107299Y0231378D03*
X0113778Y0240376D03*
X0069898Y0245157D03*
X0068483Y0234858D03*
X0069898Y0227441D03*
X0044307Y0243189D03*
X0032496Y0237283D03*
X0042339Y0227441D03*
X0020685Y0249094D03*
X0042339Y0298307D03*
X0032496Y0308150D03*
X0044307Y0312087D03*
X0022654Y0319961D03*
X0069898Y0306181D03*
X0071866Y0302244D03*
X0071866Y0312087D03*
X0071866Y0317992D03*
X0091551Y0312087D03*
X0097457Y0304213D03*
X0148244Y0302244D03*
X0181315Y0289252D03*
X0169504Y0270354D03*
X0188402Y0250276D03*
X0181315Y0245551D03*
X0169504Y0245551D03*
X0169504Y0237283D03*
X0188402Y0234921D03*
X0194307Y0234921D03*
X0181315Y0216024D03*
X0169504Y0214843D03*
X0169504Y0205394D03*
X0181315Y0200669D03*
X0188402Y0193583D03*
X0194307Y0192402D03*
X0169504Y0186496D03*
X0234257Y0194162D03*
X0294307Y0227441D03*
X0294307Y0239252D03*
X0294307Y0247126D03*
X0319898Y0233346D03*
X0331709Y0237283D03*
X0321866Y0247126D03*
X0343520Y0225472D03*
X0341551Y0296339D03*
X0331709Y0308150D03*
X0321866Y0317992D03*
X0319898Y0302244D03*
X0297945Y0310732D03*
X0294307Y0304213D03*
X0290370Y0298307D03*
X0294307Y0317992D03*
X0271079Y0317992D03*
X0258458Y0302244D03*
X0236827Y0274635D03*
X0067929Y0154606D03*
X0063992Y0164449D03*
X0062024Y0174291D03*
X0044307Y0166417D03*
X0032496Y0162480D03*
X0024622Y0152638D03*
X0022654Y0176260D03*
X0022654Y0103425D03*
X0032496Y0091614D03*
X0042339Y0081772D03*
X0044307Y0095551D03*
X0065495Y0086789D03*
X0071866Y0081772D03*
X0069898Y0099488D03*
X0260843Y0099488D03*
D16*
X0260845Y0099364D01*
X0260851Y0099241D01*
X0260860Y0099117D01*
X0260874Y0098995D01*
X0260891Y0098872D01*
X0260913Y0098750D01*
X0260938Y0098629D01*
X0260967Y0098509D01*
X0260999Y0098390D01*
X0261036Y0098271D01*
X0261076Y0098154D01*
X0261119Y0098039D01*
X0261167Y0097924D01*
X0261218Y0097812D01*
X0261272Y0097701D01*
X0261330Y0097591D01*
X0261391Y0097484D01*
X0261456Y0097378D01*
X0261524Y0097275D01*
X0261595Y0097174D01*
X0261669Y0097075D01*
X0261746Y0096978D01*
X0261827Y0096884D01*
X0261910Y0096793D01*
X0261996Y0096704D01*
X0262085Y0096618D01*
X0262176Y0096535D01*
X0262270Y0096454D01*
X0262367Y0096377D01*
X0262466Y0096303D01*
X0262567Y0096232D01*
X0262670Y0096164D01*
X0262776Y0096099D01*
X0262883Y0096038D01*
X0262993Y0095980D01*
X0263104Y0095926D01*
X0263216Y0095875D01*
X0263331Y0095827D01*
X0263446Y0095784D01*
X0263563Y0095744D01*
X0263682Y0095707D01*
X0263801Y0095675D01*
X0263921Y0095646D01*
X0264042Y0095621D01*
X0264164Y0095599D01*
X0264287Y0095582D01*
X0264409Y0095568D01*
X0264533Y0095559D01*
X0264656Y0095553D01*
X0264780Y0095551D01*
X0286433Y0095551D01*
X0286557Y0095549D01*
X0286680Y0095543D01*
X0286804Y0095534D01*
X0286926Y0095520D01*
X0287049Y0095503D01*
X0287171Y0095481D01*
X0287292Y0095456D01*
X0287412Y0095427D01*
X0287531Y0095395D01*
X0287650Y0095358D01*
X0287767Y0095318D01*
X0287882Y0095275D01*
X0287997Y0095227D01*
X0288109Y0095176D01*
X0288220Y0095122D01*
X0288330Y0095064D01*
X0288437Y0095003D01*
X0288543Y0094938D01*
X0288646Y0094870D01*
X0288747Y0094799D01*
X0288846Y0094725D01*
X0288943Y0094648D01*
X0289037Y0094567D01*
X0289128Y0094484D01*
X0289217Y0094398D01*
X0289303Y0094309D01*
X0289386Y0094218D01*
X0289467Y0094124D01*
X0289544Y0094027D01*
X0289618Y0093928D01*
X0289689Y0093827D01*
X0289757Y0093724D01*
X0289822Y0093618D01*
X0289883Y0093511D01*
X0289941Y0093401D01*
X0289995Y0093290D01*
X0290046Y0093178D01*
X0290094Y0093063D01*
X0290137Y0092948D01*
X0290177Y0092831D01*
X0290214Y0092712D01*
X0290246Y0092593D01*
X0290275Y0092473D01*
X0290300Y0092352D01*
X0290322Y0092230D01*
X0290339Y0092107D01*
X0290353Y0091985D01*
X0290362Y0091861D01*
X0290368Y0091738D01*
X0290370Y0091614D01*
X0290372Y0091490D01*
X0290378Y0091367D01*
X0290387Y0091243D01*
X0290401Y0091121D01*
X0290418Y0090998D01*
X0290440Y0090876D01*
X0290465Y0090755D01*
X0290494Y0090635D01*
X0290526Y0090516D01*
X0290563Y0090397D01*
X0290603Y0090280D01*
X0290646Y0090165D01*
X0290694Y0090050D01*
X0290745Y0089938D01*
X0290799Y0089827D01*
X0290857Y0089717D01*
X0290918Y0089610D01*
X0290983Y0089504D01*
X0291051Y0089401D01*
X0291122Y0089300D01*
X0291196Y0089201D01*
X0291273Y0089104D01*
X0291354Y0089010D01*
X0291437Y0088919D01*
X0291523Y0088830D01*
X0291612Y0088744D01*
X0291703Y0088661D01*
X0291797Y0088580D01*
X0291894Y0088503D01*
X0291993Y0088429D01*
X0292094Y0088358D01*
X0292197Y0088290D01*
X0292303Y0088225D01*
X0292410Y0088164D01*
X0292520Y0088106D01*
X0292631Y0088052D01*
X0292743Y0088001D01*
X0292858Y0087953D01*
X0292973Y0087910D01*
X0293090Y0087870D01*
X0293209Y0087833D01*
X0293328Y0087801D01*
X0293448Y0087772D01*
X0293569Y0087747D01*
X0293691Y0087725D01*
X0293814Y0087708D01*
X0293936Y0087694D01*
X0294060Y0087685D01*
X0294183Y0087679D01*
X0294307Y0087677D01*
X0321866Y0087677D01*
X0321916Y0087675D01*
X0321966Y0087670D01*
X0322015Y0087660D01*
X0322063Y0087647D01*
X0322110Y0087631D01*
X0322156Y0087611D01*
X0322201Y0087587D01*
X0322243Y0087561D01*
X0322283Y0087531D01*
X0322321Y0087498D01*
X0322356Y0087463D01*
X0322389Y0087425D01*
X0322419Y0087385D01*
X0322445Y0087343D01*
X0322469Y0087298D01*
X0322489Y0087252D01*
X0322505Y0087205D01*
X0322518Y0087157D01*
X0322528Y0087108D01*
X0322533Y0087058D01*
X0322535Y0087008D01*
X0322535Y0088799D01*
X0322537Y0088832D01*
X0322542Y0088864D01*
X0322550Y0088896D01*
X0322562Y0088927D01*
X0322577Y0088957D01*
X0322595Y0088984D01*
X0322616Y0089010D01*
X0322639Y0089033D01*
X0322665Y0089054D01*
X0322693Y0089072D01*
X0322722Y0089087D01*
X0322753Y0089099D01*
X0322785Y0089107D01*
X0322817Y0089112D01*
X0322850Y0089114D01*
X0322742Y0089112D01*
X0322634Y0089106D01*
X0322527Y0089096D01*
X0322420Y0089083D01*
X0322314Y0089065D01*
X0322208Y0089043D01*
X0322103Y0089018D01*
X0321999Y0088989D01*
X0321897Y0088956D01*
X0321795Y0088919D01*
X0321695Y0088879D01*
X0321597Y0088835D01*
X0321500Y0088787D01*
X0321405Y0088736D01*
X0321312Y0088682D01*
X0321221Y0088624D01*
X0321132Y0088563D01*
X0321045Y0088498D01*
X0320961Y0088431D01*
X0320879Y0088360D01*
X0320800Y0088287D01*
X0320724Y0088211D01*
X0320651Y0088132D01*
X0320580Y0088050D01*
X0320513Y0087966D01*
X0320448Y0087879D01*
X0320387Y0087790D01*
X0320329Y0087699D01*
X0320275Y0087606D01*
X0320224Y0087511D01*
X0320176Y0087414D01*
X0320132Y0087316D01*
X0320092Y0087216D01*
X0320055Y0087114D01*
X0320022Y0087012D01*
X0319993Y0086908D01*
X0319968Y0086803D01*
X0319946Y0086697D01*
X0319928Y0086591D01*
X0319915Y0086484D01*
X0319905Y0086377D01*
X0319899Y0086269D01*
X0319897Y0086161D01*
X0319898Y0086161D02*
X0319898Y0085709D01*
X0331709Y0091614D02*
X0338067Y0091614D01*
X0338165Y0091616D01*
X0338263Y0091622D01*
X0338361Y0091631D01*
X0338458Y0091645D01*
X0338555Y0091662D01*
X0338651Y0091683D01*
X0338746Y0091708D01*
X0338840Y0091736D01*
X0338932Y0091769D01*
X0339024Y0091804D01*
X0339114Y0091844D01*
X0339202Y0091886D01*
X0339289Y0091933D01*
X0339373Y0091982D01*
X0339456Y0092035D01*
X0339536Y0092091D01*
X0339615Y0092151D01*
X0339691Y0092213D01*
X0339764Y0092278D01*
X0339835Y0092346D01*
X0339903Y0092417D01*
X0339968Y0092490D01*
X0340030Y0092566D01*
X0340090Y0092645D01*
X0340146Y0092725D01*
X0340199Y0092808D01*
X0340248Y0092892D01*
X0340295Y0092979D01*
X0340337Y0093067D01*
X0340377Y0093157D01*
X0340412Y0093249D01*
X0340445Y0093341D01*
X0340473Y0093435D01*
X0340498Y0093530D01*
X0340519Y0093626D01*
X0340536Y0093723D01*
X0340550Y0093820D01*
X0340559Y0093918D01*
X0340565Y0094016D01*
X0340567Y0094114D01*
X0340566Y0094114D02*
X0340564Y0094070D01*
X0340559Y0094027D01*
X0340550Y0093984D01*
X0340537Y0093942D01*
X0340521Y0093901D01*
X0340502Y0093861D01*
X0340480Y0093824D01*
X0340454Y0093788D01*
X0340426Y0093754D01*
X0340395Y0093723D01*
X0340361Y0093695D01*
X0340325Y0093669D01*
X0340288Y0093647D01*
X0340248Y0093628D01*
X0340207Y0093612D01*
X0340165Y0093599D01*
X0340122Y0093590D01*
X0340079Y0093585D01*
X0340035Y0093583D01*
X0294307Y0093583D01*
X0290370Y0099488D02*
X0322476Y0099488D01*
X0322513Y0099486D01*
X0322549Y0099481D01*
X0322585Y0099472D01*
X0322619Y0099460D01*
X0322652Y0099444D01*
X0322684Y0099425D01*
X0322713Y0099403D01*
X0322740Y0099378D01*
X0322765Y0099351D01*
X0322787Y0099322D01*
X0322806Y0099290D01*
X0322822Y0099257D01*
X0322834Y0099223D01*
X0322843Y0099187D01*
X0322848Y0099151D01*
X0322850Y0099114D01*
X0322788Y0099116D01*
X0322727Y0099122D01*
X0322666Y0099131D01*
X0322605Y0099145D01*
X0322546Y0099162D01*
X0322488Y0099183D01*
X0322431Y0099208D01*
X0322376Y0099236D01*
X0322323Y0099267D01*
X0322272Y0099302D01*
X0322223Y0099340D01*
X0322176Y0099381D01*
X0322133Y0099424D01*
X0322092Y0099471D01*
X0322054Y0099520D01*
X0322019Y0099571D01*
X0321988Y0099624D01*
X0321960Y0099679D01*
X0321935Y0099736D01*
X0321914Y0099794D01*
X0321897Y0099853D01*
X0321883Y0099914D01*
X0321874Y0099975D01*
X0321868Y0100036D01*
X0321866Y0100098D01*
X0321866Y0101457D01*
X0338401Y0084134D02*
X0338399Y0084039D01*
X0338393Y0083944D01*
X0338384Y0083849D01*
X0338370Y0083755D01*
X0338353Y0083662D01*
X0338332Y0083569D01*
X0338308Y0083477D01*
X0338279Y0083386D01*
X0338248Y0083296D01*
X0338212Y0083208D01*
X0338173Y0083121D01*
X0338130Y0083036D01*
X0338085Y0082953D01*
X0338035Y0082872D01*
X0337983Y0082792D01*
X0337927Y0082715D01*
X0337869Y0082640D01*
X0337807Y0082568D01*
X0337742Y0082498D01*
X0337675Y0082431D01*
X0337605Y0082366D01*
X0337533Y0082304D01*
X0337458Y0082246D01*
X0337381Y0082190D01*
X0337301Y0082138D01*
X0337220Y0082088D01*
X0337137Y0082043D01*
X0337052Y0082000D01*
X0336965Y0081961D01*
X0336877Y0081925D01*
X0336787Y0081894D01*
X0336696Y0081865D01*
X0336604Y0081841D01*
X0336511Y0081820D01*
X0336418Y0081803D01*
X0336324Y0081789D01*
X0336229Y0081780D01*
X0336134Y0081774D01*
X0336039Y0081772D01*
X0292339Y0081772D01*
X0284110Y0090000D02*
X0282043Y0090000D01*
X0283756Y0089646D02*
X0283793Y0089648D01*
X0283830Y0089654D01*
X0283865Y0089663D01*
X0283900Y0089677D01*
X0283933Y0089693D01*
X0283964Y0089714D01*
X0283993Y0089737D01*
X0284019Y0089763D01*
X0284042Y0089792D01*
X0284063Y0089823D01*
X0284079Y0089856D01*
X0284093Y0089891D01*
X0284102Y0089926D01*
X0284108Y0089963D01*
X0284110Y0090000D01*
X0283756Y0089646D02*
X0271689Y0089646D01*
X0239189Y0132953D02*
X0239189Y0133346D01*
X0239187Y0133462D01*
X0239181Y0133578D01*
X0239172Y0133693D01*
X0239159Y0133808D01*
X0239142Y0133923D01*
X0239121Y0134037D01*
X0239096Y0134151D01*
X0239068Y0134263D01*
X0239036Y0134374D01*
X0239001Y0134485D01*
X0238962Y0134594D01*
X0238919Y0134702D01*
X0238873Y0134808D01*
X0238824Y0134913D01*
X0238771Y0135016D01*
X0238714Y0135118D01*
X0238655Y0135217D01*
X0238592Y0135314D01*
X0238526Y0135410D01*
X0238457Y0135503D01*
X0238385Y0135594D01*
X0238310Y0135682D01*
X0238232Y0135768D01*
X0238151Y0135851D01*
X0238068Y0135932D01*
X0237982Y0136010D01*
X0237894Y0136085D01*
X0237803Y0136157D01*
X0237710Y0136226D01*
X0237614Y0136292D01*
X0237517Y0136355D01*
X0237418Y0136414D01*
X0237316Y0136471D01*
X0237213Y0136524D01*
X0237108Y0136573D01*
X0237002Y0136619D01*
X0236894Y0136662D01*
X0236785Y0136701D01*
X0236674Y0136736D01*
X0236563Y0136768D01*
X0236451Y0136796D01*
X0236337Y0136821D01*
X0236223Y0136842D01*
X0236108Y0136859D01*
X0235993Y0136872D01*
X0235878Y0136881D01*
X0235762Y0136887D01*
X0235646Y0136889D01*
X0235646Y0136890D02*
X0175409Y0136890D01*
X0175409Y0136889D02*
X0175257Y0136891D01*
X0175105Y0136897D01*
X0174953Y0136907D01*
X0174802Y0136920D01*
X0174651Y0136938D01*
X0174500Y0136959D01*
X0174350Y0136985D01*
X0174201Y0137014D01*
X0174052Y0137047D01*
X0173905Y0137084D01*
X0173758Y0137124D01*
X0173613Y0137169D01*
X0173469Y0137217D01*
X0173326Y0137269D01*
X0173184Y0137324D01*
X0173044Y0137383D01*
X0172905Y0137446D01*
X0172768Y0137512D01*
X0172633Y0137582D01*
X0172500Y0137655D01*
X0172369Y0137732D01*
X0172239Y0137812D01*
X0172112Y0137895D01*
X0171987Y0137981D01*
X0171864Y0138071D01*
X0171744Y0138164D01*
X0171626Y0138260D01*
X0171510Y0138359D01*
X0171397Y0138461D01*
X0171287Y0138565D01*
X0171179Y0138673D01*
X0171075Y0138783D01*
X0170973Y0138896D01*
X0170874Y0139012D01*
X0170778Y0139130D01*
X0170685Y0139250D01*
X0170595Y0139373D01*
X0170509Y0139498D01*
X0170426Y0139625D01*
X0170346Y0139755D01*
X0170269Y0139886D01*
X0170196Y0140019D01*
X0170126Y0140154D01*
X0170060Y0140291D01*
X0169997Y0140430D01*
X0169938Y0140570D01*
X0169883Y0140712D01*
X0169831Y0140855D01*
X0169783Y0140999D01*
X0169738Y0141144D01*
X0169698Y0141291D01*
X0169661Y0141438D01*
X0169628Y0141587D01*
X0169599Y0141736D01*
X0169573Y0141886D01*
X0169552Y0142037D01*
X0169534Y0142188D01*
X0169521Y0142339D01*
X0169511Y0142491D01*
X0169505Y0142643D01*
X0169503Y0142795D01*
X0162417Y0146339D02*
X0180134Y0146339D01*
X0180200Y0146341D01*
X0180266Y0146346D01*
X0180332Y0146356D01*
X0180397Y0146369D01*
X0180461Y0146385D01*
X0180524Y0146405D01*
X0180586Y0146429D01*
X0180646Y0146456D01*
X0180705Y0146486D01*
X0180762Y0146520D01*
X0180817Y0146557D01*
X0180870Y0146597D01*
X0180921Y0146639D01*
X0180969Y0146685D01*
X0181015Y0146733D01*
X0181057Y0146784D01*
X0181097Y0146837D01*
X0181134Y0146892D01*
X0181168Y0146949D01*
X0181198Y0147008D01*
X0181225Y0147068D01*
X0181249Y0147130D01*
X0181269Y0147193D01*
X0181285Y0147257D01*
X0181298Y0147322D01*
X0181308Y0147388D01*
X0181313Y0147454D01*
X0181315Y0147520D01*
X0181315Y0158150D02*
X0181317Y0158189D01*
X0181323Y0158227D01*
X0181332Y0158264D01*
X0181345Y0158301D01*
X0181362Y0158336D01*
X0181381Y0158369D01*
X0181404Y0158400D01*
X0181430Y0158429D01*
X0181459Y0158455D01*
X0181490Y0158478D01*
X0181523Y0158497D01*
X0181558Y0158514D01*
X0181595Y0158527D01*
X0181632Y0158536D01*
X0181670Y0158542D01*
X0181709Y0158544D01*
X0188401Y0166417D02*
X0188399Y0166552D01*
X0188393Y0166687D01*
X0188384Y0166821D01*
X0188370Y0166955D01*
X0188353Y0167089D01*
X0188332Y0167223D01*
X0188307Y0167355D01*
X0188278Y0167487D01*
X0188246Y0167618D01*
X0188210Y0167748D01*
X0188170Y0167877D01*
X0188126Y0168004D01*
X0188079Y0168131D01*
X0188028Y0168256D01*
X0187974Y0168379D01*
X0187916Y0168501D01*
X0187855Y0168622D01*
X0187790Y0168740D01*
X0187722Y0168856D01*
X0187651Y0168971D01*
X0187577Y0169083D01*
X0187499Y0169194D01*
X0187418Y0169302D01*
X0187334Y0169407D01*
X0187247Y0169511D01*
X0187157Y0169611D01*
X0187065Y0169709D01*
X0186969Y0169805D01*
X0186871Y0169897D01*
X0186771Y0169987D01*
X0186667Y0170074D01*
X0186562Y0170158D01*
X0186454Y0170239D01*
X0186343Y0170317D01*
X0186231Y0170391D01*
X0186116Y0170462D01*
X0186000Y0170530D01*
X0185882Y0170595D01*
X0185761Y0170656D01*
X0185639Y0170714D01*
X0185516Y0170768D01*
X0185391Y0170819D01*
X0185264Y0170866D01*
X0185137Y0170910D01*
X0185008Y0170950D01*
X0184878Y0170986D01*
X0184747Y0171018D01*
X0184615Y0171047D01*
X0184483Y0171072D01*
X0184349Y0171093D01*
X0184215Y0171110D01*
X0184081Y0171124D01*
X0183947Y0171133D01*
X0183812Y0171139D01*
X0183677Y0171141D01*
X0183677Y0171142D02*
X0154150Y0171142D01*
X0154034Y0171144D01*
X0153918Y0171150D01*
X0153803Y0171159D01*
X0153688Y0171172D01*
X0153573Y0171189D01*
X0153459Y0171210D01*
X0153345Y0171235D01*
X0153233Y0171263D01*
X0153122Y0171295D01*
X0153011Y0171330D01*
X0152902Y0171369D01*
X0152794Y0171412D01*
X0152688Y0171458D01*
X0152583Y0171507D01*
X0152480Y0171560D01*
X0152379Y0171617D01*
X0152279Y0171676D01*
X0152182Y0171739D01*
X0152086Y0171805D01*
X0151993Y0171874D01*
X0151902Y0171946D01*
X0151814Y0172021D01*
X0151728Y0172099D01*
X0151645Y0172180D01*
X0151564Y0172263D01*
X0151486Y0172349D01*
X0151411Y0172437D01*
X0151339Y0172528D01*
X0151270Y0172621D01*
X0151204Y0172717D01*
X0151141Y0172814D01*
X0151082Y0172914D01*
X0151025Y0173015D01*
X0150972Y0173118D01*
X0150923Y0173223D01*
X0150877Y0173329D01*
X0150834Y0173437D01*
X0150795Y0173546D01*
X0150760Y0173657D01*
X0150728Y0173768D01*
X0150700Y0173880D01*
X0150675Y0173994D01*
X0150654Y0174108D01*
X0150637Y0174223D01*
X0150624Y0174338D01*
X0150615Y0174453D01*
X0150609Y0174569D01*
X0150607Y0174685D01*
X0150606Y0174685D02*
X0150606Y0194764D01*
X0150604Y0194880D01*
X0150598Y0194996D01*
X0150589Y0195111D01*
X0150576Y0195226D01*
X0150559Y0195341D01*
X0150538Y0195455D01*
X0150513Y0195569D01*
X0150485Y0195681D01*
X0150453Y0195792D01*
X0150418Y0195903D01*
X0150379Y0196012D01*
X0150336Y0196120D01*
X0150290Y0196226D01*
X0150241Y0196331D01*
X0150188Y0196434D01*
X0150131Y0196536D01*
X0150072Y0196635D01*
X0150009Y0196732D01*
X0149943Y0196828D01*
X0149874Y0196921D01*
X0149802Y0197012D01*
X0149727Y0197100D01*
X0149649Y0197186D01*
X0149568Y0197269D01*
X0149485Y0197350D01*
X0149399Y0197428D01*
X0149311Y0197503D01*
X0149220Y0197575D01*
X0149127Y0197644D01*
X0149031Y0197710D01*
X0148934Y0197773D01*
X0148835Y0197832D01*
X0148733Y0197889D01*
X0148630Y0197942D01*
X0148525Y0197991D01*
X0148419Y0198037D01*
X0148311Y0198080D01*
X0148202Y0198119D01*
X0148091Y0198154D01*
X0147980Y0198186D01*
X0147868Y0198214D01*
X0147754Y0198239D01*
X0147640Y0198260D01*
X0147525Y0198277D01*
X0147410Y0198290D01*
X0147295Y0198299D01*
X0147179Y0198305D01*
X0147063Y0198307D01*
X0144701Y0198307D01*
X0130528Y0200669D02*
X0130528Y0186496D01*
X0130921Y0186102D01*
X0131709Y0185315D01*
X0131709Y0149098D01*
X0116354Y0126260D02*
X0152969Y0126260D01*
X0186039Y0126260D01*
X0186134Y0126262D01*
X0186229Y0126268D01*
X0186324Y0126277D01*
X0186418Y0126291D01*
X0186511Y0126308D01*
X0186604Y0126329D01*
X0186696Y0126353D01*
X0186787Y0126382D01*
X0186877Y0126413D01*
X0186965Y0126449D01*
X0187052Y0126488D01*
X0187137Y0126531D01*
X0187220Y0126576D01*
X0187301Y0126626D01*
X0187381Y0126678D01*
X0187458Y0126734D01*
X0187533Y0126792D01*
X0187605Y0126854D01*
X0187675Y0126919D01*
X0187742Y0126986D01*
X0187807Y0127056D01*
X0187869Y0127128D01*
X0187927Y0127203D01*
X0187983Y0127280D01*
X0188035Y0127360D01*
X0188085Y0127441D01*
X0188130Y0127524D01*
X0188173Y0127609D01*
X0188212Y0127696D01*
X0188248Y0127784D01*
X0188279Y0127874D01*
X0188308Y0127965D01*
X0188332Y0128057D01*
X0188353Y0128150D01*
X0188370Y0128243D01*
X0188384Y0128337D01*
X0188393Y0128432D01*
X0188399Y0128527D01*
X0188401Y0128622D01*
X0170685Y0174685D02*
X0221472Y0174685D01*
X0255724Y0174685D01*
X0255724Y0174686D02*
X0255876Y0174684D01*
X0256028Y0174678D01*
X0256180Y0174668D01*
X0256331Y0174655D01*
X0256482Y0174637D01*
X0256633Y0174616D01*
X0256783Y0174590D01*
X0256932Y0174561D01*
X0257081Y0174528D01*
X0257228Y0174491D01*
X0257375Y0174451D01*
X0257520Y0174406D01*
X0257664Y0174358D01*
X0257807Y0174306D01*
X0257949Y0174251D01*
X0258089Y0174192D01*
X0258228Y0174129D01*
X0258365Y0174063D01*
X0258500Y0173993D01*
X0258633Y0173920D01*
X0258764Y0173843D01*
X0258894Y0173763D01*
X0259021Y0173680D01*
X0259146Y0173594D01*
X0259269Y0173504D01*
X0259389Y0173411D01*
X0259507Y0173315D01*
X0259623Y0173216D01*
X0259736Y0173114D01*
X0259846Y0173010D01*
X0259954Y0172902D01*
X0260058Y0172792D01*
X0260160Y0172679D01*
X0260259Y0172563D01*
X0260355Y0172445D01*
X0260448Y0172325D01*
X0260538Y0172202D01*
X0260624Y0172077D01*
X0260707Y0171950D01*
X0260787Y0171820D01*
X0260864Y0171689D01*
X0260937Y0171556D01*
X0261007Y0171421D01*
X0261073Y0171284D01*
X0261136Y0171145D01*
X0261195Y0171005D01*
X0261250Y0170863D01*
X0261302Y0170720D01*
X0261350Y0170576D01*
X0261395Y0170431D01*
X0261435Y0170284D01*
X0261472Y0170137D01*
X0261505Y0169988D01*
X0261534Y0169839D01*
X0261560Y0169689D01*
X0261581Y0169538D01*
X0261599Y0169387D01*
X0261612Y0169236D01*
X0261622Y0169084D01*
X0261628Y0168932D01*
X0261630Y0168780D01*
X0261630Y0164055D01*
X0261630Y0153006D01*
X0261628Y0152877D01*
X0261622Y0152747D01*
X0261613Y0152618D01*
X0261599Y0152489D01*
X0261582Y0152361D01*
X0261561Y0152233D01*
X0261536Y0152106D01*
X0261508Y0151980D01*
X0261475Y0151854D01*
X0261440Y0151730D01*
X0261400Y0151607D01*
X0261357Y0151485D01*
X0261310Y0151364D01*
X0261259Y0151245D01*
X0261205Y0151127D01*
X0261148Y0151011D01*
X0261087Y0150897D01*
X0261023Y0150784D01*
X0260955Y0150674D01*
X0260885Y0150565D01*
X0260811Y0150459D01*
X0260734Y0150355D01*
X0260654Y0150253D01*
X0260571Y0150154D01*
X0260485Y0150057D01*
X0260396Y0149963D01*
X0260304Y0149871D01*
X0260210Y0149782D01*
X0260113Y0149696D01*
X0260014Y0149613D01*
X0259912Y0149533D01*
X0259808Y0149456D01*
X0259702Y0149382D01*
X0259593Y0149312D01*
X0259483Y0149244D01*
X0259370Y0149180D01*
X0259256Y0149119D01*
X0259140Y0149062D01*
X0259022Y0149008D01*
X0258903Y0148957D01*
X0258782Y0148910D01*
X0258660Y0148867D01*
X0258537Y0148827D01*
X0258413Y0148792D01*
X0258287Y0148759D01*
X0258161Y0148731D01*
X0258034Y0148706D01*
X0257906Y0148685D01*
X0257778Y0148668D01*
X0257649Y0148654D01*
X0257520Y0148645D01*
X0257390Y0148639D01*
X0257261Y0148637D01*
X0257261Y0148638D02*
X0251961Y0148638D01*
X0261630Y0164055D02*
X0261632Y0164094D01*
X0261638Y0164132D01*
X0261647Y0164169D01*
X0261660Y0164206D01*
X0261677Y0164241D01*
X0261696Y0164274D01*
X0261719Y0164305D01*
X0261745Y0164334D01*
X0261774Y0164360D01*
X0261805Y0164383D01*
X0261838Y0164402D01*
X0261873Y0164419D01*
X0261910Y0164432D01*
X0261947Y0164441D01*
X0261985Y0164447D01*
X0262024Y0164449D01*
X0286433Y0164449D01*
X0286557Y0164447D01*
X0286680Y0164441D01*
X0286804Y0164432D01*
X0286926Y0164418D01*
X0287049Y0164401D01*
X0287171Y0164379D01*
X0287292Y0164354D01*
X0287412Y0164325D01*
X0287531Y0164293D01*
X0287650Y0164256D01*
X0287767Y0164216D01*
X0287882Y0164173D01*
X0287997Y0164125D01*
X0288109Y0164074D01*
X0288220Y0164020D01*
X0288330Y0163962D01*
X0288437Y0163901D01*
X0288543Y0163836D01*
X0288646Y0163768D01*
X0288747Y0163697D01*
X0288846Y0163623D01*
X0288943Y0163546D01*
X0289037Y0163465D01*
X0289128Y0163382D01*
X0289217Y0163296D01*
X0289303Y0163207D01*
X0289386Y0163116D01*
X0289467Y0163022D01*
X0289544Y0162925D01*
X0289618Y0162826D01*
X0289689Y0162725D01*
X0289757Y0162622D01*
X0289822Y0162516D01*
X0289883Y0162409D01*
X0289941Y0162299D01*
X0289995Y0162188D01*
X0290046Y0162076D01*
X0290094Y0161961D01*
X0290137Y0161846D01*
X0290177Y0161729D01*
X0290214Y0161610D01*
X0290246Y0161491D01*
X0290275Y0161371D01*
X0290300Y0161250D01*
X0290322Y0161128D01*
X0290339Y0161005D01*
X0290353Y0160883D01*
X0290362Y0160759D01*
X0290368Y0160636D01*
X0290370Y0160512D01*
X0322319Y0160512D01*
X0322319Y0160511D02*
X0322363Y0160509D01*
X0322406Y0160504D01*
X0322449Y0160495D01*
X0322491Y0160482D01*
X0322532Y0160466D01*
X0322572Y0160447D01*
X0322609Y0160425D01*
X0322645Y0160399D01*
X0322679Y0160371D01*
X0322710Y0160340D01*
X0322738Y0160306D01*
X0322764Y0160270D01*
X0322786Y0160233D01*
X0322805Y0160193D01*
X0322821Y0160152D01*
X0322834Y0160110D01*
X0322843Y0160067D01*
X0322848Y0160024D01*
X0322850Y0159980D01*
X0322848Y0159905D01*
X0322842Y0159830D01*
X0322832Y0159755D01*
X0322819Y0159681D01*
X0322801Y0159608D01*
X0322780Y0159536D01*
X0322755Y0159465D01*
X0322726Y0159396D01*
X0322693Y0159328D01*
X0322657Y0159262D01*
X0322618Y0159197D01*
X0322576Y0159135D01*
X0322530Y0159076D01*
X0322481Y0159018D01*
X0322429Y0158964D01*
X0322375Y0158912D01*
X0322317Y0158863D01*
X0322258Y0158817D01*
X0322196Y0158775D01*
X0322132Y0158736D01*
X0322065Y0158700D01*
X0321997Y0158667D01*
X0321928Y0158638D01*
X0321857Y0158613D01*
X0321785Y0158592D01*
X0321712Y0158574D01*
X0321638Y0158561D01*
X0321563Y0158551D01*
X0321488Y0158545D01*
X0321413Y0158543D01*
X0319898Y0158543D01*
X0322850Y0169980D02*
X0322848Y0170110D01*
X0322842Y0170240D01*
X0322832Y0170370D01*
X0322819Y0170500D01*
X0322801Y0170629D01*
X0322779Y0170757D01*
X0322754Y0170885D01*
X0322725Y0171012D01*
X0322692Y0171138D01*
X0322655Y0171263D01*
X0322614Y0171386D01*
X0322570Y0171509D01*
X0322522Y0171630D01*
X0322470Y0171749D01*
X0322415Y0171867D01*
X0322356Y0171983D01*
X0322294Y0172098D01*
X0322228Y0172210D01*
X0322159Y0172321D01*
X0322087Y0172429D01*
X0322011Y0172535D01*
X0321933Y0172639D01*
X0321851Y0172740D01*
X0321766Y0172839D01*
X0321678Y0172935D01*
X0321587Y0173028D01*
X0321494Y0173119D01*
X0321398Y0173207D01*
X0321299Y0173292D01*
X0321198Y0173374D01*
X0321094Y0173452D01*
X0320988Y0173528D01*
X0320880Y0173600D01*
X0320769Y0173669D01*
X0320657Y0173735D01*
X0320542Y0173797D01*
X0320426Y0173856D01*
X0320308Y0173911D01*
X0320189Y0173963D01*
X0320068Y0174011D01*
X0319945Y0174055D01*
X0319822Y0174096D01*
X0319697Y0174133D01*
X0319571Y0174166D01*
X0319444Y0174195D01*
X0319316Y0174220D01*
X0319188Y0174242D01*
X0319059Y0174260D01*
X0318929Y0174273D01*
X0318799Y0174283D01*
X0318669Y0174289D01*
X0318539Y0174291D01*
X0294307Y0174291D01*
X0299324Y0164272D02*
X0302083Y0164272D01*
X0302141Y0164274D01*
X0302198Y0164279D01*
X0302255Y0164288D01*
X0302312Y0164301D01*
X0302367Y0164317D01*
X0302422Y0164337D01*
X0302475Y0164360D01*
X0302526Y0164386D01*
X0302576Y0164415D01*
X0302624Y0164448D01*
X0302669Y0164483D01*
X0302713Y0164521D01*
X0302754Y0164562D01*
X0302792Y0164606D01*
X0302827Y0164651D01*
X0302860Y0164699D01*
X0302889Y0164749D01*
X0302915Y0164800D01*
X0302938Y0164853D01*
X0302958Y0164908D01*
X0302974Y0164963D01*
X0302987Y0165020D01*
X0302996Y0165077D01*
X0303001Y0165134D01*
X0303003Y0165192D01*
X0340355Y0165192D01*
X0340383Y0165190D01*
X0340410Y0165185D01*
X0340436Y0165176D01*
X0340461Y0165164D01*
X0340484Y0165148D01*
X0340505Y0165130D01*
X0340523Y0165109D01*
X0340539Y0165086D01*
X0340551Y0165061D01*
X0340560Y0165035D01*
X0340565Y0165008D01*
X0340567Y0164980D01*
X0340566Y0164980D02*
X0340564Y0164936D01*
X0340559Y0164893D01*
X0340550Y0164850D01*
X0340537Y0164808D01*
X0340521Y0164767D01*
X0340502Y0164727D01*
X0340480Y0164690D01*
X0340454Y0164654D01*
X0340426Y0164620D01*
X0340395Y0164589D01*
X0340361Y0164561D01*
X0340325Y0164535D01*
X0340288Y0164513D01*
X0340248Y0164494D01*
X0340207Y0164478D01*
X0340165Y0164465D01*
X0340122Y0164456D01*
X0340079Y0164451D01*
X0340035Y0164449D01*
X0340567Y0164980D02*
X0340565Y0164882D01*
X0340559Y0164784D01*
X0340550Y0164686D01*
X0340536Y0164589D01*
X0340519Y0164492D01*
X0340498Y0164396D01*
X0340473Y0164301D01*
X0340445Y0164207D01*
X0340412Y0164115D01*
X0340377Y0164023D01*
X0340337Y0163933D01*
X0340295Y0163845D01*
X0340248Y0163758D01*
X0340199Y0163674D01*
X0340146Y0163591D01*
X0340090Y0163511D01*
X0340030Y0163432D01*
X0339968Y0163356D01*
X0339903Y0163283D01*
X0339835Y0163212D01*
X0339764Y0163144D01*
X0339691Y0163079D01*
X0339615Y0163017D01*
X0339536Y0162957D01*
X0339456Y0162901D01*
X0339373Y0162848D01*
X0339289Y0162799D01*
X0339202Y0162752D01*
X0339114Y0162710D01*
X0339024Y0162670D01*
X0338932Y0162635D01*
X0338840Y0162602D01*
X0338746Y0162574D01*
X0338651Y0162549D01*
X0338555Y0162528D01*
X0338458Y0162511D01*
X0338361Y0162497D01*
X0338263Y0162488D01*
X0338165Y0162482D01*
X0338067Y0162480D01*
X0331709Y0162480D01*
X0340567Y0154980D02*
X0294681Y0154980D01*
X0294644Y0154978D01*
X0294608Y0154973D01*
X0294572Y0154964D01*
X0294538Y0154952D01*
X0294505Y0154936D01*
X0294473Y0154917D01*
X0294444Y0154895D01*
X0294417Y0154870D01*
X0294392Y0154843D01*
X0294370Y0154814D01*
X0294351Y0154782D01*
X0294335Y0154749D01*
X0294323Y0154715D01*
X0294314Y0154679D01*
X0294309Y0154643D01*
X0294307Y0154606D01*
X0272043Y0140000D02*
X0270331Y0140000D01*
X0322850Y0169980D02*
X0322850Y0173307D01*
X0322848Y0173369D01*
X0322842Y0173430D01*
X0322833Y0173491D01*
X0322819Y0173552D01*
X0322802Y0173611D01*
X0322781Y0173669D01*
X0322756Y0173726D01*
X0322728Y0173781D01*
X0322697Y0173834D01*
X0322662Y0173885D01*
X0322624Y0173934D01*
X0322583Y0173981D01*
X0322540Y0174024D01*
X0322493Y0174065D01*
X0322444Y0174103D01*
X0322393Y0174138D01*
X0322340Y0174169D01*
X0322285Y0174197D01*
X0322228Y0174222D01*
X0322170Y0174243D01*
X0322111Y0174260D01*
X0322050Y0174274D01*
X0321989Y0174283D01*
X0321928Y0174289D01*
X0321866Y0174291D01*
X0340567Y0154980D02*
X0340567Y0153622D01*
X0340569Y0153514D01*
X0340575Y0153406D01*
X0340585Y0153299D01*
X0340598Y0153192D01*
X0340616Y0153086D01*
X0340638Y0152980D01*
X0340663Y0152875D01*
X0340692Y0152771D01*
X0340725Y0152669D01*
X0340762Y0152567D01*
X0340802Y0152467D01*
X0340846Y0152369D01*
X0340894Y0152272D01*
X0340945Y0152177D01*
X0340999Y0152084D01*
X0341057Y0151993D01*
X0341118Y0151904D01*
X0341183Y0151817D01*
X0341250Y0151733D01*
X0341321Y0151651D01*
X0341394Y0151572D01*
X0341470Y0151496D01*
X0341549Y0151423D01*
X0341631Y0151352D01*
X0341715Y0151285D01*
X0341802Y0151220D01*
X0341891Y0151159D01*
X0341982Y0151101D01*
X0342075Y0151047D01*
X0342170Y0150996D01*
X0342267Y0150948D01*
X0342365Y0150904D01*
X0342465Y0150864D01*
X0342567Y0150827D01*
X0342669Y0150794D01*
X0342773Y0150765D01*
X0342878Y0150740D01*
X0342984Y0150718D01*
X0343090Y0150700D01*
X0343197Y0150687D01*
X0343304Y0150677D01*
X0343412Y0150671D01*
X0343520Y0150669D01*
X0340547Y0084134D02*
X0338402Y0084134D01*
X0340547Y0084134D02*
X0340555Y0084132D01*
X0340561Y0084128D01*
X0340565Y0084122D01*
X0340567Y0084114D01*
X0340567Y0080787D01*
X0340569Y0080725D01*
X0340575Y0080664D01*
X0340584Y0080603D01*
X0340598Y0080542D01*
X0340615Y0080483D01*
X0340636Y0080425D01*
X0340661Y0080368D01*
X0340689Y0080313D01*
X0340720Y0080260D01*
X0340755Y0080209D01*
X0340793Y0080160D01*
X0340834Y0080113D01*
X0340877Y0080070D01*
X0340924Y0080029D01*
X0340973Y0079991D01*
X0341024Y0079956D01*
X0341077Y0079925D01*
X0341132Y0079897D01*
X0341189Y0079872D01*
X0341247Y0079851D01*
X0341306Y0079834D01*
X0341367Y0079820D01*
X0341428Y0079811D01*
X0341489Y0079805D01*
X0341551Y0079803D01*
X0234257Y0194162D02*
X0196068Y0194162D01*
X0196068Y0194163D02*
X0195987Y0194161D01*
X0195906Y0194155D01*
X0195825Y0194146D01*
X0195744Y0194133D01*
X0195665Y0194116D01*
X0195586Y0194096D01*
X0195508Y0194072D01*
X0195432Y0194044D01*
X0195357Y0194013D01*
X0195283Y0193978D01*
X0195211Y0193940D01*
X0195141Y0193899D01*
X0195073Y0193855D01*
X0195007Y0193807D01*
X0194943Y0193757D01*
X0194882Y0193703D01*
X0194823Y0193647D01*
X0194767Y0193588D01*
X0194713Y0193527D01*
X0194663Y0193463D01*
X0194615Y0193397D01*
X0194571Y0193329D01*
X0194530Y0193259D01*
X0194492Y0193187D01*
X0194457Y0193113D01*
X0194426Y0193038D01*
X0194398Y0192962D01*
X0194374Y0192884D01*
X0194354Y0192805D01*
X0194337Y0192726D01*
X0194324Y0192645D01*
X0194315Y0192564D01*
X0194309Y0192483D01*
X0194307Y0192402D01*
X0194307Y0234921D01*
X0183677Y0223110D02*
X0151787Y0223110D01*
X0151635Y0223112D01*
X0151483Y0223118D01*
X0151331Y0223128D01*
X0151180Y0223141D01*
X0151029Y0223159D01*
X0150878Y0223180D01*
X0150728Y0223206D01*
X0150579Y0223235D01*
X0150430Y0223268D01*
X0150283Y0223305D01*
X0150136Y0223345D01*
X0149991Y0223390D01*
X0149847Y0223438D01*
X0149704Y0223490D01*
X0149562Y0223545D01*
X0149422Y0223604D01*
X0149283Y0223667D01*
X0149146Y0223733D01*
X0149011Y0223803D01*
X0148878Y0223876D01*
X0148747Y0223953D01*
X0148617Y0224033D01*
X0148490Y0224116D01*
X0148365Y0224202D01*
X0148242Y0224292D01*
X0148122Y0224385D01*
X0148004Y0224481D01*
X0147888Y0224580D01*
X0147775Y0224682D01*
X0147665Y0224786D01*
X0147557Y0224894D01*
X0147453Y0225004D01*
X0147351Y0225117D01*
X0147252Y0225233D01*
X0147156Y0225351D01*
X0147063Y0225471D01*
X0146973Y0225594D01*
X0146887Y0225719D01*
X0146804Y0225846D01*
X0146724Y0225976D01*
X0146647Y0226107D01*
X0146574Y0226240D01*
X0146504Y0226375D01*
X0146438Y0226512D01*
X0146375Y0226651D01*
X0146316Y0226791D01*
X0146261Y0226933D01*
X0146209Y0227076D01*
X0146161Y0227220D01*
X0146116Y0227365D01*
X0146076Y0227512D01*
X0146039Y0227659D01*
X0146006Y0227808D01*
X0145977Y0227957D01*
X0145951Y0228107D01*
X0145930Y0228258D01*
X0145912Y0228409D01*
X0145899Y0228560D01*
X0145889Y0228712D01*
X0145883Y0228864D01*
X0145881Y0229016D01*
X0145882Y0229016D02*
X0145882Y0245551D01*
X0169504Y0245551D02*
X0169504Y0270354D01*
X0142339Y0293976D02*
X0123441Y0293976D01*
X0116354Y0308150D02*
X0116354Y0240376D01*
X0113778Y0240376D01*
X0116354Y0240376D02*
X0116354Y0235709D01*
X0116354Y0234528D01*
X0116354Y0235709D02*
X0113992Y0232165D01*
X0113992Y0212480D01*
X0111512Y0210000D01*
X0092043Y0210000D01*
X0086827Y0205394D02*
X0125803Y0205394D01*
X0130528Y0200669D01*
X0101000Y0214843D02*
X0086827Y0214843D01*
X0082043Y0219626D01*
X0082043Y0220000D01*
X0082043Y0210000D02*
X0082220Y0210000D01*
X0086827Y0205394D01*
X0069898Y0227441D02*
X0043697Y0227441D01*
X0042339Y0227441D02*
X0042277Y0227443D01*
X0042216Y0227449D01*
X0042155Y0227458D01*
X0042094Y0227472D01*
X0042035Y0227489D01*
X0041977Y0227510D01*
X0041920Y0227535D01*
X0041865Y0227563D01*
X0041812Y0227594D01*
X0041761Y0227629D01*
X0041712Y0227667D01*
X0041665Y0227708D01*
X0041622Y0227751D01*
X0041581Y0227798D01*
X0041543Y0227847D01*
X0041508Y0227898D01*
X0041477Y0227951D01*
X0041449Y0228006D01*
X0041424Y0228063D01*
X0041403Y0228121D01*
X0041386Y0228180D01*
X0041372Y0228241D01*
X0041363Y0228302D01*
X0041357Y0228363D01*
X0041355Y0228425D01*
X0041354Y0228425D02*
X0041354Y0229783D01*
X0041356Y0229689D01*
X0041362Y0229594D01*
X0041371Y0229501D01*
X0041384Y0229407D01*
X0041401Y0229314D01*
X0041422Y0229222D01*
X0041447Y0229131D01*
X0041475Y0229041D01*
X0041506Y0228952D01*
X0041541Y0228865D01*
X0041580Y0228779D01*
X0041622Y0228694D01*
X0041668Y0228612D01*
X0041717Y0228531D01*
X0041769Y0228452D01*
X0041824Y0228375D01*
X0041882Y0228301D01*
X0041943Y0228229D01*
X0042007Y0228160D01*
X0042074Y0228093D01*
X0042143Y0228029D01*
X0042215Y0227968D01*
X0042289Y0227910D01*
X0042366Y0227855D01*
X0042445Y0227803D01*
X0042525Y0227754D01*
X0042608Y0227708D01*
X0042693Y0227666D01*
X0042779Y0227627D01*
X0042866Y0227592D01*
X0042955Y0227561D01*
X0043045Y0227533D01*
X0043136Y0227508D01*
X0043228Y0227487D01*
X0043321Y0227470D01*
X0043415Y0227457D01*
X0043508Y0227448D01*
X0043603Y0227442D01*
X0043697Y0227440D01*
X0032496Y0237283D02*
X0026138Y0237283D01*
X0026040Y0237281D01*
X0025942Y0237275D01*
X0025844Y0237266D01*
X0025747Y0237252D01*
X0025650Y0237235D01*
X0025554Y0237214D01*
X0025459Y0237189D01*
X0025365Y0237161D01*
X0025273Y0237128D01*
X0025181Y0237093D01*
X0025091Y0237053D01*
X0025003Y0237011D01*
X0024916Y0236964D01*
X0024832Y0236915D01*
X0024749Y0236862D01*
X0024669Y0236806D01*
X0024590Y0236746D01*
X0024514Y0236684D01*
X0024441Y0236619D01*
X0024370Y0236551D01*
X0024302Y0236480D01*
X0024237Y0236407D01*
X0024175Y0236331D01*
X0024115Y0236252D01*
X0024059Y0236172D01*
X0024006Y0236089D01*
X0023957Y0236005D01*
X0023910Y0235918D01*
X0023868Y0235830D01*
X0023828Y0235740D01*
X0023793Y0235648D01*
X0023760Y0235556D01*
X0023732Y0235462D01*
X0023707Y0235367D01*
X0023686Y0235271D01*
X0023669Y0235174D01*
X0023655Y0235077D01*
X0023646Y0234979D01*
X0023640Y0234881D01*
X0023638Y0234783D01*
X0023713Y0234858D01*
X0068483Y0234858D01*
X0071866Y0239252D02*
X0071952Y0239250D01*
X0072038Y0239245D01*
X0072123Y0239235D01*
X0072208Y0239222D01*
X0072292Y0239205D01*
X0072376Y0239185D01*
X0072458Y0239161D01*
X0072539Y0239133D01*
X0072620Y0239102D01*
X0072698Y0239068D01*
X0072775Y0239030D01*
X0072851Y0238988D01*
X0072924Y0238944D01*
X0072995Y0238896D01*
X0073065Y0238845D01*
X0073132Y0238791D01*
X0073196Y0238735D01*
X0073258Y0238675D01*
X0073318Y0238613D01*
X0073374Y0238549D01*
X0073428Y0238482D01*
X0073479Y0238412D01*
X0073527Y0238341D01*
X0073571Y0238268D01*
X0073613Y0238192D01*
X0073651Y0238115D01*
X0073685Y0238037D01*
X0073716Y0237956D01*
X0073744Y0237875D01*
X0073768Y0237793D01*
X0073788Y0237709D01*
X0073805Y0237625D01*
X0073818Y0237540D01*
X0073828Y0237455D01*
X0073833Y0237369D01*
X0073835Y0237283D01*
X0073834Y0237283D02*
X0073836Y0237197D01*
X0073841Y0237111D01*
X0073851Y0237026D01*
X0073864Y0236941D01*
X0073881Y0236857D01*
X0073901Y0236773D01*
X0073925Y0236691D01*
X0073953Y0236610D01*
X0073984Y0236529D01*
X0074018Y0236451D01*
X0074056Y0236374D01*
X0074098Y0236299D01*
X0074142Y0236225D01*
X0074190Y0236154D01*
X0074241Y0236084D01*
X0074295Y0236017D01*
X0074351Y0235953D01*
X0074411Y0235891D01*
X0074473Y0235831D01*
X0074537Y0235775D01*
X0074604Y0235721D01*
X0074674Y0235670D01*
X0074745Y0235622D01*
X0074819Y0235578D01*
X0074894Y0235536D01*
X0074971Y0235498D01*
X0075049Y0235464D01*
X0075130Y0235433D01*
X0075211Y0235405D01*
X0075293Y0235381D01*
X0075377Y0235361D01*
X0075461Y0235344D01*
X0075546Y0235331D01*
X0075631Y0235321D01*
X0075717Y0235316D01*
X0075803Y0235314D01*
X0075803Y0235315D02*
X0103362Y0235315D01*
X0103486Y0235313D01*
X0103609Y0235307D01*
X0103733Y0235298D01*
X0103855Y0235284D01*
X0103978Y0235267D01*
X0104100Y0235245D01*
X0104221Y0235220D01*
X0104341Y0235191D01*
X0104460Y0235159D01*
X0104579Y0235122D01*
X0104696Y0235082D01*
X0104811Y0235039D01*
X0104926Y0234991D01*
X0105038Y0234940D01*
X0105149Y0234886D01*
X0105259Y0234828D01*
X0105366Y0234767D01*
X0105472Y0234702D01*
X0105575Y0234634D01*
X0105676Y0234563D01*
X0105775Y0234489D01*
X0105872Y0234412D01*
X0105966Y0234331D01*
X0106057Y0234248D01*
X0106146Y0234162D01*
X0106232Y0234073D01*
X0106315Y0233982D01*
X0106396Y0233888D01*
X0106473Y0233791D01*
X0106547Y0233692D01*
X0106618Y0233591D01*
X0106686Y0233488D01*
X0106751Y0233382D01*
X0106812Y0233275D01*
X0106870Y0233165D01*
X0106924Y0233054D01*
X0106975Y0232942D01*
X0107023Y0232827D01*
X0107066Y0232712D01*
X0107106Y0232595D01*
X0107143Y0232476D01*
X0107175Y0232357D01*
X0107204Y0232237D01*
X0107229Y0232116D01*
X0107251Y0231994D01*
X0107268Y0231871D01*
X0107282Y0231749D01*
X0107291Y0231625D01*
X0107297Y0231502D01*
X0107299Y0231378D01*
X0071866Y0239252D02*
X0041886Y0239252D01*
X0041842Y0239254D01*
X0041799Y0239259D01*
X0041756Y0239268D01*
X0041714Y0239281D01*
X0041673Y0239297D01*
X0041633Y0239316D01*
X0041596Y0239338D01*
X0041560Y0239364D01*
X0041526Y0239392D01*
X0041495Y0239423D01*
X0041467Y0239457D01*
X0041441Y0239493D01*
X0041419Y0239530D01*
X0041400Y0239570D01*
X0041384Y0239611D01*
X0041371Y0239653D01*
X0041362Y0239696D01*
X0041357Y0239739D01*
X0041355Y0239783D01*
X0041354Y0239783D02*
X0041462Y0239785D01*
X0041570Y0239791D01*
X0041677Y0239801D01*
X0041784Y0239814D01*
X0041890Y0239832D01*
X0041996Y0239854D01*
X0042101Y0239879D01*
X0042205Y0239908D01*
X0042307Y0239941D01*
X0042409Y0239978D01*
X0042509Y0240018D01*
X0042607Y0240062D01*
X0042704Y0240110D01*
X0042799Y0240161D01*
X0042892Y0240215D01*
X0042983Y0240273D01*
X0043072Y0240334D01*
X0043159Y0240399D01*
X0043243Y0240466D01*
X0043325Y0240537D01*
X0043404Y0240610D01*
X0043480Y0240686D01*
X0043553Y0240765D01*
X0043624Y0240847D01*
X0043691Y0240931D01*
X0043756Y0241018D01*
X0043817Y0241107D01*
X0043875Y0241198D01*
X0043929Y0241291D01*
X0043980Y0241386D01*
X0044028Y0241483D01*
X0044072Y0241581D01*
X0044112Y0241681D01*
X0044149Y0241783D01*
X0044182Y0241885D01*
X0044211Y0241989D01*
X0044236Y0242094D01*
X0044258Y0242200D01*
X0044276Y0242306D01*
X0044289Y0242413D01*
X0044299Y0242520D01*
X0044305Y0242628D01*
X0044307Y0242736D01*
X0044307Y0243189D01*
X0026768Y0247913D02*
X0026656Y0247911D01*
X0026545Y0247905D01*
X0026433Y0247895D01*
X0026323Y0247881D01*
X0026212Y0247863D01*
X0026103Y0247841D01*
X0025994Y0247816D01*
X0025886Y0247786D01*
X0025780Y0247753D01*
X0025674Y0247716D01*
X0025570Y0247675D01*
X0025468Y0247630D01*
X0025367Y0247582D01*
X0025268Y0247530D01*
X0025171Y0247475D01*
X0025076Y0247416D01*
X0024983Y0247354D01*
X0024892Y0247289D01*
X0024804Y0247220D01*
X0024718Y0247148D01*
X0024635Y0247074D01*
X0024555Y0246996D01*
X0024477Y0246916D01*
X0024403Y0246833D01*
X0024331Y0246747D01*
X0024262Y0246659D01*
X0024197Y0246568D01*
X0024135Y0246475D01*
X0024076Y0246380D01*
X0024021Y0246283D01*
X0023969Y0246184D01*
X0023921Y0246083D01*
X0023876Y0245981D01*
X0023835Y0245877D01*
X0023798Y0245771D01*
X0023765Y0245665D01*
X0023735Y0245557D01*
X0023710Y0245448D01*
X0023688Y0245339D01*
X0023670Y0245228D01*
X0023656Y0245118D01*
X0023646Y0245006D01*
X0023640Y0244895D01*
X0023638Y0244783D01*
X0023638Y0246142D01*
X0023636Y0246250D01*
X0023630Y0246358D01*
X0023620Y0246465D01*
X0023607Y0246572D01*
X0023589Y0246678D01*
X0023567Y0246784D01*
X0023542Y0246889D01*
X0023513Y0246993D01*
X0023480Y0247095D01*
X0023443Y0247197D01*
X0023403Y0247297D01*
X0023359Y0247395D01*
X0023311Y0247492D01*
X0023260Y0247587D01*
X0023206Y0247680D01*
X0023148Y0247771D01*
X0023087Y0247860D01*
X0023022Y0247947D01*
X0022955Y0248031D01*
X0022884Y0248113D01*
X0022811Y0248192D01*
X0022735Y0248268D01*
X0022656Y0248341D01*
X0022574Y0248412D01*
X0022490Y0248479D01*
X0022403Y0248544D01*
X0022314Y0248605D01*
X0022223Y0248663D01*
X0022130Y0248717D01*
X0022035Y0248768D01*
X0021938Y0248816D01*
X0021840Y0248860D01*
X0021740Y0248900D01*
X0021638Y0248937D01*
X0021536Y0248970D01*
X0021432Y0248999D01*
X0021327Y0249024D01*
X0021221Y0249046D01*
X0021115Y0249064D01*
X0021008Y0249077D01*
X0020901Y0249087D01*
X0020793Y0249093D01*
X0020685Y0249095D01*
X0026768Y0247913D02*
X0067929Y0247913D01*
X0068007Y0247911D01*
X0068085Y0247905D01*
X0068163Y0247896D01*
X0068240Y0247882D01*
X0068316Y0247865D01*
X0068392Y0247844D01*
X0068466Y0247820D01*
X0068539Y0247792D01*
X0068611Y0247760D01*
X0068680Y0247725D01*
X0068748Y0247686D01*
X0068815Y0247644D01*
X0068879Y0247599D01*
X0068940Y0247551D01*
X0068999Y0247500D01*
X0069056Y0247446D01*
X0069110Y0247389D01*
X0069161Y0247330D01*
X0069209Y0247269D01*
X0069254Y0247205D01*
X0069296Y0247138D01*
X0069335Y0247070D01*
X0069370Y0247001D01*
X0069402Y0246929D01*
X0069430Y0246856D01*
X0069454Y0246782D01*
X0069475Y0246706D01*
X0069492Y0246630D01*
X0069506Y0246553D01*
X0069515Y0246475D01*
X0069521Y0246397D01*
X0069523Y0246319D01*
X0069524Y0246319D02*
X0069524Y0244783D01*
X0069561Y0244785D01*
X0069597Y0244790D01*
X0069633Y0244799D01*
X0069667Y0244811D01*
X0069700Y0244827D01*
X0069732Y0244846D01*
X0069761Y0244868D01*
X0069788Y0244893D01*
X0069813Y0244920D01*
X0069835Y0244949D01*
X0069854Y0244981D01*
X0069870Y0245014D01*
X0069882Y0245048D01*
X0069891Y0245084D01*
X0069896Y0245120D01*
X0069898Y0245157D01*
X0042339Y0298307D02*
X0042339Y0299665D01*
X0042339Y0300276D02*
X0041728Y0300276D01*
X0041691Y0300278D01*
X0041655Y0300283D01*
X0041619Y0300292D01*
X0041585Y0300304D01*
X0041552Y0300320D01*
X0041520Y0300339D01*
X0041491Y0300361D01*
X0041464Y0300386D01*
X0041439Y0300413D01*
X0041417Y0300442D01*
X0041398Y0300474D01*
X0041382Y0300507D01*
X0041370Y0300541D01*
X0041361Y0300577D01*
X0041356Y0300613D01*
X0041354Y0300650D01*
X0041354Y0300649D02*
X0041416Y0300647D01*
X0041477Y0300641D01*
X0041538Y0300632D01*
X0041599Y0300618D01*
X0041658Y0300601D01*
X0041716Y0300580D01*
X0041773Y0300555D01*
X0041828Y0300527D01*
X0041881Y0300496D01*
X0041932Y0300461D01*
X0041981Y0300423D01*
X0042028Y0300382D01*
X0042071Y0300339D01*
X0042112Y0300292D01*
X0042150Y0300243D01*
X0042185Y0300192D01*
X0042216Y0300139D01*
X0042244Y0300084D01*
X0042269Y0300027D01*
X0042290Y0299969D01*
X0042307Y0299910D01*
X0042321Y0299849D01*
X0042330Y0299788D01*
X0042336Y0299727D01*
X0042338Y0299665D01*
X0042339Y0300276D02*
X0042339Y0302244D01*
X0071866Y0302244D01*
X0069898Y0306181D02*
X0024169Y0306181D01*
X0024125Y0306179D01*
X0024082Y0306174D01*
X0024039Y0306165D01*
X0023997Y0306152D01*
X0023956Y0306136D01*
X0023916Y0306117D01*
X0023879Y0306095D01*
X0023843Y0306069D01*
X0023809Y0306041D01*
X0023778Y0306010D01*
X0023750Y0305976D01*
X0023724Y0305940D01*
X0023702Y0305903D01*
X0023683Y0305863D01*
X0023667Y0305822D01*
X0023654Y0305780D01*
X0023645Y0305737D01*
X0023640Y0305694D01*
X0023638Y0305650D01*
X0023640Y0305748D01*
X0023646Y0305846D01*
X0023655Y0305944D01*
X0023669Y0306041D01*
X0023686Y0306138D01*
X0023707Y0306234D01*
X0023732Y0306329D01*
X0023760Y0306423D01*
X0023793Y0306515D01*
X0023828Y0306607D01*
X0023868Y0306697D01*
X0023910Y0306785D01*
X0023957Y0306872D01*
X0024006Y0306956D01*
X0024059Y0307039D01*
X0024115Y0307119D01*
X0024175Y0307198D01*
X0024237Y0307274D01*
X0024302Y0307347D01*
X0024370Y0307418D01*
X0024441Y0307486D01*
X0024514Y0307551D01*
X0024590Y0307613D01*
X0024669Y0307673D01*
X0024749Y0307729D01*
X0024832Y0307782D01*
X0024916Y0307831D01*
X0025003Y0307878D01*
X0025091Y0307920D01*
X0025181Y0307960D01*
X0025273Y0307995D01*
X0025365Y0308028D01*
X0025459Y0308056D01*
X0025554Y0308081D01*
X0025650Y0308102D01*
X0025747Y0308119D01*
X0025844Y0308133D01*
X0025942Y0308142D01*
X0026040Y0308148D01*
X0026138Y0308150D01*
X0032496Y0308150D01*
X0023637Y0315650D02*
X0023639Y0315744D01*
X0023645Y0315839D01*
X0023654Y0315932D01*
X0023667Y0316026D01*
X0023684Y0316119D01*
X0023705Y0316211D01*
X0023730Y0316302D01*
X0023758Y0316392D01*
X0023789Y0316481D01*
X0023824Y0316568D01*
X0023863Y0316654D01*
X0023905Y0316739D01*
X0023951Y0316822D01*
X0024000Y0316902D01*
X0024052Y0316981D01*
X0024107Y0317058D01*
X0024165Y0317132D01*
X0024226Y0317204D01*
X0024290Y0317273D01*
X0024357Y0317340D01*
X0024426Y0317404D01*
X0024498Y0317465D01*
X0024572Y0317523D01*
X0024649Y0317578D01*
X0024728Y0317630D01*
X0024809Y0317679D01*
X0024891Y0317725D01*
X0024976Y0317767D01*
X0025062Y0317806D01*
X0025149Y0317841D01*
X0025238Y0317872D01*
X0025328Y0317900D01*
X0025419Y0317925D01*
X0025511Y0317946D01*
X0025604Y0317963D01*
X0025698Y0317976D01*
X0025791Y0317985D01*
X0025886Y0317991D01*
X0025980Y0317993D01*
X0025980Y0317992D02*
X0071866Y0317992D01*
X0071866Y0312087D02*
X0044307Y0312087D01*
X0042791Y0312087D01*
X0042716Y0312085D01*
X0042641Y0312079D01*
X0042566Y0312069D01*
X0042492Y0312056D01*
X0042419Y0312038D01*
X0042347Y0312017D01*
X0042276Y0311992D01*
X0042207Y0311963D01*
X0042139Y0311930D01*
X0042073Y0311894D01*
X0042008Y0311855D01*
X0041946Y0311813D01*
X0041887Y0311767D01*
X0041829Y0311718D01*
X0041775Y0311666D01*
X0041723Y0311612D01*
X0041674Y0311554D01*
X0041628Y0311495D01*
X0041586Y0311433D01*
X0041547Y0311369D01*
X0041511Y0311302D01*
X0041478Y0311234D01*
X0041449Y0311165D01*
X0041424Y0311094D01*
X0041403Y0311022D01*
X0041385Y0310949D01*
X0041372Y0310875D01*
X0041362Y0310800D01*
X0041356Y0310725D01*
X0041354Y0310650D01*
X0041356Y0310725D01*
X0041362Y0310800D01*
X0041372Y0310875D01*
X0041385Y0310949D01*
X0041403Y0311022D01*
X0041424Y0311094D01*
X0041449Y0311165D01*
X0041478Y0311234D01*
X0041511Y0311302D01*
X0041547Y0311369D01*
X0041586Y0311433D01*
X0041628Y0311495D01*
X0041674Y0311554D01*
X0041723Y0311612D01*
X0041775Y0311666D01*
X0041829Y0311718D01*
X0041887Y0311767D01*
X0041946Y0311813D01*
X0042008Y0311855D01*
X0042073Y0311894D01*
X0042139Y0311930D01*
X0042207Y0311963D01*
X0042276Y0311992D01*
X0042347Y0312017D01*
X0042419Y0312038D01*
X0042492Y0312056D01*
X0042566Y0312069D01*
X0042641Y0312079D01*
X0042716Y0312085D01*
X0042791Y0312087D01*
X0023638Y0315650D02*
X0023638Y0318976D01*
X0023636Y0319038D01*
X0023630Y0319099D01*
X0023621Y0319160D01*
X0023607Y0319221D01*
X0023590Y0319280D01*
X0023569Y0319338D01*
X0023544Y0319395D01*
X0023516Y0319450D01*
X0023485Y0319503D01*
X0023450Y0319554D01*
X0023412Y0319603D01*
X0023371Y0319650D01*
X0023328Y0319693D01*
X0023281Y0319734D01*
X0023232Y0319772D01*
X0023181Y0319807D01*
X0023128Y0319838D01*
X0023073Y0319866D01*
X0023016Y0319891D01*
X0022958Y0319912D01*
X0022899Y0319929D01*
X0022838Y0319943D01*
X0022777Y0319952D01*
X0022716Y0319958D01*
X0022654Y0319960D01*
X0091551Y0312087D02*
X0091703Y0312085D01*
X0091855Y0312079D01*
X0092007Y0312069D01*
X0092158Y0312056D01*
X0092309Y0312038D01*
X0092460Y0312017D01*
X0092610Y0311991D01*
X0092759Y0311962D01*
X0092908Y0311929D01*
X0093055Y0311892D01*
X0093202Y0311852D01*
X0093347Y0311807D01*
X0093491Y0311759D01*
X0093634Y0311707D01*
X0093776Y0311652D01*
X0093916Y0311593D01*
X0094055Y0311530D01*
X0094192Y0311464D01*
X0094327Y0311394D01*
X0094460Y0311321D01*
X0094591Y0311244D01*
X0094721Y0311164D01*
X0094848Y0311081D01*
X0094973Y0310995D01*
X0095096Y0310905D01*
X0095216Y0310812D01*
X0095334Y0310716D01*
X0095450Y0310617D01*
X0095563Y0310515D01*
X0095673Y0310411D01*
X0095781Y0310303D01*
X0095885Y0310193D01*
X0095987Y0310080D01*
X0096086Y0309964D01*
X0096182Y0309846D01*
X0096275Y0309726D01*
X0096365Y0309603D01*
X0096451Y0309478D01*
X0096534Y0309351D01*
X0096614Y0309221D01*
X0096691Y0309090D01*
X0096764Y0308957D01*
X0096834Y0308822D01*
X0096900Y0308685D01*
X0096963Y0308546D01*
X0097022Y0308406D01*
X0097077Y0308264D01*
X0097129Y0308121D01*
X0097177Y0307977D01*
X0097222Y0307832D01*
X0097262Y0307685D01*
X0097299Y0307538D01*
X0097332Y0307389D01*
X0097361Y0307240D01*
X0097387Y0307090D01*
X0097408Y0306939D01*
X0097426Y0306788D01*
X0097439Y0306637D01*
X0097449Y0306485D01*
X0097455Y0306333D01*
X0097457Y0306181D01*
X0097457Y0304213D01*
X0169504Y0237283D02*
X0169506Y0237349D01*
X0169511Y0237415D01*
X0169521Y0237481D01*
X0169534Y0237546D01*
X0169550Y0237610D01*
X0169570Y0237673D01*
X0169594Y0237735D01*
X0169621Y0237795D01*
X0169651Y0237854D01*
X0169685Y0237911D01*
X0169722Y0237966D01*
X0169762Y0238019D01*
X0169804Y0238070D01*
X0169850Y0238118D01*
X0169898Y0238164D01*
X0169949Y0238206D01*
X0170002Y0238246D01*
X0170057Y0238283D01*
X0170114Y0238317D01*
X0170173Y0238347D01*
X0170233Y0238374D01*
X0170295Y0238398D01*
X0170358Y0238418D01*
X0170422Y0238434D01*
X0170487Y0238447D01*
X0170553Y0238457D01*
X0170619Y0238462D01*
X0170685Y0238464D01*
X0188402Y0234921D02*
X0188485Y0234720D01*
X0188563Y0234518D01*
X0188637Y0234313D01*
X0188705Y0234107D01*
X0188769Y0233899D01*
X0188827Y0233690D01*
X0188880Y0233479D01*
X0188928Y0233267D01*
X0188972Y0233054D01*
X0189009Y0232840D01*
X0189042Y0232625D01*
X0189070Y0232409D01*
X0189092Y0232193D01*
X0189109Y0231976D01*
X0189121Y0231759D01*
X0189128Y0231542D01*
X0189129Y0231325D01*
X0189125Y0231107D01*
X0189116Y0230890D01*
X0189101Y0230673D01*
X0189082Y0230457D01*
X0189057Y0230241D01*
X0189027Y0230026D01*
X0188991Y0229811D01*
X0188951Y0229597D01*
X0188905Y0229385D01*
X0188855Y0229174D01*
X0188799Y0228964D01*
X0188738Y0228755D01*
X0188672Y0228548D01*
X0188601Y0228342D01*
X0188525Y0228138D01*
X0188445Y0227937D01*
X0188359Y0227737D01*
X0188269Y0227539D01*
X0188174Y0227344D01*
X0188074Y0227151D01*
X0187969Y0226960D01*
X0187860Y0226772D01*
X0187747Y0226587D01*
X0187629Y0226404D01*
X0187506Y0226224D01*
X0187380Y0226048D01*
X0187249Y0225874D01*
X0187114Y0225704D01*
X0186974Y0225537D01*
X0186831Y0225373D01*
X0186684Y0225213D01*
X0186533Y0225057D01*
X0186379Y0224904D01*
X0186221Y0224755D01*
X0186059Y0224610D01*
X0185893Y0224469D01*
X0185725Y0224332D01*
X0185553Y0224199D01*
X0185378Y0224070D01*
X0185200Y0223945D01*
X0185019Y0223825D01*
X0184835Y0223709D01*
X0184648Y0223598D01*
X0184459Y0223491D01*
X0184267Y0223389D01*
X0184073Y0223291D01*
X0183876Y0223198D01*
X0183677Y0223110D01*
X0181315Y0217205D02*
X0181315Y0216024D01*
X0169504Y0214843D02*
X0169504Y0205394D01*
X0176591Y0195945D02*
X0176726Y0195947D01*
X0176861Y0195953D01*
X0176995Y0195962D01*
X0177129Y0195976D01*
X0177263Y0195993D01*
X0177397Y0196014D01*
X0177529Y0196039D01*
X0177661Y0196068D01*
X0177792Y0196100D01*
X0177922Y0196136D01*
X0178051Y0196176D01*
X0178178Y0196220D01*
X0178305Y0196267D01*
X0178430Y0196318D01*
X0178553Y0196372D01*
X0178675Y0196430D01*
X0178796Y0196491D01*
X0178914Y0196556D01*
X0179030Y0196624D01*
X0179145Y0196695D01*
X0179257Y0196769D01*
X0179368Y0196847D01*
X0179476Y0196928D01*
X0179581Y0197012D01*
X0179685Y0197099D01*
X0179785Y0197189D01*
X0179883Y0197281D01*
X0179979Y0197377D01*
X0180071Y0197475D01*
X0180161Y0197575D01*
X0180248Y0197679D01*
X0180332Y0197784D01*
X0180413Y0197892D01*
X0180491Y0198003D01*
X0180565Y0198115D01*
X0180636Y0198230D01*
X0180704Y0198346D01*
X0180769Y0198464D01*
X0180830Y0198585D01*
X0180888Y0198707D01*
X0180942Y0198830D01*
X0180993Y0198955D01*
X0181040Y0199082D01*
X0181084Y0199209D01*
X0181124Y0199338D01*
X0181160Y0199468D01*
X0181192Y0199599D01*
X0181221Y0199731D01*
X0181246Y0199863D01*
X0181267Y0199997D01*
X0181284Y0200131D01*
X0181298Y0200265D01*
X0181307Y0200399D01*
X0181313Y0200534D01*
X0181315Y0200669D01*
X0176591Y0195945D02*
X0163598Y0195945D01*
X0169504Y0175866D02*
X0169506Y0175800D01*
X0169511Y0175734D01*
X0169521Y0175668D01*
X0169534Y0175603D01*
X0169550Y0175539D01*
X0169570Y0175476D01*
X0169594Y0175414D01*
X0169621Y0175354D01*
X0169651Y0175295D01*
X0169685Y0175238D01*
X0169722Y0175183D01*
X0169762Y0175130D01*
X0169804Y0175079D01*
X0169850Y0175031D01*
X0169898Y0174985D01*
X0169949Y0174943D01*
X0170002Y0174903D01*
X0170057Y0174866D01*
X0170114Y0174832D01*
X0170173Y0174802D01*
X0170233Y0174775D01*
X0170295Y0174751D01*
X0170358Y0174731D01*
X0170422Y0174715D01*
X0170487Y0174702D01*
X0170553Y0174692D01*
X0170619Y0174687D01*
X0170685Y0174685D01*
X0116354Y0126260D02*
X0116097Y0126257D01*
X0115840Y0126248D01*
X0115584Y0126232D01*
X0115328Y0126210D01*
X0115073Y0126182D01*
X0114818Y0126148D01*
X0114564Y0126108D01*
X0114312Y0126062D01*
X0114060Y0126010D01*
X0113810Y0125951D01*
X0113561Y0125887D01*
X0113314Y0125816D01*
X0113069Y0125740D01*
X0112826Y0125657D01*
X0112585Y0125569D01*
X0112345Y0125475D01*
X0112109Y0125376D01*
X0111875Y0125270D01*
X0111643Y0125159D01*
X0111414Y0125042D01*
X0111188Y0124920D01*
X0110965Y0124793D01*
X0110745Y0124660D01*
X0110529Y0124522D01*
X0110315Y0124378D01*
X0110106Y0124230D01*
X0109900Y0124076D01*
X0109698Y0123918D01*
X0109499Y0123755D01*
X0109305Y0123587D01*
X0109115Y0123414D01*
X0108929Y0123237D01*
X0108747Y0123055D01*
X0108570Y0122869D01*
X0108397Y0122679D01*
X0108229Y0122485D01*
X0108066Y0122286D01*
X0107908Y0122084D01*
X0107754Y0121878D01*
X0107606Y0121669D01*
X0107462Y0121455D01*
X0107324Y0121239D01*
X0107191Y0121019D01*
X0107064Y0120796D01*
X0106942Y0120570D01*
X0106825Y0120341D01*
X0106714Y0120109D01*
X0106608Y0119875D01*
X0106509Y0119639D01*
X0106415Y0119399D01*
X0106327Y0119158D01*
X0106244Y0118915D01*
X0106168Y0118670D01*
X0106097Y0118423D01*
X0106033Y0118174D01*
X0105974Y0117924D01*
X0105922Y0117672D01*
X0105876Y0117420D01*
X0105836Y0117166D01*
X0105802Y0116911D01*
X0105774Y0116656D01*
X0105752Y0116400D01*
X0105736Y0116144D01*
X0105727Y0115887D01*
X0105724Y0115630D01*
X0111630Y0086102D02*
X0111628Y0086063D01*
X0111622Y0086025D01*
X0111613Y0085988D01*
X0111600Y0085951D01*
X0111583Y0085916D01*
X0111564Y0085883D01*
X0111541Y0085852D01*
X0111515Y0085823D01*
X0111486Y0085797D01*
X0111455Y0085774D01*
X0111422Y0085755D01*
X0111387Y0085738D01*
X0111350Y0085725D01*
X0111313Y0085716D01*
X0111275Y0085710D01*
X0111236Y0085708D01*
X0111236Y0085709D02*
X0075803Y0085709D01*
X0071866Y0081772D02*
X0043697Y0081772D01*
X0042339Y0081772D02*
X0042277Y0081774D01*
X0042216Y0081780D01*
X0042155Y0081789D01*
X0042094Y0081803D01*
X0042035Y0081820D01*
X0041977Y0081841D01*
X0041920Y0081866D01*
X0041865Y0081894D01*
X0041812Y0081925D01*
X0041761Y0081960D01*
X0041712Y0081998D01*
X0041665Y0082039D01*
X0041622Y0082082D01*
X0041581Y0082129D01*
X0041543Y0082178D01*
X0041508Y0082229D01*
X0041477Y0082282D01*
X0041449Y0082337D01*
X0041424Y0082394D01*
X0041403Y0082452D01*
X0041386Y0082511D01*
X0041372Y0082572D01*
X0041363Y0082633D01*
X0041357Y0082694D01*
X0041355Y0082756D01*
X0041354Y0082756D02*
X0041354Y0084114D01*
X0041356Y0084020D01*
X0041362Y0083925D01*
X0041371Y0083832D01*
X0041384Y0083738D01*
X0041401Y0083645D01*
X0041422Y0083553D01*
X0041447Y0083462D01*
X0041475Y0083372D01*
X0041506Y0083283D01*
X0041541Y0083196D01*
X0041580Y0083110D01*
X0041622Y0083025D01*
X0041668Y0082943D01*
X0041717Y0082862D01*
X0041769Y0082783D01*
X0041824Y0082706D01*
X0041882Y0082632D01*
X0041943Y0082560D01*
X0042007Y0082491D01*
X0042074Y0082424D01*
X0042143Y0082360D01*
X0042215Y0082299D01*
X0042289Y0082241D01*
X0042366Y0082186D01*
X0042445Y0082134D01*
X0042525Y0082085D01*
X0042608Y0082039D01*
X0042693Y0081997D01*
X0042779Y0081958D01*
X0042866Y0081923D01*
X0042955Y0081892D01*
X0043045Y0081864D01*
X0043136Y0081839D01*
X0043228Y0081818D01*
X0043321Y0081801D01*
X0043415Y0081788D01*
X0043508Y0081779D01*
X0043603Y0081773D01*
X0043697Y0081771D01*
X0032496Y0091614D02*
X0026138Y0091614D01*
X0026040Y0091612D01*
X0025942Y0091606D01*
X0025844Y0091597D01*
X0025747Y0091583D01*
X0025650Y0091566D01*
X0025554Y0091545D01*
X0025459Y0091520D01*
X0025365Y0091492D01*
X0025273Y0091459D01*
X0025181Y0091424D01*
X0025091Y0091384D01*
X0025003Y0091342D01*
X0024916Y0091295D01*
X0024832Y0091246D01*
X0024749Y0091193D01*
X0024669Y0091137D01*
X0024590Y0091077D01*
X0024514Y0091015D01*
X0024441Y0090950D01*
X0024370Y0090882D01*
X0024302Y0090811D01*
X0024237Y0090738D01*
X0024175Y0090662D01*
X0024115Y0090583D01*
X0024059Y0090503D01*
X0024006Y0090420D01*
X0023957Y0090336D01*
X0023910Y0090249D01*
X0023868Y0090161D01*
X0023828Y0090071D01*
X0023793Y0089979D01*
X0023760Y0089887D01*
X0023732Y0089793D01*
X0023707Y0089698D01*
X0023686Y0089602D01*
X0023669Y0089505D01*
X0023655Y0089408D01*
X0023646Y0089310D01*
X0023640Y0089212D01*
X0023638Y0089114D01*
X0063169Y0089114D01*
X0063263Y0089112D01*
X0063356Y0089106D01*
X0063449Y0089097D01*
X0063542Y0089084D01*
X0063634Y0089067D01*
X0063725Y0089046D01*
X0063816Y0089022D01*
X0063905Y0088994D01*
X0063993Y0088963D01*
X0064080Y0088928D01*
X0064166Y0088890D01*
X0064249Y0088848D01*
X0064332Y0088803D01*
X0064412Y0088754D01*
X0064490Y0088702D01*
X0064566Y0088648D01*
X0064639Y0088590D01*
X0064711Y0088529D01*
X0064780Y0088466D01*
X0064846Y0088400D01*
X0064909Y0088331D01*
X0064970Y0088259D01*
X0065028Y0088186D01*
X0065082Y0088110D01*
X0065134Y0088032D01*
X0065183Y0087952D01*
X0065228Y0087869D01*
X0065270Y0087786D01*
X0065308Y0087700D01*
X0065343Y0087613D01*
X0065374Y0087525D01*
X0065402Y0087436D01*
X0065426Y0087345D01*
X0065447Y0087254D01*
X0065464Y0087162D01*
X0065477Y0087069D01*
X0065486Y0086976D01*
X0065492Y0086883D01*
X0065494Y0086789D01*
X0069898Y0091614D02*
X0069896Y0091712D01*
X0069890Y0091810D01*
X0069881Y0091908D01*
X0069867Y0092005D01*
X0069850Y0092102D01*
X0069829Y0092198D01*
X0069804Y0092293D01*
X0069776Y0092387D01*
X0069743Y0092479D01*
X0069708Y0092571D01*
X0069668Y0092661D01*
X0069626Y0092749D01*
X0069579Y0092836D01*
X0069530Y0092920D01*
X0069477Y0093003D01*
X0069421Y0093083D01*
X0069361Y0093162D01*
X0069299Y0093238D01*
X0069234Y0093311D01*
X0069166Y0093382D01*
X0069095Y0093450D01*
X0069022Y0093515D01*
X0068946Y0093577D01*
X0068867Y0093637D01*
X0068787Y0093693D01*
X0068704Y0093746D01*
X0068620Y0093795D01*
X0068533Y0093842D01*
X0068445Y0093884D01*
X0068355Y0093924D01*
X0068263Y0093959D01*
X0068171Y0093992D01*
X0068077Y0094020D01*
X0067982Y0094045D01*
X0067886Y0094066D01*
X0067789Y0094083D01*
X0067692Y0094097D01*
X0067594Y0094106D01*
X0067496Y0094112D01*
X0067398Y0094114D01*
X0041354Y0094114D01*
X0041356Y0094189D01*
X0041362Y0094264D01*
X0041372Y0094339D01*
X0041385Y0094413D01*
X0041403Y0094486D01*
X0041424Y0094558D01*
X0041449Y0094629D01*
X0041478Y0094698D01*
X0041511Y0094766D01*
X0041547Y0094833D01*
X0041586Y0094897D01*
X0041628Y0094959D01*
X0041674Y0095018D01*
X0041723Y0095076D01*
X0041775Y0095130D01*
X0041829Y0095182D01*
X0041887Y0095231D01*
X0041946Y0095277D01*
X0042008Y0095319D01*
X0042073Y0095358D01*
X0042139Y0095394D01*
X0042207Y0095427D01*
X0042276Y0095456D01*
X0042347Y0095481D01*
X0042419Y0095502D01*
X0042492Y0095520D01*
X0042566Y0095533D01*
X0042641Y0095543D01*
X0042716Y0095549D01*
X0042791Y0095551D01*
X0044307Y0095551D01*
X0024012Y0099488D02*
X0023975Y0099486D01*
X0023939Y0099481D01*
X0023903Y0099472D01*
X0023869Y0099460D01*
X0023836Y0099444D01*
X0023804Y0099425D01*
X0023775Y0099403D01*
X0023748Y0099378D01*
X0023723Y0099351D01*
X0023701Y0099322D01*
X0023682Y0099290D01*
X0023666Y0099257D01*
X0023654Y0099223D01*
X0023645Y0099187D01*
X0023640Y0099151D01*
X0023638Y0099114D01*
X0023638Y0102441D01*
X0023636Y0102503D01*
X0023630Y0102564D01*
X0023621Y0102625D01*
X0023607Y0102686D01*
X0023590Y0102745D01*
X0023569Y0102803D01*
X0023544Y0102860D01*
X0023516Y0102915D01*
X0023485Y0102968D01*
X0023450Y0103019D01*
X0023412Y0103068D01*
X0023371Y0103115D01*
X0023328Y0103158D01*
X0023281Y0103199D01*
X0023232Y0103237D01*
X0023181Y0103272D01*
X0023128Y0103303D01*
X0023073Y0103331D01*
X0023016Y0103356D01*
X0022958Y0103377D01*
X0022899Y0103394D01*
X0022838Y0103408D01*
X0022777Y0103417D01*
X0022716Y0103423D01*
X0022654Y0103425D01*
X0024012Y0099488D02*
X0069898Y0099488D01*
X0069897Y0091614D02*
X0069899Y0091462D01*
X0069905Y0091310D01*
X0069915Y0091158D01*
X0069928Y0091007D01*
X0069946Y0090856D01*
X0069967Y0090705D01*
X0069993Y0090555D01*
X0070022Y0090406D01*
X0070055Y0090257D01*
X0070092Y0090110D01*
X0070132Y0089963D01*
X0070177Y0089818D01*
X0070225Y0089674D01*
X0070277Y0089531D01*
X0070332Y0089389D01*
X0070391Y0089249D01*
X0070454Y0089110D01*
X0070520Y0088973D01*
X0070590Y0088838D01*
X0070663Y0088705D01*
X0070740Y0088574D01*
X0070820Y0088444D01*
X0070903Y0088317D01*
X0070989Y0088192D01*
X0071079Y0088069D01*
X0071172Y0087949D01*
X0071268Y0087831D01*
X0071367Y0087715D01*
X0071469Y0087602D01*
X0071573Y0087492D01*
X0071681Y0087384D01*
X0071791Y0087280D01*
X0071904Y0087178D01*
X0072020Y0087079D01*
X0072138Y0086983D01*
X0072258Y0086890D01*
X0072381Y0086800D01*
X0072506Y0086714D01*
X0072633Y0086631D01*
X0072763Y0086551D01*
X0072894Y0086474D01*
X0073027Y0086401D01*
X0073162Y0086331D01*
X0073299Y0086265D01*
X0073438Y0086202D01*
X0073578Y0086143D01*
X0073720Y0086088D01*
X0073863Y0086036D01*
X0074007Y0085988D01*
X0074152Y0085943D01*
X0074299Y0085903D01*
X0074446Y0085866D01*
X0074595Y0085833D01*
X0074744Y0085804D01*
X0074894Y0085778D01*
X0075045Y0085757D01*
X0075196Y0085739D01*
X0075347Y0085726D01*
X0075499Y0085716D01*
X0075651Y0085710D01*
X0075803Y0085708D01*
X0067929Y0154606D02*
X0041728Y0154606D01*
X0041691Y0154608D01*
X0041655Y0154613D01*
X0041619Y0154622D01*
X0041585Y0154634D01*
X0041552Y0154650D01*
X0041520Y0154669D01*
X0041491Y0154691D01*
X0041464Y0154716D01*
X0041439Y0154743D01*
X0041417Y0154772D01*
X0041398Y0154804D01*
X0041382Y0154837D01*
X0041370Y0154871D01*
X0041361Y0154907D01*
X0041356Y0154943D01*
X0041354Y0154980D01*
X0041356Y0154943D01*
X0041361Y0154907D01*
X0041370Y0154871D01*
X0041382Y0154837D01*
X0041398Y0154804D01*
X0041417Y0154772D01*
X0041439Y0154743D01*
X0041464Y0154716D01*
X0041491Y0154691D01*
X0041520Y0154669D01*
X0041552Y0154650D01*
X0041585Y0154634D01*
X0041619Y0154622D01*
X0041655Y0154613D01*
X0041691Y0154608D01*
X0041728Y0154606D01*
X0041355Y0154980D02*
X0041353Y0154886D01*
X0041347Y0154791D01*
X0041338Y0154698D01*
X0041325Y0154604D01*
X0041308Y0154511D01*
X0041287Y0154419D01*
X0041262Y0154328D01*
X0041234Y0154238D01*
X0041203Y0154149D01*
X0041168Y0154062D01*
X0041129Y0153976D01*
X0041087Y0153891D01*
X0041041Y0153809D01*
X0040992Y0153728D01*
X0040940Y0153649D01*
X0040885Y0153572D01*
X0040827Y0153498D01*
X0040766Y0153426D01*
X0040702Y0153357D01*
X0040635Y0153290D01*
X0040566Y0153226D01*
X0040494Y0153165D01*
X0040420Y0153107D01*
X0040343Y0153052D01*
X0040264Y0153000D01*
X0040183Y0152951D01*
X0040101Y0152905D01*
X0040016Y0152863D01*
X0039930Y0152824D01*
X0039843Y0152789D01*
X0039754Y0152758D01*
X0039664Y0152730D01*
X0039573Y0152705D01*
X0039481Y0152684D01*
X0039388Y0152667D01*
X0039294Y0152654D01*
X0039201Y0152645D01*
X0039106Y0152639D01*
X0039012Y0152637D01*
X0039012Y0152638D02*
X0024622Y0152638D01*
X0023638Y0159980D02*
X0067398Y0159980D01*
X0067398Y0159981D02*
X0067442Y0159983D01*
X0067485Y0159988D01*
X0067528Y0159997D01*
X0067570Y0160010D01*
X0067611Y0160026D01*
X0067651Y0160045D01*
X0067688Y0160067D01*
X0067724Y0160093D01*
X0067758Y0160121D01*
X0067789Y0160152D01*
X0067817Y0160186D01*
X0067843Y0160222D01*
X0067865Y0160259D01*
X0067884Y0160299D01*
X0067900Y0160340D01*
X0067913Y0160382D01*
X0067922Y0160425D01*
X0067927Y0160468D01*
X0067929Y0160512D01*
X0067931Y0160636D01*
X0067937Y0160759D01*
X0067946Y0160883D01*
X0067960Y0161005D01*
X0067977Y0161128D01*
X0067999Y0161250D01*
X0068024Y0161371D01*
X0068053Y0161491D01*
X0068085Y0161610D01*
X0068122Y0161729D01*
X0068162Y0161846D01*
X0068205Y0161961D01*
X0068253Y0162076D01*
X0068304Y0162188D01*
X0068358Y0162299D01*
X0068416Y0162409D01*
X0068477Y0162516D01*
X0068542Y0162622D01*
X0068610Y0162725D01*
X0068681Y0162826D01*
X0068755Y0162925D01*
X0068832Y0163022D01*
X0068913Y0163116D01*
X0068996Y0163207D01*
X0069082Y0163296D01*
X0069171Y0163382D01*
X0069262Y0163465D01*
X0069356Y0163546D01*
X0069453Y0163623D01*
X0069552Y0163697D01*
X0069653Y0163768D01*
X0069756Y0163836D01*
X0069862Y0163901D01*
X0069969Y0163962D01*
X0070079Y0164020D01*
X0070190Y0164074D01*
X0070302Y0164125D01*
X0070417Y0164173D01*
X0070532Y0164216D01*
X0070649Y0164256D01*
X0070768Y0164293D01*
X0070887Y0164325D01*
X0071007Y0164354D01*
X0071128Y0164379D01*
X0071250Y0164401D01*
X0071373Y0164418D01*
X0071495Y0164432D01*
X0071619Y0164441D01*
X0071742Y0164447D01*
X0071866Y0164449D01*
X0097457Y0164449D01*
X0097581Y0164451D01*
X0097704Y0164457D01*
X0097828Y0164466D01*
X0097950Y0164480D01*
X0098073Y0164497D01*
X0098195Y0164519D01*
X0098316Y0164544D01*
X0098436Y0164573D01*
X0098555Y0164605D01*
X0098674Y0164642D01*
X0098791Y0164682D01*
X0098906Y0164725D01*
X0099021Y0164773D01*
X0099133Y0164824D01*
X0099244Y0164878D01*
X0099354Y0164936D01*
X0099461Y0164997D01*
X0099567Y0165062D01*
X0099670Y0165130D01*
X0099771Y0165201D01*
X0099870Y0165275D01*
X0099967Y0165352D01*
X0100061Y0165433D01*
X0100152Y0165516D01*
X0100241Y0165602D01*
X0100327Y0165691D01*
X0100410Y0165782D01*
X0100491Y0165876D01*
X0100568Y0165973D01*
X0100642Y0166072D01*
X0100713Y0166173D01*
X0100781Y0166276D01*
X0100846Y0166382D01*
X0100907Y0166489D01*
X0100965Y0166599D01*
X0101019Y0166710D01*
X0101070Y0166822D01*
X0101118Y0166937D01*
X0101161Y0167052D01*
X0101201Y0167169D01*
X0101238Y0167288D01*
X0101270Y0167407D01*
X0101299Y0167527D01*
X0101324Y0167648D01*
X0101346Y0167770D01*
X0101363Y0167893D01*
X0101377Y0168015D01*
X0101386Y0168139D01*
X0101392Y0168262D01*
X0101394Y0168386D01*
X0063992Y0164449D02*
X0041886Y0164449D01*
X0041842Y0164451D01*
X0041799Y0164456D01*
X0041756Y0164465D01*
X0041714Y0164478D01*
X0041673Y0164494D01*
X0041633Y0164513D01*
X0041596Y0164535D01*
X0041560Y0164561D01*
X0041526Y0164589D01*
X0041495Y0164620D01*
X0041467Y0164654D01*
X0041441Y0164690D01*
X0041419Y0164727D01*
X0041400Y0164767D01*
X0041384Y0164808D01*
X0041371Y0164850D01*
X0041362Y0164893D01*
X0041357Y0164936D01*
X0041355Y0164980D01*
X0041354Y0164980D02*
X0041356Y0165055D01*
X0041362Y0165130D01*
X0041372Y0165205D01*
X0041385Y0165279D01*
X0041403Y0165352D01*
X0041424Y0165424D01*
X0041449Y0165495D01*
X0041478Y0165564D01*
X0041511Y0165632D01*
X0041547Y0165699D01*
X0041586Y0165763D01*
X0041628Y0165825D01*
X0041674Y0165884D01*
X0041723Y0165942D01*
X0041775Y0165996D01*
X0041829Y0166048D01*
X0041887Y0166097D01*
X0041946Y0166143D01*
X0042008Y0166185D01*
X0042073Y0166224D01*
X0042139Y0166260D01*
X0042207Y0166293D01*
X0042276Y0166322D01*
X0042347Y0166347D01*
X0042419Y0166368D01*
X0042492Y0166386D01*
X0042566Y0166399D01*
X0042641Y0166409D01*
X0042716Y0166415D01*
X0042791Y0166417D01*
X0044307Y0166417D01*
X0057713Y0169980D02*
X0023638Y0169980D01*
X0023638Y0169981D02*
X0023576Y0169983D01*
X0023515Y0169989D01*
X0023454Y0169998D01*
X0023393Y0170012D01*
X0023334Y0170029D01*
X0023276Y0170050D01*
X0023219Y0170075D01*
X0023164Y0170103D01*
X0023111Y0170134D01*
X0023060Y0170169D01*
X0023011Y0170207D01*
X0022964Y0170248D01*
X0022921Y0170291D01*
X0022880Y0170338D01*
X0022842Y0170387D01*
X0022807Y0170438D01*
X0022776Y0170491D01*
X0022748Y0170546D01*
X0022723Y0170603D01*
X0022702Y0170661D01*
X0022685Y0170720D01*
X0022671Y0170781D01*
X0022662Y0170842D01*
X0022656Y0170903D01*
X0022654Y0170965D01*
X0022654Y0176260D01*
X0026138Y0162480D02*
X0032496Y0162480D01*
X0026138Y0162480D02*
X0026040Y0162478D01*
X0025942Y0162472D01*
X0025844Y0162463D01*
X0025747Y0162449D01*
X0025650Y0162432D01*
X0025554Y0162411D01*
X0025459Y0162386D01*
X0025365Y0162358D01*
X0025273Y0162325D01*
X0025181Y0162290D01*
X0025091Y0162250D01*
X0025003Y0162208D01*
X0024916Y0162161D01*
X0024832Y0162112D01*
X0024749Y0162059D01*
X0024669Y0162003D01*
X0024590Y0161943D01*
X0024514Y0161881D01*
X0024441Y0161816D01*
X0024370Y0161748D01*
X0024302Y0161677D01*
X0024237Y0161604D01*
X0024175Y0161528D01*
X0024115Y0161449D01*
X0024059Y0161369D01*
X0024006Y0161286D01*
X0023957Y0161202D01*
X0023910Y0161115D01*
X0023868Y0161027D01*
X0023828Y0160937D01*
X0023793Y0160845D01*
X0023760Y0160753D01*
X0023732Y0160659D01*
X0023707Y0160564D01*
X0023686Y0160468D01*
X0023669Y0160371D01*
X0023655Y0160274D01*
X0023646Y0160176D01*
X0023640Y0160078D01*
X0023638Y0159980D01*
X0057713Y0169980D02*
X0057843Y0169982D01*
X0057973Y0169988D01*
X0058103Y0169998D01*
X0058233Y0170011D01*
X0058362Y0170029D01*
X0058490Y0170051D01*
X0058618Y0170076D01*
X0058745Y0170105D01*
X0058871Y0170138D01*
X0058996Y0170175D01*
X0059119Y0170216D01*
X0059242Y0170260D01*
X0059363Y0170308D01*
X0059482Y0170360D01*
X0059600Y0170415D01*
X0059716Y0170474D01*
X0059831Y0170536D01*
X0059943Y0170602D01*
X0060054Y0170671D01*
X0060162Y0170743D01*
X0060268Y0170819D01*
X0060372Y0170897D01*
X0060473Y0170979D01*
X0060572Y0171064D01*
X0060668Y0171152D01*
X0060761Y0171243D01*
X0060852Y0171336D01*
X0060940Y0171432D01*
X0061025Y0171531D01*
X0061107Y0171632D01*
X0061185Y0171736D01*
X0061261Y0171842D01*
X0061333Y0171950D01*
X0061402Y0172061D01*
X0061468Y0172173D01*
X0061530Y0172288D01*
X0061589Y0172404D01*
X0061644Y0172522D01*
X0061696Y0172641D01*
X0061744Y0172762D01*
X0061788Y0172885D01*
X0061829Y0173008D01*
X0061866Y0173133D01*
X0061899Y0173259D01*
X0061928Y0173386D01*
X0061953Y0173514D01*
X0061975Y0173642D01*
X0061993Y0173771D01*
X0062006Y0173901D01*
X0062016Y0174031D01*
X0062022Y0174161D01*
X0062024Y0174291D01*
X0232102Y0278622D02*
X0232102Y0295157D01*
X0232104Y0295328D01*
X0232110Y0295499D01*
X0232121Y0295670D01*
X0232135Y0295841D01*
X0232154Y0296011D01*
X0232176Y0296181D01*
X0232203Y0296350D01*
X0232234Y0296519D01*
X0232269Y0296686D01*
X0232308Y0296853D01*
X0232351Y0297019D01*
X0232398Y0297183D01*
X0232449Y0297347D01*
X0232504Y0297509D01*
X0232563Y0297670D01*
X0232625Y0297829D01*
X0232692Y0297987D01*
X0232762Y0298143D01*
X0232836Y0298298D01*
X0232914Y0298450D01*
X0232995Y0298601D01*
X0233080Y0298750D01*
X0233169Y0298896D01*
X0233261Y0299041D01*
X0233357Y0299183D01*
X0233455Y0299323D01*
X0233558Y0299460D01*
X0233663Y0299595D01*
X0233772Y0299727D01*
X0233884Y0299857D01*
X0233999Y0299983D01*
X0234118Y0300107D01*
X0234239Y0300228D01*
X0234363Y0300347D01*
X0234489Y0300462D01*
X0234619Y0300574D01*
X0234751Y0300683D01*
X0234886Y0300788D01*
X0235023Y0300891D01*
X0235163Y0300989D01*
X0235305Y0301085D01*
X0235450Y0301177D01*
X0235596Y0301266D01*
X0235745Y0301351D01*
X0235896Y0301432D01*
X0236048Y0301510D01*
X0236203Y0301584D01*
X0236359Y0301654D01*
X0236517Y0301721D01*
X0236676Y0301783D01*
X0236837Y0301842D01*
X0236999Y0301897D01*
X0237163Y0301948D01*
X0237327Y0301995D01*
X0237493Y0302038D01*
X0237660Y0302077D01*
X0237827Y0302112D01*
X0237996Y0302143D01*
X0238165Y0302170D01*
X0238335Y0302192D01*
X0238505Y0302211D01*
X0238676Y0302225D01*
X0238847Y0302236D01*
X0239018Y0302242D01*
X0239189Y0302244D01*
X0258458Y0302244D01*
X0236827Y0274635D02*
X0236827Y0236102D01*
X0236827Y0216024D01*
X0259268Y0231378D02*
X0259268Y0231772D01*
X0259270Y0231888D01*
X0259276Y0232004D01*
X0259285Y0232119D01*
X0259298Y0232234D01*
X0259315Y0232349D01*
X0259336Y0232463D01*
X0259361Y0232577D01*
X0259389Y0232689D01*
X0259421Y0232800D01*
X0259456Y0232911D01*
X0259495Y0233020D01*
X0259538Y0233128D01*
X0259584Y0233234D01*
X0259633Y0233339D01*
X0259686Y0233442D01*
X0259743Y0233544D01*
X0259802Y0233643D01*
X0259865Y0233740D01*
X0259931Y0233836D01*
X0260000Y0233929D01*
X0260072Y0234020D01*
X0260147Y0234108D01*
X0260225Y0234194D01*
X0260306Y0234277D01*
X0260389Y0234358D01*
X0260475Y0234436D01*
X0260563Y0234511D01*
X0260654Y0234583D01*
X0260747Y0234652D01*
X0260843Y0234718D01*
X0260940Y0234781D01*
X0261040Y0234840D01*
X0261141Y0234897D01*
X0261244Y0234950D01*
X0261349Y0234999D01*
X0261455Y0235045D01*
X0261563Y0235088D01*
X0261672Y0235127D01*
X0261783Y0235162D01*
X0261894Y0235194D01*
X0262006Y0235222D01*
X0262120Y0235247D01*
X0262234Y0235268D01*
X0262349Y0235285D01*
X0262464Y0235298D01*
X0262579Y0235307D01*
X0262695Y0235313D01*
X0262811Y0235315D01*
X0292339Y0235315D01*
X0292338Y0235315D02*
X0292340Y0235229D01*
X0292345Y0235143D01*
X0292355Y0235058D01*
X0292368Y0234973D01*
X0292385Y0234889D01*
X0292405Y0234805D01*
X0292429Y0234723D01*
X0292457Y0234642D01*
X0292488Y0234561D01*
X0292522Y0234483D01*
X0292560Y0234406D01*
X0292602Y0234331D01*
X0292646Y0234257D01*
X0292694Y0234186D01*
X0292745Y0234116D01*
X0292799Y0234049D01*
X0292855Y0233985D01*
X0292915Y0233923D01*
X0292977Y0233863D01*
X0293041Y0233807D01*
X0293108Y0233753D01*
X0293178Y0233702D01*
X0293249Y0233654D01*
X0293323Y0233610D01*
X0293398Y0233568D01*
X0293475Y0233530D01*
X0293553Y0233496D01*
X0293634Y0233465D01*
X0293715Y0233437D01*
X0293797Y0233413D01*
X0293881Y0233393D01*
X0293965Y0233376D01*
X0294050Y0233363D01*
X0294135Y0233353D01*
X0294221Y0233348D01*
X0294307Y0233346D01*
X0319898Y0233346D01*
X0321413Y0233346D01*
X0321488Y0233348D01*
X0321563Y0233354D01*
X0321638Y0233364D01*
X0321712Y0233377D01*
X0321785Y0233395D01*
X0321857Y0233416D01*
X0321928Y0233441D01*
X0321997Y0233470D01*
X0322065Y0233503D01*
X0322132Y0233539D01*
X0322196Y0233578D01*
X0322258Y0233620D01*
X0322317Y0233666D01*
X0322375Y0233715D01*
X0322429Y0233767D01*
X0322481Y0233821D01*
X0322530Y0233879D01*
X0322576Y0233938D01*
X0322618Y0234000D01*
X0322657Y0234065D01*
X0322693Y0234131D01*
X0322726Y0234199D01*
X0322755Y0234268D01*
X0322780Y0234339D01*
X0322801Y0234411D01*
X0322819Y0234484D01*
X0322832Y0234558D01*
X0322842Y0234633D01*
X0322848Y0234708D01*
X0322850Y0234783D01*
X0322848Y0234708D01*
X0322842Y0234633D01*
X0322832Y0234558D01*
X0322819Y0234484D01*
X0322801Y0234411D01*
X0322780Y0234339D01*
X0322755Y0234268D01*
X0322726Y0234199D01*
X0322693Y0234131D01*
X0322657Y0234065D01*
X0322618Y0234000D01*
X0322576Y0233938D01*
X0322530Y0233879D01*
X0322481Y0233821D01*
X0322429Y0233767D01*
X0322375Y0233715D01*
X0322317Y0233666D01*
X0322258Y0233620D01*
X0322196Y0233578D01*
X0322132Y0233539D01*
X0322065Y0233503D01*
X0321997Y0233470D01*
X0321928Y0233441D01*
X0321857Y0233416D01*
X0321785Y0233395D01*
X0321712Y0233377D01*
X0321638Y0233364D01*
X0321563Y0233354D01*
X0321488Y0233348D01*
X0321413Y0233346D01*
X0331709Y0237283D02*
X0338067Y0237283D01*
X0338165Y0237285D01*
X0338263Y0237291D01*
X0338361Y0237300D01*
X0338458Y0237314D01*
X0338555Y0237331D01*
X0338651Y0237352D01*
X0338746Y0237377D01*
X0338840Y0237405D01*
X0338932Y0237438D01*
X0339024Y0237473D01*
X0339114Y0237513D01*
X0339202Y0237555D01*
X0339289Y0237602D01*
X0339373Y0237651D01*
X0339456Y0237704D01*
X0339536Y0237760D01*
X0339615Y0237820D01*
X0339691Y0237882D01*
X0339764Y0237947D01*
X0339835Y0238015D01*
X0339903Y0238086D01*
X0339968Y0238159D01*
X0340030Y0238235D01*
X0340090Y0238314D01*
X0340146Y0238394D01*
X0340199Y0238477D01*
X0340248Y0238561D01*
X0340295Y0238648D01*
X0340337Y0238736D01*
X0340377Y0238826D01*
X0340412Y0238918D01*
X0340445Y0239010D01*
X0340473Y0239104D01*
X0340498Y0239199D01*
X0340519Y0239295D01*
X0340536Y0239392D01*
X0340550Y0239489D01*
X0340559Y0239587D01*
X0340565Y0239685D01*
X0340567Y0239783D01*
X0340566Y0239783D02*
X0340564Y0239739D01*
X0340559Y0239696D01*
X0340550Y0239653D01*
X0340537Y0239611D01*
X0340521Y0239570D01*
X0340502Y0239530D01*
X0340480Y0239493D01*
X0340454Y0239457D01*
X0340426Y0239423D01*
X0340395Y0239392D01*
X0340361Y0239364D01*
X0340325Y0239338D01*
X0340288Y0239316D01*
X0340248Y0239297D01*
X0340207Y0239281D01*
X0340165Y0239268D01*
X0340122Y0239259D01*
X0340079Y0239254D01*
X0340035Y0239252D01*
X0294307Y0239252D01*
X0294307Y0247126D02*
X0319898Y0247126D01*
X0321866Y0247126D02*
X0321866Y0245768D01*
X0322850Y0246142D02*
X0322848Y0246204D01*
X0322842Y0246265D01*
X0322833Y0246326D01*
X0322819Y0246387D01*
X0322802Y0246446D01*
X0322781Y0246504D01*
X0322756Y0246561D01*
X0322728Y0246616D01*
X0322697Y0246669D01*
X0322662Y0246720D01*
X0322624Y0246769D01*
X0322583Y0246816D01*
X0322540Y0246859D01*
X0322493Y0246900D01*
X0322444Y0246938D01*
X0322393Y0246973D01*
X0322340Y0247004D01*
X0322285Y0247032D01*
X0322228Y0247057D01*
X0322170Y0247078D01*
X0322111Y0247095D01*
X0322050Y0247109D01*
X0321989Y0247118D01*
X0321928Y0247124D01*
X0321866Y0247126D01*
X0322850Y0246142D02*
X0322850Y0244783D01*
X0322848Y0244820D01*
X0322843Y0244856D01*
X0322834Y0244892D01*
X0322822Y0244926D01*
X0322806Y0244959D01*
X0322787Y0244991D01*
X0322765Y0245020D01*
X0322740Y0245047D01*
X0322713Y0245072D01*
X0322684Y0245094D01*
X0322652Y0245113D01*
X0322619Y0245129D01*
X0322585Y0245141D01*
X0322549Y0245150D01*
X0322513Y0245155D01*
X0322476Y0245157D01*
X0321866Y0245157D01*
X0321866Y0245768D02*
X0321868Y0245706D01*
X0321874Y0245645D01*
X0321883Y0245584D01*
X0321897Y0245523D01*
X0321914Y0245464D01*
X0321935Y0245406D01*
X0321960Y0245349D01*
X0321988Y0245294D01*
X0322019Y0245241D01*
X0322054Y0245190D01*
X0322092Y0245141D01*
X0322133Y0245094D01*
X0322176Y0245051D01*
X0322223Y0245010D01*
X0322272Y0244972D01*
X0322323Y0244937D01*
X0322376Y0244906D01*
X0322431Y0244878D01*
X0322488Y0244853D01*
X0322546Y0244832D01*
X0322605Y0244815D01*
X0322666Y0244801D01*
X0322727Y0244792D01*
X0322788Y0244786D01*
X0322850Y0244784D01*
X0321867Y0245157D02*
X0321865Y0245243D01*
X0321860Y0245329D01*
X0321850Y0245414D01*
X0321837Y0245499D01*
X0321820Y0245583D01*
X0321800Y0245667D01*
X0321776Y0245749D01*
X0321748Y0245830D01*
X0321717Y0245911D01*
X0321683Y0245989D01*
X0321645Y0246066D01*
X0321603Y0246142D01*
X0321559Y0246215D01*
X0321511Y0246286D01*
X0321460Y0246356D01*
X0321406Y0246423D01*
X0321350Y0246487D01*
X0321290Y0246549D01*
X0321228Y0246609D01*
X0321164Y0246665D01*
X0321097Y0246719D01*
X0321027Y0246770D01*
X0320956Y0246818D01*
X0320883Y0246862D01*
X0320807Y0246904D01*
X0320730Y0246942D01*
X0320652Y0246976D01*
X0320571Y0247007D01*
X0320490Y0247035D01*
X0320408Y0247059D01*
X0320324Y0247079D01*
X0320240Y0247096D01*
X0320155Y0247109D01*
X0320070Y0247119D01*
X0319984Y0247124D01*
X0319898Y0247126D01*
X0338224Y0227440D02*
X0338318Y0227442D01*
X0338413Y0227448D01*
X0338506Y0227457D01*
X0338600Y0227470D01*
X0338693Y0227487D01*
X0338785Y0227508D01*
X0338876Y0227533D01*
X0338966Y0227561D01*
X0339055Y0227592D01*
X0339142Y0227627D01*
X0339228Y0227666D01*
X0339313Y0227708D01*
X0339396Y0227754D01*
X0339476Y0227803D01*
X0339555Y0227855D01*
X0339632Y0227910D01*
X0339706Y0227968D01*
X0339778Y0228029D01*
X0339847Y0228093D01*
X0339914Y0228160D01*
X0339978Y0228229D01*
X0340039Y0228301D01*
X0340097Y0228375D01*
X0340152Y0228452D01*
X0340204Y0228531D01*
X0340253Y0228612D01*
X0340299Y0228694D01*
X0340341Y0228779D01*
X0340380Y0228865D01*
X0340415Y0228952D01*
X0340446Y0229041D01*
X0340474Y0229131D01*
X0340499Y0229222D01*
X0340520Y0229314D01*
X0340537Y0229407D01*
X0340550Y0229501D01*
X0340559Y0229594D01*
X0340565Y0229689D01*
X0340567Y0229783D01*
X0340567Y0228425D01*
X0338224Y0227441D02*
X0294307Y0227441D01*
X0340567Y0228425D02*
X0340569Y0228317D01*
X0340575Y0228209D01*
X0340585Y0228102D01*
X0340598Y0227995D01*
X0340616Y0227889D01*
X0340638Y0227783D01*
X0340663Y0227678D01*
X0340692Y0227574D01*
X0340725Y0227472D01*
X0340762Y0227370D01*
X0340802Y0227270D01*
X0340846Y0227172D01*
X0340894Y0227075D01*
X0340945Y0226980D01*
X0340999Y0226887D01*
X0341057Y0226796D01*
X0341118Y0226707D01*
X0341183Y0226620D01*
X0341250Y0226536D01*
X0341321Y0226454D01*
X0341394Y0226375D01*
X0341470Y0226299D01*
X0341549Y0226226D01*
X0341631Y0226155D01*
X0341715Y0226088D01*
X0341802Y0226023D01*
X0341891Y0225962D01*
X0341982Y0225904D01*
X0342075Y0225850D01*
X0342170Y0225799D01*
X0342267Y0225751D01*
X0342365Y0225707D01*
X0342465Y0225667D01*
X0342567Y0225630D01*
X0342669Y0225597D01*
X0342773Y0225568D01*
X0342878Y0225543D01*
X0342984Y0225521D01*
X0343090Y0225503D01*
X0343197Y0225490D01*
X0343304Y0225480D01*
X0343412Y0225474D01*
X0343520Y0225472D01*
X0341551Y0296339D02*
X0341489Y0296341D01*
X0341428Y0296347D01*
X0341367Y0296356D01*
X0341306Y0296370D01*
X0341247Y0296387D01*
X0341189Y0296408D01*
X0341132Y0296433D01*
X0341077Y0296461D01*
X0341024Y0296492D01*
X0340973Y0296527D01*
X0340924Y0296565D01*
X0340877Y0296606D01*
X0340834Y0296649D01*
X0340793Y0296696D01*
X0340755Y0296745D01*
X0340720Y0296796D01*
X0340689Y0296849D01*
X0340661Y0296904D01*
X0340636Y0296961D01*
X0340615Y0297019D01*
X0340598Y0297078D01*
X0340584Y0297139D01*
X0340575Y0297200D01*
X0340569Y0297261D01*
X0340567Y0297323D01*
X0340567Y0298307D01*
X0290370Y0298307D01*
X0294307Y0304213D02*
X0321866Y0304213D01*
X0321866Y0304212D02*
X0321916Y0304210D01*
X0321966Y0304205D01*
X0322015Y0304195D01*
X0322063Y0304182D01*
X0322110Y0304166D01*
X0322156Y0304146D01*
X0322201Y0304122D01*
X0322243Y0304096D01*
X0322283Y0304066D01*
X0322321Y0304033D01*
X0322356Y0303998D01*
X0322389Y0303960D01*
X0322419Y0303920D01*
X0322445Y0303878D01*
X0322469Y0303833D01*
X0322489Y0303787D01*
X0322505Y0303740D01*
X0322518Y0303692D01*
X0322528Y0303643D01*
X0322533Y0303593D01*
X0322535Y0303543D01*
X0321197Y0303543D01*
X0321127Y0303541D01*
X0321057Y0303535D01*
X0320987Y0303526D01*
X0320918Y0303513D01*
X0320849Y0303496D01*
X0320782Y0303475D01*
X0320716Y0303451D01*
X0320652Y0303423D01*
X0320589Y0303392D01*
X0320527Y0303357D01*
X0320468Y0303319D01*
X0320411Y0303278D01*
X0320356Y0303234D01*
X0320304Y0303187D01*
X0320254Y0303137D01*
X0320207Y0303085D01*
X0320163Y0303030D01*
X0320122Y0302973D01*
X0320084Y0302914D01*
X0320049Y0302852D01*
X0320018Y0302789D01*
X0319990Y0302725D01*
X0319966Y0302659D01*
X0319945Y0302592D01*
X0319928Y0302523D01*
X0319915Y0302454D01*
X0319906Y0302384D01*
X0319900Y0302314D01*
X0319898Y0302244D01*
X0322535Y0303543D02*
X0322535Y0305335D01*
X0322537Y0305368D01*
X0322542Y0305400D01*
X0322550Y0305432D01*
X0322562Y0305463D01*
X0322577Y0305493D01*
X0322595Y0305520D01*
X0322616Y0305546D01*
X0322639Y0305569D01*
X0322665Y0305590D01*
X0322693Y0305608D01*
X0322722Y0305623D01*
X0322753Y0305635D01*
X0322785Y0305643D01*
X0322817Y0305648D01*
X0322850Y0305650D01*
X0331709Y0308150D02*
X0338067Y0308150D01*
X0338165Y0308152D01*
X0338263Y0308158D01*
X0338361Y0308167D01*
X0338458Y0308181D01*
X0338555Y0308198D01*
X0338651Y0308219D01*
X0338746Y0308244D01*
X0338840Y0308272D01*
X0338932Y0308305D01*
X0339024Y0308340D01*
X0339114Y0308380D01*
X0339202Y0308422D01*
X0339289Y0308469D01*
X0339373Y0308518D01*
X0339456Y0308571D01*
X0339536Y0308627D01*
X0339615Y0308687D01*
X0339691Y0308749D01*
X0339764Y0308814D01*
X0339835Y0308882D01*
X0339903Y0308953D01*
X0339968Y0309026D01*
X0340030Y0309102D01*
X0340090Y0309181D01*
X0340146Y0309261D01*
X0340199Y0309344D01*
X0340248Y0309428D01*
X0340295Y0309515D01*
X0340337Y0309603D01*
X0340377Y0309693D01*
X0340412Y0309785D01*
X0340445Y0309877D01*
X0340473Y0309971D01*
X0340498Y0310066D01*
X0340519Y0310162D01*
X0340536Y0310259D01*
X0340550Y0310356D01*
X0340559Y0310454D01*
X0340565Y0310552D01*
X0340567Y0310650D01*
X0340565Y0310666D01*
X0340561Y0310682D01*
X0340553Y0310696D01*
X0340543Y0310709D01*
X0340530Y0310719D01*
X0340516Y0310727D01*
X0340500Y0310731D01*
X0340484Y0310733D01*
X0340484Y0310732D02*
X0297945Y0310732D01*
X0294307Y0317992D02*
X0319898Y0317992D01*
X0321866Y0317992D02*
X0321866Y0316634D01*
X0321866Y0316024D02*
X0322476Y0316024D01*
X0322513Y0316022D01*
X0322549Y0316017D01*
X0322585Y0316008D01*
X0322619Y0315996D01*
X0322652Y0315980D01*
X0322684Y0315961D01*
X0322713Y0315939D01*
X0322740Y0315914D01*
X0322765Y0315887D01*
X0322787Y0315858D01*
X0322806Y0315826D01*
X0322822Y0315793D01*
X0322834Y0315759D01*
X0322843Y0315723D01*
X0322848Y0315687D01*
X0322850Y0315650D01*
X0322788Y0315652D01*
X0322727Y0315658D01*
X0322666Y0315667D01*
X0322605Y0315681D01*
X0322546Y0315698D01*
X0322488Y0315719D01*
X0322431Y0315744D01*
X0322376Y0315772D01*
X0322323Y0315803D01*
X0322272Y0315838D01*
X0322223Y0315876D01*
X0322176Y0315917D01*
X0322133Y0315960D01*
X0322092Y0316007D01*
X0322054Y0316056D01*
X0322019Y0316107D01*
X0321988Y0316160D01*
X0321960Y0316215D01*
X0321935Y0316272D01*
X0321914Y0316330D01*
X0321897Y0316389D01*
X0321883Y0316450D01*
X0321874Y0316511D01*
X0321868Y0316572D01*
X0321866Y0316634D01*
X0321867Y0316024D02*
X0321865Y0316110D01*
X0321860Y0316196D01*
X0321850Y0316281D01*
X0321837Y0316366D01*
X0321820Y0316450D01*
X0321800Y0316534D01*
X0321776Y0316616D01*
X0321748Y0316697D01*
X0321717Y0316778D01*
X0321683Y0316856D01*
X0321645Y0316933D01*
X0321603Y0317009D01*
X0321559Y0317082D01*
X0321511Y0317153D01*
X0321460Y0317223D01*
X0321406Y0317290D01*
X0321350Y0317354D01*
X0321290Y0317416D01*
X0321228Y0317476D01*
X0321164Y0317532D01*
X0321097Y0317586D01*
X0321027Y0317637D01*
X0320956Y0317685D01*
X0320883Y0317729D01*
X0320807Y0317771D01*
X0320730Y0317809D01*
X0320652Y0317843D01*
X0320571Y0317874D01*
X0320490Y0317902D01*
X0320408Y0317926D01*
X0320324Y0317946D01*
X0320240Y0317963D01*
X0320155Y0317976D01*
X0320070Y0317986D01*
X0319984Y0317991D01*
X0319898Y0317993D01*
X0340567Y0300650D02*
X0340567Y0298307D01*
D17*
X0282043Y0300000D02*
X0282043Y0290000D01*
X0272043Y0290000D01*
X0272043Y0300000D02*
X0282043Y0300000D01*
X0272043Y0300000D02*
X0272043Y0317028D01*
X0272044Y0317028D02*
X0272042Y0317089D01*
X0272036Y0317149D01*
X0272027Y0317209D01*
X0272014Y0317268D01*
X0271997Y0317326D01*
X0271976Y0317383D01*
X0271952Y0317439D01*
X0271925Y0317493D01*
X0271894Y0317545D01*
X0271860Y0317595D01*
X0271823Y0317643D01*
X0271782Y0317689D01*
X0271740Y0317731D01*
X0271694Y0317772D01*
X0271646Y0317809D01*
X0271596Y0317843D01*
X0271544Y0317874D01*
X0271490Y0317901D01*
X0271434Y0317925D01*
X0271377Y0317946D01*
X0271319Y0317963D01*
X0271260Y0317976D01*
X0271200Y0317985D01*
X0271140Y0317991D01*
X0271079Y0317993D01*
X0188402Y0289252D02*
X0188402Y0288071D01*
X0188402Y0265630D01*
X0188402Y0250276D01*
X0181315Y0245551D02*
X0181315Y0257362D01*
X0181315Y0273898D01*
X0181315Y0289252D01*
X0188401Y0289252D02*
X0188397Y0289566D01*
X0188386Y0289880D01*
X0188367Y0290193D01*
X0188340Y0290506D01*
X0188306Y0290818D01*
X0188265Y0291129D01*
X0188216Y0291439D01*
X0188159Y0291748D01*
X0188095Y0292055D01*
X0188023Y0292361D01*
X0187945Y0292665D01*
X0187859Y0292967D01*
X0187765Y0293267D01*
X0187665Y0293564D01*
X0187557Y0293859D01*
X0187442Y0294151D01*
X0187320Y0294441D01*
X0187191Y0294727D01*
X0187055Y0295010D01*
X0186913Y0295290D01*
X0186764Y0295566D01*
X0186608Y0295838D01*
X0186445Y0296107D01*
X0186276Y0296372D01*
X0186101Y0296632D01*
X0185920Y0296889D01*
X0185732Y0297140D01*
X0185539Y0297387D01*
X0185339Y0297630D01*
X0185134Y0297867D01*
X0184923Y0298100D01*
X0184706Y0298327D01*
X0184484Y0298549D01*
X0184257Y0298766D01*
X0184024Y0298977D01*
X0183787Y0299182D01*
X0183544Y0299382D01*
X0183297Y0299575D01*
X0183046Y0299763D01*
X0182789Y0299944D01*
X0182529Y0300119D01*
X0182264Y0300288D01*
X0181995Y0300451D01*
X0181723Y0300607D01*
X0181447Y0300756D01*
X0181167Y0300898D01*
X0180884Y0301034D01*
X0180598Y0301163D01*
X0180308Y0301285D01*
X0180016Y0301400D01*
X0179721Y0301508D01*
X0179424Y0301608D01*
X0179124Y0301702D01*
X0178822Y0301788D01*
X0178518Y0301866D01*
X0178212Y0301938D01*
X0177905Y0302002D01*
X0177596Y0302059D01*
X0177286Y0302108D01*
X0176975Y0302149D01*
X0176663Y0302183D01*
X0176350Y0302210D01*
X0176037Y0302229D01*
X0175723Y0302240D01*
X0175409Y0302244D01*
X0148244Y0302244D01*
X0181315Y0245551D02*
X0181315Y0226654D01*
X0188402Y0225472D02*
X0188402Y0234921D01*
X0188402Y0225472D02*
X0188402Y0193583D01*
X0181315Y0200669D02*
X0181315Y0216024D01*
X0188402Y0166417D02*
X0204937Y0166417D01*
X0204543Y0158543D02*
X0181709Y0158543D01*
X0188402Y0128622D02*
X0188402Y0125079D01*
X0188405Y0124822D01*
X0188414Y0124565D01*
X0188430Y0124309D01*
X0188452Y0124053D01*
X0188480Y0123798D01*
X0188514Y0123543D01*
X0188554Y0123289D01*
X0188600Y0123037D01*
X0188652Y0122785D01*
X0188711Y0122535D01*
X0188775Y0122286D01*
X0188846Y0122039D01*
X0188922Y0121794D01*
X0189005Y0121551D01*
X0189093Y0121310D01*
X0189187Y0121070D01*
X0189286Y0120834D01*
X0189392Y0120600D01*
X0189503Y0120368D01*
X0189620Y0120139D01*
X0189742Y0119913D01*
X0189869Y0119690D01*
X0190002Y0119470D01*
X0190140Y0119254D01*
X0190284Y0119040D01*
X0190432Y0118831D01*
X0190586Y0118625D01*
X0190744Y0118423D01*
X0190907Y0118224D01*
X0191075Y0118030D01*
X0191248Y0117840D01*
X0191425Y0117654D01*
X0191607Y0117472D01*
X0191793Y0117295D01*
X0191983Y0117122D01*
X0192177Y0116954D01*
X0192376Y0116791D01*
X0192578Y0116633D01*
X0192784Y0116479D01*
X0192993Y0116331D01*
X0193207Y0116187D01*
X0193423Y0116049D01*
X0193643Y0115916D01*
X0193866Y0115789D01*
X0194092Y0115667D01*
X0194321Y0115550D01*
X0194553Y0115439D01*
X0194787Y0115333D01*
X0195023Y0115234D01*
X0195263Y0115140D01*
X0195504Y0115052D01*
X0195747Y0114969D01*
X0195992Y0114893D01*
X0196239Y0114822D01*
X0196488Y0114758D01*
X0196738Y0114699D01*
X0196990Y0114647D01*
X0197242Y0114601D01*
X0197496Y0114561D01*
X0197751Y0114527D01*
X0198006Y0114499D01*
X0198262Y0114477D01*
X0198518Y0114461D01*
X0198775Y0114452D01*
X0199032Y0114449D01*
X0232102Y0114449D01*
X0232273Y0114447D01*
X0232444Y0114441D01*
X0232615Y0114430D01*
X0232786Y0114416D01*
X0232956Y0114397D01*
X0233126Y0114375D01*
X0233295Y0114348D01*
X0233464Y0114317D01*
X0233631Y0114282D01*
X0233798Y0114243D01*
X0233964Y0114200D01*
X0234128Y0114153D01*
X0234292Y0114102D01*
X0234454Y0114047D01*
X0234615Y0113988D01*
X0234774Y0113926D01*
X0234932Y0113859D01*
X0235088Y0113789D01*
X0235243Y0113715D01*
X0235395Y0113637D01*
X0235546Y0113556D01*
X0235695Y0113471D01*
X0235841Y0113382D01*
X0235986Y0113290D01*
X0236128Y0113194D01*
X0236268Y0113096D01*
X0236405Y0112993D01*
X0236540Y0112888D01*
X0236672Y0112779D01*
X0236802Y0112667D01*
X0236928Y0112552D01*
X0237052Y0112433D01*
X0237173Y0112312D01*
X0237292Y0112188D01*
X0237407Y0112062D01*
X0237519Y0111932D01*
X0237628Y0111800D01*
X0237733Y0111665D01*
X0237836Y0111528D01*
X0237934Y0111388D01*
X0238030Y0111246D01*
X0238122Y0111101D01*
X0238211Y0110955D01*
X0238296Y0110806D01*
X0238377Y0110655D01*
X0238455Y0110503D01*
X0238529Y0110348D01*
X0238599Y0110192D01*
X0238666Y0110034D01*
X0238728Y0109875D01*
X0238787Y0109714D01*
X0238842Y0109552D01*
X0238893Y0109388D01*
X0238940Y0109224D01*
X0238983Y0109058D01*
X0239022Y0108891D01*
X0239057Y0108724D01*
X0239088Y0108555D01*
X0239115Y0108386D01*
X0239137Y0108216D01*
X0239156Y0108046D01*
X0239170Y0107875D01*
X0239181Y0107704D01*
X0239187Y0107533D01*
X0239189Y0107362D01*
X0239189Y0106181D01*
X0239194Y0105781D01*
X0239208Y0105382D01*
X0239232Y0104983D01*
X0239266Y0104585D01*
X0239310Y0104188D01*
X0239363Y0103792D01*
X0239425Y0103397D01*
X0239497Y0103004D01*
X0239579Y0102613D01*
X0239669Y0102224D01*
X0239770Y0101837D01*
X0239879Y0101453D01*
X0239998Y0101071D01*
X0240126Y0100693D01*
X0240264Y0100318D01*
X0240410Y0099946D01*
X0240565Y0099578D01*
X0240729Y0099213D01*
X0240902Y0098853D01*
X0241083Y0098497D01*
X0241273Y0098145D01*
X0241471Y0097798D01*
X0241678Y0097456D01*
X0241893Y0097120D01*
X0242116Y0096788D01*
X0242347Y0096462D01*
X0242586Y0096142D01*
X0242832Y0095827D01*
X0243086Y0095519D01*
X0243347Y0095216D01*
X0243616Y0094920D01*
X0243892Y0094631D01*
X0244174Y0094349D01*
X0244463Y0094073D01*
X0244759Y0093804D01*
X0245062Y0093543D01*
X0245370Y0093289D01*
X0245685Y0093043D01*
X0246005Y0092804D01*
X0246331Y0092573D01*
X0246663Y0092350D01*
X0246999Y0092135D01*
X0247341Y0091928D01*
X0247688Y0091730D01*
X0248040Y0091540D01*
X0248396Y0091359D01*
X0248756Y0091186D01*
X0249121Y0091022D01*
X0249489Y0090867D01*
X0249861Y0090721D01*
X0250236Y0090583D01*
X0250614Y0090455D01*
X0250996Y0090336D01*
X0251380Y0090227D01*
X0251767Y0090126D01*
X0252156Y0090036D01*
X0252547Y0089954D01*
X0252940Y0089882D01*
X0253335Y0089820D01*
X0253731Y0089767D01*
X0254128Y0089723D01*
X0254526Y0089689D01*
X0254925Y0089665D01*
X0255324Y0089651D01*
X0255724Y0089646D01*
X0271689Y0089646D01*
X0272043Y0090000D02*
X0282043Y0090000D01*
D18*
X0239189Y0132953D03*
X0221472Y0174685D03*
X0181315Y0147520D03*
X0169504Y0142795D03*
X0162417Y0146339D03*
X0152969Y0126260D03*
X0111630Y0086102D03*
X0105724Y0115630D03*
X0154150Y0171142D03*
X0169504Y0175866D03*
X0163598Y0195945D03*
X0144701Y0198307D03*
X0151787Y0223110D03*
X0145882Y0245551D03*
X0181315Y0257362D03*
X0188402Y0265630D03*
X0181315Y0273898D03*
X0188402Y0288071D03*
X0232102Y0278622D03*
X0236827Y0236102D03*
X0236827Y0216024D03*
X0259268Y0231378D03*
X0188402Y0225472D03*
X0181315Y0226654D03*
X0142339Y0293976D03*
X0123441Y0293976D03*
X0116354Y0308150D03*
M02*
